<svg width="24" height="24" viewBox="0 0 24 24" fill="none" xmlns="http://www.w3.org/2000/svg">
<g filter="url(#filter0_dd_18630_2674)">
<path d="M10.2929 6.29289C10.6834 5.90237 11.3164 5.90237 11.707 6.29289C12.0975 6.68342 12.0975 7.31643 11.707 7.70696L8.41399 10.9999H17.9999C18.5522 10.9999 18.9999 11.4476 18.9999 11.9999C18.9999 12.5522 18.5522 12.9999 17.9999 12.9999H8.41399L11.707 16.2929L11.7753 16.3691C12.0957 16.7618 12.0731 17.3408 11.707 17.707C11.3408 18.0731 10.7618 18.0957 10.3691 17.7753L10.2929 17.707L5.29289 12.707C4.90237 12.3164 4.90237 11.6834 5.29289 11.2929L10.2929 6.29289Z" fill="white"/>
</g>
<defs>
<filter id="filter0_dd_18630_2674" x="-1" y="-2" width="26" height="28" filterUnits="userSpaceOnUse" color-interpolation-filters="sRGB">
<feFlood flood-opacity="0" result="BackgroundImageFix"/>
<feColorMatrix in="SourceAlpha" type="matrix" values="0 0 0 0 0 0 0 0 0 0 0 0 0 0 0 0 0 0 127 0" result="hardAlpha"/>
<feOffset dy="1"/>
<feGaussianBlur stdDeviation="0.5"/>
<feComposite in2="hardAlpha" operator="out"/>
<feColorMatrix type="matrix" values="0 0 0 0 0 0 0 0 0 0 0 0 0 0 0 0 0 0 0.25 0"/>
<feBlend mode="normal" in2="BackgroundImageFix" result="effect1_dropShadow_18630_2674"/>
<feColorMatrix in="SourceAlpha" type="matrix" values="0 0 0 0 0 0 0 0 0 0 0 0 0 0 0 0 0 0 127 0" result="hardAlpha"/>
<feOffset dy="-1"/>
<feGaussianBlur stdDeviation="0.5"/>
<feComposite in2="hardAlpha" operator="out"/>
<feColorMatrix type="matrix" values="0 0 0 0 1 0 0 0 0 1 0 0 0 0 1 0 0 0 0.25 0"/>
<feBlend mode="normal" in2="effect1_dropShadow_18630_2674" result="effect2_dropShadow_18630_2674"/>
<feBlend mode="normal" in="SourceGraphic" in2="effect2_dropShadow_18630_2674" result="shape"/>
</filter>
</defs>
</svg>
