<svg width="414" height="280" viewBox="0 0 414 280" fill="none" xmlns="http://www.w3.org/2000/svg">
<rect x="0.941406" y="0.453125" width="412.559" height="278.859" rx="10.696" fill="white"/>
<rect x="1.56935" y="1.08107" width="411.303" height="277.603" rx="10.068" stroke="black" stroke-opacity="0.12" stroke-width="1.25589"/>
<path d="M16.2867 26.6772V18.4673H13.3163V16.9134H21.0312V18.4673H18.0745V26.6772H16.2867ZM23.0482 26.8423C22.2781 26.8423 21.6592 26.6681 21.1917 26.3197C20.7241 25.9621 20.4903 25.4671 20.4903 24.8345C20.4903 24.2019 20.6874 23.7068 21.0817 23.3493C21.4759 22.9917 22.0764 22.735 22.8832 22.5792L25.3173 22.0978C25.3173 21.5753 25.1981 21.1856 24.9597 20.9289C24.7213 20.6631 24.3684 20.5301 23.9008 20.5301C23.4791 20.5301 23.1445 20.631 22.8969 20.8327C22.6585 21.0252 22.4935 21.3048 22.4018 21.6715L20.6141 21.589C20.7608 20.8097 21.1183 20.2138 21.6867 19.8013C22.2552 19.3795 22.9932 19.1687 23.9008 19.1687C24.946 19.1687 25.7344 19.4345 26.2661 19.9663C26.8071 20.4889 27.0775 21.2406 27.0775 22.2216V24.8895C27.0775 25.082 27.1096 25.215 27.1738 25.2883C27.2471 25.3616 27.3526 25.3983 27.4901 25.3983H27.7239V26.6772C27.6688 26.6956 27.5772 26.7093 27.4488 26.7185C27.3296 26.7277 27.2059 26.7323 27.0775 26.7323C26.775 26.7323 26.5045 26.6864 26.2661 26.5947C26.0278 26.4939 25.8444 26.3243 25.7161 26.0859C25.5877 25.8384 25.5235 25.5037 25.5235 25.082L25.6748 25.192C25.6015 25.5129 25.441 25.8017 25.1935 26.0584C24.9551 26.3059 24.6526 26.4985 24.2859 26.636C23.9191 26.7735 23.5066 26.8423 23.0482 26.8423ZM23.4057 25.5633C23.8 25.5633 24.1392 25.4854 24.4234 25.3296C24.7076 25.1737 24.9276 24.9583 25.0835 24.6832C25.2393 24.4082 25.3173 24.0827 25.3173 23.7068V23.2943L23.4195 23.6793C23.0253 23.7618 22.7411 23.8856 22.5669 24.0506C22.4018 24.2065 22.3193 24.4128 22.3193 24.6695C22.3193 24.9537 22.411 25.1737 22.5944 25.3296C22.7869 25.4854 23.0574 25.5633 23.4057 25.5633ZM31.4955 26.8423C30.7713 26.8423 30.1616 26.7368 29.6665 26.526C29.1806 26.3151 28.8047 26.0217 28.5389 25.6458C28.273 25.27 28.1217 24.8437 28.0851 24.3669L29.8866 24.2844C29.9507 24.6695 30.1112 24.9674 30.3679 25.1783C30.6246 25.3891 31.0051 25.4946 31.5093 25.4946C31.9219 25.4946 32.2427 25.4304 32.4719 25.302C32.7103 25.1645 32.8295 24.9537 32.8295 24.6695C32.8295 24.5044 32.7882 24.3669 32.7057 24.2569C32.6232 24.1469 32.4674 24.0506 32.2382 23.9681C32.009 23.8856 31.6697 23.8031 31.2205 23.7206C30.4687 23.5922 29.8774 23.4364 29.4465 23.253C29.0156 23.0605 28.7085 22.8221 28.5251 22.5379C28.3509 22.2537 28.2638 21.9007 28.2638 21.479C28.2638 20.7914 28.5251 20.2367 29.0477 19.815C29.5794 19.3841 30.3541 19.1687 31.3718 19.1687C32.0319 19.1687 32.5865 19.2787 33.0358 19.4987C33.485 19.7096 33.8334 20.003 34.0809 20.3788C34.3376 20.7456 34.4981 21.1673 34.5622 21.644L32.7882 21.7265C32.7424 21.479 32.6599 21.2636 32.5407 21.0802C32.4215 20.8968 32.2611 20.7593 32.0594 20.6676C31.8577 20.5668 31.6193 20.5164 31.3443 20.5164C30.9317 20.5164 30.62 20.5989 30.4091 20.7639C30.1983 20.9289 30.0928 21.149 30.0928 21.424C30.0928 21.6165 30.1387 21.777 30.2304 21.9053C30.3312 22.0337 30.4917 22.1391 30.7117 22.2216C30.9317 22.295 31.2251 22.3637 31.5918 22.4279C32.3619 22.5471 32.967 22.7029 33.4071 22.8955C33.8563 23.0788 34.1726 23.3172 34.356 23.6106C34.5485 23.8948 34.6447 24.2386 34.6447 24.642C34.6447 25.1095 34.5118 25.5083 34.2459 25.8384C33.9892 26.1684 33.6225 26.4205 33.1458 26.5947C32.6782 26.7598 32.1281 26.8423 31.4955 26.8423ZM35.7435 26.6772V16.9134H37.5038V22.6479L40.5154 19.3337H42.6882L39.8141 22.3866L42.7845 26.6772H40.8042L38.6589 23.4318L37.5038 24.6557V26.6772H35.7435ZM51.2318 26.8973C50.3425 26.8973 49.5586 26.6956 48.8802 26.2922C48.2017 25.8796 47.67 25.2975 47.2849 24.5457C46.8999 23.7847 46.7074 22.8725 46.7074 21.8091C46.7074 20.7639 46.8953 19.8609 47.2712 19.0999C47.6471 18.3298 48.1742 17.7385 48.8527 17.3259C49.5311 16.9042 50.3287 16.6933 51.2455 16.6933C52.4924 16.6933 53.4596 17.005 54.1472 17.6285C54.8348 18.2427 55.284 19.1045 55.4949 20.2138L53.6246 20.3101C53.5054 19.6683 53.2487 19.1641 52.8545 18.7974C52.4603 18.4307 51.9239 18.2473 51.2455 18.2473C50.6954 18.2473 50.2187 18.394 49.8153 18.6874C49.4119 18.9807 49.1002 19.3933 48.8802 19.925C48.6601 20.4568 48.5501 21.0848 48.5501 21.8091C48.5501 22.5425 48.6601 23.1751 48.8802 23.7068C49.1094 24.2294 49.4257 24.6328 49.8291 24.917C50.2325 25.2012 50.7 25.3433 51.2318 25.3433C51.956 25.3433 52.5153 25.1462 52.9095 24.752C53.3129 24.3486 53.5696 23.7985 53.6796 23.1017L55.5499 23.198C55.4215 23.9589 55.174 24.619 54.8073 25.1783C54.4406 25.7284 53.9547 26.1547 53.3496 26.4572C52.7536 26.7506 52.0477 26.8973 51.2318 26.8973ZM59.8246 26.8423C59.1003 26.8423 58.4631 26.6864 57.9131 26.3747C57.3722 26.0538 56.9504 25.6046 56.6479 25.027C56.3545 24.4494 56.2078 23.7756 56.2078 23.0055C56.2078 22.2262 56.3545 21.5523 56.6479 20.9839C56.9504 20.4064 57.3722 19.9617 57.9131 19.65C58.4631 19.3291 59.1003 19.1687 59.8246 19.1687C60.5489 19.1687 61.1814 19.3291 61.7224 19.65C62.2633 19.9617 62.6804 20.4064 62.9738 20.9839C63.2763 21.5523 63.4276 22.2262 63.4276 23.0055C63.4276 23.7756 63.2763 24.4494 62.9738 25.027C62.6804 25.6046 62.2633 26.0538 61.7224 26.3747C61.1814 26.6864 60.5489 26.8423 59.8246 26.8423ZM59.8246 25.4121C60.393 25.4121 60.8285 25.2012 61.131 24.7795C61.4427 24.3577 61.5986 23.7664 61.5986 23.0055C61.5986 22.2537 61.4427 21.6669 61.131 21.2452C60.8285 20.8143 60.393 20.5989 59.8246 20.5989C59.2562 20.5989 58.8161 20.8143 58.5044 21.2452C58.1927 21.6669 58.0368 22.2537 58.0368 23.0055C58.0368 23.7664 58.1927 24.3577 58.5044 24.7795C58.8161 25.2012 59.2562 25.4121 59.8246 25.4121ZM64.5109 26.6772V19.3337H66.1061L66.1611 21.1352L65.9961 21.0527C66.0786 20.6585 66.2207 20.3238 66.4224 20.0488C66.6333 19.7646 66.8854 19.5491 67.1788 19.4025C67.4813 19.2466 67.8114 19.1687 68.1689 19.1687C68.7923 19.1687 69.2966 19.3474 69.6816 19.705C70.0667 20.0534 70.3096 20.5347 70.4105 21.149H70.1767C70.2592 20.7181 70.4013 20.3605 70.603 20.0763C70.8047 19.7829 71.0568 19.5583 71.3594 19.4025C71.6711 19.2466 72.0195 19.1687 72.4045 19.1687C72.9088 19.1687 73.3442 19.2787 73.711 19.4987C74.0777 19.7096 74.3573 20.0213 74.5498 20.4339C74.7515 20.8464 74.8524 21.3552 74.8524 21.9603V26.6772H73.0921V22.4141C73.0921 21.8091 72.9867 21.3552 72.7758 21.0527C72.5741 20.7501 72.2624 20.5989 71.8407 20.5989C71.5565 20.5989 71.3135 20.6722 71.1118 20.8189C70.9101 20.9656 70.7543 21.181 70.6443 21.4653C70.5434 21.7403 70.493 22.0749 70.493 22.4691V26.6772H68.8565V22.4691C68.8565 21.8641 68.7648 21.4011 68.5815 21.0802C68.3981 20.7593 68.0818 20.5989 67.6326 20.5989C67.3484 20.5989 67.1054 20.6722 66.9037 20.8189C66.7112 20.9656 66.5554 21.181 66.4362 21.4653C66.3262 21.7403 66.2711 22.0749 66.2711 22.4691V26.6772H64.5109ZM76.2688 28.74V19.3337H77.9603L78.0016 20.9014L77.8228 20.8189C78.0062 20.278 78.3041 19.87 78.7167 19.595C79.1384 19.3108 79.6289 19.1687 80.1881 19.1687C80.8849 19.1687 81.4625 19.3429 81.9209 19.6912C82.3884 20.0396 82.7368 20.5026 82.966 21.0802C83.1952 21.6578 83.3098 22.2995 83.3098 23.0055C83.3098 23.7114 83.1906 24.3532 82.9523 24.9307C82.7231 25.5083 82.3747 25.9713 81.9071 26.3197C81.4487 26.6681 80.8711 26.8423 80.1744 26.8423C79.8077 26.8423 79.4639 26.7781 79.143 26.6497C78.8313 26.5214 78.5608 26.338 78.3316 26.0997C78.1116 25.8613 77.9557 25.5817 77.864 25.2608L78.0291 25.1233V28.74H76.2688ZM79.7618 25.4121C80.2936 25.4121 80.7107 25.2012 81.0132 24.7795C81.325 24.3486 81.4808 23.7572 81.4808 23.0055C81.4808 22.2537 81.325 21.6669 81.0132 21.2452C80.7107 20.8143 80.2936 20.5989 79.7618 20.5989C79.4043 20.5989 79.0971 20.6906 78.8404 20.8739C78.5837 21.0481 78.382 21.314 78.2354 21.6715C78.0978 22.0291 78.0291 22.4737 78.0291 23.0055C78.0291 23.5372 78.0978 23.9819 78.2354 24.3394C78.3729 24.697 78.57 24.9674 78.8267 25.1508C79.0926 25.325 79.4043 25.4121 79.7618 25.4121ZM86.2281 26.6772C85.6964 26.6772 85.2701 26.5397 84.9492 26.2647C84.6283 25.9896 84.4679 25.5496 84.4679 24.9445V16.9134H86.2281V24.7657C86.2281 24.9491 86.274 25.0866 86.3657 25.1783C86.4665 25.27 86.604 25.3158 86.7782 25.3158H87.3146V26.6772H86.2281ZM91.3447 26.8423C90.6113 26.8423 89.9741 26.6864 89.4332 26.3747C88.8923 26.0538 88.4752 25.6046 88.1818 25.027C87.8884 24.4494 87.7417 23.7756 87.7417 23.0055C87.7417 22.2354 87.8884 21.5661 88.1818 20.9977C88.4752 20.4201 88.8877 19.9709 89.4195 19.65C89.9604 19.3291 90.5884 19.1687 91.3035 19.1687C92.0002 19.1687 92.6099 19.3245 93.1325 19.6362C93.6642 19.948 94.0722 20.3972 94.3564 20.9839C94.6406 21.5707 94.7827 22.2766 94.7827 23.1017V23.5005H89.5707C89.6074 24.1423 89.7816 24.6282 90.0933 24.9583C90.4142 25.2791 90.8359 25.4396 91.3585 25.4396C91.7527 25.4396 92.0782 25.3525 92.3349 25.1783C92.6007 24.9949 92.7841 24.7428 92.885 24.4219L94.6865 24.5319C94.4848 25.247 94.086 25.8109 93.49 26.2234C92.9033 26.636 92.1882 26.8423 91.3447 26.8423ZM89.5707 22.3179H92.9675C92.9308 21.722 92.7612 21.2819 92.4586 20.9977C92.1561 20.7043 91.771 20.5576 91.3035 20.5576C90.8359 20.5576 90.4463 20.7089 90.1346 21.0114C89.832 21.314 89.6441 21.7495 89.5707 22.3179ZM98.5714 26.6772C97.838 26.6772 97.297 26.5076 96.9487 26.1684C96.6094 25.8292 96.4398 25.2975 96.4398 24.5732V17.6147H98.2001V24.4082C98.2001 24.7474 98.2734 24.9858 98.4201 25.1233C98.5668 25.2516 98.796 25.3158 99.1077 25.3158H100.139V26.6772H98.5714ZM95.2847 20.6951V19.3337H100.139V20.6951H95.2847ZM101.155 26.6772V19.3337H102.915V26.6772H101.155ZM101.128 18.3573V16.7896H102.957V18.3573H101.128ZM107.629 26.8423C106.905 26.8423 106.268 26.6864 105.718 26.3747C105.177 26.0538 104.755 25.6046 104.453 25.027C104.159 24.4494 104.013 23.7756 104.013 23.0055C104.013 22.2262 104.159 21.5523 104.453 20.9839C104.755 20.4064 105.177 19.9617 105.718 19.65C106.268 19.3291 106.905 19.1687 107.629 19.1687C108.354 19.1687 108.986 19.3291 109.527 19.65C110.068 19.9617 110.485 20.4064 110.779 20.9839C111.081 21.5523 111.232 22.2262 111.232 23.0055C111.232 23.7756 111.081 24.4494 110.779 25.027C110.485 25.6046 110.068 26.0538 109.527 26.3747C108.986 26.6864 108.354 26.8423 107.629 26.8423ZM107.629 25.4121C108.198 25.4121 108.633 25.2012 108.936 24.7795C109.247 24.3577 109.403 23.7664 109.403 23.0055C109.403 22.2537 109.247 21.6669 108.936 21.2452C108.633 20.8143 108.198 20.5989 107.629 20.5989C107.061 20.5989 106.621 20.8143 106.309 21.2452C105.997 21.6669 105.842 22.2537 105.842 23.0055C105.842 23.7664 105.997 24.3577 106.309 24.7795C106.621 25.2012 107.061 25.4121 107.629 25.4121ZM112.316 26.6772V19.3337H113.911L113.98 21.3965L113.773 21.314C113.847 20.8006 113.998 20.388 114.227 20.0763C114.456 19.7646 114.736 19.5354 115.066 19.3887C115.396 19.242 115.758 19.1687 116.152 19.1687C116.693 19.1687 117.147 19.2879 117.514 19.5262C117.89 19.7646 118.174 20.0946 118.366 20.5164C118.559 20.9289 118.655 21.4102 118.655 21.9603V26.6772H116.895V22.5242C116.895 22.1116 116.854 21.7632 116.771 21.479C116.689 21.1948 116.551 20.9793 116.359 20.8327C116.175 20.6768 115.928 20.5989 115.616 20.5989C115.149 20.5989 114.773 20.7639 114.488 21.0939C114.213 21.424 114.076 21.9007 114.076 22.5242V26.6772H112.316ZM127.552 26.8973C126.589 26.8973 125.759 26.6956 125.063 26.2922C124.366 25.8796 123.829 25.2929 123.454 24.5319C123.087 23.771 122.903 22.8634 122.903 21.8091C122.903 20.7547 123.087 19.8471 123.454 19.0862C123.829 18.3161 124.366 17.7247 125.063 17.3122C125.759 16.8996 126.589 16.6933 127.552 16.6933C128.533 16.6933 129.367 16.8996 130.054 17.3122C130.751 17.7247 131.283 18.3161 131.65 19.0862C132.026 19.8471 132.214 20.7547 132.214 21.8091C132.214 22.8634 132.026 23.771 131.65 24.5319C131.283 25.2929 130.751 25.8796 130.054 26.2922C129.367 26.6956 128.533 26.8973 127.552 26.8973ZM127.552 25.3433C128.148 25.3433 128.652 25.2058 129.064 24.9307C129.486 24.6465 129.807 24.2431 130.027 23.7206C130.256 23.1888 130.371 22.5517 130.371 21.8091C130.371 21.0664 130.256 20.4293 130.027 19.8975C129.807 19.3658 129.486 18.9578 129.064 18.6736C128.652 18.3894 128.148 18.2473 127.552 18.2473C126.974 18.2473 126.474 18.3894 126.053 18.6736C125.631 18.9578 125.305 19.3658 125.076 19.8975C124.856 20.4293 124.746 21.0664 124.746 21.8091C124.746 22.5517 124.856 23.1888 125.076 23.7206C125.305 24.2431 125.631 24.6465 126.053 24.9307C126.474 25.2058 126.974 25.3433 127.552 25.3433ZM135.241 26.6772L132.559 19.3337H134.416L136.286 24.9032L138.156 19.3337H140.013L137.331 26.6772H135.241ZM143.776 26.8423C143.043 26.8423 142.406 26.6864 141.865 26.3747C141.324 26.0538 140.907 25.6046 140.613 25.027C140.32 24.4494 140.173 23.7756 140.173 23.0055C140.173 22.2354 140.32 21.5661 140.613 20.9977C140.907 20.4201 141.319 19.9709 141.851 19.65C142.392 19.3291 143.02 19.1687 143.735 19.1687C144.432 19.1687 145.041 19.3245 145.564 19.6362C146.096 19.948 146.504 20.3972 146.788 20.9839C147.072 21.5707 147.214 22.2766 147.214 23.1017V23.5005H142.002C142.039 24.1423 142.213 24.6282 142.525 24.9583C142.846 25.2791 143.267 25.4396 143.79 25.4396C144.184 25.4396 144.51 25.3525 144.766 25.1783C145.032 24.9949 145.216 24.7428 145.316 24.4219L147.118 24.5319C146.916 25.247 146.517 25.8109 145.922 26.2234C145.335 26.636 144.62 26.8423 143.776 26.8423ZM142.002 22.3179H145.399C145.362 21.722 145.193 21.2819 144.89 20.9977C144.588 20.7043 144.203 20.5576 143.735 20.5576C143.267 20.5576 142.878 20.7089 142.566 21.0114C142.264 21.314 142.076 21.7495 142.002 22.3179ZM148.315 26.6772V19.3337H149.965L150.034 21.369L149.883 21.3415C149.993 20.6356 150.199 20.1267 150.502 19.815C150.813 19.4941 151.235 19.3337 151.767 19.3337H152.441V20.8464H151.753C151.377 20.8464 151.066 20.9014 150.818 21.0114C150.57 21.1215 150.383 21.2956 150.254 21.534C150.135 21.7632 150.075 22.0658 150.075 22.4416V26.6772H148.315ZM158.801 26.6772V18.4673H155.831V16.9134H163.546V18.4673H160.589V26.6772H158.801ZM164.089 26.6772V19.3337H165.849V26.6772H164.089ZM164.062 18.3573V16.7896H165.891V18.3573H164.062ZM167.615 26.6772V19.3337H169.21L169.265 21.1352L169.1 21.0527C169.182 20.6585 169.324 20.3238 169.526 20.0488C169.737 19.7646 169.989 19.5491 170.282 19.4025C170.585 19.2466 170.915 19.1687 171.273 19.1687C171.896 19.1687 172.4 19.3474 172.785 19.705C173.17 20.0534 173.413 20.5347 173.514 21.149H173.28C173.363 20.7181 173.505 20.3605 173.707 20.0763C173.908 19.7829 174.161 19.5583 174.463 19.4025C174.775 19.2466 175.123 19.1687 175.508 19.1687C176.012 19.1687 176.448 19.2787 176.815 19.4987C177.181 19.7096 177.461 20.0213 177.654 20.4339C177.855 20.8464 177.956 21.3552 177.956 21.9603V26.6772H176.196V22.4141C176.196 21.8091 176.09 21.3552 175.88 21.0527C175.678 20.7501 175.366 20.5989 174.944 20.5989C174.66 20.5989 174.417 20.6722 174.216 20.8189C174.014 20.9656 173.858 21.181 173.748 21.4653C173.647 21.7403 173.597 22.0749 173.597 22.4691V26.6772H171.96V22.4691C171.96 21.8641 171.869 21.4011 171.685 21.0802C171.502 20.7593 171.186 20.5989 170.736 20.5989C170.452 20.5989 170.209 20.6722 170.007 20.8189C169.815 20.9656 169.659 21.181 169.54 21.4653C169.43 21.7403 169.375 22.0749 169.375 22.4691V26.6772H167.615ZM182.603 26.8423C181.87 26.8423 181.232 26.6864 180.691 26.3747C180.151 26.0538 179.733 25.6046 179.44 25.027C179.147 24.4494 179 23.7756 179 23.0055C179 22.2354 179.147 21.5661 179.44 20.9977C179.733 20.4201 180.146 19.9709 180.678 19.65C181.219 19.3291 181.847 19.1687 182.562 19.1687C183.258 19.1687 183.868 19.3245 184.391 19.6362C184.922 19.948 185.33 20.3972 185.615 20.9839C185.899 21.5707 186.041 22.2766 186.041 23.1017V23.5005H180.829C180.866 24.1423 181.04 24.6282 181.352 24.9583C181.672 25.2791 182.094 25.4396 182.617 25.4396C183.011 25.4396 183.336 25.3525 183.593 25.1783C183.859 24.9949 184.042 24.7428 184.143 24.4219L185.945 24.5319C185.743 25.247 185.344 25.8109 184.748 26.2234C184.162 26.636 183.446 26.8423 182.603 26.8423ZM180.829 22.3179H184.226C184.189 21.722 184.019 21.2819 183.717 20.9977C183.414 20.7043 183.029 20.5576 182.562 20.5576C182.094 20.5576 181.705 20.7089 181.393 21.0114C181.09 21.314 180.902 21.7495 180.829 22.3179Z" fill="black"/>
<g filter="url(#filter0_d_17161_72789)">
<rect x="346.269" y="12.6772" width="24.4479" height="24.4479" rx="4.58399" fill="white"/>
<rect x="346.651" y="13.0592" width="23.6839" height="23.6839" rx="4.20199" stroke="#EDF1F1" stroke-width="0.763998"/>
<path d="M362.79 24.9011C362.79 25.0277 362.74 25.1492 362.65 25.2387C362.561 25.3283 362.439 25.3786 362.313 25.3786H354.673C354.546 25.3786 354.425 25.3283 354.335 25.2387C354.245 25.1492 354.195 25.0277 354.195 24.9011C354.195 24.7744 354.245 24.653 354.335 24.5634C354.425 24.4739 354.546 24.4236 354.673 24.4236H362.313C362.439 24.4236 362.561 24.4739 362.65 24.5634C362.74 24.653 362.79 24.7744 362.79 24.9011ZM364.7 21.5586H352.285C352.158 21.5586 352.037 21.6089 351.947 21.6984C351.858 21.788 351.808 21.9095 351.808 22.0361C351.808 22.1627 351.858 22.2842 351.947 22.3737C352.037 22.4633 352.158 22.5136 352.285 22.5136H364.7C364.827 22.5136 364.948 22.4633 365.038 22.3737C365.127 22.2842 365.178 22.1627 365.178 22.0361C365.178 21.9095 365.127 21.788 365.038 21.6984C364.948 21.6089 364.827 21.5586 364.7 21.5586ZM359.925 27.2886H357.06C356.933 27.2886 356.812 27.3389 356.722 27.4284C356.633 27.518 356.583 27.6394 356.583 27.7661C356.583 27.8927 356.633 28.0142 356.722 28.1037C356.812 28.1933 356.933 28.2436 357.06 28.2436H359.925C360.052 28.2436 360.173 28.1933 360.263 28.1037C360.352 28.0142 360.403 27.8927 360.403 27.7661C360.403 27.6394 360.352 27.518 360.263 27.4284C360.173 27.3389 360.052 27.2886 359.925 27.2886Z" fill="#4F7471"/>
</g>
<g filter="url(#filter1_d_17161_72789)">
<rect x="376.828" y="12.6772" width="24.4479" height="24.4479" rx="4.58399" fill="white"/>
<rect x="377.21" y="13.0592" width="23.6839" height="23.6839" rx="4.20199" stroke="#EDF1F1" stroke-width="0.763998"/>
<path d="M389.768 24.9015C389.768 25.0431 389.726 25.1816 389.648 25.2994C389.569 25.4172 389.457 25.509 389.326 25.5632C389.195 25.6174 389.051 25.6316 388.912 25.6039C388.774 25.5763 388.646 25.5081 388.546 25.4079C388.446 25.3077 388.377 25.1801 388.35 25.0412C388.322 24.9022 388.336 24.7582 388.39 24.6274C388.445 24.4965 388.536 24.3846 388.654 24.3059C388.772 24.2272 388.911 24.1852 389.052 24.1852C389.242 24.1852 389.424 24.2607 389.559 24.395C389.693 24.5293 389.768 24.7115 389.768 24.9015ZM389.052 21.559C389.194 21.559 389.332 21.517 389.45 21.4383C389.568 21.3595 389.66 21.2477 389.714 21.1168C389.768 20.9859 389.782 20.8419 389.755 20.703C389.727 20.564 389.659 20.4364 389.559 20.3362C389.458 20.2361 389.331 20.1679 389.192 20.1402C389.053 20.1126 388.909 20.1268 388.778 20.181C388.647 20.2352 388.535 20.327 388.457 20.4448C388.378 20.5626 388.336 20.7011 388.336 20.8427C388.336 21.0327 388.411 21.2149 388.546 21.3492C388.68 21.4835 388.862 21.559 389.052 21.559ZM389.052 28.2439C388.911 28.2439 388.772 28.2859 388.654 28.3647C388.536 28.4434 388.445 28.5552 388.39 28.6861C388.336 28.817 388.322 28.961 388.35 29.0999C388.377 29.2389 388.446 29.3665 388.546 29.4667C388.646 29.5668 388.774 29.635 388.912 29.6627C389.051 29.6903 389.195 29.6761 389.326 29.6219C389.457 29.5677 389.569 29.4759 389.648 29.3581C389.726 29.2403 389.768 29.1018 389.768 28.9602C389.768 28.7702 389.693 28.588 389.559 28.4537C389.424 28.3194 389.242 28.2439 389.052 28.2439Z" fill="#4F7471"/>
</g>
<line x1="13.165" y1="47.4388" x2="401.276" y2="47.4388" stroke="#95ACAA" stroke-width="0.763998" stroke-dasharray="1.53 5.35"/>
<g clip-path="url(#clip0_17161_72789)">
<line x1="39.9043" y1="97.0994" x2="394.399" y2="97.0994" stroke="#EDF1F1" stroke-width="0.763998"/>
<line x1="39.9043" y1="133.007" x2="394.399" y2="133.007" stroke="#EDF1F1" stroke-width="0.763998"/>
<line x1="39.9043" y1="168.915" x2="394.399" y2="168.915" stroke="#EDF1F1" stroke-width="0.763998"/>
<line x1="39.9043" y1="204.823" x2="394.399" y2="204.823" stroke="#EDF1F1" stroke-width="0.763998"/>
<line x1="39.9043" y1="240.731" x2="394.399" y2="240.731" stroke="#EDF1F1" stroke-width="0.763998"/>
<path d="M39.9043 182.11V237.773V238.057H401.275V161.355L359.037 159.365L316.799 147.905L274.561 173.539L237.016 176.979L199.172 172.286L147.846 161.355L108.283 170.527L63.3699 159.365L39.9043 182.11Z" fill="#E6EBFF"/>
<path d="M39.9043 215.661V237.773V238.057H401.275V154.399L359.037 173.499L316.799 178.465L274.561 199.218L232.323 189.925L190.084 206.022L147.846 189.925L105.608 199.218H63.3699L39.9043 215.661Z" fill="#6687FF"/>
<path d="M55.5363 259.033V251.439H58.2638C59.1765 251.439 59.8646 251.603 60.3281 251.931C60.7916 252.259 61.0233 252.779 61.0233 253.492C61.0233 253.813 60.9556 254.095 60.8201 254.337C60.6846 254.58 60.4849 254.772 60.2211 254.915C59.9644 255.05 59.6578 255.122 59.3013 255.129L59.2906 255.086C59.9395 255.1 60.4422 255.278 60.7987 255.621C61.1624 255.956 61.3442 256.398 61.3442 256.947C61.3442 257.639 61.1124 258.159 60.649 258.509C60.1855 258.858 59.5259 259.033 58.6702 259.033H55.5363ZM56.6914 257.995H58.6381C59.1159 257.995 59.4867 257.899 59.7505 257.706C60.0215 257.507 60.1569 257.218 60.1569 256.84C60.1569 256.469 60.0215 256.18 59.7505 255.974C59.4867 255.767 59.1159 255.663 58.6381 255.663H56.6914V257.995ZM56.6914 254.679H58.2424C58.7486 254.679 59.1408 254.583 59.4189 254.391C59.697 254.198 59.8361 253.927 59.8361 253.578C59.8361 253.207 59.7006 252.932 59.4296 252.754C59.1658 252.569 58.77 252.476 58.2424 252.476H56.6914V254.679ZM64.1857 259.161C63.5939 259.161 63.1197 259.026 62.7632 258.755C62.4138 258.484 62.2391 258.102 62.2391 257.61C62.2391 257.118 62.3852 256.737 62.6776 256.466C62.9771 256.188 63.437 255.988 64.0574 255.867L66.0147 255.492C66.0147 255.05 65.9113 254.722 65.7046 254.508C65.4978 254.287 65.1911 254.177 64.7847 254.177C64.421 254.177 64.1358 254.259 63.929 254.423C63.7222 254.58 63.5796 254.815 63.5012 255.129L62.3353 255.054C62.4423 254.483 62.7061 254.034 63.1268 253.706C63.5547 253.378 64.1073 253.214 64.7847 253.214C65.5548 253.214 66.1395 253.421 66.5388 253.834C66.9453 254.241 67.1485 254.815 67.1485 255.557V257.771C67.1485 257.906 67.1699 258.002 67.2127 258.059C67.2626 258.109 67.341 258.134 67.448 258.134H67.6512V259.033C67.6156 259.04 67.5585 259.047 67.4801 259.054C67.4016 259.061 67.3196 259.065 67.2341 259.065C66.9916 259.065 66.7813 259.026 66.603 258.947C66.4319 258.869 66.3035 258.74 66.218 258.562C66.1324 258.377 66.0896 258.131 66.0896 257.824L66.2073 257.878C66.1502 258.127 66.0254 258.348 65.8329 258.541C65.6475 258.733 65.4086 258.887 65.1163 259.001C64.831 259.108 64.5209 259.161 64.1857 259.161ZM64.3676 258.263C64.7098 258.263 65.0022 258.198 65.2446 258.07C65.4871 257.935 65.676 257.749 65.8115 257.514C65.947 257.279 66.0147 257.011 66.0147 256.712V256.348L64.3462 256.669C64.0039 256.733 63.7615 256.836 63.6188 256.979C63.4834 257.115 63.4156 257.289 63.4156 257.503C63.4156 257.746 63.4976 257.935 63.6616 258.07C63.8328 258.198 64.0681 258.263 64.3676 258.263ZM70.8022 259.161C70.2603 259.161 69.7861 259.04 69.3796 258.797C68.9732 258.555 68.6594 258.209 68.4384 257.76C68.2173 257.311 68.1068 256.787 68.1068 256.188C68.1068 255.589 68.2173 255.068 68.4384 254.626C68.6594 254.177 68.9732 253.831 69.3796 253.588C69.7861 253.339 70.2603 253.214 70.8022 253.214C71.2657 253.214 71.6757 253.296 72.0322 253.46C72.3959 253.617 72.6882 253.849 72.9093 254.155C73.1375 254.462 73.2836 254.836 73.3478 255.278L72.1606 255.343C72.1035 254.972 71.9538 254.69 71.7113 254.498C71.4689 254.298 71.1658 254.198 70.8022 254.198C70.3244 254.198 69.9501 254.376 69.6791 254.733C69.4153 255.082 69.2834 255.567 69.2834 256.188C69.2834 256.808 69.4153 257.296 69.6791 257.653C69.9501 258.002 70.3244 258.177 70.8022 258.177C71.1658 258.177 71.4689 258.077 71.7113 257.878C71.9538 257.671 72.1035 257.361 72.1606 256.947L73.3478 257.011C73.2836 257.446 73.1375 257.824 72.9093 258.145C72.6882 258.466 72.3959 258.715 72.0322 258.894C71.6757 259.072 71.2657 259.161 70.8022 259.161ZM74.2753 259.033V251.439H75.4091V256.155L77.9654 253.342H79.3987L77.1739 255.738L79.4842 259.033H78.1793L76.4145 256.444L75.4091 257.514V259.033H74.2753ZM81.4987 259.033C81.1279 259.033 80.8284 258.936 80.6002 258.744C80.372 258.551 80.2579 258.245 80.2579 257.824V251.439H81.3917V257.717C81.3917 257.845 81.4238 257.942 81.488 258.006C81.5593 258.07 81.6591 258.102 81.7874 258.102H82.2367V259.033H81.4987ZM85.4389 259.161C84.897 259.161 84.4228 259.04 84.0164 258.797C83.6099 258.555 83.2962 258.209 83.0751 257.76C82.8541 257.311 82.7436 256.787 82.7436 256.188C82.7436 255.581 82.8541 255.057 83.0751 254.615C83.2962 254.173 83.6099 253.831 84.0164 253.588C84.4228 253.339 84.897 253.214 85.4389 253.214C85.9809 253.214 86.4551 253.339 86.8615 253.588C87.268 253.831 87.5817 254.173 87.8028 254.615C88.0238 255.057 88.1343 255.581 88.1343 256.188C88.1343 256.787 88.0238 257.311 87.8028 257.76C87.5817 258.209 87.268 258.555 86.8615 258.797C86.4551 259.04 85.9809 259.161 85.4389 259.161ZM85.4389 258.177C85.9238 258.177 86.2982 258.002 86.562 257.653C86.8259 257.296 86.9578 256.808 86.9578 256.188C86.9578 255.567 86.8259 255.082 86.562 254.733C86.2982 254.376 85.9238 254.198 85.4389 254.198C84.9612 254.198 84.5868 254.376 84.3159 254.733C84.052 255.082 83.9201 255.567 83.9201 256.188C83.9201 256.808 84.052 257.296 84.3159 257.653C84.5868 258.002 84.9612 258.177 85.4389 258.177ZM91.4621 260.765C91.0129 260.765 90.6171 260.698 90.2749 260.562C89.9326 260.427 89.6509 260.234 89.4299 259.985C89.2088 259.742 89.0591 259.457 88.9807 259.129L90.1572 259.054C90.2356 259.289 90.3711 259.475 90.5637 259.61C90.7633 259.753 91.0628 259.824 91.4621 259.824C91.9327 259.824 92.2928 259.724 92.5424 259.525C92.7991 259.325 92.9275 259.022 92.9275 258.616V257.792C92.792 258.084 92.5745 258.316 92.275 258.487C91.9755 258.658 91.6404 258.744 91.2696 258.744C90.7918 258.744 90.3676 258.626 89.9968 258.391C89.626 258.156 89.3372 257.831 89.1304 257.418C88.9236 257.004 88.8202 256.526 88.8202 255.984C88.8202 255.435 88.92 254.954 89.1197 254.54C89.3265 254.127 89.6117 253.802 89.9754 253.567C90.3462 253.332 90.7633 253.214 91.2268 253.214C91.6333 253.214 91.9898 253.307 92.2964 253.492C92.6102 253.678 92.8348 253.927 92.9703 254.241V253.342H94.0612V258.583C94.0612 259.054 93.9543 259.45 93.7404 259.771C93.5336 260.099 93.2341 260.345 92.8419 260.509C92.4568 260.68 91.9969 260.765 91.4621 260.765ZM91.4514 257.781C91.8935 257.781 92.2465 257.621 92.5103 257.3C92.7813 256.979 92.9203 256.537 92.9275 255.974C92.9346 255.603 92.8776 255.286 92.7563 255.022C92.6351 254.751 92.4604 254.544 92.2322 254.401C92.0112 254.252 91.7509 254.177 91.4514 254.177C90.9879 254.177 90.6278 254.341 90.3711 254.669C90.1216 254.99 89.9968 255.425 89.9968 255.974C89.9968 256.53 90.1251 256.972 90.3818 257.3C90.6457 257.621 91.0022 257.781 91.4514 257.781Z" fill="#72908D"/>
<path d="M134.588 259.033V252.497H132.256V251.439H138.075V252.497H135.743V259.033H134.588ZM140.388 259.161C139.846 259.161 139.372 259.04 138.966 258.797C138.559 258.555 138.245 258.209 138.024 257.76C137.803 257.311 137.693 256.787 137.693 256.188C137.693 255.581 137.803 255.057 138.024 254.615C138.245 254.173 138.559 253.831 138.966 253.588C139.372 253.339 139.846 253.214 140.388 253.214C140.93 253.214 141.404 253.339 141.811 253.588C142.217 253.831 142.531 254.173 142.752 254.615C142.973 255.057 143.084 255.581 143.084 256.188C143.084 256.787 142.973 257.311 142.752 257.76C142.531 258.209 142.217 258.555 141.811 258.797C141.404 259.04 140.93 259.161 140.388 259.161ZM140.388 258.177C140.873 258.177 141.247 258.002 141.511 257.653C141.775 257.296 141.907 256.808 141.907 256.188C141.907 255.567 141.775 255.082 141.511 254.733C141.247 254.376 140.873 254.198 140.388 254.198C139.91 254.198 139.536 254.376 139.265 254.733C139.001 255.082 138.869 255.567 138.869 256.188C138.869 256.808 139.001 257.296 139.265 257.653C139.536 258.002 139.91 258.177 140.388 258.177ZM146.838 259.033V251.439H149.277C150.468 251.439 151.384 251.77 152.026 252.433C152.668 253.089 152.989 254.027 152.989 255.246C152.989 256.459 152.671 257.393 152.037 258.049C151.409 258.705 150.511 259.033 149.341 259.033H146.838ZM147.994 257.974H149.277C150.119 257.974 150.746 257.749 151.16 257.3C151.58 256.844 151.791 256.159 151.791 255.246C151.791 254.319 151.58 253.631 151.16 253.182C150.746 252.726 150.119 252.497 149.277 252.497H147.994V257.974ZM156.623 259.161C156.081 259.161 155.607 259.04 155.201 258.797C154.794 258.555 154.48 258.209 154.259 257.76C154.038 257.311 153.928 256.787 153.928 256.188C153.928 255.581 154.038 255.057 154.259 254.615C154.48 254.173 154.794 253.831 155.201 253.588C155.607 253.339 156.081 253.214 156.623 253.214C157.165 253.214 157.639 253.339 158.046 253.588C158.452 253.831 158.766 254.173 158.987 254.615C159.208 255.057 159.319 255.581 159.319 256.188C159.319 256.787 159.208 257.311 158.987 257.76C158.766 258.209 158.452 258.555 158.046 258.797C157.639 259.04 157.165 259.161 156.623 259.161ZM156.623 258.177C157.108 258.177 157.482 258.002 157.746 257.653C158.01 257.296 158.142 256.808 158.142 256.188C158.142 255.567 158.01 255.082 157.746 254.733C157.482 254.376 157.108 254.198 156.623 254.198C156.145 254.198 155.771 254.376 155.5 254.733C155.236 255.082 155.104 255.567 155.104 256.188C155.104 256.808 155.236 257.296 155.5 257.653C155.771 258.002 156.145 258.177 156.623 258.177Z" fill="#72908D"/>
<path d="M190.258 259.033V251.439H191.413V259.033H190.258ZM193.125 259.033V253.342H194.162L194.205 254.861L194.066 254.786C194.13 254.416 194.251 254.116 194.43 253.888C194.608 253.66 194.825 253.492 195.082 253.385C195.339 253.271 195.617 253.214 195.916 253.214C196.344 253.214 196.697 253.31 196.975 253.503C197.26 253.688 197.474 253.945 197.617 254.273C197.767 254.594 197.842 254.961 197.842 255.375V259.033H196.708V255.717C196.708 255.382 196.672 255.1 196.601 254.872C196.53 254.644 196.412 254.469 196.248 254.348C196.084 254.227 195.87 254.166 195.606 254.166C195.207 254.166 194.882 254.298 194.633 254.562C194.383 254.826 194.258 255.211 194.258 255.717V259.033H193.125ZM201.949 259.033V251.439H204.783C205.653 251.439 206.33 251.649 206.815 252.07C207.3 252.483 207.543 253.061 207.543 253.802C207.543 254.294 207.432 254.722 207.211 255.086C206.99 255.442 206.673 255.717 206.259 255.909C205.853 256.095 205.361 256.188 204.783 256.188H203.104V259.033H201.949ZM203.104 255.139H204.751C205.272 255.139 205.667 255.029 205.938 254.808C206.209 254.58 206.345 254.244 206.345 253.802C206.345 253.367 206.209 253.043 205.938 252.829C205.667 252.608 205.272 252.497 204.751 252.497H203.104V255.139ZM208.66 259.033V253.342H209.697L209.74 254.851L209.644 254.819C209.722 254.305 209.879 253.931 210.114 253.695C210.357 253.46 210.681 253.342 211.088 253.342H211.633V254.359H211.088C210.803 254.359 210.564 254.405 210.371 254.498C210.179 254.59 210.032 254.733 209.933 254.925C209.84 255.118 209.794 255.368 209.794 255.674V259.033H208.66ZM214.676 259.161C214.134 259.161 213.66 259.04 213.254 258.797C212.847 258.555 212.534 258.209 212.313 257.76C212.092 257.311 211.981 256.787 211.981 256.188C211.981 255.581 212.092 255.057 212.313 254.615C212.534 254.173 212.847 253.831 213.254 253.588C213.66 253.339 214.134 253.214 214.676 253.214C215.218 253.214 215.693 253.339 216.099 253.588C216.505 253.831 216.819 254.173 217.04 254.615C217.261 255.057 217.372 255.581 217.372 256.188C217.372 256.787 217.261 257.311 217.04 257.76C216.819 258.209 216.505 258.555 216.099 258.797C215.693 259.04 215.218 259.161 214.676 259.161ZM214.676 258.177C215.161 258.177 215.536 258.002 215.799 257.653C216.063 257.296 216.195 256.808 216.195 256.188C216.195 255.567 216.063 255.082 215.799 254.733C215.536 254.376 215.161 254.198 214.676 254.198C214.199 254.198 213.824 254.376 213.553 254.733C213.29 255.082 213.158 255.567 213.158 256.188C213.158 256.808 213.29 257.296 213.553 257.653C213.824 258.002 214.199 258.177 214.676 258.177ZM220.7 260.765C220.25 260.765 219.855 260.698 219.512 260.562C219.17 260.427 218.888 260.234 218.667 259.985C218.446 259.742 218.297 259.457 218.218 259.129L219.395 259.054C219.473 259.289 219.609 259.475 219.801 259.61C220.001 259.753 220.3 259.824 220.7 259.824C221.17 259.824 221.53 259.724 221.78 259.525C222.037 259.325 222.165 259.022 222.165 258.616V257.792C222.029 258.084 221.812 258.316 221.512 258.487C221.213 258.658 220.878 258.744 220.507 258.744C220.029 258.744 219.605 258.626 219.234 258.391C218.863 258.156 218.575 257.831 218.368 257.418C218.161 257.004 218.058 256.526 218.058 255.984C218.058 255.435 218.158 254.954 218.357 254.54C218.564 254.127 218.849 253.802 219.213 253.567C219.584 253.332 220.001 253.214 220.464 253.214C220.871 253.214 221.227 253.307 221.534 253.492C221.848 253.678 222.072 253.927 222.208 254.241V253.342H223.299V258.583C223.299 259.054 223.192 259.45 222.978 259.771C222.771 260.099 222.472 260.345 222.079 260.509C221.694 260.68 221.234 260.765 220.7 260.765ZM220.689 257.781C221.131 257.781 221.484 257.621 221.748 257.3C222.019 256.979 222.158 256.537 222.165 255.974C222.172 255.603 222.115 255.286 221.994 255.022C221.873 254.751 221.698 254.544 221.47 254.401C221.249 254.252 220.988 254.177 220.689 254.177C220.225 254.177 219.865 254.341 219.609 254.669C219.359 254.99 219.234 255.425 219.234 255.974C219.234 256.53 219.363 256.972 219.619 257.3C219.883 257.621 220.24 257.781 220.689 257.781ZM224.801 259.033V253.342H225.838L225.881 254.851L225.785 254.819C225.863 254.305 226.02 253.931 226.255 253.695C226.498 253.46 226.822 253.342 227.229 253.342H227.774V254.359H227.229C226.943 254.359 226.705 254.405 226.512 254.498C226.319 254.59 226.173 254.733 226.073 254.925C225.981 255.118 225.934 255.368 225.934 255.674V259.033H224.801ZM230.817 259.161C230.261 259.161 229.78 259.04 229.373 258.797C228.974 258.555 228.664 258.209 228.443 257.76C228.229 257.311 228.122 256.787 228.122 256.188C228.122 255.589 228.229 255.068 228.443 254.626C228.664 254.177 228.974 253.831 229.373 253.588C229.773 253.339 230.243 253.214 230.785 253.214C231.299 253.214 231.751 253.335 232.144 253.578C232.536 253.813 232.839 254.155 233.053 254.605C233.274 255.054 233.384 255.596 233.384 256.23V256.519H229.298C229.327 257.075 229.473 257.492 229.737 257.771C230.008 258.049 230.372 258.188 230.828 258.188C231.163 258.188 231.441 258.109 231.662 257.952C231.883 257.796 232.037 257.585 232.122 257.321L233.299 257.396C233.149 257.924 232.853 258.352 232.411 258.68C231.976 259.001 231.445 259.161 230.817 259.161ZM229.298 255.663H232.186C232.151 255.157 232.005 254.783 231.748 254.54C231.498 254.298 231.177 254.177 230.785 254.177C230.379 254.177 230.044 254.305 229.78 254.562C229.523 254.811 229.363 255.179 229.298 255.663ZM236.619 259.161C236.084 259.161 235.631 259.079 235.26 258.915C234.897 258.751 234.615 258.526 234.415 258.241C234.216 257.949 234.102 257.614 234.073 257.236L235.239 257.182C235.296 257.496 235.432 257.746 235.646 257.931C235.859 258.116 236.184 258.209 236.619 258.209C236.975 258.209 237.257 258.152 237.464 258.038C237.671 257.924 237.774 257.742 237.774 257.492C237.774 257.357 237.738 257.243 237.667 257.15C237.603 257.05 237.475 256.968 237.282 256.904C237.089 256.833 236.804 256.765 236.426 256.701C235.863 256.594 235.421 256.469 235.1 256.327C234.779 256.184 234.551 256.002 234.415 255.781C234.28 255.56 234.212 255.293 234.212 254.979C234.212 254.458 234.405 254.034 234.79 253.706C235.182 253.378 235.745 253.214 236.48 253.214C236.972 253.214 237.385 253.3 237.721 253.471C238.056 253.635 238.316 253.859 238.501 254.145C238.694 254.423 238.815 254.737 238.865 255.086L237.699 255.15C237.664 254.95 237.592 254.779 237.485 254.637C237.385 254.487 237.25 254.373 237.079 254.294C236.908 254.209 236.704 254.166 236.469 254.166C236.105 254.166 235.834 254.237 235.656 254.38C235.478 254.523 235.389 254.708 235.389 254.936C235.389 255.107 235.428 255.246 235.506 255.353C235.592 255.46 235.728 255.549 235.913 255.621C236.098 255.685 236.344 255.742 236.651 255.792C237.243 255.892 237.706 256.016 238.041 256.166C238.377 256.309 238.612 256.487 238.747 256.701C238.883 256.915 238.951 257.175 238.951 257.482C238.951 257.838 238.851 258.141 238.651 258.391C238.451 258.641 238.177 258.833 237.828 258.969C237.478 259.097 237.075 259.161 236.619 259.161ZM242.184 259.161C241.649 259.161 241.196 259.079 240.825 258.915C240.462 258.751 240.18 258.526 239.98 258.241C239.781 257.949 239.667 257.614 239.638 257.236L240.804 257.182C240.861 257.496 240.996 257.746 241.21 257.931C241.424 258.116 241.749 258.209 242.184 258.209C242.54 258.209 242.822 258.152 243.029 258.038C243.235 257.924 243.339 257.742 243.339 257.492C243.339 257.357 243.303 257.243 243.232 257.15C243.168 257.05 243.039 256.968 242.847 256.904C242.654 256.833 242.369 256.765 241.991 256.701C241.428 256.594 240.986 256.469 240.665 256.327C240.344 256.184 240.116 256.002 239.98 255.781C239.845 255.56 239.777 255.293 239.777 254.979C239.777 254.458 239.97 254.034 240.355 253.706C240.747 253.378 241.31 253.214 242.045 253.214C242.537 253.214 242.95 253.3 243.285 253.471C243.621 253.635 243.881 253.859 244.066 254.145C244.259 254.423 244.38 254.737 244.43 255.086L243.264 255.15C243.228 254.95 243.157 254.779 243.05 254.637C242.95 254.487 242.815 254.373 242.644 254.294C242.472 254.209 242.269 254.166 242.034 254.166C241.67 254.166 241.399 254.237 241.221 254.38C241.043 254.523 240.954 254.708 240.954 254.936C240.954 255.107 240.993 255.246 241.071 255.353C241.157 255.46 241.292 255.549 241.478 255.621C241.663 255.685 241.909 255.742 242.216 255.792C242.808 255.892 243.271 256.016 243.606 256.166C243.941 256.309 244.177 256.487 244.312 256.701C244.448 256.915 244.515 257.175 244.515 257.482C244.515 257.838 244.416 258.141 244.216 258.391C244.016 258.641 243.742 258.833 243.392 258.969C243.043 259.097 242.64 259.161 242.184 259.161Z" fill="#72908D"/>
<path d="M276.333 259.033V251.439H278.772C279.963 251.439 280.879 251.77 281.521 252.433C282.162 253.089 282.483 254.027 282.483 255.246C282.483 256.459 282.166 257.393 281.531 258.049C280.904 258.705 280.005 259.033 278.836 259.033H276.333ZM277.488 257.974H278.772C279.613 257.974 280.241 257.749 280.654 257.3C281.075 256.844 281.285 256.159 281.285 255.246C281.285 254.319 281.075 253.631 280.654 253.182C280.241 252.726 279.613 252.497 278.772 252.497H277.488V257.974ZM286.118 259.161C285.576 259.161 285.102 259.04 284.695 258.797C284.289 258.555 283.975 258.209 283.754 257.76C283.533 257.311 283.422 256.787 283.422 256.188C283.422 255.581 283.533 255.057 283.754 254.615C283.975 254.173 284.289 253.831 284.695 253.588C285.102 253.339 285.576 253.214 286.118 253.214C286.66 253.214 287.134 253.339 287.54 253.588C287.947 253.831 288.261 254.173 288.482 254.615C288.703 255.057 288.813 255.581 288.813 256.188C288.813 256.787 288.703 257.311 288.482 257.76C288.261 258.209 287.947 258.555 287.54 258.797C287.134 259.04 286.66 259.161 286.118 259.161ZM286.118 258.177C286.603 258.177 286.977 258.002 287.241 257.653C287.505 257.296 287.637 256.808 287.637 256.188C287.637 255.567 287.505 255.082 287.241 254.733C286.977 254.376 286.603 254.198 286.118 254.198C285.64 254.198 285.266 254.376 284.995 254.733C284.731 255.082 284.599 255.567 284.599 256.188C284.599 256.808 284.731 257.296 284.995 257.653C285.266 258.002 285.64 258.177 286.118 258.177ZM289.852 259.033V253.342H290.89L290.932 254.861L290.793 254.786C290.857 254.416 290.979 254.116 291.157 253.888C291.335 253.66 291.553 253.492 291.809 253.385C292.066 253.271 292.344 253.214 292.644 253.214C293.071 253.214 293.424 253.31 293.703 253.503C293.988 253.688 294.202 253.945 294.344 254.273C294.494 254.594 294.569 254.961 294.569 255.375V259.033H293.435V255.717C293.435 255.382 293.399 255.1 293.328 254.872C293.257 254.644 293.139 254.469 292.975 254.348C292.811 254.227 292.597 254.166 292.333 254.166C291.934 254.166 291.61 254.298 291.36 254.562C291.111 254.826 290.986 255.211 290.986 255.717V259.033H289.852ZM298.282 259.161C297.725 259.161 297.244 259.04 296.838 258.797C296.438 258.555 296.128 258.209 295.907 257.76C295.693 257.311 295.586 256.787 295.586 256.188C295.586 255.589 295.693 255.068 295.907 254.626C296.128 254.177 296.438 253.831 296.838 253.588C297.237 253.339 297.707 253.214 298.249 253.214C298.763 253.214 299.216 253.335 299.608 253.578C300 253.813 300.303 254.155 300.517 254.605C300.738 255.054 300.849 255.596 300.849 256.23V256.519H296.763C296.791 257.075 296.937 257.492 297.201 257.771C297.472 258.049 297.836 258.188 298.292 258.188C298.627 258.188 298.905 258.109 299.126 257.952C299.348 257.796 299.501 257.585 299.586 257.321L300.763 257.396C300.613 257.924 300.317 258.352 299.875 258.68C299.44 259.001 298.909 259.161 298.282 259.161ZM296.763 255.663H299.651C299.615 255.157 299.469 254.783 299.212 254.54C298.962 254.298 298.642 254.177 298.249 254.177C297.843 254.177 297.508 254.305 297.244 254.562C296.987 254.811 296.827 255.179 296.763 255.663Z" fill="#72908D"/>
<path d="M336.769 259.033V251.439H337.924V259.033H336.769ZM339.636 259.033V253.342H340.674L340.717 254.861L340.578 254.786C340.642 254.416 340.763 254.116 340.941 253.888C341.12 253.66 341.337 253.492 341.594 253.385C341.85 253.271 342.129 253.214 342.428 253.214C342.856 253.214 343.209 253.31 343.487 253.503C343.772 253.688 343.986 253.945 344.129 254.273C344.278 254.594 344.353 254.961 344.353 255.375V259.033H343.22V255.717C343.22 255.382 343.184 255.1 343.113 254.872C343.041 254.644 342.924 254.469 342.76 254.348C342.596 254.227 342.382 254.166 342.118 254.166C341.719 254.166 341.394 254.298 341.145 254.562C340.895 254.826 340.77 255.211 340.77 255.717V259.033H339.636ZM348.46 259.033V251.439H351.487C352.029 251.439 352.496 251.531 352.889 251.717C353.281 251.902 353.584 252.166 353.798 252.508C354.012 252.85 354.119 253.257 354.119 253.728C354.119 254.07 354.04 254.376 353.883 254.647C353.733 254.918 353.53 255.136 353.274 255.3C353.024 255.457 352.757 255.546 352.471 255.567L352.418 255.471C352.896 255.471 353.266 255.581 353.53 255.803C353.794 256.016 353.947 256.355 353.99 256.819L354.193 259.033H353.028L352.846 256.968C352.824 256.662 352.721 256.437 352.536 256.295C352.35 256.145 352.047 256.07 351.626 256.07H349.616V259.033H348.46ZM349.616 255.011H351.509C351.944 255.011 352.286 254.904 352.536 254.69C352.792 254.469 352.921 254.159 352.921 253.76C352.921 253.353 352.792 253.043 352.536 252.829C352.279 252.608 351.904 252.497 351.412 252.497H349.616V255.011ZM357.702 259.161C357.146 259.161 356.664 259.04 356.258 258.797C355.859 258.555 355.548 258.209 355.327 257.76C355.113 257.311 355.006 256.787 355.006 256.188C355.006 255.589 355.113 255.068 355.327 254.626C355.548 254.177 355.859 253.831 356.258 253.588C356.657 253.339 357.128 253.214 357.67 253.214C358.183 253.214 358.636 253.335 359.028 253.578C359.42 253.813 359.723 254.155 359.937 254.605C360.158 255.054 360.269 255.596 360.269 256.23V256.519H356.183C356.212 257.075 356.358 257.492 356.622 257.771C356.893 258.049 357.256 258.188 357.713 258.188C358.048 258.188 358.326 258.109 358.547 257.952C358.768 257.796 358.921 257.585 359.007 257.321L360.183 257.396C360.034 257.924 359.738 258.352 359.296 258.68C358.861 259.001 358.329 259.161 357.702 259.161ZM356.183 255.663H359.071C359.035 255.157 358.889 254.783 358.632 254.54C358.383 254.298 358.062 254.177 357.67 254.177C357.263 254.177 356.928 254.305 356.664 254.562C356.408 254.811 356.247 255.179 356.183 255.663ZM362.641 259.033L360.566 253.342H361.775L363.326 257.878L364.877 253.342H366.096L364.01 259.033H362.641ZM366.907 259.033V253.342H368.041V259.033H366.907ZM366.886 252.519V251.385H368.062V252.519H366.886ZM371.775 259.161C371.218 259.161 370.737 259.04 370.331 258.797C369.931 258.555 369.621 258.209 369.4 257.76C369.186 257.311 369.079 256.787 369.079 256.188C369.079 255.589 369.186 255.068 369.4 254.626C369.621 254.177 369.931 253.831 370.331 253.588C370.73 253.339 371.201 253.214 371.743 253.214C372.256 253.214 372.709 253.335 373.101 253.578C373.493 253.813 373.796 254.155 374.01 254.605C374.231 255.054 374.342 255.596 374.342 256.23V256.519H370.256C370.284 257.075 370.43 257.492 370.694 257.771C370.965 258.049 371.329 258.188 371.785 258.188C372.12 258.188 372.399 258.109 372.62 257.952C372.841 257.796 372.994 257.585 373.079 257.321L374.256 257.396C374.106 257.924 373.81 258.352 373.368 258.68C372.933 259.001 372.402 259.161 371.775 259.161ZM370.256 255.663H373.144C373.108 255.157 372.962 254.783 372.705 254.54C372.456 254.298 372.135 254.177 371.743 254.177C371.336 254.177 371.001 254.305 370.737 254.562C370.48 254.811 370.32 255.179 370.256 255.663ZM376.372 259.033L374.639 253.342H375.826L377.046 257.792L378.297 253.342H379.367L380.618 257.792L381.848 253.342H383.035L381.303 259.033H380.03L378.832 254.968L377.634 259.033H376.372Z" fill="#72908D"/>
<path d="M17.7783 100.841V99.1941H13.9171V98.3598L17.7141 93.2472H18.6982V98.2957H19.6394V99.1941H18.6982V100.841H17.7783ZM15.0295 98.2957H17.7783V94.659L15.0295 98.2957ZM23.6101 101.012C22.9969 101.012 22.4657 100.852 22.0164 100.531C21.5672 100.21 21.2178 99.7539 20.9682 99.162C20.7258 98.5702 20.6046 97.8678 20.6046 97.0549C20.6046 96.242 20.7258 95.5397 20.9682 94.9478C21.2178 94.3489 21.5672 93.8889 22.0164 93.568C22.4657 93.24 22.9969 93.076 23.6101 93.076C24.2305 93.076 24.7653 93.24 25.2145 93.568C25.6638 93.8889 26.0096 94.3453 26.252 94.9371C26.5016 95.529 26.6264 96.2349 26.6264 97.0549C26.6264 97.8678 26.5016 98.5702 26.252 99.162C26.0096 99.7539 25.6638 100.21 25.2145 100.531C24.7653 100.852 24.2305 101.012 23.6101 101.012ZM23.6101 100.114C24.2661 100.114 24.7724 99.8501 25.129 99.3225C25.4855 98.7877 25.6638 98.0318 25.6638 97.0549C25.6638 96.3989 25.5818 95.8427 25.4177 95.3864C25.2609 94.9229 25.0291 94.5735 24.7225 94.3382C24.423 94.0957 24.0522 93.9745 23.6101 93.9745C23.1752 93.9745 22.8044 94.0957 22.4977 94.3382C22.1983 94.5735 21.9665 94.9229 21.8025 95.3864C21.6456 95.8427 21.5672 96.3989 21.5672 97.0549C21.5672 98.0318 21.7455 98.7877 22.102 99.3225C22.4585 99.8501 22.9612 100.114 23.6101 100.114Z" fill="#72908D"/>
<path d="M16.8366 135.976C15.9952 135.976 15.3463 135.78 14.8899 135.388C14.4335 134.989 14.1875 134.475 14.1519 133.848L15.1038 133.784C15.1466 134.247 15.3249 134.579 15.6386 134.778C15.9595 134.978 16.3588 135.078 16.8366 135.078C17.1646 135.078 17.4676 135.035 17.7457 134.949C18.0238 134.857 18.2484 134.711 18.4196 134.511C18.5907 134.304 18.6763 134.03 18.6763 133.687C18.6763 133.181 18.5087 132.81 18.1736 132.575C17.8384 132.34 17.3963 132.222 16.8473 132.222H16.2483V131.324H16.8473C17.2965 131.324 17.6673 131.234 17.9596 131.056C18.2591 130.878 18.4089 130.571 18.4089 130.136C18.4089 129.744 18.2805 129.448 18.0238 129.249C17.7743 129.042 17.3963 128.938 16.8901 128.938C16.3909 128.938 16.013 129.035 15.7563 129.227C15.5067 129.42 15.357 129.684 15.307 130.019L14.3444 129.954C14.4157 129.384 14.6689 128.924 15.1038 128.575C15.5388 128.218 16.1342 128.04 16.8901 128.04C17.4035 128.04 17.8456 128.125 18.2164 128.297C18.5871 128.461 18.8724 128.696 19.072 129.003C19.2717 129.309 19.3715 129.673 19.3715 130.094C19.3715 130.564 19.2218 130.946 18.9223 131.238C18.6299 131.523 18.195 131.719 17.6174 131.826V131.634C18.2377 131.705 18.7298 131.926 19.0934 132.297C19.4571 132.668 19.6389 133.131 19.6389 133.687C19.6389 134.172 19.5177 134.586 19.2753 134.928C19.0399 135.27 18.7119 135.531 18.2912 135.709C17.8705 135.887 17.3856 135.976 16.8366 135.976ZM23.6101 135.976C22.9969 135.976 22.4657 135.816 22.0164 135.495C21.5672 135.174 21.2178 134.718 20.9682 134.126C20.7258 133.534 20.6046 132.832 20.6046 132.019C20.6046 131.206 20.7258 130.504 20.9682 129.912C21.2178 129.313 21.5672 128.853 22.0164 128.532C22.4657 128.204 22.9969 128.04 23.6101 128.04C24.2305 128.04 24.7653 128.204 25.2145 128.532C25.6638 128.853 26.0096 129.309 26.252 129.901C26.5016 130.493 26.6264 131.199 26.6264 132.019C26.6264 132.832 26.5016 133.534 26.252 134.126C26.0096 134.718 25.6638 135.174 25.2145 135.495C24.7653 135.816 24.2305 135.976 23.6101 135.976ZM23.6101 135.078C24.2661 135.078 24.7724 134.814 25.129 134.286C25.4855 133.752 25.6638 132.996 25.6638 132.019C25.6638 131.363 25.5818 130.807 25.4177 130.35C25.2609 129.887 25.0291 129.537 24.7225 129.302C24.423 129.06 24.0522 128.938 23.6101 128.938C23.1752 128.938 22.8044 129.06 22.4977 129.302C22.1983 129.537 21.9665 129.887 21.8025 130.35C21.6456 130.807 21.5672 131.363 21.5672 132.019C21.5672 132.996 21.7455 133.752 22.102 134.286C22.4585 134.814 22.9612 135.078 23.6101 135.078Z" fill="#72908D"/>
<path d="M14.3006 170.769C14.3006 170.234 14.3826 169.753 14.5466 169.325C14.7178 168.89 15.0137 168.477 15.4344 168.084C15.8622 167.692 16.4541 167.296 17.2099 166.897C17.5593 166.712 17.841 166.541 18.0549 166.384C18.2688 166.227 18.4257 166.059 18.5255 165.881C18.6254 165.703 18.6753 165.485 18.6753 165.229C18.6753 164.965 18.6182 164.737 18.5041 164.544C18.39 164.344 18.2189 164.187 17.9907 164.073C17.7697 163.959 17.4916 163.902 17.1564 163.902C16.6216 163.902 16.1974 164.041 15.8836 164.319C15.577 164.597 15.3845 164.993 15.306 165.507L14.3434 165.442C14.429 164.701 14.7142 164.109 15.1991 163.667C15.684 163.225 16.3364 163.004 17.1564 163.004C17.677 163.004 18.1226 163.096 18.4934 163.282C18.8642 163.467 19.1459 163.728 19.3384 164.063C19.5381 164.391 19.6379 164.772 19.6379 165.207C19.6379 165.592 19.5737 165.927 19.4454 166.213C19.317 166.491 19.0995 166.751 18.7929 166.993C18.4934 167.236 18.0799 167.496 17.5522 167.774C16.8677 168.138 16.3471 168.505 15.9906 168.876C15.6412 169.247 15.4558 169.578 15.4344 169.871H19.6379V170.769H14.3006ZM23.6101 170.94C22.9969 170.94 22.4657 170.78 22.0164 170.459C21.5672 170.138 21.2178 169.682 20.9682 169.09C20.7258 168.498 20.6046 167.796 20.6046 166.983C20.6046 166.17 20.7258 165.467 20.9682 164.876C21.2178 164.277 21.5672 163.817 22.0164 163.496C22.4657 163.168 22.9969 163.004 23.6101 163.004C24.2305 163.004 24.7653 163.168 25.2145 163.496C25.6638 163.817 26.0096 164.273 26.252 164.865C26.5016 165.457 26.6264 166.163 26.6264 166.983C26.6264 167.796 26.5016 168.498 26.252 169.09C26.0096 169.682 25.6638 170.138 25.2145 170.459C24.7653 170.78 24.2305 170.94 23.6101 170.94ZM23.6101 170.042C24.2661 170.042 24.7724 169.778 25.129 169.25C25.4855 168.715 25.6638 167.96 25.6638 166.983C25.6638 166.327 25.5818 165.77 25.4177 165.314C25.2609 164.851 25.0291 164.501 24.7225 164.266C24.423 164.023 24.0522 163.902 23.6101 163.902C23.1752 163.902 22.8044 164.023 22.4977 164.266C22.1983 164.501 21.9665 164.851 21.8025 165.314C21.6456 165.77 21.5672 166.327 21.5672 166.983C21.5672 167.96 21.7455 168.715 22.102 169.25C22.4585 169.778 22.9612 170.042 23.6101 170.042Z" fill="#72908D"/>
<path d="M15.187 205.733V200.107H13.604V199.315H14.2458C14.5239 199.315 14.7449 199.28 14.9089 199.208C15.0801 199.137 15.2013 199.016 15.2726 198.845C15.3439 198.674 15.3795 198.438 15.3795 198.139H16.1069V205.733H15.187ZM20.6101 205.904C19.9969 205.904 19.4657 205.744 19.0164 205.423C18.5672 205.102 18.2178 204.645 17.9682 204.054C17.7258 203.462 17.6046 202.759 17.6046 201.947C17.6046 201.134 17.7258 200.431 17.9682 199.839C18.2178 199.24 18.5672 198.781 19.0164 198.46C19.4657 198.132 19.9969 197.968 20.6101 197.968C21.2305 197.968 21.7653 198.132 22.2145 198.46C22.6638 198.781 23.0096 199.237 23.252 199.829C23.5016 200.421 23.6264 201.127 23.6264 201.947C23.6264 202.759 23.5016 203.462 23.252 204.054C23.0096 204.645 22.6638 205.102 22.2145 205.423C21.7653 205.744 21.2305 205.904 20.6101 205.904ZM20.6101 205.006C21.2661 205.006 21.7724 204.742 22.129 204.214C22.4855 203.679 22.6638 202.923 22.6638 201.947C22.6638 201.291 22.5818 200.734 22.4177 200.278C22.2609 199.814 22.0291 199.465 21.7225 199.23C21.423 198.987 21.0522 198.866 20.6101 198.866C20.1752 198.866 19.8044 198.987 19.4977 199.23C19.1983 199.465 18.9665 199.814 18.8025 200.278C18.6456 200.734 18.5672 201.291 18.5672 201.947C18.5672 202.923 18.7455 203.679 19.102 204.214C19.4585 204.742 19.9612 205.006 20.6101 205.006Z" fill="#72908D"/>
<path d="M17.6101 240.868C16.9969 240.868 16.4657 240.707 16.0164 240.387C15.5672 240.066 15.2178 239.609 14.9682 239.018C14.7258 238.426 14.6046 237.723 14.6046 236.91C14.6046 236.098 14.7258 235.395 14.9682 234.803C15.2178 234.204 15.5672 233.744 16.0164 233.424C16.4657 233.096 16.9969 232.932 17.6101 232.932C18.2305 232.932 18.7653 233.096 19.2145 233.424C19.6638 233.744 20.0096 234.201 20.252 234.793C20.5016 235.384 20.6264 236.09 20.6264 236.91C20.6264 237.723 20.5016 238.426 20.252 239.018C20.0096 239.609 19.6638 240.066 19.2145 240.387C18.7653 240.707 18.2305 240.868 17.6101 240.868ZM17.6101 239.969C18.2661 239.969 18.7724 239.706 19.129 239.178C19.4855 238.643 19.6638 237.887 19.6638 236.91C19.6638 236.254 19.5818 235.698 19.4177 235.242C19.2609 234.778 19.0291 234.429 18.7225 234.194C18.423 233.951 18.0522 233.83 17.6101 233.83C17.1752 233.83 16.8044 233.951 16.4977 234.194C16.1983 234.429 15.9665 234.778 15.8025 235.242C15.6456 235.698 15.5672 236.254 15.5672 236.91C15.5672 237.887 15.7455 238.643 16.102 239.178C16.4585 239.706 16.9612 239.969 17.6101 239.969Z" fill="#72908D"/>
<rect x="13.5441" y="60.7878" width="11.46" height="11.46" rx="2.67399" fill="#6687FF" stroke="#335FFF" stroke-width="0.763998"/>
<path d="M33.9058 69.6887C33.2213 69.6887 32.6188 69.5318 32.0982 69.2181C31.5777 68.8972 31.1712 68.4409 30.8789 67.849C30.5865 67.2572 30.4403 66.5512 30.4403 65.7312C30.4403 64.9183 30.583 64.2159 30.8682 63.6241C31.1605 63.0251 31.567 62.5652 32.0875 62.2443C32.6081 61.9163 33.2177 61.7523 33.9165 61.7523C34.8578 61.7523 35.5887 61.9876 36.1092 62.4582C36.6298 62.9289 36.9685 63.5813 37.1253 64.4156L35.9167 64.4798C35.8169 63.9592 35.6029 63.5528 35.2749 63.2604C34.9469 62.9609 34.4941 62.8112 33.9165 62.8112C33.453 62.8112 33.0502 62.9289 32.7079 63.1642C32.3728 63.3995 32.1089 63.7346 31.9164 64.1696C31.731 64.6046 31.6383 65.1251 31.6383 65.7312C31.6383 66.3373 31.731 66.8578 31.9164 67.2928C32.1089 67.7278 32.3763 68.0594 32.7186 68.2875C33.0609 68.5157 33.4566 68.6298 33.9058 68.6298C34.5191 68.6298 34.9933 68.4694 35.3284 68.1485C35.6707 67.8205 35.8846 67.3713 35.9702 66.8008L37.1788 66.865C37.0861 67.4426 36.9007 67.9417 36.6226 68.3624C36.3445 68.7831 35.9773 69.1111 35.5209 69.3464C35.0646 69.5746 34.5262 69.6887 33.9058 69.6887ZM40.5489 69.6459C40.0069 69.6459 39.5328 69.5247 39.1263 69.2823C38.7199 69.0398 38.4061 68.694 38.1851 68.2448C37.964 67.7955 37.8535 67.2714 37.8535 66.6725C37.8535 66.0663 37.964 65.5422 38.1851 65.1001C38.4061 64.658 38.7199 64.3158 39.1263 64.0733C39.5328 63.8238 40.0069 63.699 40.5489 63.699C41.0908 63.699 41.565 63.8238 41.9714 64.0733C42.3779 64.3158 42.6916 64.658 42.9127 65.1001C43.1337 65.5422 43.2443 66.0663 43.2443 66.6725C43.2443 67.2714 43.1337 67.7955 42.9127 68.2448C42.6916 68.694 42.3779 69.0398 41.9714 69.2823C41.565 69.5247 41.0908 69.6459 40.5489 69.6459ZM40.5489 68.6619C41.0338 68.6619 41.4081 68.4872 41.672 68.1378C41.9358 67.7813 42.0677 67.2928 42.0677 66.6725C42.0677 66.0521 41.9358 65.5672 41.672 65.2178C41.4081 64.8613 41.0338 64.683 40.5489 64.683C40.0711 64.683 39.6968 64.8613 39.4258 65.2178C39.162 65.5672 39.03 66.0521 39.03 66.6725C39.03 67.2928 39.162 67.7813 39.4258 68.1378C39.6968 68.4872 40.0711 68.6619 40.5489 68.6619ZM44.2831 69.5176V63.8273H45.3206L45.3527 65.2392L45.2244 65.1964C45.2885 64.8827 45.3991 64.6153 45.5559 64.3942C45.7199 64.1732 45.9196 64.002 46.1549 63.8808C46.3902 63.7596 46.6469 63.699 46.925 63.699C47.4099 63.699 47.8056 63.838 48.1123 64.1161C48.4189 64.3871 48.6114 64.7614 48.6898 65.2392H48.508C48.5722 64.904 48.6792 64.626 48.8289 64.4049C48.9858 64.1767 49.1854 64.002 49.4279 63.8808C49.6703 63.7596 49.9448 63.699 50.2515 63.699C50.6508 63.699 50.9895 63.7845 51.2676 63.9557C51.5528 64.1197 51.7667 64.3621 51.9093 64.683C52.0591 65.0039 52.1339 65.3961 52.1339 65.8596V69.5176H51.0002V66.1377C51.0002 65.6456 50.911 65.2748 50.7328 65.0253C50.5545 64.7757 50.2835 64.6509 49.9199 64.6509C49.6846 64.6509 49.4778 64.7115 49.2995 64.8327C49.1213 64.954 48.9822 65.1287 48.8824 65.3568C48.7897 65.585 48.7433 65.8596 48.7433 66.1804V69.5176H47.663V66.1804C47.663 65.6956 47.581 65.3212 47.417 65.0574C47.2602 64.7864 46.9892 64.6509 46.6041 64.6509C46.3617 64.6509 46.1513 64.7115 45.9731 64.8327C45.8019 64.954 45.6665 65.1322 45.5666 65.3675C45.4668 65.5957 45.4169 65.8667 45.4169 66.1804V69.5176H44.2831ZM53.4411 71.122V63.8273H54.5107L54.5428 65.0467L54.4144 64.9825C54.5571 64.5618 54.7924 64.2445 55.1204 64.0305C55.4484 63.8095 55.8263 63.699 56.2542 63.699C56.8103 63.699 57.2667 63.838 57.6232 64.1161C57.9869 64.3871 58.2543 64.7472 58.4254 65.1964C58.6037 65.6456 58.6928 66.1377 58.6928 66.6725C58.6928 67.2072 58.6037 67.6993 58.4254 68.1485C58.2543 68.5977 57.9869 68.9614 57.6232 69.2395C57.2667 69.5104 56.8103 69.6459 56.2542 69.6459C55.9689 69.6459 55.7015 69.596 55.452 69.4962C55.2024 69.3964 54.9885 69.2573 54.8102 69.079C54.6391 68.8936 54.5178 68.6762 54.4465 68.4266L54.5749 68.2982V71.122H53.4411ZM56.0509 68.6619C56.5073 68.6619 56.8638 68.4872 57.1205 68.1378C57.3844 67.7884 57.5163 67.2999 57.5163 66.6725C57.5163 66.045 57.3844 65.5565 57.1205 65.2071C56.8638 64.8577 56.5073 64.683 56.0509 64.683C55.7514 64.683 55.4912 64.7579 55.2701 64.9076C55.0491 65.0502 54.8779 65.2713 54.7567 65.5708C54.6355 65.8703 54.5749 66.2375 54.5749 66.6725C54.5749 67.1074 54.6319 67.4746 54.746 67.7741C54.8672 68.0736 55.0384 68.2982 55.2594 68.448C55.4876 68.5906 55.7514 68.6619 56.0509 68.6619ZM61.0301 69.5176C60.6593 69.5176 60.3598 69.4213 60.1316 69.2288C59.9034 69.0363 59.7893 68.7296 59.7893 68.3089V61.9234H60.9231V68.202C60.9231 68.3303 60.9552 68.4266 61.0194 68.4908C61.0907 68.5549 61.1905 68.587 61.3189 68.587H61.7681V69.5176H61.0301ZM64.9704 69.6459C64.4142 69.6459 63.9329 69.5247 63.5264 69.2823C63.1271 69.0398 62.8169 68.694 62.5959 68.2448C62.3819 67.7955 62.275 67.2714 62.275 66.6725C62.275 66.0735 62.3819 65.5529 62.5959 65.1108C62.8169 64.6616 63.1271 64.3158 63.5264 64.0733C63.9257 63.8238 64.3963 63.699 64.9383 63.699C65.4517 63.699 65.9045 63.8202 66.2967 64.0626C66.6889 64.2979 66.9919 64.6402 67.2058 65.0894C67.4269 65.5387 67.5374 66.0806 67.5374 66.7152V67.004H63.4515C63.4801 67.5602 63.6262 67.9774 63.8901 68.2555C64.161 68.5335 64.5247 68.6726 64.9811 68.6726C65.3162 68.6726 65.5943 68.5942 65.8153 68.4373C66.0364 68.2804 66.1897 68.0701 66.2753 67.8062L67.4518 67.8811C67.3021 68.4088 67.0062 68.8366 66.5641 69.1646C66.1291 69.4855 65.5979 69.6459 64.9704 69.6459ZM63.4515 66.1483H66.3394C66.3038 65.6421 66.1576 65.2677 65.9009 65.0253C65.6513 64.7828 65.3305 64.6616 64.9383 64.6616C64.5318 64.6616 64.1967 64.79 63.9329 65.0467C63.6762 65.2962 63.5157 65.6635 63.4515 66.1483ZM70.5523 69.5176C70.0104 69.5176 69.6111 69.3928 69.3544 69.1432C69.0977 68.8936 68.9693 68.505 68.9693 67.9774V62.4903H70.1031V67.8918C70.1031 68.1556 70.1601 68.3375 70.2742 68.4373C70.3883 68.5371 70.563 68.587 70.7983 68.587H71.6112V69.5176H70.5523ZM68.1029 64.7579V63.8273H71.6112V64.7579H68.1029ZM74.8361 69.6459C74.28 69.6459 73.7986 69.5247 73.3922 69.2823C72.9929 69.0398 72.6827 68.694 72.4616 68.2448C72.2477 67.7955 72.1408 67.2714 72.1408 66.6725C72.1408 66.0735 72.2477 65.5529 72.4616 65.1108C72.6827 64.6616 72.9929 64.3158 73.3922 64.0733C73.7915 63.8238 74.2621 63.699 74.8041 63.699C75.3175 63.699 75.7703 63.8202 76.1624 64.0626C76.5546 64.2979 76.8577 64.6402 77.0716 65.0894C77.2927 65.5387 77.4032 66.0806 77.4032 66.7152V67.004H73.3173C73.3458 67.5602 73.492 67.9774 73.7559 68.2555C74.0268 68.5335 74.3905 68.6726 74.8468 68.6726C75.182 68.6726 75.4601 68.5942 75.6811 68.4373C75.9022 68.2804 76.0555 68.0701 76.1411 67.8062L77.3176 67.8811C77.1679 68.4088 76.8719 68.8366 76.4298 69.1646C75.9949 69.4855 75.4636 69.6459 74.8361 69.6459ZM73.3173 66.1483H76.2052C76.1696 65.6421 76.0234 65.2677 75.7667 65.0253C75.5171 64.7828 75.1962 64.6616 74.8041 64.6616C74.3976 64.6616 74.0625 64.79 73.7986 65.0467C73.5419 65.2962 73.3815 65.6635 73.3173 66.1483ZM80.4666 69.6459C79.9817 69.6459 79.5574 69.5247 79.1937 69.2823C78.8372 69.0398 78.5627 68.6976 78.3702 68.2555C78.1848 67.8062 78.0921 67.2786 78.0921 66.6725C78.0921 66.0663 78.1883 65.5422 78.3809 65.1001C78.5734 64.6509 78.8479 64.3051 79.2044 64.0626C79.561 63.8202 79.9817 63.699 80.4666 63.699C80.8588 63.699 81.2082 63.781 81.5148 63.945C81.8214 64.109 82.0531 64.3372 82.21 64.6295V61.9234H83.3438V69.5176H82.2849L82.2528 68.6619C82.0959 68.9685 81.857 69.211 81.5362 69.3892C81.2224 69.5604 80.8659 69.6459 80.4666 69.6459ZM80.7661 68.6619C81.0727 68.6619 81.3329 68.5835 81.5469 68.4266C81.7608 68.2697 81.9248 68.0415 82.0389 67.742C82.153 67.4426 82.21 67.086 82.21 66.6725C82.21 66.2446 82.153 65.8845 82.0389 65.5922C81.9248 65.2927 81.7608 65.0681 81.5469 64.9183C81.3329 64.7614 81.0727 64.683 80.7661 64.683C80.3097 64.683 79.946 64.8613 79.6751 65.2178C79.4041 65.5672 79.2686 66.0521 79.2686 66.6725C79.2686 67.2857 79.4041 67.7706 79.6751 68.1271C79.946 68.4836 80.3097 68.6619 80.7661 68.6619Z" fill="black"/>
<rect x="97.5763" y="60.7878" width="11.46" height="11.46" rx="2.67399" fill="#E6EBFF" stroke="#CCD7FF" stroke-width="0.763998"/>
<path d="M114.922 69.5176V61.9234H116.077V69.5176H114.922ZM117.789 69.5176V63.8273H118.827L118.869 65.3461L118.73 65.2713C118.794 64.9005 118.916 64.601 119.094 64.3728C119.272 64.1446 119.49 63.9771 119.746 63.8701C120.003 63.756 120.281 63.699 120.581 63.699C121.008 63.699 121.361 63.7952 121.64 63.9878C121.925 64.1732 122.139 64.4299 122.281 64.7579C122.431 65.0788 122.506 65.446 122.506 65.8596V69.5176H121.372V66.2018C121.372 65.8667 121.336 65.585 121.265 65.3568C121.194 65.1287 121.076 64.954 120.912 64.8327C120.748 64.7115 120.534 64.6509 120.27 64.6509C119.871 64.6509 119.547 64.7828 119.297 65.0467C119.048 65.3105 118.923 65.6956 118.923 66.2018V69.5176H117.789ZM126.219 69.6459C125.677 69.6459 125.202 69.5247 124.796 69.2823C124.389 69.0398 124.076 68.694 123.855 68.2448C123.634 67.7955 123.523 67.2714 123.523 66.6725C123.523 66.0735 123.634 65.5529 123.855 65.1108C124.076 64.6616 124.389 64.3158 124.796 64.0733C125.202 63.8238 125.677 63.699 126.219 63.699C126.682 63.699 127.092 63.781 127.449 63.945C127.812 64.1019 128.105 64.3336 128.326 64.6402C128.554 64.9468 128.7 65.3212 128.764 65.7633L127.577 65.8275C127.52 65.4567 127.37 65.175 127.128 64.9825C126.885 64.7828 126.582 64.683 126.219 64.683C125.741 64.683 125.366 64.8613 125.095 65.2178C124.832 65.5672 124.7 66.0521 124.7 66.6725C124.7 67.2928 124.832 67.7813 125.095 68.1378C125.366 68.4872 125.741 68.6619 126.219 68.6619C126.582 68.6619 126.885 68.5621 127.128 68.3624C127.37 68.1556 127.52 67.8454 127.577 67.4319L128.764 67.496C128.7 67.931 128.554 68.3089 128.326 68.6298C128.105 68.9507 127.812 69.2003 127.449 69.3785C127.092 69.5568 126.682 69.6459 126.219 69.6459ZM132.034 69.6459C131.492 69.6459 131.018 69.5247 130.611 69.2823C130.205 69.0398 129.891 68.694 129.67 68.2448C129.449 67.7955 129.339 67.2714 129.339 66.6725C129.339 66.0663 129.449 65.5422 129.67 65.1001C129.891 64.658 130.205 64.3158 130.611 64.0733C131.018 63.8238 131.492 63.699 132.034 63.699C132.576 63.699 133.05 63.8238 133.457 64.0733C133.863 64.3158 134.177 64.658 134.398 65.1001C134.619 65.5422 134.729 66.0663 134.729 66.6725C134.729 67.2714 134.619 67.7955 134.398 68.2448C134.177 68.694 133.863 69.0398 133.457 69.2823C133.05 69.5247 132.576 69.6459 132.034 69.6459ZM132.034 68.6619C132.519 68.6619 132.893 68.4872 133.157 68.1378C133.421 67.7813 133.553 67.2928 133.553 66.6725C133.553 66.0521 133.421 65.5672 133.157 65.2178C132.893 64.8613 132.519 64.683 132.034 64.683C131.556 64.683 131.182 64.8613 130.911 65.2178C130.647 65.5672 130.515 66.0521 130.515 66.6725C130.515 67.2928 130.647 67.7813 130.911 68.1378C131.182 68.4872 131.556 68.6619 132.034 68.6619ZM135.768 69.5176V63.8273H136.806L136.838 65.2392L136.709 65.1964C136.774 64.8827 136.884 64.6153 137.041 64.3942C137.205 64.1732 137.405 64.002 137.64 63.8808C137.875 63.7596 138.132 63.699 138.41 63.699C138.895 63.699 139.291 63.838 139.597 64.1161C139.904 64.3871 140.097 64.7614 140.175 65.2392H139.993C140.057 64.904 140.164 64.626 140.314 64.4049C140.471 64.1767 140.671 64.002 140.913 63.8808C141.155 63.7596 141.43 63.699 141.737 63.699C142.136 63.699 142.475 63.7845 142.753 63.9557C143.038 64.1197 143.252 64.3621 143.394 64.683C143.544 65.0039 143.619 65.3961 143.619 65.8596V69.5176H142.485V66.1377C142.485 65.6456 142.396 65.2748 142.218 65.0253C142.04 64.7757 141.769 64.6509 141.405 64.6509C141.17 64.6509 140.963 64.7115 140.785 64.8327C140.606 64.954 140.467 65.1287 140.368 65.3568C140.275 65.585 140.228 65.8596 140.228 66.1804V69.5176H139.148V66.1804C139.148 65.6956 139.066 65.3212 138.902 65.0574C138.745 64.7864 138.474 64.6509 138.089 64.6509C137.847 64.6509 137.636 64.7115 137.458 64.8327C137.287 64.954 137.152 65.1322 137.052 65.3675C136.952 65.5957 136.902 65.8667 136.902 66.1804V69.5176H135.768ZM144.926 71.122V63.8273H145.996L146.028 65.0467L145.9 64.9825C146.042 64.5618 146.278 64.2445 146.606 64.0305C146.934 63.8095 147.311 63.699 147.739 63.699C148.295 63.699 148.752 63.838 149.108 64.1161C149.472 64.3871 149.739 64.7472 149.911 65.1964C150.089 65.6456 150.178 66.1377 150.178 66.6725C150.178 67.2072 150.089 67.6993 149.911 68.1485C149.739 68.5977 149.472 68.9614 149.108 69.2395C148.752 69.5104 148.295 69.6459 147.739 69.6459C147.454 69.6459 147.187 69.596 146.937 69.4962C146.688 69.3964 146.474 69.2573 146.295 69.079C146.124 68.8936 146.003 68.6762 145.932 68.4266L146.06 68.2982V71.122H144.926ZM147.536 68.6619C147.992 68.6619 148.349 68.4872 148.606 68.1378C148.87 67.7884 149.001 67.2999 149.001 66.6725C149.001 66.045 148.87 65.5565 148.606 65.2071C148.349 64.8577 147.992 64.683 147.536 64.683C147.237 64.683 146.976 64.7579 146.755 64.9076C146.534 65.0502 146.363 65.2713 146.242 65.5708C146.121 65.8703 146.06 66.2375 146.06 66.6725C146.06 67.1074 146.117 67.4746 146.231 67.7741C146.352 68.0736 146.524 68.2982 146.745 68.448C146.973 68.5906 147.237 68.6619 147.536 68.6619ZM152.515 69.5176C152.144 69.5176 151.845 69.4213 151.617 69.2288C151.389 69.0363 151.274 68.7296 151.274 68.3089V61.9234H152.408V68.202C152.408 68.3303 152.44 68.4266 152.505 68.4908C152.576 68.5549 152.676 68.587 152.804 68.587H153.253V69.5176H152.515ZM156.456 69.6459C155.899 69.6459 155.418 69.5247 155.012 69.2823C154.612 69.0398 154.302 68.694 154.081 68.2448C153.867 67.7955 153.76 67.2714 153.76 66.6725C153.76 66.0735 153.867 65.5529 154.081 65.1108C154.302 64.6616 154.612 64.3158 155.012 64.0733C155.411 63.8238 155.881 63.699 156.423 63.699C156.937 63.699 157.39 63.8202 157.782 64.0626C158.174 64.2979 158.477 64.6402 158.691 65.0894C158.912 65.5387 159.023 66.0806 159.023 66.7152V67.004H154.937C154.965 67.5602 155.111 67.9774 155.375 68.2555C155.646 68.5335 156.01 68.6726 156.466 68.6726C156.801 68.6726 157.079 68.5942 157.3 68.4373C157.522 68.2804 157.675 68.0701 157.76 67.8062L158.937 67.8811C158.787 68.4088 158.491 68.8366 158.049 69.1646C157.614 69.4855 157.083 69.6459 156.456 69.6459ZM154.937 66.1483H157.825C157.789 65.6421 157.643 65.2677 157.386 65.0253C157.136 64.7828 156.816 64.6616 156.423 64.6616C156.017 64.6616 155.682 64.79 155.418 65.0467C155.161 65.2962 155.001 65.6635 154.937 66.1483ZM162.037 69.5176C161.496 69.5176 161.096 69.3928 160.84 69.1432C160.583 68.8936 160.454 68.505 160.454 67.9774V62.4903H161.588V67.8918C161.588 68.1556 161.645 68.3375 161.759 68.4373C161.873 68.5371 162.048 68.587 162.283 68.587H163.096V69.5176H162.037ZM159.588 64.7579V63.8273H163.096V64.7579H159.588ZM166.321 69.6459C165.765 69.6459 165.284 69.5247 164.877 69.2823C164.478 69.0398 164.168 68.694 163.947 68.2448C163.733 67.7955 163.626 67.2714 163.626 66.6725C163.626 66.0735 163.733 65.5529 163.947 65.1108C164.168 64.6616 164.478 64.3158 164.877 64.0733C165.277 63.8238 165.747 63.699 166.289 63.699C166.803 63.699 167.255 63.8202 167.648 64.0626C168.04 64.2979 168.343 64.6402 168.557 65.0894C168.778 65.5387 168.888 66.0806 168.888 66.7152V67.004H164.802C164.831 67.5602 164.977 67.9774 165.241 68.2555C165.512 68.5335 165.876 68.6726 166.332 68.6726C166.667 68.6726 166.945 68.5942 167.166 68.4373C167.387 68.2804 167.541 68.0701 167.626 67.8062L168.803 67.8811C168.653 68.4088 168.357 68.8366 167.915 69.1646C167.48 69.4855 166.949 69.6459 166.321 69.6459ZM164.802 66.1483H167.69C167.655 65.6421 167.509 65.2677 167.252 65.0253C167.002 64.7828 166.681 64.6616 166.289 64.6616C165.883 64.6616 165.548 64.79 165.284 65.0467C165.027 65.2962 164.867 65.6635 164.802 66.1483Z" fill="black"/>
</g>
<defs>
<filter id="filter0_d_17161_72789" x="344.741" y="11.9132" width="27.5042" height="27.5037" filterUnits="userSpaceOnUse" color-interpolation-filters="sRGB">
<feFlood flood-opacity="0" result="BackgroundImageFix"/>
<feColorMatrix in="SourceAlpha" type="matrix" values="0 0 0 0 0 0 0 0 0 0 0 0 0 0 0 0 0 0 127 0" result="hardAlpha"/>
<feOffset dy="0.763998"/>
<feGaussianBlur stdDeviation="0.763998"/>
<feColorMatrix type="matrix" values="0 0 0 0 0.0941176 0 0 0 0 0.137255 0 0 0 0 0.133333 0 0 0 0.05 0"/>
<feBlend mode="normal" in2="BackgroundImageFix" result="effect1_dropShadow_17161_72789"/>
<feBlend mode="normal" in="SourceGraphic" in2="effect1_dropShadow_17161_72789" result="shape"/>
</filter>
<filter id="filter1_d_17161_72789" x="375.3" y="11.9132" width="27.5042" height="27.5037" filterUnits="userSpaceOnUse" color-interpolation-filters="sRGB">
<feFlood flood-opacity="0" result="BackgroundImageFix"/>
<feColorMatrix in="SourceAlpha" type="matrix" values="0 0 0 0 0 0 0 0 0 0 0 0 0 0 0 0 0 0 127 0" result="hardAlpha"/>
<feOffset dy="0.763998"/>
<feGaussianBlur stdDeviation="0.763998"/>
<feColorMatrix type="matrix" values="0 0 0 0 0.0941176 0 0 0 0 0.137255 0 0 0 0 0.133333 0 0 0 0.05 0"/>
<feBlend mode="normal" in2="BackgroundImageFix" result="effect1_dropShadow_17161_72789"/>
<feBlend mode="normal" in="SourceGraphic" in2="effect1_dropShadow_17161_72789" result="shape"/>
</filter>
<clipPath id="clip0_17161_72789">
<rect width="388.111" height="208.571" fill="white" transform="translate(13.165 58.5171)"/>
</clipPath>
</defs>
</svg>
