<svg width="719" height="460" viewBox="0 0 719 460" fill="none" xmlns="http://www.w3.org/2000/svg">
<rect x="0.5" width="718.367" height="459.655" rx="7.53532" fill="white"/>
<rect x="1.12794" y="0.627943" width="717.112" height="458.399" rx="6.90738" stroke="black" stroke-opacity="0.12" stroke-width="1.25589"/>
<path d="M30.0137 43.9558C30.0137 37.0198 35.6365 31.397 42.5725 31.397C49.5086 31.397 55.1314 37.0198 55.1314 43.9558C55.1314 50.8919 49.5086 56.5147 42.5725 56.5147C35.6365 56.5147 30.0137 50.8919 30.0137 43.9558Z" fill="#0037FF"/>
<path d="M30.0137 43.9558C30.0137 37.0198 35.6365 31.397 42.5725 31.397C49.5086 31.397 55.1314 37.0198 55.1314 43.9558C55.1314 50.8919 49.5086 56.5147 42.5725 56.5147C35.6365 56.5147 30.0137 50.8919 30.0137 43.9558Z" fill="url(#paint0_linear_17161_72668)"/>
<g clip-path="url(#clip0_17161_72668)">
<g filter="url(#filter0_dd_17161_72668)">
<path d="M49.6011 38.5052L40.7683 50.1957C40.6384 50.3906 40.4435 50.4555 40.1837 50.4555C39.9889 50.4555 39.7941 50.3256 39.6642 50.1308L35.5075 43.5061C35.3776 43.2464 35.3776 42.9216 35.5725 42.7268C35.7673 42.5319 36.092 42.467 36.3518 42.5969L40.1188 44.7401L48.6269 37.5959C48.8867 37.4011 49.2764 37.4011 49.4712 37.6609C49.796 37.8557 49.796 38.2454 49.6011 38.5052Z" fill="#FFE866"/>
</g>
</g>
<path d="M63.6015 49.4561C62.6981 49.4561 62.0341 49.2493 61.6096 48.8356C61.1851 48.4112 60.9729 47.7418 60.9729 46.8275V38.6479H63.4219V46.5336C63.4219 46.9581 63.5089 47.2465 63.6831 47.3989C63.8681 47.5513 64.1402 47.6275 64.4994 47.6275H65.7239V49.4561H63.6015ZM59.5688 42.5336V40.705H65.7239V42.5336H59.5688ZM69.0627 49.652C68.1593 49.652 67.4191 49.4452 66.8423 49.0316C66.2763 48.6071 65.9933 48.0193 65.9933 47.2683C65.9933 46.4955 66.2327 45.9023 66.7117 45.4887C67.2015 45.0642 67.9198 44.754 68.8668 44.5581L71.6913 44.003C71.6913 43.437 71.5606 43.0125 71.2994 42.7295C71.0491 42.4356 70.6844 42.2887 70.2055 42.2887C69.7375 42.2887 69.3729 42.3976 69.1117 42.6152C68.8504 42.822 68.6817 43.1322 68.6055 43.5459L66.1402 43.4316C66.3035 42.4737 66.7334 41.7499 67.43 41.2601C68.1375 40.7595 69.0627 40.5091 70.2055 40.5091C71.5117 40.5091 72.4913 40.8193 73.1443 41.4397C73.8083 42.0601 74.1402 42.969 74.1402 44.1663V47.154C74.1402 47.4044 74.1783 47.5731 74.2545 47.6601C74.3416 47.7363 74.4668 47.7744 74.63 47.7744H74.8749V49.4561C74.7987 49.4778 74.6736 49.4996 74.4994 49.5214C74.3361 49.5431 74.1729 49.554 74.0096 49.554C73.6613 49.554 73.3348 49.4941 73.03 49.3744C72.7361 49.2547 72.4967 49.0533 72.3117 48.7703C72.1266 48.4765 72.0341 48.0629 72.0341 47.5295L72.2464 47.6928C72.1375 48.0846 71.9416 48.4275 71.6586 48.7214C71.3865 49.0152 71.0273 49.2438 70.581 49.4071C70.1457 49.5703 69.6396 49.652 69.0627 49.652ZM69.6504 47.9703C70.0532 47.9703 70.4069 47.8941 70.7117 47.7418C71.0164 47.5785 71.2559 47.3445 71.43 47.0397C71.6042 46.735 71.6913 46.3758 71.6913 45.9622V45.5377L69.6994 45.9622C69.3076 46.0384 69.0083 46.169 68.8015 46.354C68.6055 46.5282 68.5076 46.7567 68.5076 47.0397C68.5076 47.3336 68.6055 47.5622 68.8015 47.7254C68.9974 47.8887 69.2804 47.9703 69.6504 47.9703ZM79.0869 49.652C78.1835 49.652 77.4271 49.5268 76.8175 49.2765C76.208 49.0152 75.74 48.6669 75.4134 48.2316C75.0978 47.7853 74.9182 47.2737 74.8747 46.6969L77.3563 46.6152C77.4325 47.0288 77.6066 47.3499 77.8788 47.5785C78.1509 47.8071 78.5536 47.9214 79.0869 47.9214C79.5223 47.9214 79.8597 47.8506 80.0992 47.7091C80.3495 47.5676 80.4747 47.3499 80.4747 47.0561C80.4747 46.871 80.4311 46.7186 80.3441 46.5989C80.257 46.4683 80.0828 46.3595 79.8216 46.2724C79.5713 46.1744 79.1958 46.0873 78.6951 46.0112C77.7699 45.8479 77.0461 45.6574 76.5236 45.4397C76.0012 45.222 75.6311 44.939 75.4134 44.5907C75.1958 44.2424 75.0869 43.818 75.0869 43.3173C75.0869 42.4792 75.408 41.8044 76.0502 41.2928C76.7032 40.7703 77.6774 40.5091 78.9726 40.5091C79.7998 40.5091 80.491 40.6397 81.0461 40.901C81.6121 41.1622 82.0475 41.5214 82.3522 41.9785C82.6679 42.4248 82.8638 42.9363 82.94 43.5132L80.4747 43.6112C80.442 43.3282 80.3549 43.0887 80.2134 42.8928C80.0828 42.686 79.9141 42.5282 79.7073 42.4193C79.5005 42.2996 79.2502 42.2397 78.9563 42.2397C78.5209 42.2397 78.1835 42.3322 77.9441 42.5173C77.7155 42.6914 77.6012 42.9254 77.6012 43.2193C77.6012 43.437 77.6502 43.6166 77.7481 43.7581C77.857 43.8887 78.0311 43.9976 78.2706 44.0846C78.51 44.1717 78.8311 44.2424 79.2339 44.2969C80.1699 44.4275 80.91 44.6125 81.4543 44.852C82.0094 45.0805 82.4066 45.369 82.6461 45.7173C82.8856 46.0656 83.0053 46.4955 83.0053 47.0071C83.0053 47.5731 82.842 48.052 82.5155 48.4438C82.189 48.8356 81.7318 49.135 81.1441 49.3418C80.5672 49.5486 79.8815 49.652 79.0869 49.652ZM83.8628 49.4561V37.8642H86.3118V44.2969L89.5608 40.705H92.4995L89.1036 44.3132L92.5975 49.4561H89.9199L87.5199 45.701L86.3118 46.9907V49.4561H83.8628ZM95.2531 49.4561C94.5347 49.4561 93.9742 49.2765 93.5715 48.9173C93.1688 48.5581 92.9674 47.9758 92.9674 47.1703V37.8642H95.4164V46.9091C95.4164 47.1703 95.4762 47.3554 95.596 47.4642C95.7157 47.5731 95.8898 47.6275 96.1184 47.6275H96.7062V49.4561H95.2531ZM97.5927 51.905V50.0765H98.7518C99.0348 50.0765 99.2416 50.0329 99.3722 49.9459C99.5137 49.8697 99.6226 49.7282 99.6988 49.5214L99.8784 49.0152H99.209L96.1396 40.705H98.6376L100.646 46.7295L102.523 40.705H105.021L101.658 50.2887C101.462 50.8656 101.179 51.2792 100.809 51.5295C100.439 51.7799 99.9219 51.905 99.258 51.905H97.5927ZM105.421 49.4561V40.705H107.625L107.723 43.2683L107.413 43.1867C107.5 42.5336 107.674 42.0112 107.935 41.6193C108.207 41.2275 108.545 40.9445 108.947 40.7703C109.35 40.5962 109.791 40.5091 110.27 40.5091C110.901 40.5091 111.434 40.6452 111.87 40.9173C112.316 41.1894 112.653 41.5758 112.882 42.0765C113.122 42.5663 113.241 43.1486 113.241 43.8234V49.4561H110.792V44.6397C110.792 44.1717 110.754 43.7744 110.678 43.4479C110.602 43.1214 110.466 42.8765 110.27 42.7132C110.074 42.539 109.802 42.452 109.453 42.452C108.942 42.452 108.55 42.6424 108.278 43.0234C108.006 43.3935 107.87 43.9322 107.87 44.6397V49.4561H105.421Z" fill="black"/>
<rect x="25.3042" y="203.14" width="339.717" height="229.827" rx="9.10518" fill="white"/>
<rect x="25.3042" y="203.14" width="339.717" height="229.827" rx="9.10518" stroke="#EDF1F1" stroke-width="0.627943"/>
<g opacity="0.9">
<rect x="35.665" y="213.5" width="84.1444" height="20.0942" rx="10.0471" fill="#DCE3E2"/>
</g>
<rect x="309.448" y="213.5" width="20.0942" height="20.0942" rx="2.51177" fill="#E5E8E8"/>
<rect x="334.566" y="213.5" width="20.0942" height="20.0942" rx="2.51177" fill="#E5E8E8"/>
<line x1="35.665" y1="242.072" x2="354.66" y2="242.072" stroke="#F6F6F6" stroke-width="0.627943"/>
<g clip-path="url(#clip1_17161_72668)">
<line x1="35.666" y1="272.841" x2="327.032" y2="272.841" stroke="#EDF1F1" stroke-width="0.627943"/>
<line x1="35.666" y1="304.866" x2="327.032" y2="304.866" stroke="#EDF1F1" stroke-width="0.627943"/>
<line x1="35.666" y1="336.892" x2="327.032" y2="336.892" stroke="#EDF1F1" stroke-width="0.627943"/>
<line x1="35.666" y1="368.916" x2="327.032" y2="368.917" stroke="#EDF1F1" stroke-width="0.627943"/>
<line x1="35.666" y1="400.942" x2="327.032" y2="400.942" stroke="#EDF1F1" stroke-width="0.627943"/>
<g filter="url(#filter1_d_17161_72668)">
<g clip-path="url(#clip2_17161_72668)">
<rect x="48.2246" y="332.81" width="15.4295" height="16.9545" fill="#EFF2F2"/>
<rect x="48.2246" y="349.765" width="15.4295" height="47.7237" fill="#DFE6E5"/>
</g>
</g>
<g filter="url(#filter2_d_17161_72668)">
<g clip-path="url(#clip3_17161_72668)">
<rect x="90.0273" y="318.995" width="15.4295" height="13.8148" fill="#EFF2F2"/>
<rect x="90.0273" y="332.81" width="15.4295" height="64.6782" fill="#DFE6E5"/>
</g>
</g>
<g filter="url(#filter3_d_17161_72668)">
<g clip-path="url(#clip4_17161_72668)">
<rect x="131.831" y="281.947" width="15.4295" height="27.6295" fill="#EFF2F2"/>
<rect x="131.831" y="309.576" width="15.4295" height="87.9121" fill="#DFE6E5"/>
</g>
</g>
<g filter="url(#filter4_d_17161_72668)">
<g clip-path="url(#clip5_17161_72668)">
<rect x="173.634" y="353.532" width="15.4295" height="29.5133" fill="#EFF2F2"/>
<rect x="173.634" y="383.045" width="15.4295" height="14.4427" fill="#DFE6E5"/>
</g>
</g>
<g filter="url(#filter5_d_17161_72668)">
<g clip-path="url(#clip6_17161_72668)">
<rect x="215.437" y="318.996" width="15.4295" height="27.0016" fill="#EFF2F2"/>
<rect x="215.437" y="345.997" width="15.4295" height="51.4914" fill="#DFE6E5"/>
</g>
</g>
<g filter="url(#filter6_d_17161_72668)">
<g clip-path="url(#clip7_17161_72668)">
<rect x="257.24" y="309.576" width="15.4295" height="11.303" fill="#EFF2F2"/>
<rect x="257.24" y="320.879" width="15.4295" height="76.6091" fill="#DFE6E5"/>
</g>
</g>
<g filter="url(#filter7_d_17161_72668)">
<g clip-path="url(#clip8_17161_72668)">
<rect x="299.043" y="325.275" width="15.4295" height="28.2575" fill="#EFF2F2"/>
<rect x="299.043" y="353.532" width="15.4295" height="43.956" fill="#DFE6E5"/>
</g>
</g>
<rect x="49.6602" y="407.535" width="12.5589" height="12.5589" rx="6.27943" fill="#E5E8E8"/>
<rect x="91.4629" y="407.535" width="12.5589" height="12.5589" rx="6.27943" fill="#E5E8E8"/>
<rect x="133.267" y="407.535" width="12.5589" height="12.5589" rx="6.27943" fill="#E5E8E8"/>
<rect x="175.069" y="407.535" width="12.5589" height="12.5589" rx="6.27943" fill="#E5E8E8"/>
<rect x="216.872" y="407.535" width="12.5589" height="12.5589" rx="6.27943" fill="#E5E8E8"/>
<rect x="258.676" y="407.535" width="12.5589" height="12.5589" rx="6.27943" fill="#E5E8E8"/>
<rect x="300.479" y="407.535" width="12.5589" height="12.5589" rx="6.27943" fill="#E5E8E8"/>
<g opacity="0.9">
<rect x="342.103" y="266.248" width="12.5589" height="5.02355" rx="2.51177" fill="#EDF1F1"/>
</g>
<g opacity="0.9">
<rect x="342.103" y="299.686" width="12.5589" height="5.02355" rx="2.51177" fill="#EDF1F1"/>
</g>
<g opacity="0.9">
<rect x="342.103" y="333.124" width="12.5589" height="5.02355" rx="2.51177" fill="#EDF1F1"/>
</g>
<g opacity="0.9">
<rect x="342.103" y="366.562" width="12.5589" height="5.02355" rx="2.51177" fill="#EDF1F1"/>
</g>
<g opacity="0.9">
<rect x="342.103" y="400" width="12.5589" height="5.02355" rx="2.51177" fill="#EDF1F1"/>
</g>
<rect x="35.666" y="251.177" width="12.5589" height="12.5589" rx="2.51177" fill="#E5E8E8"/>
<g opacity="0.9">
<rect x="51.9922" y="254.945" width="43.956" height="5.02355" rx="2.51177" fill="#EDF1F1"/>
</g>
<rect x="105.996" y="251.177" width="12.5589" height="12.5589" rx="2.51177" fill="#E5E8E8"/>
<g opacity="0.9">
<rect x="122.322" y="254.945" width="43.956" height="5.02355" rx="2.51177" fill="#EDF1F1"/>
</g>
</g>
<rect x="378.521" y="25.7456" width="200.942" height="26.0706" rx="5.02355" fill="#EDF1F1"/>
<path d="M398.579 43.2128L396.122 40.7569C396.834 39.9022 397.189 38.8059 397.113 37.696C397.038 36.5862 396.537 35.5483 395.715 34.7983C394.894 34.0483 393.815 33.6438 392.703 33.6691C391.591 33.6944 390.531 34.1474 389.745 34.934C388.958 35.7206 388.505 36.7802 388.48 37.8923C388.454 39.0044 388.859 40.0834 389.609 40.9049C390.359 41.7265 391.397 42.2272 392.507 42.3029C393.616 42.3787 394.713 42.0237 395.567 41.3118L398.023 43.7681C398.06 43.8046 398.103 43.8335 398.151 43.8532C398.198 43.873 398.249 43.8831 398.301 43.8831C398.353 43.8831 398.404 43.873 398.451 43.8532C398.499 43.8335 398.542 43.8046 398.579 43.7681C398.615 43.7316 398.644 43.6883 398.664 43.6407C398.684 43.5931 398.694 43.542 398.694 43.4904C398.694 43.4389 398.684 43.3878 398.664 43.3402C398.644 43.2925 398.615 43.2492 398.579 43.2128ZM389.274 37.9959C389.274 37.2973 389.481 36.6144 389.87 36.0335C390.258 35.4527 390.809 35 391.455 34.7326C392.1 34.4653 392.81 34.3953 393.496 34.5316C394.181 34.6679 394.81 35.0043 395.304 35.4983C395.798 35.9923 396.134 36.6217 396.271 37.3068C396.407 37.992 396.337 38.7022 396.07 39.3476C395.802 39.9931 395.35 40.5447 394.769 40.9328C394.188 41.3209 393.505 41.5281 392.806 41.5281C391.87 41.5271 390.972 41.1546 390.31 40.4924C389.648 39.8302 389.275 38.9324 389.274 37.9959Z" fill="#72908D"/>
<path d="M409.527 41.9415C408.978 41.9415 408.499 41.8377 408.09 41.6301C407.682 41.4224 407.357 41.1377 407.116 40.7761C406.881 40.4077 406.744 39.9823 406.704 39.5001L407.608 39.4398C407.655 39.7948 407.759 40.0962 407.92 40.344C408.08 40.5919 408.295 40.7794 408.563 40.9067C408.837 41.0339 409.165 41.0976 409.547 41.0976C409.882 41.0976 410.167 41.054 410.401 40.9669C410.636 40.8799 410.813 40.7526 410.934 40.5852C411.061 40.4177 411.125 40.2134 411.125 39.9723C411.125 39.7512 411.071 39.557 410.964 39.3896C410.863 39.2154 410.666 39.058 410.371 38.9173C410.083 38.77 409.654 38.626 409.085 38.4853C408.536 38.3447 408.097 38.1906 407.769 38.0231C407.447 37.8557 407.213 37.6514 407.066 37.4103C406.925 37.1691 406.855 36.8711 406.855 36.5161C406.855 36.1142 406.948 35.7626 407.136 35.4611C407.33 35.153 407.605 34.9152 407.96 34.7478C408.315 34.5736 408.737 34.4866 409.226 34.4866C409.748 34.4866 410.197 34.587 410.572 34.788C410.947 34.9822 411.245 35.2501 411.466 35.5918C411.687 35.9334 411.825 36.3218 411.878 36.7572L410.974 36.8175C410.934 36.5295 410.84 36.275 410.693 36.0539C410.552 35.8262 410.358 35.6487 410.11 35.5214C409.862 35.3942 409.561 35.3305 409.206 35.3305C408.764 35.3305 408.412 35.4377 408.151 35.652C407.89 35.8597 407.759 36.1343 407.759 36.4759C407.759 36.6969 407.809 36.8811 407.91 37.0285C408.017 37.1691 408.204 37.2964 408.472 37.4103C408.74 37.5174 409.125 37.6347 409.628 37.7619C410.224 37.9093 410.696 38.0868 411.044 38.2944C411.399 38.4954 411.65 38.7298 411.798 38.9977C411.952 39.2656 412.029 39.5704 412.029 39.912C412.029 40.3273 411.922 40.689 411.707 40.9971C411.493 41.2985 411.198 41.5329 410.823 41.7004C410.448 41.8611 410.016 41.9415 409.527 41.9415ZM415.498 41.9013C414.996 41.9013 414.561 41.7875 414.192 41.5597C413.831 41.332 413.549 41.0105 413.348 40.5952C413.154 40.1732 413.057 39.6809 413.057 39.1183C413.057 38.5556 413.154 38.0667 413.348 37.6514C413.549 37.2361 413.827 36.9146 414.182 36.6869C414.544 36.4525 414.969 36.3352 415.458 36.3352C415.92 36.3352 416.329 36.4458 416.684 36.6668C417.039 36.8811 417.314 37.1959 417.508 37.6112C417.709 38.0265 417.809 38.5322 417.809 39.1283V39.3795H413.941C413.975 39.9488 414.125 40.3775 414.393 40.6655C414.668 40.9536 415.036 41.0976 415.498 41.0976C415.847 41.0976 416.131 41.0172 416.352 40.8564C416.58 40.689 416.738 40.4713 416.825 40.2034L417.729 40.2737C417.588 40.7493 417.32 41.1411 416.925 41.4492C416.537 41.7506 416.061 41.9013 415.498 41.9013ZM413.941 38.636H416.885C416.845 38.1203 416.694 37.7418 416.433 37.5007C416.178 37.2596 415.853 37.139 415.458 37.139C415.05 37.139 414.711 37.2663 414.443 37.5208C414.182 37.7686 414.015 38.1404 413.941 38.636ZM420.426 41.9013C419.877 41.9013 419.438 41.7741 419.11 41.5195C418.788 41.265 418.628 40.91 418.628 40.4545C418.628 39.9991 418.762 39.6407 419.029 39.3795C419.297 39.1183 419.723 38.9341 420.305 38.8269L422.194 38.4753C422.194 38.0265 422.087 37.6916 421.873 37.4706C421.665 37.2495 421.35 37.139 420.928 37.139C420.56 37.139 420.269 37.2227 420.054 37.3902C419.84 37.5509 419.693 37.7854 419.612 38.0935L418.718 38.0231C418.818 37.5208 419.06 37.1156 419.441 36.8074C419.83 36.4926 420.326 36.3352 420.928 36.3352C421.612 36.3352 422.134 36.5295 422.496 36.918C422.857 37.2998 423.038 37.8289 423.038 38.5054V40.7057C423.038 40.8263 423.058 40.9134 423.099 40.9669C423.145 41.0138 423.219 41.0373 423.32 41.0373H423.531V41.7808C423.504 41.7875 423.46 41.7908 423.4 41.7908C423.34 41.7975 423.276 41.8009 423.209 41.8009C422.968 41.8009 422.77 41.764 422.616 41.6903C422.469 41.61 422.362 41.4894 422.295 41.3286C422.228 41.1612 422.194 40.9435 422.194 40.6756L422.295 40.6957C422.248 40.9234 422.134 41.131 421.953 41.3186C421.772 41.4994 421.548 41.6435 421.28 41.7506C421.012 41.8511 420.727 41.9013 420.426 41.9013ZM420.506 41.1578C420.861 41.1578 421.163 41.0909 421.411 40.9569C421.665 40.8162 421.859 40.6287 421.993 40.3943C422.127 40.1531 422.194 39.8852 422.194 39.5905V39.2087L420.466 39.5302C420.105 39.5972 419.853 39.701 419.713 39.8417C419.579 39.9756 419.512 40.1531 419.512 40.3742C419.512 40.622 419.599 40.8162 419.773 40.9569C419.954 41.0909 420.198 41.1578 420.506 41.1578ZM424.383 41.7808V36.4558H425.127L425.167 37.8021L425.087 37.772C425.154 37.3165 425.298 36.9849 425.519 36.7773C425.746 36.563 426.048 36.4558 426.423 36.4558H426.945V37.2596H426.433C426.165 37.2596 425.941 37.3098 425.76 37.4103C425.586 37.504 425.452 37.6481 425.358 37.8423C425.271 38.0298 425.227 38.271 425.227 38.5657V41.7808H424.383ZM429.767 41.9013C429.272 41.9013 428.84 41.7875 428.471 41.5597C428.109 41.332 427.828 41.0105 427.627 40.5952C427.426 40.1732 427.326 39.6809 427.326 39.1183C427.326 38.5556 427.426 38.0667 427.627 37.6514C427.828 37.2361 428.109 36.9146 428.471 36.6869C428.84 36.4525 429.272 36.3352 429.767 36.3352C430.176 36.3352 430.537 36.4089 430.852 36.5563C431.174 36.6969 431.435 36.9046 431.636 37.1792C431.837 37.4538 431.968 37.7887 432.028 38.1839L431.144 38.2442C431.083 37.8892 430.929 37.6179 430.682 37.4304C430.434 37.2361 430.129 37.139 429.767 37.139C429.278 37.139 428.896 37.3165 428.622 37.6715C428.347 38.0198 428.21 38.5021 428.21 39.1183C428.21 39.7345 428.347 40.2201 428.622 40.5751C428.896 40.9234 429.278 41.0976 429.767 41.0976C430.129 41.0976 430.434 40.9971 430.682 40.7961C430.929 40.5952 431.083 40.2938 431.144 39.8919L432.028 39.9522C431.968 40.3474 431.837 40.6923 431.636 40.987C431.435 41.2751 431.174 41.4994 430.852 41.6602C430.537 41.821 430.176 41.9013 429.767 41.9013ZM432.974 41.7808V34.6473H433.818V37.6313L433.717 37.6112C433.784 37.3165 433.898 37.0754 434.059 36.8878C434.219 36.7003 434.417 36.563 434.651 36.4759C434.886 36.3821 435.144 36.3352 435.425 36.3352C435.807 36.3352 436.128 36.4223 436.39 36.5965C436.658 36.7639 436.858 37.0017 436.992 37.3098C437.133 37.6112 437.203 37.9595 437.203 38.3547V41.7808H436.359V38.5958C436.359 38.0801 436.266 37.6983 436.078 37.4505C435.897 37.2026 435.619 37.0787 435.244 37.0787C434.816 37.0787 434.471 37.2093 434.209 37.4706C433.948 37.7318 433.818 38.1102 433.818 38.6059V41.7808H432.974ZM442.559 41.9013C442.01 41.9013 441.571 41.7741 441.243 41.5195C440.921 41.265 440.761 40.91 440.761 40.4545C440.761 39.9991 440.895 39.6407 441.163 39.3795C441.43 39.1183 441.856 38.9341 442.438 38.8269L444.327 38.4753C444.327 38.0265 444.22 37.6916 444.006 37.4706C443.798 37.2495 443.483 37.139 443.061 37.139C442.693 37.139 442.402 37.2227 442.187 37.3902C441.973 37.5509 441.826 37.7854 441.745 38.0935L440.851 38.0231C440.952 37.5208 441.193 37.1156 441.574 36.8074C441.963 36.4926 442.459 36.3352 443.061 36.3352C443.745 36.3352 444.267 36.5295 444.629 36.918C444.99 37.2998 445.171 37.8289 445.171 38.5054V40.7057C445.171 40.8263 445.191 40.9134 445.232 40.9669C445.278 41.0138 445.352 41.0373 445.453 41.0373H445.664V41.7808C445.637 41.7875 445.593 41.7908 445.533 41.7908C445.473 41.7975 445.409 41.8009 445.342 41.8009C445.101 41.8009 444.903 41.764 444.749 41.6903C444.602 41.61 444.495 41.4894 444.428 41.3286C444.361 41.1612 444.327 40.9435 444.327 40.6756L444.428 40.6957C444.381 40.9234 444.267 41.131 444.086 41.3186C443.905 41.4994 443.681 41.6435 443.413 41.7506C443.145 41.8511 442.86 41.9013 442.559 41.9013ZM442.639 41.1578C442.994 41.1578 443.296 41.0909 443.544 40.9569C443.798 40.8162 443.992 40.6287 444.126 40.3943C444.26 40.1531 444.327 39.8852 444.327 39.5905V39.2087L442.599 39.5302C442.238 39.5972 441.986 39.701 441.846 39.8417C441.712 39.9756 441.645 40.1531 441.645 40.3742C441.645 40.622 441.732 40.8162 441.906 40.9569C442.087 41.0909 442.331 41.1578 442.639 41.1578ZM446.516 41.7808V36.4558H447.29L447.32 37.8122L447.22 37.7217C447.287 37.4069 447.404 37.1491 447.571 36.9481C447.739 36.7405 447.94 36.5864 448.174 36.4859C448.415 36.3855 448.673 36.3352 448.948 36.3352C449.356 36.3352 449.691 36.4257 449.952 36.6065C450.22 36.7874 450.418 37.0318 450.545 37.3399C450.679 37.6414 450.746 37.9796 450.746 38.3547V41.7808H449.902V38.5958C449.902 38.2676 449.862 37.993 449.782 37.772C449.708 37.5442 449.587 37.3734 449.42 37.2596C449.253 37.139 449.035 37.0787 448.767 37.0787C448.358 37.0787 448.02 37.2093 447.752 37.4706C447.491 37.7251 447.36 38.1002 447.36 38.5958V41.7808H446.516ZM452.141 43.2878V42.5443H452.754C452.942 42.5443 453.079 42.5142 453.166 42.4539C453.26 42.4003 453.33 42.3099 453.377 42.1826L453.568 41.6803H453.277L451.328 36.4558H452.252L453.839 40.8966L455.357 36.4558H456.281L454.121 42.4539C454.02 42.7419 453.87 42.9529 453.669 43.0869C453.468 43.2208 453.19 43.2878 452.835 43.2878H452.141ZM458.91 41.7808C458.428 41.7808 458.07 41.6702 457.835 41.4492C457.607 41.2282 457.494 40.8832 457.494 40.4144V35.21H458.337V40.3943C458.337 40.6354 458.391 40.8028 458.498 40.8966C458.605 40.9904 458.769 41.0373 458.991 41.0373H459.754V41.7808H458.91ZM456.71 37.1993V36.4558H459.754V37.1993H456.71ZM460.736 41.7808V34.6473H461.58V37.6313L461.48 37.6112C461.547 37.3165 461.66 37.0754 461.821 36.8878C461.982 36.7003 462.18 36.563 462.414 36.4759C462.648 36.3821 462.906 36.3352 463.188 36.3352C463.569 36.3352 463.891 36.4223 464.152 36.5965C464.42 36.7639 464.621 37.0017 464.755 37.3098C464.896 37.6112 464.966 37.9595 464.966 38.3547V41.7808H464.122V38.5958C464.122 38.0801 464.028 37.6983 463.841 37.4505C463.66 37.2026 463.382 37.0787 463.007 37.0787C462.578 37.0787 462.233 37.2093 461.972 37.4706C461.711 37.7318 461.58 38.1102 461.58 38.6059V41.7808H460.736ZM466.375 41.7808V36.4558H467.219V41.7808H466.375ZM466.355 35.6219V34.6373H467.24V35.6219H466.355ZM468.826 41.7808V36.4558H469.6L469.63 37.8122L469.529 37.7217C469.596 37.4069 469.714 37.1491 469.881 36.9481C470.048 36.7405 470.249 36.5864 470.484 36.4859C470.725 36.3855 470.983 36.3352 471.257 36.3352C471.666 36.3352 472.001 36.4257 472.262 36.6065C472.53 36.7874 472.728 37.0318 472.855 37.3399C472.989 37.6414 473.056 37.9796 473.056 38.3547V41.7808H472.212V38.5958C472.212 38.2676 472.172 37.993 472.091 37.772C472.018 37.5442 471.897 37.3734 471.73 37.2596C471.562 37.139 471.344 37.0787 471.077 37.0787C470.668 37.0787 470.33 37.2093 470.062 37.4706C469.801 37.7251 469.67 38.1002 469.67 38.5958V41.7808H468.826ZM476.465 43.4084C476.083 43.4084 475.738 43.3448 475.43 43.2175C475.122 43.0902 474.864 42.9094 474.657 42.675C474.449 42.4405 474.308 42.1692 474.235 41.8611L475.119 41.8009C475.199 42.0487 475.34 42.2429 475.541 42.3836C475.748 42.5309 476.057 42.6046 476.465 42.6046C476.947 42.6046 477.316 42.5075 477.57 42.3133C477.832 42.119 477.962 41.8276 477.962 41.4392V40.5751C477.835 40.8564 477.631 41.0808 477.349 41.2483C477.068 41.4157 476.753 41.4994 476.405 41.4994C475.956 41.4994 475.554 41.3889 475.199 41.1679C474.851 40.9469 474.576 40.6421 474.375 40.2536C474.181 39.8651 474.084 39.4197 474.084 38.9173C474.084 38.4083 474.181 37.9629 474.375 37.5811C474.57 37.1926 474.838 36.8878 475.179 36.6668C475.527 36.4458 475.923 36.3352 476.365 36.3352C476.74 36.3352 477.075 36.4223 477.369 36.5965C477.671 36.7706 477.882 37.005 478.002 37.2998V36.4558H478.806V41.4191C478.806 41.8343 478.712 42.1893 478.525 42.4841C478.337 42.7855 478.069 43.0132 477.721 43.1673C477.373 43.328 476.954 43.4084 476.465 43.4084ZM476.445 40.6957C476.901 40.6957 477.266 40.5383 477.54 40.2235C477.815 39.902 477.955 39.4666 477.962 38.9173C477.969 38.5489 477.909 38.2341 477.781 37.9729C477.661 37.705 477.483 37.5007 477.249 37.36C477.021 37.2127 476.753 37.139 476.445 37.139C475.976 37.139 475.611 37.2998 475.35 37.6213C475.095 37.9361 474.968 38.3681 474.968 38.9173C474.968 39.4666 475.099 39.902 475.36 40.2235C475.628 40.5383 475.99 40.6957 476.445 40.6957Z" fill="#4F7471"/>
<g filter="url(#filter8_dd_17161_72668)">
<rect x="541.787" y="30.769" width="15.0706" height="16.0235" rx="2.51177" fill="white"/>
<path d="M546.872 42.2808C546.403 42.2808 546.028 42.1435 545.747 41.8688C545.472 41.5942 545.335 41.2258 545.335 40.7637C545.335 40.2747 545.479 39.8963 545.767 39.6283C546.061 39.3537 546.493 39.2164 547.063 39.2164H547.656V38.1112H547.063C546.493 38.1112 546.061 37.9773 545.767 37.7093C545.479 37.4347 545.335 37.0529 545.335 36.564C545.335 36.1018 545.472 35.7334 545.747 35.4588C546.028 35.1842 546.403 35.0469 546.872 35.0469C547.247 35.0469 547.542 35.1172 547.756 35.2578C547.977 35.3985 548.131 35.586 548.218 35.8205C548.312 36.0549 548.359 36.3128 548.359 36.5941V37.428H549.464V36.5941C549.464 36.3128 549.508 36.0549 549.595 35.8205C549.688 35.586 549.842 35.3985 550.057 35.2578C550.278 35.1172 550.576 35.0469 550.951 35.0469C551.42 35.0469 551.792 35.1842 552.066 35.4588C552.348 35.7334 552.488 36.1018 552.488 36.564C552.488 37.0529 552.344 37.4347 552.056 37.7093C551.768 37.9773 551.336 38.1112 550.76 38.1112H550.167V39.2164H550.76C551.336 39.2164 551.768 39.3537 552.056 39.6283C552.344 39.8963 552.488 40.2747 552.488 40.7637C552.488 41.2258 552.348 41.5942 552.066 41.8688C551.792 42.1435 551.42 42.2808 550.951 42.2808C550.576 42.2808 550.278 42.2104 550.057 42.0698C549.842 41.9291 549.688 41.7416 549.595 41.5071C549.508 41.2727 549.464 41.0148 549.464 40.7335V39.8996H548.359V40.7335C548.359 41.0148 548.312 41.2727 548.218 41.5071C548.131 41.7416 547.977 41.9291 547.756 42.0698C547.542 42.2104 547.247 42.2808 546.872 42.2808ZM550.167 36.574V37.428H550.76C551.115 37.428 551.373 37.3577 551.534 37.217C551.694 37.0697 551.775 36.852 551.775 36.564C551.775 36.2692 551.694 36.0583 551.534 35.931C551.38 35.8037 551.185 35.7401 550.951 35.7401C550.69 35.7401 550.492 35.8171 550.358 35.9712C550.231 36.1185 550.167 36.3195 550.167 36.574ZM547.063 37.428H547.656V36.574C547.656 36.3195 547.589 36.1185 547.455 35.9712C547.327 35.8171 547.133 35.7401 546.872 35.7401C546.637 35.7401 546.44 35.8037 546.279 35.931C546.125 36.0583 546.048 36.2692 546.048 36.564C546.048 36.852 546.128 37.0697 546.289 37.217C546.45 37.3577 546.708 37.428 547.063 37.428ZM548.359 39.2164H549.464V38.1112H548.359V39.2164ZM546.872 41.5875C547.133 41.5875 547.327 41.5138 547.455 41.3665C547.589 41.2124 547.656 41.0081 547.656 40.7536V39.8996H547.063C546.708 39.8996 546.45 39.9733 546.289 40.1206C546.128 40.2613 546.048 40.4756 546.048 40.7637C546.048 41.0584 546.125 41.2694 546.279 41.3966C546.44 41.5239 546.637 41.5875 546.872 41.5875ZM550.167 40.7536C550.167 41.0081 550.231 41.2124 550.358 41.3665C550.492 41.5138 550.69 41.5875 550.951 41.5875C551.185 41.5875 551.38 41.5239 551.534 41.3966C551.694 41.2694 551.775 41.0584 551.775 40.7637C551.775 40.4756 551.694 40.2613 551.534 40.1206C551.373 39.9733 551.115 39.8996 550.76 39.8996H550.167V40.7536Z" fill="#95ACAA"/>
</g>
<g filter="url(#filter9_dd_17161_72668)">
<rect x="559.369" y="30.769" width="15.0706" height="16.0235" rx="2.51177" fill="white"/>
<path d="M564.829 42.2808V35.1473H569.31V35.9913H565.261L565.693 35.5492V38.8246L565.261 38.3825H569.129V39.2064H565.261L565.693 38.7643V42.2808H564.829Z" fill="#95ACAA"/>
</g>
<line x1="592.336" y1="29.9897" x2="592.336" y2="47.5722" stroke="#DCE3E3" stroke-width="0.627943"/>
<path d="M613.372 35.4843C612.72 35.4843 612.083 35.6776 611.541 36.0399C610.999 36.4021 610.576 36.917 610.326 37.5194C610.077 38.1218 610.012 38.7847 610.139 39.4241C610.266 40.0636 610.58 40.6511 611.041 41.1121C611.502 41.5732 612.09 41.8871 612.729 42.0144C613.369 42.1416 614.031 42.0763 614.634 41.8267C615.236 41.5772 615.751 41.1547 616.113 40.6125C616.476 40.0704 616.669 39.433 616.669 38.781C616.668 37.9069 616.32 37.0689 615.702 36.4509C615.084 35.8328 614.246 35.4852 613.372 35.4843ZM613.372 40.9788C612.938 40.9788 612.513 40.8499 612.151 40.6084C611.79 40.3669 611.508 40.0237 611.342 39.6221C611.175 39.2205 611.132 38.7786 611.217 38.3522C611.301 37.9259 611.511 37.5343 611.818 37.2269C612.126 36.9195 612.517 36.7102 612.943 36.6254C613.37 36.5406 613.812 36.5841 614.213 36.7505C614.615 36.9168 614.958 37.1985 615.2 37.56C615.441 37.9214 615.57 38.3463 615.57 38.781C615.57 39.3639 615.338 39.9229 614.926 40.3351C614.514 40.7472 613.955 40.9788 613.372 40.9788ZM620.923 37.3531C620.908 37.2757 620.876 37.2026 620.83 37.1386C620.784 37.0746 620.724 37.0213 620.656 36.9822L618.607 35.8146L618.599 33.5056C618.599 33.4261 618.581 33.3475 618.548 33.2754C618.514 33.2033 618.465 33.1394 618.405 33.088C617.661 32.4594 616.805 31.9776 615.883 31.6684C615.81 31.6438 615.733 31.6347 615.656 31.6416C615.58 31.6486 615.506 31.6715 615.439 31.7089L613.372 32.8641L611.304 31.7068C611.236 31.6692 611.162 31.6462 611.086 31.6391C611.009 31.632 610.932 31.641 610.859 31.6656C609.937 31.9771 609.082 32.4607 608.34 33.0907C608.279 33.1421 608.231 33.2059 608.197 33.2779C608.163 33.3498 608.146 33.4282 608.146 33.5076L608.135 35.8188L606.087 36.9864C606.018 37.0254 605.959 37.0787 605.913 37.1427C605.866 37.2067 605.835 37.2799 605.819 37.3572C605.632 38.2995 605.632 39.2694 605.819 40.2116C605.835 40.289 605.866 40.3622 605.913 40.4262C605.959 40.4902 606.018 40.5435 606.087 40.5825L608.135 41.7501L608.144 44.0592C608.144 44.1387 608.161 44.2172 608.195 44.2893C608.228 44.3614 608.277 44.4253 608.338 44.4767C609.081 45.1054 609.937 45.5871 610.86 45.8964C610.933 45.921 611.01 45.9301 611.086 45.9231C611.162 45.9161 611.237 45.8932 611.304 45.8559L613.372 44.6979L615.441 45.8552C615.523 45.9008 615.615 45.9244 615.709 45.9239C615.769 45.9238 615.828 45.9141 615.885 45.895C616.807 45.5839 617.662 45.1008 618.405 44.4712C618.465 44.4199 618.514 44.3561 618.547 44.2841C618.581 44.2121 618.599 44.1338 618.599 44.0543L618.609 41.7432L620.658 40.5756C620.726 40.5366 620.786 40.4833 620.832 40.4193C620.878 40.3553 620.91 40.2821 620.925 40.2048C621.112 39.2633 621.111 38.2943 620.923 37.3531ZM619.893 39.7508L617.931 40.8668C617.845 40.9157 617.773 40.9869 617.725 41.0729C617.685 41.1416 617.643 41.2144 617.6 41.2831C617.546 41.3697 617.517 41.4699 617.516 41.5722L617.506 43.7872C616.979 44.2014 616.391 44.5326 615.764 44.7693L613.784 43.6663C613.702 43.6208 613.61 43.5972 613.516 43.5976H613.503C613.42 43.5976 613.336 43.5976 613.253 43.5976C613.154 43.5952 613.057 43.6189 612.971 43.6663L610.99 44.7721C610.362 44.5371 609.772 44.2075 609.243 43.7947L609.236 41.5832C609.235 41.4807 609.206 41.3803 609.152 41.2934C609.109 41.2247 609.067 41.156 609.028 41.0832C608.98 40.9959 608.908 40.9233 608.822 40.873L606.858 39.7542C606.756 39.1112 606.756 38.4563 606.858 37.8133L608.817 36.6951C608.903 36.6463 608.974 36.5751 609.023 36.4891C609.062 36.4204 609.104 36.3476 609.147 36.2789C609.201 36.1923 609.23 36.0921 609.231 35.9898L609.241 33.7748C609.768 33.3606 610.356 33.0294 610.983 32.7927L612.96 33.8957C613.046 33.9434 613.143 33.9671 613.242 33.9644C613.325 33.9644 613.409 33.9644 613.492 33.9644C613.59 33.9668 613.687 33.9431 613.773 33.8957L615.754 32.7899C616.383 33.0249 616.972 33.3544 617.501 33.7673L617.509 35.9788C617.509 36.0813 617.538 36.1817 617.593 36.2686C617.635 36.3373 617.677 36.406 617.716 36.4788C617.765 36.5661 617.836 36.6387 617.922 36.689L619.887 37.8078C619.99 38.4513 619.991 39.1069 619.89 39.7508H619.893Z" fill="#4F7471"/>
<path d="M640.571 42.3525C640.571 42.5155 640.522 42.6748 640.432 42.8104C640.341 42.9459 640.212 43.0515 640.062 43.1139C639.911 43.1763 639.745 43.1926 639.586 43.1608C639.426 43.129 639.279 43.0505 639.164 42.9352C639.048 42.82 638.97 42.6731 638.938 42.5133C638.906 42.3534 638.923 42.1877 638.985 42.0371C639.047 41.8865 639.153 41.7578 639.288 41.6672C639.424 41.5766 639.583 41.5283 639.746 41.5283C639.965 41.5283 640.175 41.6151 640.329 41.7697C640.484 41.9243 640.571 42.1339 640.571 42.3525ZM639.746 34.9349C638.231 34.9349 636.999 36.0441 636.999 37.4074V37.6821C636.999 37.8279 637.057 37.9676 637.16 38.0707C637.263 38.1737 637.403 38.2316 637.549 38.2316C637.694 38.2316 637.834 38.1737 637.937 38.0707C638.04 37.9676 638.098 37.8279 638.098 37.6821V37.4074C638.098 36.6519 638.838 36.0338 639.746 36.0338C640.655 36.0338 641.395 36.6519 641.395 37.4074C641.395 38.1629 640.655 38.781 639.746 38.781C639.601 38.781 639.461 38.8389 639.358 38.942C639.255 39.045 639.197 39.1848 639.197 39.3305V39.8799C639.197 40.0257 639.255 40.1654 639.358 40.2685C639.461 40.3715 639.601 40.4294 639.746 40.4294C639.892 40.4294 640.032 40.3715 640.135 40.2685C640.238 40.1654 640.296 40.0257 640.296 39.8799V39.8305C641.549 39.6004 642.494 38.6011 642.494 37.4074C642.494 36.0441 641.261 34.9349 639.746 34.9349ZM646.889 38.781C646.889 40.1938 646.47 41.5748 645.685 42.7494C644.901 43.924 643.785 44.8396 642.48 45.3802C641.175 45.9208 639.738 46.0623 638.353 45.7866C636.967 45.511 635.695 44.8307 634.696 43.8318C633.697 42.8329 633.016 41.5601 632.741 40.1745C632.465 38.789 632.607 37.3528 633.147 36.0476C633.688 34.7424 634.603 33.6268 635.778 32.842C636.953 32.0571 638.334 31.6382 639.746 31.6382C641.64 31.6402 643.456 32.3934 644.795 33.7325C646.134 35.0716 646.887 36.8873 646.889 38.781ZM645.79 38.781C645.79 37.5857 645.436 36.4171 644.772 35.4232C644.108 34.4293 643.164 33.6546 642.059 33.1972C640.955 32.7397 639.74 32.62 638.567 32.8532C637.395 33.0864 636.318 33.6621 635.473 34.5073C634.627 35.3526 634.052 36.4295 633.819 37.6019C633.585 38.7743 633.705 39.9896 634.162 41.094C634.62 42.1984 635.395 43.1423 636.389 43.8064C637.382 44.4705 638.551 44.825 639.746 44.825C641.349 44.8232 642.885 44.1858 644.018 43.0528C645.151 41.9197 645.789 40.3834 645.79 38.781Z" fill="#4F7471"/>
<line x1="661.41" y1="29.9897" x2="661.41" y2="47.5722" stroke="#DCE3E3" stroke-width="0.627943"/>
<rect x="673.969" y="26.0713" width="24.4192" height="25.4192" rx="12.2096" fill="#DCE3E3"/>
<rect x="673.969" y="26.0713" width="24.4192" height="25.4192" rx="12.2096" stroke="#B9C7C6" stroke-width="0.627943"/>
<path d="M682.115 42.9616C681.535 42.9616 681.033 42.8373 680.612 42.5886C680.19 42.3324 679.866 41.982 679.639 41.5374C679.421 41.0853 679.308 40.5729 679.3 40.0002L680.781 39.9211C680.796 40.5089 680.917 40.9497 681.143 41.2436C681.376 41.5374 681.7 41.6844 682.115 41.6844C682.537 41.6844 682.865 41.5374 683.098 41.2436C683.332 40.9421 683.449 40.5013 683.449 39.9211V34.7556H684.918V39.9211C684.918 40.539 684.801 41.0778 684.568 41.5374C684.334 41.9896 684.006 42.3399 683.584 42.5886C683.17 42.8373 682.68 42.9616 682.115 42.9616ZM686.499 42.7808V34.7556H689.505C690.485 34.7556 691.227 34.929 691.732 35.2756C692.244 35.6222 692.5 36.1723 692.5 36.9258C692.5 37.2649 692.429 37.5626 692.286 37.8188C692.15 38.0674 691.947 38.2633 691.675 38.4065C691.412 38.5497 691.091 38.6288 690.715 38.6439L690.703 38.6213C691.389 38.6439 691.916 38.8323 692.286 39.1864C692.655 39.533 692.839 39.9965 692.839 40.5767C692.839 41.3151 692.583 41.869 692.071 42.2382C691.566 42.5999 690.846 42.7808 689.912 42.7808H686.499ZM687.968 41.5374H689.844C690.304 41.5374 690.666 41.4432 690.929 41.2549C691.201 41.0665 691.336 40.7877 691.336 40.4184C691.336 40.0492 691.204 39.7666 690.941 39.5707C690.677 39.3748 690.311 39.2768 689.844 39.2768H687.968V41.5374ZM687.968 38.1239H689.46C689.942 38.1239 690.319 38.0335 690.59 37.8527C690.861 37.6718 690.997 37.4081 690.997 37.0615C690.997 36.6998 690.865 36.4323 690.602 36.2589C690.338 36.0856 689.957 35.999 689.46 35.999H687.968V38.1239Z" fill="#72908D"/>
<rect x="26.6328" y="96.3941" width="666.102" height="73.4591" rx="10.4419" fill="white"/>
<rect x="26.6328" y="96.3941" width="666.102" height="73.4591" rx="10.4419" stroke="#EDF1F1" stroke-width="0.77347"/>
<g opacity="0.9">
<rect x="41.7158" y="115.924" width="74.0973" height="5.02355" rx="2.51177" fill="#EDF1F1"/>
</g>
<g opacity="0.9">
<rect x="41.7158" y="130.229" width="84.1444" height="20.0942" rx="10.0471" fill="#D5D9D9"/>
</g>
<line x1="156.222" y1="102.185" x2="156.222" y2="164.062" stroke="#EBEBEB" stroke-width="0.627943"/>
<g opacity="0.9">
<rect x="177.566" y="115.924" width="74.0973" height="5.02355" rx="2.51177" fill="#EDF1F1"/>
</g>
<g opacity="0.9">
<rect x="177.566" y="130.229" width="84.1444" height="20.0942" rx="10.0471" fill="#DCE3E2"/>
</g>
<line x1="292.073" y1="102.185" x2="292.073" y2="164.062" stroke="#EBEBEB" stroke-width="0.627943"/>
<g opacity="0.9">
<rect x="313.416" y="115.924" width="74.0973" height="5.02355" rx="2.51177" fill="#EDF1F1"/>
</g>
<g opacity="0.9">
<rect x="313.416" y="130.229" width="84.1444" height="20.0942" rx="10.0471" fill="#DCE3E2"/>
</g>
<line x1="427.923" y1="102.185" x2="427.923" y2="164.062" stroke="#EBEBEB" stroke-width="0.627943"/>
<g opacity="0.9">
<rect x="449.267" y="115.924" width="74.0973" height="5.02355" rx="2.51177" fill="#EDF1F1"/>
</g>
<g opacity="0.9">
<rect x="449.267" y="130.229" width="84.1444" height="20.0942" rx="10.0471" fill="#DCE3E2"/>
</g>
<line x1="563.774" y1="102.185" x2="563.774" y2="164.062" stroke="#EBEBEB" stroke-width="0.627943"/>
<g opacity="0.9">
<rect x="585.117" y="115.924" width="74.0973" height="5.02355" rx="2.51177" fill="#EDF1F1"/>
</g>
<g opacity="0.9">
<rect x="585.117" y="130.229" width="84.1444" height="20.0942" rx="10.0471" fill="#DCE3E2"/>
</g>
<defs>
<filter id="filter0_dd_17161_72668" x="34.789" y="36.2011" width="15.5733" height="15.5103" filterUnits="userSpaceOnUse" color-interpolation-filters="sRGB">
<feFlood flood-opacity="0" result="BackgroundImageFix"/>
<feColorMatrix in="SourceAlpha" type="matrix" values="0 0 0 0 0 0 0 0 0 0 0 0 0 0 0 0 0 0 127 0" result="hardAlpha"/>
<feOffset dy="0.627943"/>
<feGaussianBlur stdDeviation="0.313972"/>
<feComposite in2="hardAlpha" operator="out"/>
<feColorMatrix type="matrix" values="0 0 0 0 0 0 0 0 0 0 0 0 0 0 0 0 0 0 0.25 0"/>
<feBlend mode="normal" in2="BackgroundImageFix" result="effect1_dropShadow_17161_72668"/>
<feColorMatrix in="SourceAlpha" type="matrix" values="0 0 0 0 0 0 0 0 0 0 0 0 0 0 0 0 0 0 127 0" result="hardAlpha"/>
<feOffset dy="-0.627943"/>
<feGaussianBlur stdDeviation="0.313972"/>
<feComposite in2="hardAlpha" operator="out"/>
<feColorMatrix type="matrix" values="0 0 0 0 1 0 0 0 0 1 0 0 0 0 1 0 0 0 0.25 0"/>
<feBlend mode="normal" in2="effect1_dropShadow_17161_72668" result="effect2_dropShadow_17161_72668"/>
<feBlend mode="normal" in="SourceGraphic" in2="effect2_dropShadow_17161_72668" result="shape"/>
</filter>
<filter id="filter1_d_17161_72668" x="46.9687" y="331.554" width="17.9415" height="67.19" filterUnits="userSpaceOnUse" color-interpolation-filters="sRGB">
<feFlood flood-opacity="0" result="BackgroundImageFix"/>
<feColorMatrix in="SourceAlpha" type="matrix" values="0 0 0 0 0 0 0 0 0 0 0 0 0 0 0 0 0 0 127 0" result="hardAlpha"/>
<feMorphology radius="1.25589" operator="dilate" in="SourceAlpha" result="effect1_dropShadow_17161_72668"/>
<feOffset/>
<feComposite in2="hardAlpha" operator="out"/>
<feColorMatrix type="matrix" values="0 0 0 0 0.962664 0 0 0 0 0.977718 0 0 0 0 0.976307 0 0 0 1 0"/>
<feBlend mode="normal" in2="BackgroundImageFix" result="effect1_dropShadow_17161_72668"/>
<feBlend mode="normal" in="SourceGraphic" in2="effect1_dropShadow_17161_72668" result="shape"/>
</filter>
<filter id="filter2_d_17161_72668" x="88.7715" y="317.739" width="17.9415" height="81.0049" filterUnits="userSpaceOnUse" color-interpolation-filters="sRGB">
<feFlood flood-opacity="0" result="BackgroundImageFix"/>
<feColorMatrix in="SourceAlpha" type="matrix" values="0 0 0 0 0 0 0 0 0 0 0 0 0 0 0 0 0 0 127 0" result="hardAlpha"/>
<feMorphology radius="1.25589" operator="dilate" in="SourceAlpha" result="effect1_dropShadow_17161_72668"/>
<feOffset/>
<feComposite in2="hardAlpha" operator="out"/>
<feColorMatrix type="matrix" values="0 0 0 0 0.962664 0 0 0 0 0.977718 0 0 0 0 0.976307 0 0 0 1 0"/>
<feBlend mode="normal" in2="BackgroundImageFix" result="effect1_dropShadow_17161_72668"/>
<feBlend mode="normal" in="SourceGraphic" in2="effect1_dropShadow_17161_72668" result="shape"/>
</filter>
<filter id="filter3_d_17161_72668" x="130.575" y="280.691" width="17.9415" height="118.053" filterUnits="userSpaceOnUse" color-interpolation-filters="sRGB">
<feFlood flood-opacity="0" result="BackgroundImageFix"/>
<feColorMatrix in="SourceAlpha" type="matrix" values="0 0 0 0 0 0 0 0 0 0 0 0 0 0 0 0 0 0 127 0" result="hardAlpha"/>
<feMorphology radius="1.25589" operator="dilate" in="SourceAlpha" result="effect1_dropShadow_17161_72668"/>
<feOffset/>
<feComposite in2="hardAlpha" operator="out"/>
<feColorMatrix type="matrix" values="0 0 0 0 0.962664 0 0 0 0 0.977718 0 0 0 0 0.976307 0 0 0 1 0"/>
<feBlend mode="normal" in2="BackgroundImageFix" result="effect1_dropShadow_17161_72668"/>
<feBlend mode="normal" in="SourceGraphic" in2="effect1_dropShadow_17161_72668" result="shape"/>
</filter>
<filter id="filter4_d_17161_72668" x="172.378" y="352.276" width="17.9415" height="46.4678" filterUnits="userSpaceOnUse" color-interpolation-filters="sRGB">
<feFlood flood-opacity="0" result="BackgroundImageFix"/>
<feColorMatrix in="SourceAlpha" type="matrix" values="0 0 0 0 0 0 0 0 0 0 0 0 0 0 0 0 0 0 127 0" result="hardAlpha"/>
<feMorphology radius="1.25589" operator="dilate" in="SourceAlpha" result="effect1_dropShadow_17161_72668"/>
<feOffset/>
<feComposite in2="hardAlpha" operator="out"/>
<feColorMatrix type="matrix" values="0 0 0 0 0.962664 0 0 0 0 0.977718 0 0 0 0 0.976307 0 0 0 1 0"/>
<feBlend mode="normal" in2="BackgroundImageFix" result="effect1_dropShadow_17161_72668"/>
<feBlend mode="normal" in="SourceGraphic" in2="effect1_dropShadow_17161_72668" result="shape"/>
</filter>
<filter id="filter5_d_17161_72668" x="214.181" y="317.74" width="17.9415" height="81.0049" filterUnits="userSpaceOnUse" color-interpolation-filters="sRGB">
<feFlood flood-opacity="0" result="BackgroundImageFix"/>
<feColorMatrix in="SourceAlpha" type="matrix" values="0 0 0 0 0 0 0 0 0 0 0 0 0 0 0 0 0 0 127 0" result="hardAlpha"/>
<feMorphology radius="1.25589" operator="dilate" in="SourceAlpha" result="effect1_dropShadow_17161_72668"/>
<feOffset/>
<feComposite in2="hardAlpha" operator="out"/>
<feColorMatrix type="matrix" values="0 0 0 0 0.962664 0 0 0 0 0.977718 0 0 0 0 0.976307 0 0 0 1 0"/>
<feBlend mode="normal" in2="BackgroundImageFix" result="effect1_dropShadow_17161_72668"/>
<feBlend mode="normal" in="SourceGraphic" in2="effect1_dropShadow_17161_72668" result="shape"/>
</filter>
<filter id="filter6_d_17161_72668" x="255.984" y="308.32" width="17.9415" height="90.4239" filterUnits="userSpaceOnUse" color-interpolation-filters="sRGB">
<feFlood flood-opacity="0" result="BackgroundImageFix"/>
<feColorMatrix in="SourceAlpha" type="matrix" values="0 0 0 0 0 0 0 0 0 0 0 0 0 0 0 0 0 0 127 0" result="hardAlpha"/>
<feMorphology radius="1.25589" operator="dilate" in="SourceAlpha" result="effect1_dropShadow_17161_72668"/>
<feOffset/>
<feComposite in2="hardAlpha" operator="out"/>
<feColorMatrix type="matrix" values="0 0 0 0 0.962664 0 0 0 0 0.977718 0 0 0 0 0.976307 0 0 0 1 0"/>
<feBlend mode="normal" in2="BackgroundImageFix" result="effect1_dropShadow_17161_72668"/>
<feBlend mode="normal" in="SourceGraphic" in2="effect1_dropShadow_17161_72668" result="shape"/>
</filter>
<filter id="filter7_d_17161_72668" x="297.787" y="324.019" width="17.9415" height="74.7252" filterUnits="userSpaceOnUse" color-interpolation-filters="sRGB">
<feFlood flood-opacity="0" result="BackgroundImageFix"/>
<feColorMatrix in="SourceAlpha" type="matrix" values="0 0 0 0 0 0 0 0 0 0 0 0 0 0 0 0 0 0 127 0" result="hardAlpha"/>
<feMorphology radius="1.25589" operator="dilate" in="SourceAlpha" result="effect1_dropShadow_17161_72668"/>
<feOffset/>
<feComposite in2="hardAlpha" operator="out"/>
<feColorMatrix type="matrix" values="0 0 0 0 0.962664 0 0 0 0 0.977718 0 0 0 0 0.976307 0 0 0 1 0"/>
<feBlend mode="normal" in2="BackgroundImageFix" result="effect1_dropShadow_17161_72668"/>
<feBlend mode="normal" in="SourceGraphic" in2="effect1_dropShadow_17161_72668" result="shape"/>
</filter>
<filter id="filter8_dd_17161_72668" x="539.903" y="29.5132" width="18.838" height="19.7911" filterUnits="userSpaceOnUse" color-interpolation-filters="sRGB">
<feFlood flood-opacity="0" result="BackgroundImageFix"/>
<feColorMatrix in="SourceAlpha" type="matrix" values="0 0 0 0 0 0 0 0 0 0 0 0 0 0 0 0 0 0 127 0" result="hardAlpha"/>
<feOffset dy="0.627943"/>
<feGaussianBlur stdDeviation="0.627943"/>
<feColorMatrix type="matrix" values="0 0 0 0 0.0941176 0 0 0 0 0.137255 0 0 0 0 0.133333 0 0 0 0.06 0"/>
<feBlend mode="normal" in2="BackgroundImageFix" result="effect1_dropShadow_17161_72668"/>
<feColorMatrix in="SourceAlpha" type="matrix" values="0 0 0 0 0 0 0 0 0 0 0 0 0 0 0 0 0 0 127 0" result="hardAlpha"/>
<feOffset dy="0.627943"/>
<feGaussianBlur stdDeviation="0.941915"/>
<feColorMatrix type="matrix" values="0 0 0 0 0.0941176 0 0 0 0 0.137255 0 0 0 0 0.133333 0 0 0 0.1 0"/>
<feBlend mode="normal" in2="effect1_dropShadow_17161_72668" result="effect2_dropShadow_17161_72668"/>
<feBlend mode="normal" in="SourceGraphic" in2="effect2_dropShadow_17161_72668" result="shape"/>
</filter>
<filter id="filter9_dd_17161_72668" x="557.485" y="29.5132" width="18.838" height="19.7911" filterUnits="userSpaceOnUse" color-interpolation-filters="sRGB">
<feFlood flood-opacity="0" result="BackgroundImageFix"/>
<feColorMatrix in="SourceAlpha" type="matrix" values="0 0 0 0 0 0 0 0 0 0 0 0 0 0 0 0 0 0 127 0" result="hardAlpha"/>
<feOffset dy="0.627943"/>
<feGaussianBlur stdDeviation="0.627943"/>
<feColorMatrix type="matrix" values="0 0 0 0 0.0941176 0 0 0 0 0.137255 0 0 0 0 0.133333 0 0 0 0.06 0"/>
<feBlend mode="normal" in2="BackgroundImageFix" result="effect1_dropShadow_17161_72668"/>
<feColorMatrix in="SourceAlpha" type="matrix" values="0 0 0 0 0 0 0 0 0 0 0 0 0 0 0 0 0 0 127 0" result="hardAlpha"/>
<feOffset dy="0.627943"/>
<feGaussianBlur stdDeviation="0.941915"/>
<feColorMatrix type="matrix" values="0 0 0 0 0.0941176 0 0 0 0 0.137255 0 0 0 0 0.133333 0 0 0 0.1 0"/>
<feBlend mode="normal" in2="effect1_dropShadow_17161_72668" result="effect2_dropShadow_17161_72668"/>
<feBlend mode="normal" in="SourceGraphic" in2="effect2_dropShadow_17161_72668" result="shape"/>
</filter>
<linearGradient id="paint0_linear_17161_72668" x1="42.5725" y1="31.397" x2="42.5725" y2="56.5147" gradientUnits="userSpaceOnUse">
<stop stop-color="#6687FF"/>
<stop offset="0.5" stop-color="#0037FF"/>
<stop offset="1" stop-color="#335FFF"/>
</linearGradient>
<clipPath id="clip0_17161_72668">
<rect width="15.0706" height="15.0706" fill="white" transform="translate(35.0371 36.4204)"/>
</clipPath>
<clipPath id="clip1_17161_72668">
<rect width="318.995" height="171.429" fill="white" transform="translate(35.665 251.177)"/>
</clipPath>
<clipPath id="clip2_17161_72668">
<rect x="48.2246" y="332.81" width="15.4295" height="64.6782" rx="3.76766" fill="white"/>
</clipPath>
<clipPath id="clip3_17161_72668">
<rect x="90.0273" y="318.995" width="15.4295" height="78.4929" rx="3.76766" fill="white"/>
</clipPath>
<clipPath id="clip4_17161_72668">
<rect x="131.831" y="281.947" width="15.4295" height="115.542" rx="3.76766" fill="white"/>
</clipPath>
<clipPath id="clip5_17161_72668">
<rect x="173.634" y="353.532" width="15.4295" height="43.956" rx="3.76766" fill="white"/>
</clipPath>
<clipPath id="clip6_17161_72668">
<rect x="215.437" y="318.996" width="15.4295" height="78.4929" rx="3.76766" fill="white"/>
</clipPath>
<clipPath id="clip7_17161_72668">
<rect x="257.24" y="309.576" width="15.4295" height="87.9121" rx="3.76766" fill="white"/>
</clipPath>
<clipPath id="clip8_17161_72668">
<rect x="299.043" y="325.275" width="15.4295" height="72.2135" rx="3.76766" fill="white"/>
</clipPath>
</defs>
</svg>
