<svg width="60" height="60" viewBox="0 0 60 60" fill="none" xmlns="http://www.w3.org/2000/svg">
<g filter="url(#filter0_ii_17139_62257)">
<path d="M26.3312 7.77426H33.7542C34.2464 7.77426 34.7184 7.96978 35.0664 8.3178C35.4144 8.66582 35.61 9.13784 35.61 9.63002V48.601H39.3215V28.1876C39.3215 27.6954 39.517 27.2234 39.865 26.8754C40.213 26.5274 40.6851 26.3319 41.1772 26.3319H46.7445C47.2367 26.3319 47.7087 26.5274 48.0567 26.8754C48.4048 27.2234 48.6003 27.6954 48.6003 28.1876V48.601H50.456C50.9482 48.601 51.4202 48.7965 51.7683 49.1445C52.1163 49.4925 52.3118 49.9646 52.3118 50.4567C52.3118 50.9489 52.1163 51.4209 51.7683 51.769C51.4202 52.117 50.9482 52.3125 50.456 52.3125H9.62932C9.13714 52.3125 8.66512 52.117 8.3171 51.769C7.96908 51.4209 7.77356 50.9489 7.77356 50.4567C7.77356 49.9646 7.96908 49.4925 8.3171 49.1445C8.66512 48.7965 9.13714 48.601 9.62932 48.601H11.4851V20.7646C11.4851 20.2724 11.6806 19.8004 12.0286 19.4524C12.3766 19.1043 12.8487 18.9088 13.3408 18.9088H18.9081C19.4003 18.9088 19.8723 19.1043 20.2203 19.4524C20.5684 19.8004 20.7639 20.2724 20.7639 20.7646V48.601H24.4754V9.63002C24.4754 9.13784 24.6709 8.66582 25.0189 8.3178C25.367 7.96978 25.839 7.77426 26.3312 7.77426Z" fill="#72908D"/>
<path d="M26.3312 7.77426H33.7542C34.2464 7.77426 34.7184 7.96978 35.0664 8.3178C35.4144 8.66582 35.61 9.13784 35.61 9.63002V48.601H39.3215V28.1876C39.3215 27.6954 39.517 27.2234 39.865 26.8754C40.213 26.5274 40.6851 26.3319 41.1772 26.3319H46.7445C47.2367 26.3319 47.7087 26.5274 48.0567 26.8754C48.4048 27.2234 48.6003 27.6954 48.6003 28.1876V48.601H50.456C50.9482 48.601 51.4202 48.7965 51.7683 49.1445C52.1163 49.4925 52.3118 49.9646 52.3118 50.4567C52.3118 50.9489 52.1163 51.4209 51.7683 51.769C51.4202 52.117 50.9482 52.3125 50.456 52.3125H9.62932C9.13714 52.3125 8.66512 52.117 8.3171 51.769C7.96908 51.4209 7.77356 50.9489 7.77356 50.4567C7.77356 49.9646 7.96908 49.4925 8.3171 49.1445C8.66512 48.7965 9.13714 48.601 9.62932 48.601H11.4851V20.7646C11.4851 20.2724 11.6806 19.8004 12.0286 19.4524C12.3766 19.1043 12.8487 18.9088 13.3408 18.9088H18.9081C19.4003 18.9088 19.8723 19.1043 20.2203 19.4524C20.5684 19.8004 20.7639 20.2724 20.7639 20.7646V48.601H24.4754V9.63002C24.4754 9.13784 24.6709 8.66582 25.0189 8.3178C25.367 7.96978 25.839 7.77426 26.3312 7.77426Z" fill="#9CA2BD"/>
</g>
<path d="M26.3312 7.77426H33.7542C34.2464 7.77426 34.7184 7.96978 35.0664 8.3178C35.4144 8.66582 35.61 9.13784 35.61 9.63002V48.601H39.3215V28.1876C39.3215 27.6954 39.517 27.2234 39.865 26.8754C40.213 26.5274 40.6851 26.3319 41.1772 26.3319H46.7445C47.2367 26.3319 47.7087 26.5274 48.0567 26.8754C48.4048 27.2234 48.6003 27.6954 48.6003 28.1876V48.601H50.456C50.9482 48.601 51.4202 48.7965 51.7683 49.1445C52.1163 49.4925 52.3118 49.9646 52.3118 50.4567C52.3118 50.9489 52.1163 51.4209 51.7683 51.769C51.4202 52.117 50.9482 52.3125 50.456 52.3125H9.62932C9.13714 52.3125 8.66512 52.117 8.3171 51.769C7.96908 51.4209 7.77356 50.9489 7.77356 50.4567C7.77356 49.9646 7.96908 49.4925 8.3171 49.1445C8.66512 48.7965 9.13714 48.601 9.62932 48.601H11.4851V20.7646C11.4851 20.2724 11.6806 19.8004 12.0286 19.4524C12.3766 19.1043 12.8487 18.9088 13.3408 18.9088H18.9081C19.4003 18.9088 19.8723 19.1043 20.2203 19.4524C20.5684 19.8004 20.7639 20.2724 20.7639 20.7646V48.601H24.4754V9.63002C24.4754 9.13784 24.6709 8.66582 25.0189 8.3178C25.367 7.96978 25.839 7.77426 26.3312 7.77426Z" stroke="#83848D" stroke-opacity="0.01" style="mix-blend-mode:plus-darker"/>
<defs>
<filter id="filter0_ii_17139_62257" x="7.27356" y="6.27441" width="45.5382" height="47.5381" filterUnits="userSpaceOnUse" color-interpolation-filters="sRGB">
<feFlood flood-opacity="0" result="BackgroundImageFix"/>
<feBlend mode="normal" in="SourceGraphic" in2="BackgroundImageFix" result="shape"/>
<feColorMatrix in="SourceAlpha" type="matrix" values="0 0 0 0 0 0 0 0 0 0 0 0 0 0 0 0 0 0 127 0" result="hardAlpha"/>
<feOffset dy="1"/>
<feGaussianBlur stdDeviation="0.5"/>
<feComposite in2="hardAlpha" operator="arithmetic" k2="-1" k3="1"/>
<feColorMatrix type="matrix" values="0 0 0 0 0 0 0 0 0 0 0 0 0 0 0 0 0 0 0.15 0"/>
<feBlend mode="normal" in2="shape" result="effect1_innerShadow_17139_62257"/>
<feColorMatrix in="SourceAlpha" type="matrix" values="0 0 0 0 0 0 0 0 0 0 0 0 0 0 0 0 0 0 127 0" result="hardAlpha"/>
<feOffset dy="-1"/>
<feGaussianBlur stdDeviation="0.5"/>
<feComposite in2="hardAlpha" operator="arithmetic" k2="-1" k3="1"/>
<feColorMatrix type="matrix" values="0 0 0 0 1 0 0 0 0 1 0 0 0 0 1 0 0 0 0.15 0"/>
<feBlend mode="normal" in2="effect1_innerShadow_17139_62257" result="effect2_innerShadow_17139_62257"/>
</filter>
</defs>
</svg>
