<svg width="24" height="25" viewBox="0 0 24 25" fill="none" xmlns="http://www.w3.org/2000/svg">
<path fill-rule="evenodd" clip-rule="evenodd" d="M17.6484 15.6196C17.4234 15.8446 17.1182 15.971 16.8 15.971C16.4818 15.971 16.1767 15.8446 15.9516 15.6196L12 11.668L8.04842 15.6196C7.8221 15.8382 7.51898 15.9592 7.20434 15.9564C6.88971 15.9537 6.58873 15.8275 6.36624 15.605C6.14375 15.3825 6.01755 15.0815 6.01482 14.7669C6.01208 14.4523 6.13304 14.1492 6.35163 13.9228L11.1516 9.12283C11.3767 8.89786 11.6818 8.77148 12 8.77148C12.3182 8.77148 12.6234 8.89786 12.8484 9.12283L17.6484 13.9228C17.8734 14.1479 17.9998 14.453 17.9998 14.7712C17.9998 15.0894 17.8734 15.3946 17.6484 15.6196Z" fill="#141414"/>
</svg>
