<svg width="145" height="35" viewBox="0 0 145 35" fill="none" xmlns="http://www.w3.org/2000/svg">
<path d="M25.4553 26.653C25.1007 27.3875 24.3571 27.8542 23.5416 27.8542H11.9903C10.4184 27.8542 9.39055 26.2065 10.0819 24.7947L18.0594 8.50298C18.4162 7.77439 19.1566 7.3125 19.9679 7.3125L31.4065 7.3125C32.9733 7.3125 34.0014 8.95034 33.3202 10.3613L25.4553 26.653Z" fill="#444CE7"/>
<path opacity="0.5" d="M4.95033 19.5241C5.69489 21.155 8.00013 21.1878 8.79068 19.5786L13.3125 10.3745C14.0062 8.96251 12.9785 7.3125 11.4053 7.3125L2.68154 7.3125C1.13455 7.3125 0.106008 8.91271 0.748462 10.32L4.95033 19.5241Z" fill="#444CE7"/>
<path d="M53.9632 12.5122C54.2805 12.7635 54.7829 12.8891 55.4705 12.8891C56.1448 12.8891 56.6407 12.7635 56.958 12.5122C57.2753 12.2478 57.434 11.8379 57.434 11.2826C57.434 10.714 57.2753 10.3041 56.958 10.0529C56.6407 9.78847 56.1448 9.65625 55.4705 9.65625C54.7829 9.65625 54.2805 9.78847 53.9632 10.0529C53.659 10.3041 53.507 10.714 53.507 11.2826C53.507 11.8379 53.659 12.2478 53.9632 12.5122Z" fill="#0A0D12"/>
<path d="M48.4174 23.9561L53.0584 10.8661H49.5876L47.1481 18.8193L46.4539 21.3579L45.7399 18.7796L43.3401 10.8661H39.7502L44.4111 23.9561H48.4174Z" fill="#0A0D12"/>
<path d="M63.1265 24.1544C62.1348 24.1544 61.2092 23.9958 60.3498 23.6784C59.5036 23.3479 58.8028 22.8785 58.2475 22.2703L59.8341 20.4059C60.1647 20.829 60.601 21.186 61.1431 21.4769C61.6985 21.7546 62.3133 21.8934 62.9876 21.8934C63.3975 21.8934 63.7347 21.8339 63.9991 21.7149C64.2636 21.5959 64.3958 21.4108 64.3958 21.1596C64.3958 20.9745 64.3297 20.829 64.1975 20.7233C64.0652 20.6043 63.8008 20.5051 63.4041 20.4258L62.0158 20.1481C60.7729 19.8969 59.887 19.5266 59.3581 19.0374C58.8425 18.535 58.5846 17.8805 58.5846 17.0739C58.5846 16.5318 58.7499 16.0161 59.0805 15.5269C59.411 15.0245 59.9201 14.6212 60.6076 14.3171C61.2952 13.9997 62.1745 13.8411 63.2455 13.8411C64.2504 13.8411 65.1362 13.9865 65.9031 14.2774C66.67 14.5683 67.2782 14.9914 67.7278 15.5468L66.1213 17.3714C65.804 16.9748 65.3941 16.664 64.8916 16.4393C64.3892 16.2145 63.8867 16.1021 63.3843 16.1021C63.067 16.1021 62.7959 16.1351 62.5711 16.2013C62.3596 16.2541 62.2009 16.3335 62.0951 16.4393C61.9893 16.545 61.9365 16.6773 61.9365 16.8359C61.9365 17.0078 62.0158 17.1599 62.1745 17.2921C62.3463 17.4111 62.6571 17.5169 63.1066 17.6094L64.9115 17.9664C65.9296 18.1515 66.6634 18.4887 67.113 18.9779C67.5625 19.4671 67.7873 20.0555 67.7873 20.7431C67.7873 21.391 67.6154 21.9728 67.2716 22.4884C66.9278 23.0041 66.4122 23.414 65.7246 23.7181C65.0371 24.009 64.171 24.1544 63.1265 24.1544Z" fill="#0A0D12"/>
<path d="M69.1202 12.5122C69.4375 12.7635 69.9399 12.8891 70.6275 12.8891C71.3018 12.8891 71.7977 12.7635 72.115 12.5122C72.4323 12.2478 72.591 11.8379 72.591 11.2826C72.591 10.714 72.4323 10.3041 72.115 10.0529C71.7977 9.78847 71.3018 9.65625 70.6275 9.65625C69.9399 9.65625 69.4375 9.78847 69.1202 10.0529C68.816 10.3041 68.664 10.714 68.664 11.2826C68.664 11.8379 68.816 12.2478 69.1202 12.5122Z" fill="#0A0D12"/>
<path fill-rule="evenodd" clip-rule="evenodd" d="M78.8388 13.8411C79.8834 13.8411 80.7957 14.046 81.5758 14.4559C82.3691 14.8526 82.984 15.441 83.4203 16.2211C83.8699 16.988 84.0946 17.9135 84.0946 18.9978C84.0946 20.082 83.8699 21.0141 83.4203 21.7943C82.984 22.5611 82.3691 23.1495 81.5758 23.5594C80.7957 23.9561 79.8834 24.1544 78.8388 24.1544C77.8207 24.1544 76.915 23.9561 76.1216 23.5594C75.3283 23.1495 74.7069 22.5611 74.2573 21.7943C73.821 21.0141 73.6028 20.082 73.6028 18.9978C73.6028 17.9135 73.821 16.988 74.2573 16.2211C74.7069 15.441 75.3283 14.8526 76.1216 14.4559C76.915 14.046 77.8207 13.8411 78.8388 13.8411ZM78.8388 16.2409C78.4554 16.2409 78.1248 16.3335 77.8471 16.5186C77.5695 16.7037 77.3579 17.0012 77.2125 17.4111C77.067 17.821 76.9943 18.3499 76.9943 18.9978C76.9943 19.6456 77.067 20.1745 77.2125 20.5844C77.3579 20.9811 77.5695 21.2786 77.8471 21.4769C78.1248 21.662 78.4554 21.7546 78.8388 21.7546C79.2355 21.7546 79.5726 21.662 79.8503 21.4769C80.128 21.2786 80.3395 20.9811 80.485 20.5844C80.6304 20.1745 80.7031 19.6456 80.7031 18.9978C80.7031 18.3499 80.6304 17.821 80.485 17.4111C80.3395 17.0012 80.128 16.7037 79.8503 16.5186C79.5726 16.3335 79.2355 16.2409 78.8388 16.2409Z" fill="#0A0D12"/>
<path d="M88.5146 16.019L88.411 14.0394H85.3963V23.9561H88.768V18.7003C88.768 18.1449 88.8473 17.702 89.006 17.3714C89.1647 17.0409 89.3829 16.8029 89.6605 16.6574C89.9382 16.4988 90.2357 16.4194 90.553 16.4194C90.9629 16.4194 91.3001 16.5516 91.5645 16.8161C91.829 17.0805 91.9612 17.5565 91.9612 18.2441V23.9561H95.3329V17.3516C95.3329 16.5715 95.1874 15.9236 94.8965 15.4079C94.6056 14.8923 94.2023 14.5022 93.6867 14.2378C93.1842 13.9733 92.5892 13.8411 91.9017 13.8411C91.267 13.8411 90.6918 13.9667 90.1762 14.2179C89.6737 14.4559 89.2506 14.8129 88.9068 15.2889C88.7552 15.5072 88.6245 15.7506 88.5146 16.019Z" fill="#0A0D12"/>
<path d="M108.347 21.3579L110.033 14.0394H113.563L110.569 23.9561H106.523L104.718 17.8673L102.972 23.9561H98.9462L95.9316 14.0394H99.4817L101.148 21.3579L103.091 14.0394H106.423L108.347 21.3579Z" fill="#0A0D12"/>
<path fill-rule="evenodd" clip-rule="evenodd" d="M121.511 14.4559C120.73 14.046 119.818 13.8411 118.774 13.8411C117.755 13.8411 116.85 14.046 116.056 14.4559C115.263 14.8526 114.642 15.441 114.192 16.2211C113.756 16.988 113.538 17.9135 113.538 18.9978C113.538 20.082 113.756 21.0141 114.192 21.7943C114.642 22.5611 115.263 23.1495 116.056 23.5594C116.85 23.9561 117.755 24.1544 118.774 24.1544C119.818 24.1544 120.73 23.9561 121.511 23.5594C122.304 23.1495 122.919 22.5611 123.355 21.7943C123.805 21.0141 124.029 20.082 124.029 18.9978C124.029 17.9135 123.805 16.988 123.355 16.2211C122.919 15.441 122.304 14.8526 121.511 14.4559ZM117.782 16.5186C118.06 16.3335 118.39 16.2409 118.774 16.2409C119.17 16.2409 119.507 16.3335 119.785 16.5186C120.063 16.7037 120.274 17.0012 120.42 17.4111C120.565 17.821 120.638 18.3499 120.638 18.9978C120.638 19.6456 120.565 20.1745 120.42 20.5844C120.274 20.9811 120.063 21.2786 119.785 21.4769C119.507 21.662 119.17 21.7546 118.774 21.7546C118.39 21.7546 118.06 21.662 117.782 21.4769C117.504 21.2786 117.293 20.9811 117.147 20.5844C117.002 20.1745 116.929 19.6456 116.929 18.9978C116.929 18.3499 117.002 17.821 117.147 17.4111C117.293 17.0012 117.504 16.7037 117.782 16.5186Z" fill="#0A0D12"/>
<path d="M129 17.6888C128.802 18.0193 128.703 18.4424 128.703 18.9581V23.9561H125.331V14.0394H128.306L128.445 16.1814C128.696 15.441 129.066 14.8658 129.556 14.4559C130.058 14.046 130.693 13.8411 131.46 13.8411C131.711 13.8411 131.922 13.8609 132.094 13.9006C132.279 13.9402 132.425 13.9931 132.531 14.0593L132.193 16.8359C132.061 16.783 131.889 16.7434 131.678 16.7169C131.479 16.6773 131.235 16.6574 130.944 16.6574C130.547 16.6574 130.177 16.7434 129.833 16.9153C129.489 17.0871 129.212 17.345 129 17.6888Z" fill="#0A0D12"/>
<path d="M140.494 17.9353L144.147 14.0394H140.398L136.63 18.2062V9.83475H133.258V23.9561H136.63V21.6697L138.226 19.8842L140.636 23.9561H144.365L140.494 17.9353Z" fill="#0A0D12"/>
<path d="M57.1563 23.9561V14.0394H53.7847V23.9561H57.1563Z" fill="#0A0D12"/>
<path d="M72.3133 23.9561V14.0394H68.9417V23.9561H72.3133Z" fill="#0A0D12"/>
</svg>
