<svg width="144" height="34" viewBox="0 0 144 34" fill="none" xmlns="http://www.w3.org/2000/svg">
<path d="M0.458374 6.37467C0.458374 4.41867 2.04403 2.83301 4.00004 2.83301H11.0834C13.0394 2.83301 14.625 4.41867 14.625 6.37467V13.3299C14.6252 13.3724 14.6253 13.4151 14.6253 13.458C14.6253 15.4112 16.2064 16.9951 18.1585 16.9997C18.1612 16.9997 18.164 16.9997 18.1667 16.9997H25.25C27.206 16.9997 28.7917 18.5853 28.7917 20.5413V27.6247C28.7917 29.5807 27.206 31.1663 25.25 31.1663H18.1667C16.2107 31.1663 14.625 29.5807 14.625 27.6247V20.5413C14.625 20.5315 14.6251 20.5217 14.6252 20.5119C14.6093 18.5694 13.0298 16.9997 11.0836 16.9997C11.0745 16.9997 11.0653 16.9997 11.0562 16.9997H4.00004C2.04403 16.9997 0.458374 15.414 0.458374 13.458V6.37467Z" fill="#3E3E3E"/>
<path fill-rule="evenodd" clip-rule="evenodd" d="M67.1494 23.6302C66.1578 23.6302 65.2724 23.3894 64.4932 22.9077C63.714 22.426 63.0978 21.7673 62.6444 20.9314C62.1911 20.0956 61.9644 19.1464 61.9644 18.0839C61.9644 17.0214 62.1911 16.0794 62.6444 15.2577C63.0978 14.4219 63.714 13.7702 64.4932 13.3027C65.2724 12.821 66.1578 12.5802 67.1494 12.5802C67.9428 12.5802 68.6369 12.7289 69.2319 13.0264C69.8269 13.3239 70.3086 13.7419 70.6769 14.2802V8.0752H73.3969V23.3752H70.9744L70.6769 21.8664C70.3369 22.3339 69.8836 22.7448 69.3169 23.0989C68.7644 23.4531 68.0419 23.6302 67.1494 23.6302ZM67.7232 21.2502C68.6015 21.2502 69.3169 20.9598 69.8694 20.3789C70.4361 19.7839 70.7194 19.026 70.7194 18.1052C70.7194 17.1844 70.4361 16.4335 69.8694 15.8527C69.3169 15.2577 68.6015 14.9602 67.7232 14.9602C66.859 14.9602 66.1436 15.2506 65.5769 15.8314C65.0103 16.4123 64.7269 17.1631 64.7269 18.0839C64.7269 19.0048 65.0103 19.7627 65.5769 20.3577C66.1436 20.9527 66.859 21.2502 67.7232 21.2502Z" fill="#3E3E3E"/>
<path d="M39.2323 22.6739C40.3089 23.3114 41.5981 23.6302 43.0998 23.6302C44.8848 23.6302 46.3439 23.1981 47.4773 22.3339C48.6248 21.4698 49.3402 20.2727 49.6235 18.7427H46.6273C46.4431 19.5077 46.0464 20.1098 45.4373 20.5489C44.8423 20.9739 44.0489 21.1864 43.0573 21.1864C41.6831 21.1864 40.6064 20.726 39.8273 19.8052C39.0481 18.8702 38.6585 17.5881 38.6585 15.9589C38.6585 14.3298 39.0481 13.0477 39.8273 12.1127C40.6064 11.1777 41.6831 10.7102 43.0573 10.7102C44.0489 10.7102 44.8423 10.9439 45.4373 11.4114C46.0464 11.8648 46.4431 12.4952 46.6273 13.3027H49.6235C49.3402 11.7019 48.6248 10.4623 47.4773 9.58394C46.3439 8.69145 44.8848 8.2452 43.0998 8.2452C41.5981 8.2452 40.3089 8.57103 39.2323 9.2227C38.1556 9.87436 37.3268 10.781 36.746 11.9427C36.1652 13.1044 35.8748 14.4431 35.8748 15.9589C35.8748 17.4748 36.1652 18.8135 36.746 19.9752C37.3268 21.1227 38.1556 22.0223 39.2323 22.6739Z" fill="#3E3E3E"/>
<path fill-rule="evenodd" clip-rule="evenodd" d="M52.9875 22.9289C53.8091 23.3964 54.73 23.6302 55.75 23.6302C56.7558 23.6302 57.6696 23.3964 58.4912 22.9289C59.3129 22.4614 59.9575 21.8169 60.425 20.9952C60.9066 20.1594 61.1475 19.196 61.1475 18.1052C61.1475 17.0144 60.9066 16.0581 60.425 15.2364C59.9575 14.4006 59.3129 13.7489 58.4912 13.2814C57.6837 12.8139 56.7771 12.5802 55.7712 12.5802C54.7512 12.5802 53.8304 12.8139 53.0087 13.2814C52.2012 13.7489 51.5566 14.4006 51.075 15.2364C50.5933 16.0581 50.3525 17.0144 50.3525 18.1052C50.3525 19.196 50.5862 20.1594 51.0537 20.9952C51.5354 21.8169 52.18 22.4614 52.9875 22.9289ZM57.5987 20.4852C57.0746 21.0094 56.4583 21.2714 55.75 21.2714C55.0416 21.2714 54.4254 21.0094 53.9012 20.4852C53.3912 19.9469 53.1362 19.1535 53.1362 18.1052C53.1362 17.0569 53.3912 16.2706 53.9012 15.7464C54.4254 15.2081 55.0487 14.9389 55.7712 14.9389C56.4654 14.9389 57.0746 15.2081 57.5987 15.7464C58.1229 16.2706 58.385 17.0569 58.385 18.1052C58.385 19.1535 58.1229 19.9469 57.5987 20.4852Z" fill="#3E3E3E"/>
<path fill-rule="evenodd" clip-rule="evenodd" d="M77.1867 22.9502C78.0084 23.4035 78.9505 23.6302 80.013 23.6302C80.863 23.6302 81.6209 23.4744 82.2867 23.1627C82.9667 22.851 83.5334 22.426 83.9867 21.8877C84.4542 21.3352 84.7872 20.726 84.9855 20.0602H82.223C82.0388 20.4569 81.7555 20.7827 81.373 21.0377C81.0047 21.2785 80.5442 21.3989 79.9917 21.3989C79.2551 21.3989 78.6247 21.1652 78.1005 20.6977C77.5905 20.2302 77.3072 19.5856 77.2505 18.7639H85.2617C85.2759 18.5798 85.283 18.4027 85.283 18.2327C85.2972 18.0627 85.3042 17.8998 85.3042 17.7439C85.3042 16.7806 85.0776 15.9094 84.6242 15.1302C84.1851 14.3369 83.5688 13.7135 82.7755 13.2602C81.9822 12.8069 81.0684 12.5802 80.0342 12.5802C78.9292 12.5802 77.9659 12.821 77.1442 13.3027C76.3367 13.7702 75.6992 14.4289 75.2317 15.2789C74.7784 16.1289 74.5517 17.0994 74.5517 18.1902C74.5517 19.2669 74.7855 20.216 75.253 21.0377C75.7205 21.8594 76.3651 22.4969 77.1867 22.9502ZM78.2705 15.3639C78.7805 14.9814 79.3684 14.7902 80.0342 14.7902C80.7284 14.7902 81.3092 14.9956 81.7767 15.4064C82.2442 15.8173 82.4992 16.3698 82.5417 17.0639H77.293C77.4347 16.2989 77.7605 15.7323 78.2705 15.3639Z" fill="#3E3E3E"/>
<path d="M91.4807 23.6302C90.404 23.6302 89.4549 23.3964 88.6332 22.9289C87.8115 22.4614 87.1599 21.8098 86.6782 20.9739C86.2107 20.1381 85.9769 19.1819 85.9769 18.1052C85.9769 17.0285 86.2107 16.0723 86.6782 15.2364C87.1599 14.4006 87.8115 13.7489 88.6332 13.2814C89.4549 12.8139 90.404 12.5802 91.4807 12.5802C92.8265 12.5802 93.9599 12.9344 94.8807 13.6427C95.8015 14.3369 96.3894 15.3002 96.6444 16.5327H93.7757C93.634 16.0227 93.3507 15.626 92.9257 15.3427C92.5149 15.0452 92.0261 14.8964 91.4594 14.8964C90.7086 14.8964 90.0711 15.1798 89.5469 15.7464C89.0228 16.3131 88.7607 17.0994 88.7607 18.1052C88.7607 19.111 89.0228 19.8973 89.5469 20.4639C90.0711 21.0306 90.7086 21.3139 91.4594 21.3139C92.0261 21.3139 92.5149 21.1723 92.9257 20.8889C93.3507 20.6056 93.634 20.2019 93.7757 19.6777H96.6444C96.3894 20.8677 95.8015 21.8239 94.8807 22.5464C93.9599 23.2689 92.8265 23.6302 91.4807 23.6302Z" fill="#3E3E3E"/>
<path d="M100.461 14.8114L100.206 12.8352H97.7836V23.3752H100.504V18.5727C100.504 17.7652 100.631 17.1348 100.886 16.6814C101.155 16.2281 101.524 15.9094 101.991 15.7252C102.459 15.541 102.99 15.4489 103.585 15.4489H104.35V12.5802C103.457 12.5802 102.678 12.7856 102.012 13.1964C101.361 13.5931 100.844 14.1314 100.461 14.8114Z" fill="#3E3E3E"/>
<path fill-rule="evenodd" clip-rule="evenodd" d="M108.568 23.6302C107.661 23.6302 106.917 23.4885 106.336 23.2052C105.756 22.9077 105.324 22.5181 105.04 22.0364C104.757 21.5548 104.615 21.0235 104.615 20.4427C104.615 19.4652 104.998 18.6719 105.763 18.0627C106.528 17.4535 107.675 17.1489 109.205 17.1489H111.883V16.8939C111.883 16.1714 111.677 15.6402 111.266 15.3002C110.856 14.9602 110.346 14.7902 109.736 14.7902C109.184 14.7902 108.702 14.9248 108.291 15.1939C107.881 15.4489 107.626 15.8314 107.526 16.3414H104.87C104.941 15.5764 105.196 14.9106 105.635 14.3439C106.089 13.7773 106.669 13.3452 107.378 13.0477C108.086 12.736 108.879 12.5802 109.758 12.5802C111.259 12.5802 112.442 12.9556 113.306 13.7064C114.171 14.4573 114.603 15.5198 114.603 16.8939V23.3752H112.286L112.031 21.6752C111.72 22.2419 111.281 22.7094 110.714 23.0777C110.161 23.446 109.446 23.6302 108.568 23.6302ZM109.184 21.5052C109.963 21.5052 110.565 21.2502 110.99 20.7402C111.429 20.2302 111.706 19.5998 111.819 18.8489H109.503C108.78 18.8489 108.263 18.9835 107.951 19.2527C107.64 19.5077 107.484 19.8264 107.484 20.2089C107.484 20.6198 107.64 20.9385 107.951 21.1652C108.263 21.3919 108.674 21.5052 109.184 21.5052Z" fill="#3E3E3E"/>
<path d="M117.368 8.88269C116.731 9.42103 116.412 10.3277 116.412 11.6027V12.8352H114.967V15.1089H116.412V23.3752H119.132V15.1089H123.326V19.6989C123.326 21.0731 123.659 22.0294 124.325 22.5677C124.991 23.106 125.876 23.3752 126.981 23.3752H128.83V21.0589H127.513C126.974 21.0589 126.592 20.9669 126.365 20.7827C126.153 20.5844 126.046 20.2302 126.046 19.7202V15.1089H128.894V12.8352H126.046V10.0089H123.645L123.326 12.8352H119.132V11.6027C119.132 11.1635 119.231 10.8519 119.43 10.6677C119.628 10.4835 119.961 10.3914 120.428 10.3914H121.172V8.0752H120.003C118.898 8.0752 118.02 8.34436 117.368 8.88269Z" fill="#3E3E3E"/>
<path d="M129.72 24.1827V26.7752H143.313V24.1827H129.72Z" fill="#3E3E3E"/>
</svg>
