<svg width="116" height="34" viewBox="0 0 116 34" fill="none" xmlns="http://www.w3.org/2000/svg">
<path d="M0.270874 12.639L22.1622 0L21.5822 8.99537L2.93844 19.7593L0.270874 12.639Z" fill="#444CE7"/>
<path opacity="0.5" d="M2.93689 19.7581L18.333 10.8691L17.753 19.8645L5.60445 26.8785L2.93689 19.7581Z" fill="#444CE7"/>
<path opacity="0.25" d="M5.60291 26.8792L14.5038 21.7402L13.9238 30.7356L8.27047 33.9995L5.60291 26.8792Z" fill="#444CE7"/>
<path d="M29.3125 23.3757V9.43359H39.4105V12.092H32.449V15.4771H38.6455V18.0016H32.449V23.3757H29.3125Z" fill="#0A0D12"/>
<path d="M44.8625 23.567C43.1922 23.567 41.9491 23.0888 41.1331 22.1326C40.3171 21.1763 39.9091 19.9013 39.9091 18.3076V18.2502C39.9091 16.4397 40.3617 15.101 41.267 14.234C42.1722 13.3542 43.3707 12.9143 44.8625 12.9143C46.367 12.9143 47.5718 13.3542 48.4771 14.234C49.3951 15.101 49.8541 16.4397 49.8541 18.2502V18.3076C49.8413 19.9013 49.427 21.1763 48.611 22.1326C47.795 23.0888 46.5455 23.567 44.8625 23.567ZM44.8625 21.1955C45.5127 21.1955 46.0036 21.017 46.3351 20.66C46.6793 20.303 46.8515 19.8121 46.8515 19.1873V17.3513C46.8515 16.7138 46.673 16.2166 46.316 15.8596C45.9717 15.4898 45.4872 15.305 44.8625 15.305C44.2505 15.305 43.766 15.4898 43.409 15.8596C43.0647 16.2166 42.8926 16.7138 42.8926 17.3513V19.1873C42.8926 19.8121 43.0583 20.303 43.3898 20.66C43.7341 21.017 44.225 21.1955 44.8625 21.1955Z" fill="#0A0D12"/>
<path d="M51.4581 23.3757V15.3815C51.4581 14.6802 51.6684 14.1256 52.0892 13.7176C52.5099 13.3096 53.0582 13.1056 53.7339 13.1056H57.9223V15.4771H54.4033V23.3757H51.4581Z" fill="#0A0D12"/>
<path d="M63.6925 23.567C62.5578 23.567 61.6079 23.3502 60.8429 22.9167C60.0907 22.4705 59.5297 21.8521 59.1599 21.0616C58.7902 20.2583 58.6053 19.3276 58.6053 18.2693V18.0972C58.6053 16.988 58.8093 16.0508 59.2173 15.2858C59.6253 14.5081 60.1927 13.9216 60.9194 13.5263C61.6589 13.1183 62.5068 12.9143 63.463 12.9143C64.5085 12.9143 65.3947 13.112 66.1214 13.5072C66.8609 13.9025 67.4219 14.4571 67.8044 15.1711C68.1869 15.8851 68.3782 16.7202 68.3782 17.6765V18.977H61.5888V19.5125C61.5888 20.0607 61.7737 20.5006 62.1434 20.8321C62.5259 21.1636 63.0104 21.3293 63.5969 21.3293C64.1197 21.3293 64.5468 21.2146 64.8783 20.9851C65.2225 20.7556 65.4265 20.4496 65.4903 20.0671H68.2634C68.2252 20.7683 68.0084 21.3803 67.6132 21.9031C67.2179 22.4258 66.6824 22.8338 66.0067 23.1271C65.3309 23.4203 64.5595 23.567 63.6925 23.567ZM61.5888 17.0645V17.1601H65.4903V17.0645C65.4903 16.376 65.3118 15.8787 64.9548 15.5727C64.5978 15.254 64.1324 15.0946 63.5587 15.0946C62.9467 15.0946 62.4622 15.2667 62.1052 15.611C61.7609 15.9425 61.5888 16.427 61.5888 17.0645Z" fill="#0A0D12"/>
<path d="M73.7538 23.567C72.2875 23.567 71.1655 23.2482 70.3878 22.6107C69.6228 21.9732 69.2466 21.1445 69.2594 20.1245H72.0708C72.0963 20.6345 72.2684 20.9978 72.5871 21.2146C72.9186 21.4313 73.3394 21.5397 73.8494 21.5397C74.3594 21.5397 74.7228 21.4441 74.9395 21.2528C75.169 21.0488 75.2838 20.8066 75.2838 20.5261C75.2838 20.0798 75.1244 19.7866 74.8056 19.6463C74.4869 19.4933 73.9896 19.3658 73.3139 19.2638C72.7019 19.1746 72.1026 19.0343 71.5161 18.8431C70.9296 18.6518 70.4451 18.3522 70.0626 17.9442C69.6929 17.5235 69.508 16.9497 69.508 16.223C69.508 15.509 69.6865 14.9097 70.0435 14.4252C70.4133 13.928 70.9169 13.5518 71.5544 13.2968C72.1919 13.0418 72.925 12.9143 73.7538 12.9143C75.016 12.9143 76.036 13.1948 76.8138 13.7558C77.6043 14.3168 78.0123 15.1073 78.0378 16.1273L75.2646 16.1082C75.2646 15.713 75.1244 15.4133 74.8439 15.2093C74.5761 14.9926 74.2128 14.8842 73.7538 14.8842C73.3075 14.8842 72.9696 14.9735 72.7401 15.152C72.5106 15.3305 72.3959 15.5663 72.3959 15.8596C72.3959 16.2676 72.5808 16.5353 72.9505 16.6628C73.333 16.7903 73.8111 16.8987 74.3849 16.988C74.8694 17.0517 75.3411 17.141 75.8001 17.2557C76.2591 17.3577 76.6735 17.5235 77.0433 17.753C77.4258 17.9825 77.7254 18.3012 77.9422 18.7092C78.1589 19.1045 78.2673 19.6272 78.2673 20.2775C78.2673 21.2847 77.872 22.088 77.0815 22.6872C76.3038 23.2737 75.1945 23.567 73.7538 23.567Z" fill="#0A0D12"/>
<path d="M79.9693 23.3757V13.1056H82.9145V23.3757H79.9693ZM79.9693 11.8051V9.43359H82.9145V11.8051H79.9693Z" fill="#0A0D12"/>
<path d="M89.263 26.7608C87.9242 26.7608 86.866 26.474 86.0882 25.9002C85.3232 25.3392 84.9088 24.5933 84.8451 23.6626H87.6756C87.7393 23.9941 87.9306 24.2491 88.2493 24.4276C88.5808 24.6188 88.9952 24.7145 89.4925 24.7145C90.2575 24.7145 90.7993 24.5423 91.1181 24.1981C91.4496 23.8538 91.6153 23.3693 91.6153 22.7446V20.966H91.4815C91.2265 21.5397 90.8248 21.9796 90.2766 22.2856C89.7283 22.5788 89.1163 22.7255 88.4406 22.7255C87.1273 22.7255 86.1456 22.2856 85.4953 21.4058C84.8578 20.5261 84.5391 19.3531 84.5391 17.8868V17.8103C84.5391 16.1911 84.8833 14.9735 85.5718 14.1575C86.2603 13.3287 87.223 12.9143 88.4597 12.9143C89.263 12.9143 89.9068 13.0673 90.3913 13.3733C90.8758 13.6793 91.2392 14.0746 91.4815 14.5591H91.6345L91.7875 13.1056H94.5606V22.4003C94.5606 23.9048 94.108 25.0077 93.2027 25.709C92.3102 26.4102 90.997 26.7608 89.263 26.7608ZM89.6455 20.3922C90.2702 20.3922 90.7547 20.2073 91.099 19.8376C91.4432 19.4551 91.6153 18.9642 91.6153 18.365V17.294C91.6153 16.6565 91.4368 16.1592 91.0798 15.8022C90.7228 15.4325 90.2447 15.2476 89.6455 15.2476C89.0207 15.2476 88.5362 15.4261 88.192 15.7831C87.8605 16.1401 87.6947 16.631 87.6947 17.2557V18.4415C87.6947 19.0535 87.8732 19.5316 88.2302 19.8758C88.5872 20.2201 89.059 20.3922 89.6455 20.3922Z" fill="#0A0D12"/>
<path d="M96.7978 23.3757V9.43359H99.743V14.7886H99.9151C100.132 14.2276 100.508 13.775 101.044 13.4307C101.579 13.0865 102.217 12.9143 102.956 12.9143C104.053 12.9143 104.92 13.2458 105.557 13.9088C106.195 14.5718 106.513 15.6301 106.513 17.0836V23.3757H103.587V17.447C103.587 16.6182 103.421 16.0508 103.09 15.7448C102.758 15.4388 102.312 15.2858 101.751 15.2858C101.088 15.2858 100.585 15.5026 100.24 15.9361C99.9088 16.3696 99.743 16.9497 99.743 17.6765V23.3757H96.7978Z" fill="#0A0D12"/>
<path d="M112.207 23.3757C111.391 23.3757 110.804 23.1653 110.447 22.7446C110.103 22.3238 109.931 21.7756 109.931 21.0998V15.4771H107.712V13.1056H109.931V9.89259H112.876V13.1056H115.401V15.4771H112.876V21.0807H115.286V23.3757H112.207Z" fill="#0A0D12"/>
</svg>
