<svg width="146" height="34" viewBox="0 0 146 34" fill="none" xmlns="http://www.w3.org/2000/svg">
<path d="M26.1219 26.07C25.7673 26.8044 25.0237 27.2712 24.2082 27.2712H12.657C11.085 27.2712 10.0572 25.6235 10.7485 24.2117L18.726 7.91997C19.0828 7.19138 19.8233 6.72949 20.6345 6.72949L32.0732 6.72949C33.64 6.72949 34.668 8.36733 33.9868 9.77833L26.1219 26.07Z" fill="#444CE7"/>
<path opacity="0.5" d="M5.61696 18.9411C6.36152 20.572 8.66675 20.6047 9.4573 18.9956L13.9792 9.7915C14.6729 8.3795 13.6451 6.72949 12.0719 6.72949L3.34817 6.72949C1.80118 6.72949 0.772634 8.32971 1.41509 9.73699L5.61696 18.9411Z" fill="#444CE7"/>
<path d="M54.6299 11.9312C54.9472 12.1824 55.4497 12.308 56.1372 12.308C56.8116 12.308 57.3074 12.1824 57.6247 11.9312C57.9421 11.6668 58.1007 11.2569 58.1007 10.7015C58.1007 10.133 57.9421 9.72308 57.6247 9.47186C57.3074 9.20742 56.8116 9.0752 56.1372 9.0752C55.4497 9.0752 54.9472 9.20742 54.6299 9.47186C54.3258 9.72308 54.1737 10.133 54.1737 10.7015C54.1737 11.2569 54.3258 11.6668 54.6299 11.9312Z" fill="#0A0D12"/>
<path d="M49.0842 23.375L53.7252 10.285H50.2543L47.8148 18.2382L47.1207 20.7769L46.4067 18.1985L44.0068 10.285H40.417L45.0778 23.375H49.0842Z" fill="#0A0D12"/>
<path d="M63.7932 23.5734C62.8015 23.5734 61.876 23.4147 61.0165 23.0974C60.1703 22.7668 59.4695 22.2974 58.9142 21.6892L60.5009 19.8249C60.8314 20.248 61.2678 20.605 61.8099 20.8959C62.3652 21.1735 62.98 21.3124 63.6544 21.3124C64.0643 21.3124 64.4014 21.2529 64.6659 21.1339C64.9303 21.0149 65.0625 20.8298 65.0625 20.5785C65.0625 20.3934 64.9964 20.248 64.8642 20.1422C64.732 20.0232 64.4675 19.924 64.0709 19.8447L62.6825 19.567C61.4397 19.3158 60.5538 18.9456 60.0249 18.4564C59.5092 17.9539 59.2514 17.2994 59.2514 16.4929C59.2514 15.9508 59.4167 15.4351 59.7472 14.9459C60.0778 14.4434 60.5868 14.0401 61.2744 13.736C61.9619 13.4187 62.8412 13.26 63.9122 13.26C64.9171 13.26 65.803 13.4055 66.5699 13.6964C67.3368 13.9873 67.945 14.4104 68.3945 14.9657L66.788 16.7904C66.4707 16.3937 66.0608 16.083 65.5584 15.8582C65.0559 15.6334 64.5535 15.521 64.051 15.521C63.7337 15.521 63.4627 15.5541 63.2379 15.6202C63.0263 15.6731 62.8677 15.7524 62.7619 15.8582C62.6561 15.964 62.6032 16.0962 62.6032 16.2549C62.6032 16.4268 62.6825 16.5788 62.8412 16.711C63.0131 16.83 63.3238 16.9358 63.7734 17.0284L65.5782 17.3854C66.5963 17.5705 67.3302 17.9076 67.7797 18.3969C68.2293 18.8861 68.454 19.4745 68.454 20.162C68.454 20.8099 68.2822 21.3917 67.9384 21.9074C67.5946 22.423 67.0789 22.8329 66.3914 23.137C65.7038 23.4279 64.8378 23.5734 63.7932 23.5734Z" fill="#0A0D12"/>
<path d="M69.7869 11.9312C70.1042 12.1824 70.6067 12.308 71.2942 12.308C71.9686 12.308 72.4644 12.1824 72.7817 11.9312C73.0991 11.6668 73.2577 11.2569 73.2577 10.7015C73.2577 10.133 73.0991 9.72308 72.7817 9.47186C72.4644 9.20742 71.9686 9.0752 71.2942 9.0752C70.6067 9.0752 70.1042 9.20742 69.7869 9.47186C69.4828 9.72308 69.3307 10.133 69.3307 10.7015C69.3307 11.2569 69.4828 11.6668 69.7869 11.9312Z" fill="#0A0D12"/>
<path fill-rule="evenodd" clip-rule="evenodd" d="M79.5055 13.26C80.5501 13.26 81.4624 13.465 82.2425 13.8749C83.0359 14.2715 83.6507 14.8599 84.087 15.64C84.5366 16.4069 84.7614 17.3325 84.7614 18.4167C84.7614 19.5009 84.5366 20.4331 84.087 21.2132C83.6507 21.9801 83.0359 22.5685 82.2425 22.9784C81.4624 23.375 80.5501 23.5734 79.5055 23.5734C78.4874 23.5734 77.5817 23.375 76.7884 22.9784C75.995 22.5685 75.3736 21.9801 74.924 21.2132C74.4877 20.4331 74.2695 19.5009 74.2695 18.4167C74.2695 17.3325 74.4877 16.4069 74.924 15.64C75.3736 14.8599 75.995 14.2715 76.7884 13.8749C77.5817 13.465 78.4874 13.26 79.5055 13.26ZM79.5055 15.6599C79.1221 15.6599 78.7915 15.7524 78.5139 15.9375C78.2362 16.1226 78.0247 16.4201 77.8792 16.83C77.7338 17.2399 77.661 17.7688 77.661 18.4167C77.661 19.0646 77.7338 19.5935 77.8792 20.0034C78.0247 20.4 78.2362 20.6975 78.5139 20.8959C78.7915 21.081 79.1221 21.1735 79.5055 21.1735C79.9022 21.1735 80.2394 21.081 80.517 20.8959C80.7947 20.6975 81.0063 20.4 81.1517 20.0034C81.2972 19.5935 81.3699 19.0646 81.3699 18.4167C81.3699 17.7688 81.2972 17.2399 81.1517 16.83C81.0063 16.4201 80.7947 16.1226 80.517 15.9375C80.2394 15.7524 79.9022 15.6599 79.5055 15.6599Z" fill="#0A0D12"/>
<path d="M89.1813 15.4379L89.0778 13.4584H86.0631V23.375H89.4348V18.1192C89.4348 17.5639 89.5141 17.1209 89.6728 16.7904C89.8314 16.4598 90.0496 16.2218 90.3273 16.0764C90.6049 15.9177 90.9024 15.8384 91.2198 15.8384C91.6297 15.8384 91.9668 15.9706 92.2313 16.235C92.4957 16.4995 92.6279 16.9755 92.6279 17.663V23.375H95.9996V16.7705C95.9996 15.9904 95.8542 15.3425 95.5633 14.8269C95.2724 14.3112 94.8691 13.9211 94.3534 13.6567C93.851 13.3923 93.256 13.26 92.5684 13.26C91.9338 13.26 91.3586 13.3856 90.8429 13.6369C90.3405 13.8749 89.9174 14.2319 89.5736 14.7079C89.422 14.9262 89.2912 15.1695 89.1813 15.4379Z" fill="#0A0D12"/>
<path d="M109.014 20.7769L110.7 13.4584H114.23L111.235 23.375H107.189L105.384 17.2862L103.639 23.375H99.613L96.5983 13.4584H100.148L101.814 20.7769L103.758 13.4584H107.09L109.014 20.7769Z" fill="#0A0D12"/>
<path fill-rule="evenodd" clip-rule="evenodd" d="M122.177 13.8749C121.397 13.465 120.485 13.26 119.44 13.26C118.422 13.26 117.516 13.465 116.723 13.8749C115.93 14.2715 115.308 14.8599 114.859 15.64C114.422 16.4069 114.204 17.3325 114.204 18.4167C114.204 19.5009 114.422 20.4331 114.859 21.2132C115.308 21.9801 115.93 22.5685 116.723 22.9784C117.516 23.375 118.422 23.5734 119.44 23.5734C120.485 23.5734 121.397 23.375 122.177 22.9784C122.971 22.5685 123.585 21.9801 124.022 21.2132C124.471 20.4331 124.696 19.5009 124.696 18.4167C124.696 17.3325 124.471 16.4069 124.022 15.64C123.585 14.8599 122.971 14.2715 122.177 13.8749ZM118.449 15.9375C118.726 15.7524 119.057 15.6599 119.44 15.6599C119.837 15.6599 120.174 15.7524 120.452 15.9375C120.729 16.1226 120.941 16.4201 121.086 16.83C121.232 17.2399 121.305 17.7688 121.305 18.4167C121.305 19.0646 121.232 19.5935 121.086 20.0034C120.941 20.4 120.729 20.6975 120.452 20.8959C120.174 21.081 119.837 21.1735 119.44 21.1735C119.057 21.1735 118.726 21.081 118.449 20.8959C118.171 20.6975 117.959 20.4 117.814 20.0034C117.668 19.5935 117.596 19.0646 117.596 18.4167C117.596 17.7688 117.668 17.2399 117.814 16.83C117.959 16.4201 118.171 16.1226 118.449 15.9375Z" fill="#0A0D12"/>
<path d="M129.667 17.1077C129.469 17.4383 129.369 17.8614 129.369 18.377V23.375H125.998V13.4584H128.973L129.112 15.6004C129.363 14.8599 129.733 14.2848 130.222 13.8749C130.725 13.465 131.359 13.26 132.126 13.26C132.378 13.26 132.589 13.2799 132.761 13.3195C132.946 13.3592 133.092 13.4121 133.197 13.4782L132.86 16.2549C132.728 16.202 132.556 16.1623 132.344 16.1359C132.146 16.0962 131.902 16.0764 131.611 16.0764C131.214 16.0764 130.844 16.1623 130.5 16.3342C130.156 16.5061 129.879 16.7639 129.667 17.1077Z" fill="#0A0D12"/>
<path d="M141.161 17.3542L144.813 13.4584H141.065L137.297 17.6251V9.2537H133.925V23.375H137.297V21.0887L138.892 19.3032L141.303 23.375H145.032L141.161 17.3542Z" fill="#0A0D12"/>
<path d="M57.8231 23.375V13.4584H54.4514V23.375H57.8231Z" fill="#0A0D12"/>
<path d="M72.9801 23.375V13.4584H69.6084V23.375H72.9801Z" fill="#0A0D12"/>
</svg>
