<svg width="108" height="34" viewBox="0 0 108 34" fill="none" xmlns="http://www.w3.org/2000/svg">
<path fill-rule="evenodd" clip-rule="evenodd" d="M24.6657 5.94992L17.8043 4.1114C17.3306 3.98448 16.9466 4.27913 16.9466 4.76952V11.873C16.9466 12.3634 17.3306 12.8639 17.8043 12.9908L24.6657 14.8293C25.1394 14.9562 25.5234 14.6616 25.5234 14.1712V7.06768C25.5234 6.57728 25.1394 6.07685 24.6657 5.94992ZM17.8043 1.44758C15.9095 0.939888 14.3735 2.1185 14.3735 4.08008V11.1836C14.3735 13.1452 15.9095 15.1469 17.8043 15.6546L24.6657 17.4931C26.5605 18.0008 28.0965 16.8222 28.0965 14.8606V7.75713C28.0965 5.79555 26.5605 3.7938 24.6657 3.28611L17.8043 1.44758Z" fill="#8098F9"/>
<path fill-rule="evenodd" clip-rule="evenodd" d="M19.2777 11.7377L10.7009 9.43952C10.2272 9.3126 9.84319 9.60725 9.84319 10.0976V18.977C9.84319 19.4674 10.2272 19.9679 10.7009 20.0948L19.2777 22.393C19.7514 22.5199 20.1354 22.2252 20.1354 21.7348V12.8554C20.1354 12.365 19.7514 11.8646 19.2777 11.7377ZM10.7009 6.77571C8.80613 6.26801 7.27014 7.44662 7.27014 9.4082V18.2876C7.27014 20.2492 8.80613 22.2509 10.7009 22.7586L19.2777 25.0568C21.1724 25.5645 22.7084 24.3859 22.7084 22.4243V13.5449C22.7084 11.5833 21.1724 9.58156 19.2777 9.07386L10.7009 6.77571Z" fill="#6172F3"/>
<path fill-rule="evenodd" clip-rule="evenodd" d="M13.8896 17.5254L3.59736 14.7676C3.12367 14.6407 2.73968 14.9354 2.73968 15.4258V26.081C2.73968 26.5714 3.12367 27.0719 3.59736 27.1988L13.8896 29.9566C14.3632 30.0835 14.7472 29.7889 14.7472 29.2985V18.6432C14.7472 18.1528 14.3632 17.6524 13.8896 17.5254ZM3.59736 12.1038C1.70262 11.5961 0.166626 12.7747 0.166626 14.7363V25.3916C0.166626 27.3532 1.70262 29.3549 3.59736 29.8626L13.8896 32.6204C15.7843 33.1281 17.3203 31.9495 17.3203 29.9879V19.3326C17.3203 17.3711 15.7843 15.3693 13.8896 14.8616L3.59736 12.1038Z" fill="#444CE7"/>
<path d="M38.1617 23.0979C38.9683 23.4681 39.8938 23.6532 40.9384 23.6532C41.9829 23.6532 42.8953 23.4747 43.6754 23.1177C44.4687 22.7475 45.0835 22.2318 45.5199 21.5707C45.9562 20.8964 46.1744 20.1096 46.1744 19.2105V18.9725C46.1744 18.1395 45.9827 17.4652 45.5992 16.9495C45.2158 16.4206 44.7265 16.0306 44.1315 15.7794C43.5498 15.5281 42.9482 15.4025 42.3267 15.4025H41.5929V15.0852L45.7777 12.8639V9.49219H35.9404V11.7532H42.9614V12.0705L38.479 14.4505V17.2272H41.2557C41.7053 17.2272 42.1085 17.2933 42.4655 17.4255C42.8225 17.5445 43.1068 17.7362 43.3184 18.0007C43.5299 18.2651 43.6357 18.6089 43.6357 19.032V19.2304C43.6357 19.8518 43.3977 20.3675 42.9217 20.7774C42.4589 21.1872 41.7978 21.3922 40.9384 21.3922C40.0922 21.3922 39.4112 21.174 38.8955 20.7377C38.3799 20.2881 38.122 19.6931 38.122 18.9527V18.675H35.5834V19.032C35.5834 19.984 35.8082 20.8104 36.2577 21.5112C36.7205 22.1987 37.3552 22.7276 38.1617 23.0979Z" fill="#3E3E3E"/>
<path fill-rule="evenodd" clip-rule="evenodd" d="M55.3056 10.0277C54.6445 9.67069 53.8776 9.49219 53.0049 9.49219H47.2929V23.3755H49.9109V18.2982H53.0049C53.8512 18.2982 54.6048 18.1263 55.2659 17.7825C55.9403 17.4255 56.4692 16.9297 56.8526 16.295C57.2493 15.6471 57.4476 14.8935 57.4476 14.034V13.7564C57.4476 12.8837 57.2559 12.13 56.8724 11.4954C56.5022 10.8607 55.9799 10.3715 55.3056 10.0277ZM54.2544 15.4025C53.871 15.7463 53.3686 15.9182 52.7471 15.9182H49.9109V11.8722H52.7471C53.3686 11.8722 53.871 12.0441 54.2544 12.3879C54.6379 12.7316 54.8296 13.201 54.8296 13.796V13.9944C54.8296 14.5894 54.6379 15.0587 54.2544 15.4025Z" fill="#3E3E3E"/>
<path fill-rule="evenodd" clip-rule="evenodd" d="M62.7986 23.6532C61.8201 23.6532 60.9409 23.4549 60.1607 23.0582C59.3806 22.6615 58.7658 22.0864 58.3162 21.3327C57.8667 20.579 57.6419 19.6733 57.6419 18.6155V18.2982C57.6419 17.2404 57.8667 16.3347 58.3162 15.581C58.7658 14.8274 59.3806 14.2522 60.1607 13.8555C60.9409 13.4589 61.8201 13.2605 62.7986 13.2605C63.777 13.2605 64.6563 13.4589 65.4364 13.8555C66.2165 14.2522 66.8314 14.8274 67.2809 15.581C67.7305 16.3347 67.9552 17.2404 67.9552 18.2982V18.6155C67.9552 19.6733 67.7305 20.579 67.2809 21.3327C66.8314 22.0864 66.2165 22.6615 65.4364 23.0582C64.6563 23.4549 63.777 23.6532 62.7986 23.6532ZM62.7986 21.4319C63.5655 21.4319 64.2001 21.1872 64.7026 20.698C65.205 20.1956 65.4562 19.4816 65.4562 18.556V18.3577C65.4562 17.4321 65.205 16.7247 64.7026 16.2355C64.2134 15.7331 63.5787 15.4819 62.7986 15.4819C62.0317 15.4819 61.397 15.7331 60.8946 16.2355C60.3921 16.7247 60.1409 17.4321 60.1409 18.3577V18.556C60.1409 19.4816 60.3921 20.1956 60.8946 20.698C61.397 21.1872 62.0317 21.4319 62.7986 21.4319Z" fill="#3E3E3E"/>
<path d="M72.8006 13.7762C72.4701 13.9613 72.2321 14.2522 72.0866 14.6489H71.7296V13.5382H69.2703V23.3755H71.7693V17.7825C71.7693 17.0817 71.9742 16.5661 72.3841 16.2355C72.794 15.8917 73.3163 15.7199 73.951 15.7199H75.1806V15.7184H77.7289V21.1542C77.7289 21.8285 77.9272 22.3706 78.3239 22.7805C78.7338 23.1772 79.2627 23.3755 79.9106 23.3755H82.6872V21.3129H80.7832C80.413 21.3129 80.2279 21.1145 80.2279 20.7179V15.7184H82.9252V13.5013H80.2279V10.4839H77.7289V13.5013H75.1806V13.4985H73.9906C73.5411 13.4985 73.1444 13.5911 72.8006 13.7762Z" fill="#3E3E3E"/>
<path fill-rule="evenodd" clip-rule="evenodd" d="M85.3658 23.2962C85.9211 23.5342 86.5492 23.6532 87.25 23.6532C87.9375 23.6532 88.4796 23.554 88.8763 23.3557C89.273 23.1574 89.5639 22.9326 89.749 22.6814C89.9341 22.4169 90.0531 22.2054 90.106 22.0467H90.4828V22.0665C90.4828 22.4632 90.6415 22.7805 90.9588 23.0185C91.2761 23.2565 91.6794 23.3755 92.1686 23.3755H93.8346V21.3129H93.0413C92.6711 21.3129 92.486 21.1145 92.486 20.7179V17.0487C92.486 15.819 92.1091 14.8802 91.3555 14.2324C90.6018 13.5845 89.5771 13.2605 88.2813 13.2605C87.4351 13.2605 86.7145 13.3927 86.1195 13.6572C85.5377 13.9084 85.0683 14.2456 84.7113 14.6687C84.3675 15.0786 84.1163 15.5347 83.9576 16.0372L86.2583 16.8107C86.3509 16.3611 86.5492 15.9975 86.8533 15.7199C87.1574 15.429 87.6202 15.2835 88.2416 15.2835C88.8763 15.2835 89.3391 15.4356 89.63 15.7397C89.9209 16.0306 90.0663 16.4074 90.0663 16.8702V17.4255H87.369C86.6285 17.4255 85.9674 17.5445 85.3856 17.7825C84.8171 18.0073 84.3675 18.3511 84.037 18.8139C83.7196 19.2634 83.561 19.8254 83.561 20.4997C83.561 21.174 83.7196 21.7492 84.037 22.2252C84.3675 22.688 84.8105 23.045 85.3658 23.2962ZM89.392 21.055C88.9556 21.4385 88.3871 21.6302 87.6863 21.6302C87.1574 21.6302 86.7541 21.5178 86.4765 21.293C86.1988 21.0682 86.06 20.7774 86.06 20.4204C86.06 20.0634 86.1922 19.7857 86.4566 19.5874C86.7211 19.389 87.0847 19.2899 87.5475 19.2899H90.0663V19.4882C90.0663 20.1361 89.8415 20.6584 89.392 21.055Z" fill="#3E3E3E"/>
<path d="M99.8788 22.8202C100.699 23.3755 101.75 23.6532 103.032 23.6532C104.288 23.6532 105.287 23.3755 106.027 22.8202C106.781 22.2516 107.158 21.4517 107.158 20.4204C107.158 19.7328 106.979 19.1907 106.622 18.794C106.278 18.3841 105.802 18.0734 105.194 17.8619C104.599 17.6371 103.931 17.4586 103.191 17.3264L102.636 17.2272C102.186 17.1479 101.829 17.0355 101.565 16.89C101.3 16.7314 101.168 16.4934 101.168 16.176C101.168 15.8851 101.294 15.6604 101.545 15.5017C101.796 15.3298 102.16 15.2439 102.636 15.2439C103.112 15.2439 103.508 15.3496 103.826 15.5612C104.156 15.7727 104.374 16.1297 104.48 16.6322L106.801 15.9182C106.576 15.1249 106.1 14.4836 105.373 13.9944C104.645 13.5051 103.733 13.2605 102.636 13.2605C101.472 13.2605 100.533 13.525 99.8193 14.0539C99.1053 14.5695 98.7483 15.3166 98.7483 16.295C98.7483 16.9429 98.9202 17.4718 99.264 17.8817C99.6078 18.2916 100.064 18.6155 100.633 18.8535C101.201 19.0783 101.829 19.2568 102.517 19.389L103.072 19.4882C103.654 19.594 104.077 19.7328 104.341 19.9047C104.606 20.0634 104.738 20.2947 104.738 20.5989C104.738 20.903 104.599 21.1608 104.322 21.3724C104.044 21.5707 103.614 21.6699 103.032 21.6699C102.649 21.6699 102.292 21.617 101.961 21.5112C101.644 21.3922 101.373 21.2005 101.148 20.936C100.937 20.6716 100.785 20.308 100.692 19.8452L98.3913 20.4402C98.5632 21.4715 99.0591 22.2649 99.8788 22.8202Z" fill="#3E3E3E"/>
<path d="M94.6701 23.3755V9.49219H97.1691V23.3755H94.6701Z" fill="#3E3E3E"/>
</svg>
