<svg width="166" height="34" viewBox="0 0 166 34" fill="none" xmlns="http://www.w3.org/2000/svg">
<path d="M11.4582 5.66699L15.0645 13.3941L22.7915 17.0003L15.0645 20.6066L11.4582 28.3337L7.85197 20.6066L0.124878 17.0003L7.85197 13.3941L11.4582 5.66699Z" fill="#7839EE"/>
<path opacity="0.5" d="M14.3242 22.1904L18.825 21.4161L21.375 28.3327L23.925 21.4161L31.1899 22.666L26.475 16.9993L31.1899 11.3327L23.925 12.5826L21.375 5.66602L18.825 12.5826L14.3242 11.8083L15.0639 13.3931L22.791 16.9993L15.0639 20.6056L14.3242 22.1904Z" fill="#7839EE"/>
<path d="M44.3738 23.6216C39.8135 23.6216 36.9583 20.602 36.9583 15.7953C36.9583 11.0501 39.9779 7.9278 44.5176 7.9278C48.3178 7.9278 51.0498 10.1052 51.5223 13.5151H48.0097C47.5578 11.9951 46.2636 11.1323 44.4354 11.1323C41.9704 11.1323 40.4709 12.8783 40.4709 15.7747C40.4709 18.63 41.991 20.4171 44.4354 20.4171C46.3047 20.4171 47.681 19.4928 48.0918 17.9932H51.5428C51.0088 21.3826 48.174 23.6216 44.3738 23.6216Z" fill="#0A0D12"/>
<path d="M52.6181 18.2192C52.6181 14.9736 55.0009 12.7962 58.2876 12.7962C61.5537 12.7962 63.9365 14.9736 63.9365 18.2192C63.9365 21.4648 61.5537 23.6216 58.2876 23.6216C55.0009 23.6216 52.6181 21.4648 52.6181 18.2192ZM55.802 18.1986C55.802 19.7598 56.8086 20.7869 58.2876 20.7869C59.746 20.7869 60.7526 19.7598 60.7526 18.1986C60.7526 16.658 59.746 15.6309 58.2876 15.6309C56.8086 15.6309 55.802 16.658 55.802 18.1986Z" fill="#0A0D12"/>
<path d="M68.7285 23.3751H65.5651V13.1043H68.5436L68.749 14.1725C69.3858 13.2892 70.5567 12.7756 71.8919 12.7756C74.3364 12.7756 75.7538 14.3368 75.7538 17.0278V23.3751H72.5903V17.7878C72.5903 16.4937 71.8714 15.6515 70.7827 15.6515C69.5296 15.6515 68.7285 16.4731 68.7285 17.7467V23.3751Z" fill="#0A0D12"/>
<path d="M76.9572 20.1296H79.9563C79.9974 20.8485 80.5315 21.2799 81.4969 21.2799C82.4829 21.2799 82.9348 20.9307 82.9348 20.3966C82.9348 20.0885 82.7705 19.7598 82.0105 19.5955L80.1206 19.1846C78.2308 18.7738 77.3064 17.9521 77.3064 16.1445C77.3064 14.0081 79.1346 12.7756 81.5996 12.7756C83.9825 12.7756 85.6463 14.1725 85.6463 16.2472H82.6473C82.6473 15.5488 82.2159 15.0763 81.4558 15.0763C80.7369 15.0763 80.285 15.4461 80.285 16.0007C80.285 16.4731 80.6753 16.7402 81.3942 16.9045L83.3046 17.3153C84.989 17.6851 85.9134 18.4657 85.9134 20.109C85.9134 22.307 84.0441 23.6422 81.3737 23.6422C78.6622 23.6422 76.9572 22.2043 76.9572 20.1296Z" fill="#0A0D12"/>
<path d="M93.4207 20.6226L93.7905 23.1697C93.1948 23.4573 92.4142 23.6216 91.5514 23.6216C89.4356 23.6216 87.9566 22.6562 87.9566 19.7803V15.7336H86.3955V13.1043H87.9566V9.92034H91.12V13.1043H93.4002V15.7336H91.12V19.123C91.12 20.4171 91.6336 20.8074 92.3731 20.8074C92.6812 20.8074 93.051 20.7458 93.4207 20.6226Z" fill="#0A0D12"/>
<path d="M99.5641 23.6422C96.4623 23.6422 94.2438 21.3826 94.2438 18.2192C94.2438 15.0147 96.4007 12.7756 99.5025 12.7756C102.728 12.7756 104.741 14.8914 104.741 18.2397V19.0408L97.284 19.0819C97.4689 20.4377 98.2289 21.0745 99.6257 21.0745C100.817 21.0745 101.659 20.6431 101.885 19.9036H104.782C104.412 22.1837 102.378 23.6422 99.5641 23.6422ZM99.523 15.3433C98.27 15.3433 97.5716 15.898 97.3251 17.1305H101.598C101.598 16.0418 100.797 15.3433 99.523 15.3433Z" fill="#0A0D12"/>
<path d="M109.572 23.3751H106.409V7.88672H109.572V23.3751Z" fill="#0A0D12"/>
<path d="M114.903 23.3751H111.74V7.88672H114.903V23.3751Z" fill="#0A0D12"/>
<path d="M124.938 13.1043H127.835V23.3751H124.856L124.692 22.0605C124.096 22.8411 122.966 23.6627 121.344 23.6627C118.283 23.6627 116.516 21.321 116.516 18.0754C116.516 14.7682 118.509 12.7756 121.364 12.7756C122.823 12.7756 124.199 13.4124 124.774 14.3573L124.938 13.1043ZM124.651 18.2397C124.651 16.6991 123.624 15.672 122.145 15.672C120.645 15.672 119.7 16.7196 119.7 18.2397C119.7 19.7598 120.645 20.8074 122.145 20.8074C123.624 20.8074 124.651 19.7803 124.651 18.2397Z" fill="#0A0D12"/>
<path d="M136.065 20.6226L136.434 23.1697C135.839 23.4573 135.058 23.6216 134.195 23.6216C132.08 23.6216 130.601 22.6562 130.601 19.7803V15.7336H129.039V13.1043H130.601V9.92034H133.764V13.1043H136.044V15.7336H133.764V19.123C133.764 20.4171 134.278 20.8074 135.017 20.8074C135.325 20.8074 135.695 20.7458 136.065 20.6226Z" fill="#0A0D12"/>
<path d="M139.104 11.5021C138.097 11.5021 137.296 10.7009 137.296 9.69439C137.296 8.68784 138.097 7.90726 139.104 7.90726C140.09 7.90726 140.891 8.68784 140.891 9.69439C140.891 10.7009 140.09 11.5021 139.104 11.5021ZM137.543 23.3751V13.1043H140.706V23.3751H137.543Z" fill="#0A0D12"/>
<path d="M142.319 18.2192C142.319 14.9736 144.702 12.7962 147.989 12.7962C151.255 12.7962 153.638 14.9736 153.638 18.2192C153.638 21.4648 151.255 23.6216 147.989 23.6216C144.702 23.6216 142.319 21.4648 142.319 18.2192ZM145.503 18.1986C145.503 19.7598 146.51 20.7869 147.989 20.7869C149.447 20.7869 150.454 19.7598 150.454 18.1986C150.454 16.658 149.447 15.6309 147.989 15.6309C146.51 15.6309 145.503 16.658 145.503 18.1986Z" fill="#0A0D12"/>
<path d="M158.43 23.3751H155.266V13.1043H158.245L158.45 14.1725C159.087 13.2892 160.258 12.7756 161.593 12.7756C164.038 12.7756 165.455 14.3368 165.455 17.0278V23.3751H162.292V17.7878C162.292 16.4937 161.573 15.6515 160.484 15.6515C159.231 15.6515 158.43 16.4731 158.43 17.7467V23.3751Z" fill="#0A0D12"/>
</svg>
