<svg width="582" height="153" viewBox="0 0 582 153" fill="none" xmlns="http://www.w3.org/2000/svg">
<g filter="url(#filter0_ii_20504_5022)">
<path d="M497.094 125.67V30.7978H520.988L522.051 58.5868L518.688 57.7018C519.632 50.6218 521.519 44.9578 524.351 40.7098C527.301 36.4618 530.959 33.3938 535.325 31.5058C539.691 29.6178 544.471 28.6738 549.663 28.6738C556.507 28.6738 562.289 30.1488 567.009 33.0988C571.847 36.0488 575.505 40.2378 577.983 45.6658C580.579 50.9758 581.876 57.2888 581.876 64.6048V125.67H555.327V73.4548C555.327 68.3808 554.913 64.0738 554.087 60.5338C553.261 56.9938 551.787 54.3388 549.663 52.5688C547.539 50.6808 544.589 49.7368 540.813 49.7368C535.267 49.7368 531.019 51.8018 528.069 55.9318C525.119 59.9438 523.644 65.7848 523.644 73.4548V125.67H497.094Z" fill="#F1F1F1"/>
</g>
<g filter="url(#filter1_ii_20504_5022)">
<path d="M412.226 152.221V132.397H424.793C427.861 132.397 430.103 131.925 431.519 130.981C433.053 130.155 434.233 128.621 435.059 126.379L437.006 120.892H429.749L396.473 30.7988H423.554L445.325 96.1118L465.68 30.7988H492.761L456.299 134.698C454.175 140.952 451.107 145.436 447.095 148.15C443.083 150.864 437.478 152.221 430.28 152.221H412.226Z" fill="#F1F1F1"/>
</g>
<g filter="url(#filter2_ii_20504_5022)">
<path d="M386.863 125.67C379.075 125.67 372.998 123.723 368.632 119.829C364.266 115.935 362.083 109.622 362.083 100.89V0H388.633V98.058C388.633 100.89 389.282 102.896 390.58 104.076C391.878 105.256 393.766 105.846 396.244 105.846H402.616V125.67H386.863Z" fill="#F1F1F1"/>
</g>
<g filter="url(#filter3_ii_20504_5022)">
<path d="M263.377 125.67V0H289.927V69.738L325.15 30.798H357.01L320.194 69.915L358.072 125.67H329.044L303.025 84.96L289.927 98.943V125.67H263.377Z" fill="#F1F1F1"/>
</g>
<g filter="url(#filter4_ii_20504_5022)">
<path d="M211.601 127.794C201.807 127.794 193.606 126.437 186.998 123.723C180.39 120.891 175.316 117.115 171.776 112.395C168.354 107.557 166.407 102.011 165.935 95.7568L192.839 94.8718C193.665 99.3558 195.553 102.837 198.503 105.315C201.453 107.793 205.819 109.032 211.601 109.032C216.321 109.032 219.979 108.265 222.575 106.731C225.289 105.197 226.646 102.837 226.646 99.6508C226.646 97.6448 226.174 95.9928 225.23 94.6948C224.286 93.2788 222.398 92.0988 219.566 91.1548C216.852 90.0928 212.781 89.1488 207.353 88.3228C197.323 86.5528 189.476 84.4878 183.812 82.1278C178.148 79.7678 174.136 76.6998 171.776 72.9238C169.416 69.1478 168.236 64.5458 168.236 59.1178C168.236 50.0318 171.717 42.7158 178.679 37.1698C185.759 31.5058 196.32 28.6738 210.362 28.6738C219.33 28.6738 226.823 30.0898 232.841 32.9218C238.977 35.7538 243.697 39.6478 247.001 44.6038C250.423 49.4418 252.547 54.9878 253.373 61.2418L226.646 62.3038C226.292 59.2358 225.348 56.6398 223.814 54.5158C222.398 52.2738 220.569 50.5628 218.327 49.3828C216.085 48.0848 213.371 47.4358 210.185 47.4358C205.465 47.4358 201.807 48.4388 199.211 50.4448C196.733 52.3328 195.494 54.8698 195.494 58.0558C195.494 60.4158 196.025 62.3628 197.087 63.8968C198.267 65.3128 200.155 66.4928 202.751 67.4368C205.347 68.3808 208.828 69.1478 213.194 69.7378C223.342 71.1538 231.366 73.1598 237.266 75.7558C243.284 78.2338 247.591 81.3608 250.187 85.1368C252.783 88.9128 254.081 93.5738 254.081 99.1198C254.081 105.256 252.311 110.448 248.771 114.696C245.231 118.944 240.275 122.189 233.903 124.431C227.649 126.673 220.215 127.794 211.601 127.794Z" fill="#F1F1F1"/>
</g>
<g filter="url(#filter5_ii_20504_5022)">
<path d="M102.926 127.794C93.1315 127.794 85.1075 125.552 78.8535 121.068C72.7175 116.466 69.6495 110.094 69.6495 101.952C69.6495 93.5738 72.2455 87.1428 77.4375 82.6588C82.7475 78.0568 90.5355 74.6938 100.802 72.5698L131.423 66.5518C131.423 60.4158 130.007 55.8138 127.175 52.7458C124.461 49.5598 120.508 47.9668 115.316 47.9668C110.242 47.9668 106.289 49.1468 103.457 51.5068C100.625 53.7488 98.7955 57.1118 97.9695 61.5958L71.2425 60.3568C73.0125 49.9728 77.6735 42.1258 85.2255 36.8158C92.8955 31.3878 102.926 28.6738 115.316 28.6738C129.476 28.6738 140.096 32.0368 147.176 38.7628C154.374 45.4888 157.973 55.3418 157.973 68.3218V100.713C157.973 103.427 158.386 105.256 159.212 106.2C160.156 107.026 161.513 107.439 163.283 107.439H165.938V125.67C165.112 125.906 163.755 126.142 161.867 126.378C160.097 126.614 158.327 126.732 156.557 126.732C152.781 126.732 149.241 126.083 145.937 124.785C142.751 123.487 140.155 121.304 138.149 118.236C136.143 115.05 135.14 110.566 135.14 104.784L137.441 106.554C136.261 110.802 134.137 114.519 131.069 117.705C128.119 120.891 124.225 123.369 119.387 125.139C114.667 126.909 109.18 127.794 102.926 127.794ZM109.298 109.563C113.664 109.563 117.499 108.737 120.803 107.085C124.107 105.315 126.703 102.778 128.591 99.4738C130.479 96.1698 131.423 92.2758 131.423 87.7918V83.1898L109.829 87.7918C105.581 88.6178 102.336 90.0338 100.094 92.0398C97.9695 93.9278 96.9075 96.4058 96.9075 99.4738C96.9075 102.66 97.9695 105.138 100.094 106.908C102.218 108.678 105.286 109.563 109.298 109.563Z" fill="#F1F1F1"/>
</g>
<g filter="url(#filter6_ii_20504_5022)">
<path d="M43.719 125.67C33.925 125.67 26.727 123.428 22.125 118.944C17.523 114.342 15.222 107.085 15.222 97.1731V8.49609H41.772V93.9871C41.772 98.5891 42.716 101.716 44.604 103.368C46.61 105.02 49.56 105.846 53.454 105.846H66.729V125.67H43.719ZM0 50.6221V30.7981H66.729V50.6221H0Z" fill="#F1F1F1"/>
</g>
<defs>
<filter id="filter0_ii_20504_5022" x="497.094" y="27.6738" width="84.783" height="98.9961" filterUnits="userSpaceOnUse" color-interpolation-filters="sRGB">
<feFlood flood-opacity="0" result="BackgroundImageFix"/>
<feBlend mode="normal" in="SourceGraphic" in2="BackgroundImageFix" result="shape"/>
<feColorMatrix in="SourceAlpha" type="matrix" values="0 0 0 0 0 0 0 0 0 0 0 0 0 0 0 0 0 0 127 0" result="hardAlpha"/>
<feOffset dy="1"/>
<feGaussianBlur stdDeviation="0.5"/>
<feComposite in2="hardAlpha" operator="arithmetic" k2="-1" k3="1"/>
<feColorMatrix type="matrix" values="0 0 0 0 0 0 0 0 0 0 0 0 0 0 0 0 0 0 0.15 0"/>
<feBlend mode="normal" in2="shape" result="effect1_innerShadow_20504_5022"/>
<feColorMatrix in="SourceAlpha" type="matrix" values="0 0 0 0 0 0 0 0 0 0 0 0 0 0 0 0 0 0 127 0" result="hardAlpha"/>
<feOffset dy="-1"/>
<feGaussianBlur stdDeviation="1"/>
<feComposite in2="hardAlpha" operator="arithmetic" k2="-1" k3="1"/>
<feColorMatrix type="matrix" values="0 0 0 0 0 0 0 0 0 0 0 0 0 0 0 0 0 0 0.04 0"/>
<feBlend mode="normal" in2="effect1_innerShadow_20504_5022" result="effect2_innerShadow_20504_5022"/>
</filter>
<filter id="filter1_ii_20504_5022" x="396.473" y="29.7988" width="96.288" height="123.422" filterUnits="userSpaceOnUse" color-interpolation-filters="sRGB">
<feFlood flood-opacity="0" result="BackgroundImageFix"/>
<feBlend mode="normal" in="SourceGraphic" in2="BackgroundImageFix" result="shape"/>
<feColorMatrix in="SourceAlpha" type="matrix" values="0 0 0 0 0 0 0 0 0 0 0 0 0 0 0 0 0 0 127 0" result="hardAlpha"/>
<feOffset dy="1"/>
<feGaussianBlur stdDeviation="0.5"/>
<feComposite in2="hardAlpha" operator="arithmetic" k2="-1" k3="1"/>
<feColorMatrix type="matrix" values="0 0 0 0 0 0 0 0 0 0 0 0 0 0 0 0 0 0 0.15 0"/>
<feBlend mode="normal" in2="shape" result="effect1_innerShadow_20504_5022"/>
<feColorMatrix in="SourceAlpha" type="matrix" values="0 0 0 0 0 0 0 0 0 0 0 0 0 0 0 0 0 0 127 0" result="hardAlpha"/>
<feOffset dy="-1"/>
<feGaussianBlur stdDeviation="1"/>
<feComposite in2="hardAlpha" operator="arithmetic" k2="-1" k3="1"/>
<feColorMatrix type="matrix" values="0 0 0 0 0 0 0 0 0 0 0 0 0 0 0 0 0 0 0.04 0"/>
<feBlend mode="normal" in2="effect1_innerShadow_20504_5022" result="effect2_innerShadow_20504_5022"/>
</filter>
<filter id="filter2_ii_20504_5022" x="362.083" y="-1" width="40.533" height="127.67" filterUnits="userSpaceOnUse" color-interpolation-filters="sRGB">
<feFlood flood-opacity="0" result="BackgroundImageFix"/>
<feBlend mode="normal" in="SourceGraphic" in2="BackgroundImageFix" result="shape"/>
<feColorMatrix in="SourceAlpha" type="matrix" values="0 0 0 0 0 0 0 0 0 0 0 0 0 0 0 0 0 0 127 0" result="hardAlpha"/>
<feOffset dy="1"/>
<feGaussianBlur stdDeviation="0.5"/>
<feComposite in2="hardAlpha" operator="arithmetic" k2="-1" k3="1"/>
<feColorMatrix type="matrix" values="0 0 0 0 0 0 0 0 0 0 0 0 0 0 0 0 0 0 0.15 0"/>
<feBlend mode="normal" in2="shape" result="effect1_innerShadow_20504_5022"/>
<feColorMatrix in="SourceAlpha" type="matrix" values="0 0 0 0 0 0 0 0 0 0 0 0 0 0 0 0 0 0 127 0" result="hardAlpha"/>
<feOffset dy="-1"/>
<feGaussianBlur stdDeviation="1"/>
<feComposite in2="hardAlpha" operator="arithmetic" k2="-1" k3="1"/>
<feColorMatrix type="matrix" values="0 0 0 0 0 0 0 0 0 0 0 0 0 0 0 0 0 0 0.04 0"/>
<feBlend mode="normal" in2="effect1_innerShadow_20504_5022" result="effect2_innerShadow_20504_5022"/>
</filter>
<filter id="filter3_ii_20504_5022" x="263.377" y="-1" width="94.6951" height="127.67" filterUnits="userSpaceOnUse" color-interpolation-filters="sRGB">
<feFlood flood-opacity="0" result="BackgroundImageFix"/>
<feBlend mode="normal" in="SourceGraphic" in2="BackgroundImageFix" result="shape"/>
<feColorMatrix in="SourceAlpha" type="matrix" values="0 0 0 0 0 0 0 0 0 0 0 0 0 0 0 0 0 0 127 0" result="hardAlpha"/>
<feOffset dy="1"/>
<feGaussianBlur stdDeviation="0.5"/>
<feComposite in2="hardAlpha" operator="arithmetic" k2="-1" k3="1"/>
<feColorMatrix type="matrix" values="0 0 0 0 0 0 0 0 0 0 0 0 0 0 0 0 0 0 0.15 0"/>
<feBlend mode="normal" in2="shape" result="effect1_innerShadow_20504_5022"/>
<feColorMatrix in="SourceAlpha" type="matrix" values="0 0 0 0 0 0 0 0 0 0 0 0 0 0 0 0 0 0 127 0" result="hardAlpha"/>
<feOffset dy="-1"/>
<feGaussianBlur stdDeviation="1"/>
<feComposite in2="hardAlpha" operator="arithmetic" k2="-1" k3="1"/>
<feColorMatrix type="matrix" values="0 0 0 0 0 0 0 0 0 0 0 0 0 0 0 0 0 0 0.04 0"/>
<feBlend mode="normal" in2="effect1_innerShadow_20504_5022" result="effect2_innerShadow_20504_5022"/>
</filter>
<filter id="filter4_ii_20504_5022" x="165.935" y="27.6738" width="88.146" height="101.119" filterUnits="userSpaceOnUse" color-interpolation-filters="sRGB">
<feFlood flood-opacity="0" result="BackgroundImageFix"/>
<feBlend mode="normal" in="SourceGraphic" in2="BackgroundImageFix" result="shape"/>
<feColorMatrix in="SourceAlpha" type="matrix" values="0 0 0 0 0 0 0 0 0 0 0 0 0 0 0 0 0 0 127 0" result="hardAlpha"/>
<feOffset dy="1"/>
<feGaussianBlur stdDeviation="0.5"/>
<feComposite in2="hardAlpha" operator="arithmetic" k2="-1" k3="1"/>
<feColorMatrix type="matrix" values="0 0 0 0 0 0 0 0 0 0 0 0 0 0 0 0 0 0 0.15 0"/>
<feBlend mode="normal" in2="shape" result="effect1_innerShadow_20504_5022"/>
<feColorMatrix in="SourceAlpha" type="matrix" values="0 0 0 0 0 0 0 0 0 0 0 0 0 0 0 0 0 0 127 0" result="hardAlpha"/>
<feOffset dy="-1"/>
<feGaussianBlur stdDeviation="1"/>
<feComposite in2="hardAlpha" operator="arithmetic" k2="-1" k3="1"/>
<feColorMatrix type="matrix" values="0 0 0 0 0 0 0 0 0 0 0 0 0 0 0 0 0 0 0.04 0"/>
<feBlend mode="normal" in2="effect1_innerShadow_20504_5022" result="effect2_innerShadow_20504_5022"/>
</filter>
<filter id="filter5_ii_20504_5022" x="69.6495" y="27.6738" width="96.288" height="101.119" filterUnits="userSpaceOnUse" color-interpolation-filters="sRGB">
<feFlood flood-opacity="0" result="BackgroundImageFix"/>
<feBlend mode="normal" in="SourceGraphic" in2="BackgroundImageFix" result="shape"/>
<feColorMatrix in="SourceAlpha" type="matrix" values="0 0 0 0 0 0 0 0 0 0 0 0 0 0 0 0 0 0 127 0" result="hardAlpha"/>
<feOffset dy="1"/>
<feGaussianBlur stdDeviation="0.5"/>
<feComposite in2="hardAlpha" operator="arithmetic" k2="-1" k3="1"/>
<feColorMatrix type="matrix" values="0 0 0 0 0 0 0 0 0 0 0 0 0 0 0 0 0 0 0.15 0"/>
<feBlend mode="normal" in2="shape" result="effect1_innerShadow_20504_5022"/>
<feColorMatrix in="SourceAlpha" type="matrix" values="0 0 0 0 0 0 0 0 0 0 0 0 0 0 0 0 0 0 127 0" result="hardAlpha"/>
<feOffset dy="-1"/>
<feGaussianBlur stdDeviation="1"/>
<feComposite in2="hardAlpha" operator="arithmetic" k2="-1" k3="1"/>
<feColorMatrix type="matrix" values="0 0 0 0 0 0 0 0 0 0 0 0 0 0 0 0 0 0 0.04 0"/>
<feBlend mode="normal" in2="effect1_innerShadow_20504_5022" result="effect2_innerShadow_20504_5022"/>
</filter>
<filter id="filter6_ii_20504_5022" x="0" y="7.49609" width="66.729" height="119.174" filterUnits="userSpaceOnUse" color-interpolation-filters="sRGB">
<feFlood flood-opacity="0" result="BackgroundImageFix"/>
<feBlend mode="normal" in="SourceGraphic" in2="BackgroundImageFix" result="shape"/>
<feColorMatrix in="SourceAlpha" type="matrix" values="0 0 0 0 0 0 0 0 0 0 0 0 0 0 0 0 0 0 127 0" result="hardAlpha"/>
<feOffset dy="1"/>
<feGaussianBlur stdDeviation="0.5"/>
<feComposite in2="hardAlpha" operator="arithmetic" k2="-1" k3="1"/>
<feColorMatrix type="matrix" values="0 0 0 0 0 0 0 0 0 0 0 0 0 0 0 0 0 0 0.15 0"/>
<feBlend mode="normal" in2="shape" result="effect1_innerShadow_20504_5022"/>
<feColorMatrix in="SourceAlpha" type="matrix" values="0 0 0 0 0 0 0 0 0 0 0 0 0 0 0 0 0 0 127 0" result="hardAlpha"/>
<feOffset dy="-1"/>
<feGaussianBlur stdDeviation="1"/>
<feComposite in2="hardAlpha" operator="arithmetic" k2="-1" k3="1"/>
<feColorMatrix type="matrix" values="0 0 0 0 0 0 0 0 0 0 0 0 0 0 0 0 0 0 0.04 0"/>
<feBlend mode="normal" in2="effect1_innerShadow_20504_5022" result="effect2_innerShadow_20504_5022"/>
</filter>
</defs>
</svg>
