<svg width="85" height="20" viewBox="0 0 85 20" fill="none" xmlns="http://www.w3.org/2000/svg">
<g clip-path="url(#clip0_18539_4451)">
<path d="M0.441973 3.52192C0.42769 3.53622 0.416365 3.55319 0.408644 3.57187C0.400923 3.59055 0.396957 3.61056 0.396973 3.63077V9.14231C0.396973 9.22731 0.466203 9.29615 0.550819 9.29615H9.53928C9.58008 9.29615 9.61921 9.27995 9.64807 9.25109C9.67692 9.22224 9.69313 9.18311 9.69313 9.14231V0.153846C9.69313 0.113044 9.67692 0.0739123 9.64807 0.0450605C9.61921 0.0162088 9.58008 4.75691e-08 9.53928 4.75691e-08H4.02774C4.00753 -1.5844e-05 3.98752 0.00395012 3.96884 0.0116714C3.95017 0.0193926 3.93319 0.0307178 3.9189 0.045L0.441973 3.52192ZM11.1008 4.64808C11.1008 7.215 13.182 9.29615 15.7489 9.29615C18.3158 9.29615 20.397 7.21538 20.397 4.64808C20.397 2.08115 18.3162 4.75691e-08 15.7489 4.75691e-08C13.182 4.75691e-08 11.1008 2.08077 11.1008 4.64808ZM18.8354 10.7042C18.8762 10.7042 18.9154 10.7204 18.9442 10.7493C18.9731 10.7781 18.9893 10.8173 18.9893 10.8581V14.4658C18.9893 17.5223 16.5108 20 13.4535 20H5.10851C5.0883 20 5.06829 19.9961 5.04961 19.9883C5.03093 19.9806 5.01396 19.9693 4.99967 19.955L0.442357 15.3973C0.413607 15.3685 0.397427 15.3295 0.397357 15.2888V10.8577C0.397357 10.8169 0.413566 10.7778 0.442418 10.7489C0.47127 10.7201 0.510401 10.7038 0.551203 10.7038H4.9812C5.00141 10.7038 5.02143 10.7078 5.0401 10.7155C5.05878 10.7232 5.07575 10.7346 5.09005 10.7488L9.43005 15.0892C9.45154 15.1107 9.47893 15.1254 9.50875 15.1314C9.53858 15.1373 9.5695 15.1343 9.59761 15.1227C9.62572 15.1111 9.64976 15.0914 9.66669 15.0662C9.68363 15.0409 9.69269 15.0112 9.69274 14.9808V10.8577C9.69274 10.8169 9.70895 10.7778 9.7378 10.7489C9.76665 10.7201 9.80579 10.7038 9.84659 10.7038H18.835L18.8354 10.7042Z" fill="url(#paint0_linear_18539_4451)"/>
<path d="M41.5893 9.78014V10.6617C41.5893 12.4248 41.0054 13.8667 39.8389 14.9867C38.6716 16.1071 37.1489 16.6674 35.2697 16.6674C33.2793 16.6674 31.6366 16.0248 30.3408 14.739C29.0447 13.4532 28.397 11.8736 28.397 10.0005C28.397 8.13975 29.0447 6.56322 30.3408 5.27129C31.637 3.97975 33.2427 3.33398 35.1589 3.33398C36.3624 3.33398 37.462 3.60937 38.457 4.16014C39.4516 4.71129 40.2258 5.45245 40.7785 6.38283L38.9547 7.42937C38.6104 6.81745 38.1008 6.32475 37.425 5.95091C36.7493 5.57783 35.9943 5.39052 35.1589 5.39052C33.8074 5.39052 32.6958 5.83168 31.8243 6.71321C30.9516 7.59475 30.5158 8.69668 30.5158 10.019C30.5158 11.3413 30.955 12.4374 31.8335 13.3067C32.7112 14.1759 33.8627 14.6105 35.2881 14.6105C36.4304 14.6105 37.3604 14.3444 38.0793 13.8117C38.7977 13.2786 39.255 12.5655 39.4516 11.6717H35.1404V9.78014H41.5893ZM45.3843 8.78822C45.8881 7.64975 46.8339 7.08052 48.222 7.08052V9.22898C47.46 9.18052 46.797 9.36091 46.232 9.77091C45.667 10.1813 45.3843 10.8578 45.3843 11.8001V16.4286H43.3947V7.24591H45.3847L45.3843 8.78822ZM52.1247 13.9401C52.6774 14.4974 53.3712 14.7755 54.2066 14.7755C55.0416 14.7755 55.7358 14.4974 56.2885 13.9401C56.8412 13.3832 57.1174 12.6817 57.1174 11.8371C57.1174 10.9921 56.8412 10.2913 56.2885 9.73437C55.7358 9.17706 55.0416 8.89822 54.2066 8.89822C53.3712 8.89822 52.6774 9.17706 52.1247 9.73437C51.572 10.2913 51.2954 10.9921 51.2954 11.8374C51.2954 12.6817 51.572 13.3832 52.1247 13.9401ZM57.1174 7.24591H59.1077V16.4286H57.1174V15.1059C56.3685 16.1471 55.2935 16.6671 53.8935 16.6671C52.6281 16.6671 51.5474 16.199 50.6504 15.2624C49.7539 14.3255 49.3054 13.184 49.3054 11.8374C49.3054 10.4778 49.7539 9.3336 50.6504 8.40283C51.5474 7.47245 52.6281 7.00668 53.8935 7.00668C55.2935 7.00668 56.3685 7.52129 57.1174 8.54937V7.24591ZM63.732 13.9401C64.2847 14.4974 64.9781 14.7755 65.8139 14.7755C66.6489 14.7755 67.3431 14.4974 67.8958 13.9401C68.4485 13.3832 68.725 12.6817 68.725 11.8371C68.725 10.9921 68.4485 10.2913 67.8958 9.73437C67.3431 9.17706 66.6489 8.89822 65.8139 8.89822C64.9781 8.89822 64.2847 9.17706 63.732 9.73437C63.1789 10.2913 62.9027 10.9921 62.9027 11.8374C62.9027 12.6817 63.1789 13.3832 63.732 13.9401ZM66.127 7.00668C67.392 7.00668 68.4731 7.47245 69.3697 8.40283C70.2662 9.3336 70.7147 10.4778 70.7147 11.8374C70.7147 13.184 70.2662 14.3255 69.3697 15.2624C68.4731 16.199 67.392 16.6671 66.127 16.6671C64.727 16.6671 63.652 16.1471 62.9027 15.1059V16.4286H60.9127V3.57245H62.9027V8.54937C63.652 7.52129 64.727 7.00668 66.127 7.00668ZM78.9131 7.24591H80.9031V16.4286H78.9131V15.2532C78.3112 16.1959 77.3597 16.6671 76.0574 16.6671C75.0012 16.6671 74.1474 16.3305 73.4966 15.6571C72.8451 14.984 72.5201 14.0594 72.5201 12.884V7.24552H74.5097V12.6817C74.5097 13.3678 74.6939 13.894 75.0624 14.2613C75.4312 14.6286 75.9347 14.8124 76.5735 14.8124C77.2735 14.8124 77.8385 14.5951 78.2685 14.1601C78.6981 13.7255 78.9131 13.0613 78.9131 12.1678V7.24591ZM82.7339 16.4286V7.24591H84.7239V16.4286H82.7339ZM84.6227 5.49168C84.3704 5.74283 84.0727 5.86822 83.7289 5.86822C83.3851 5.86822 83.0866 5.74283 82.8351 5.49168C82.5831 5.24091 82.4577 4.94398 82.4577 4.60091C82.4577 4.2586 82.5801 3.96129 82.8262 3.71014C83.0716 3.45937 83.3724 3.33398 83.7289 3.33398C84.0847 3.33398 84.3858 3.45937 84.6316 3.71014C84.8774 3.96129 85.0001 4.25822 85.0001 4.60091C85.0001 4.94398 84.8743 5.24091 84.6227 5.49168Z" fill="#141414"/>
</g>
<defs>
<linearGradient id="paint0_linear_18539_4451" x1="10.397" y1="0" x2="10.397" y2="20" gradientUnits="userSpaceOnUse">
<stop stop-color="#6687FF"/>
<stop offset="0.5" stop-color="#0037FF"/>
<stop offset="1" stop-color="#335FFF"/>
</linearGradient>
<clipPath id="clip0_18539_4451">
<rect width="85" height="20" fill="white"/>
</clipPath>
</defs>
</svg>
