<svg width="28" height="31" viewBox="0 0 28 31" fill="none" xmlns="http://www.w3.org/2000/svg">
<g filter="url(#filter0_i_17139_62842)">
<path d="M0 13.189C0 6.26033 5.61677 0.643555 12.5454 0.643555V17.9735C12.5454 24.9021 6.92863 30.5189 0 30.5189V13.189Z" fill="#9F9F9F"/>
<path d="M14.3633 7.46063C14.3633 3.69566 17.4154 0.643555 21.1803 0.643555C24.9453 0.643555 27.9974 3.69566 27.9974 7.46062V7.85421C27.9974 11.6192 24.9453 14.6713 21.1803 14.6713C17.4154 14.6713 14.3633 11.6192 14.3633 7.85421V7.46063Z" fill="#9F9F9F"/>
<path d="M14.3633 23.3083C14.3633 19.5433 17.4154 16.4912 21.1803 16.4912C24.9453 16.4912 27.9974 19.5433 27.9974 23.3083V23.7019C27.9974 27.4668 24.9453 30.5189 21.1803 30.5189C17.4154 30.5189 14.3633 27.4668 14.3633 23.7019V23.3083Z" fill="#9F9F9F"/>
</g>
<defs>
<filter id="filter0_i_17139_62842" x="0" y="0.643555" width="27.9974" height="30.875" filterUnits="userSpaceOnUse" color-interpolation-filters="sRGB">
<feFlood flood-opacity="0" result="BackgroundImageFix"/>
<feBlend mode="normal" in="SourceGraphic" in2="BackgroundImageFix" result="shape"/>
<feColorMatrix in="SourceAlpha" type="matrix" values="0 0 0 0 0 0 0 0 0 0 0 0 0 0 0 0 0 0 127 0" result="hardAlpha"/>
<feOffset dy="1"/>
<feGaussianBlur stdDeviation="0.5"/>
<feComposite in2="hardAlpha" operator="arithmetic" k2="-1" k3="1"/>
<feColorMatrix type="matrix" values="0 0 0 0 0 0 0 0 0 0 0 0 0 0 0 0 0 0 0.15 0"/>
<feBlend mode="normal" in2="shape" result="effect1_innerShadow_17139_62842"/>
</filter>
</defs>
</svg>
