<svg width="81" height="81" viewBox="0 0 81 81" fill="none" xmlns="http://www.w3.org/2000/svg">
<rect x="1.26563" y="1.08105" width="79" height="79" rx="39.5" fill="#0037FF"/>
<rect x="1.26563" y="1.08105" width="79" height="79" rx="39.5" fill="url(#paint0_linear_17139_62817)"/>
<rect x="1.26563" y="1.08105" width="79" height="79" rx="39.5" stroke="#335FFF"/>
<g clip-path="url(#clip0_17139_62817)">
<g filter="url(#filter0_dd_17139_62817)">
<path d="M63.1491 23.2202L35.0165 60.4546C34.6028 61.0752 33.9822 61.282 33.1548 61.282C32.5342 61.282 31.9136 60.8683 31.4999 60.2478L18.261 39.1483C17.8473 38.3208 17.8473 37.2865 18.4679 36.666C19.0884 36.0454 20.1227 35.8385 20.9501 36.2522L32.9479 43.0785L60.0463 20.3242C60.8737 19.7036 62.1149 19.7036 62.7354 20.531C63.7697 21.1516 63.7697 22.3928 63.1491 23.2202Z" fill="#FFE866"/>
</g>
</g>
<defs>
<filter id="filter0_dd_17139_62817" x="15.9727" y="15.8818" width="49.6" height="49.4004" filterUnits="userSpaceOnUse" color-interpolation-filters="sRGB">
<feFlood flood-opacity="0" result="BackgroundImageFix"/>
<feColorMatrix in="SourceAlpha" type="matrix" values="0 0 0 0 0 0 0 0 0 0 0 0 0 0 0 0 0 0 127 0" result="hardAlpha"/>
<feOffset dy="2"/>
<feGaussianBlur stdDeviation="1"/>
<feComposite in2="hardAlpha" operator="out"/>
<feColorMatrix type="matrix" values="0 0 0 0 0 0 0 0 0 0 0 0 0 0 0 0 0 0 0.25 0"/>
<feBlend mode="normal" in2="BackgroundImageFix" result="effect1_dropShadow_17139_62817"/>
<feColorMatrix in="SourceAlpha" type="matrix" values="0 0 0 0 0 0 0 0 0 0 0 0 0 0 0 0 0 0 127 0" result="hardAlpha"/>
<feOffset dy="-2"/>
<feGaussianBlur stdDeviation="1"/>
<feComposite in2="hardAlpha" operator="out"/>
<feColorMatrix type="matrix" values="0 0 0 0 1 0 0 0 0 1 0 0 0 0 1 0 0 0 0.25 0"/>
<feBlend mode="normal" in2="effect1_dropShadow_17139_62817" result="effect2_dropShadow_17139_62817"/>
<feBlend mode="normal" in="SourceGraphic" in2="effect2_dropShadow_17139_62817" result="shape"/>
</filter>
<linearGradient id="paint0_linear_17139_62817" x1="40.7656" y1="0.581055" x2="40.7656" y2="80.5811" gradientUnits="userSpaceOnUse">
<stop stop-color="#6687FF"/>
<stop offset="0.5" stop-color="#0037FF"/>
<stop offset="1" stop-color="#335FFF"/>
</linearGradient>
<clipPath id="clip0_17139_62817">
<rect width="48" height="48" fill="white" transform="translate(16.7656 16.5811)"/>
</clipPath>
</defs>
</svg>
