<svg width="25" height="25" viewBox="0 0 25 25" fill="none" xmlns="http://www.w3.org/2000/svg">
<g clip-path="url(#clip0_18712_5107)">
<path d="M12.5908 7.2398L7.15886 12.6717C6.28018 13.5504 6.28018 14.975 7.15886 15.8537L9.22715 17.922C10.1058 18.8007 11.5304 18.8007 12.4091 17.922L17.841 12.4901C18.7197 11.6114 18.7197 10.1868 17.841 9.30809L15.7727 7.2398C14.8941 6.36112 13.4694 6.36112 12.5908 7.2398Z" stroke="#335FFF" stroke-width="2" stroke-linecap="round" stroke-linejoin="round"/>
<path d="M8.75 8.83105L16.25 16.3311" stroke="#335FFF" stroke-width="2" stroke-linecap="round" stroke-linejoin="round"/>
<path d="M22.25 2.83105L16.8069 8.27418" stroke="#335FFF" stroke-width="2" stroke-linecap="round" stroke-linejoin="round"/>
<path d="M8.19312 16.8877L2.75 22.3308" stroke="#335FFF" stroke-width="2" stroke-linecap="round" stroke-linejoin="round"/>
<path d="M9.5 3.58105L10.25 5.45605" stroke="#335FFF" stroke-width="2" stroke-linecap="round" stroke-linejoin="round"/>
<path d="M3.5 9.58105L5.375 10.3311" stroke="#335FFF" stroke-width="2" stroke-linecap="round" stroke-linejoin="round"/>
<path d="M19.625 14.8311L21.5 15.5811" stroke="#335FFF" stroke-width="2" stroke-linecap="round" stroke-linejoin="round"/>
<path d="M14.75 19.7061L15.5 21.5811" stroke="#335FFF" stroke-width="2" stroke-linecap="round" stroke-linejoin="round"/>
</g>
<defs>
<clipPath id="clip0_18712_5107">
<rect width="24" height="24" fill="white" transform="translate(0.5 0.581055)"/>
</clipPath>
</defs>
</svg>
