<svg width="48" height="48" viewBox="0 0 48 48" fill="none" xmlns="http://www.w3.org/2000/svg">
<path d="M39.7056 8.8623L7.39312 8.8623C6.61405 8.8623 5.86688 9.17179 5.31599 9.72268C4.76511 10.2736 4.45562 11.0207 4.45562 11.7998L4.45562 41.1748C4.45223 41.735 4.6107 42.2842 4.91196 42.7564C5.21323 43.2287 5.64447 43.6039 6.15386 43.8369C6.54203 44.0177 6.96493 44.1116 7.39312 44.1123C8.0827 44.1107 8.74941 43.8648 9.27496 43.4183C9.28371 43.4126 9.29173 43.4058 9.29882 43.3981L15.1959 38.2373H39.7056C40.4847 38.2373 41.2319 37.9278 41.7827 37.3769C42.3336 36.826 42.6431 36.0789 42.6431 35.2998V11.7998C42.6431 11.0207 42.3336 10.2736 41.7827 9.72268C41.2319 9.17179 40.4847 8.8623 39.7056 8.8623ZM15.4712 25.7529C15.0355 25.7529 14.6096 25.6237 14.2473 25.3816C13.885 25.1396 13.6026 24.7955 13.4358 24.3929C13.2691 23.9903 13.2254 23.5474 13.3105 23.12C13.3955 22.6926 13.6053 22.3001 13.9134 21.992C14.2215 21.6838 14.6141 21.474 15.0414 21.389C15.4688 21.304 15.9118 21.3476 16.3143 21.5144C16.7169 21.6811 17.061 21.9635 17.3031 22.3258C17.5452 22.6881 17.6744 23.1141 17.6744 23.5498C17.6744 24.1341 17.4423 24.6945 17.0291 25.1076C16.6159 25.5208 16.0555 25.7529 15.4712 25.7529ZM23.5494 25.7529C23.1136 25.7529 22.6877 25.6237 22.3254 25.3816C21.9631 25.1396 21.6807 24.7955 21.5139 24.3929C21.3472 23.9903 21.3036 23.5474 21.3886 23.12C21.4736 22.6926 21.6834 22.3001 21.9915 21.992C22.2996 21.6838 22.6922 21.474 23.1196 21.389C23.5469 21.304 23.9899 21.3476 24.3925 21.5144C24.795 21.6811 25.1391 21.9635 25.3812 22.3258C25.6233 22.6881 25.7525 23.1141 25.7525 23.5498C25.7525 24.1341 25.5204 24.6945 25.1072 25.1076C24.694 25.5208 24.1337 25.7529 23.5494 25.7529ZM31.6275 25.7529C31.1918 25.7529 30.7658 25.6237 30.4035 25.3816C30.0412 25.1396 29.7588 24.7955 29.5921 24.3929C29.4253 23.9903 29.3817 23.5474 29.4667 23.12C29.5517 22.6926 29.7615 22.3001 30.0697 21.992C30.3778 21.6838 30.7703 21.474 31.1977 21.389C31.6251 21.304 32.068 21.3476 32.4706 21.5144C32.8732 21.6811 33.2172 21.9635 33.4593 22.3258C33.7014 22.6881 33.8306 23.1141 33.8306 23.5498C33.8306 24.1341 33.5985 24.6945 33.1853 25.1076C32.7722 25.5208 32.2118 25.7529 31.6275 25.7529Z" fill="#72908D"/>
<path d="M39.7056 8.8623L7.39312 8.8623C6.61405 8.8623 5.86688 9.17179 5.31599 9.72268C4.76511 10.2736 4.45562 11.0207 4.45562 11.7998L4.45562 41.1748C4.45223 41.735 4.6107 42.2842 4.91196 42.7564C5.21323 43.2287 5.64447 43.6039 6.15386 43.8369C6.54203 44.0177 6.96493 44.1116 7.39312 44.1123C8.0827 44.1107 8.74941 43.8648 9.27496 43.4183C9.28371 43.4126 9.29173 43.4058 9.29882 43.3981L15.1959 38.2373H39.7056C40.4847 38.2373 41.2319 37.9278 41.7827 37.3769C42.3336 36.826 42.6431 36.0789 42.6431 35.2998V11.7998C42.6431 11.0207 42.3336 10.2736 41.7827 9.72268C41.2319 9.17179 40.4847 8.8623 39.7056 8.8623ZM15.4712 25.7529C15.0355 25.7529 14.6096 25.6237 14.2473 25.3816C13.885 25.1396 13.6026 24.7955 13.4358 24.3929C13.2691 23.9903 13.2254 23.5474 13.3105 23.12C13.3955 22.6926 13.6053 22.3001 13.9134 21.992C14.2215 21.6838 14.6141 21.474 15.0414 21.389C15.4688 21.304 15.9118 21.3476 16.3143 21.5144C16.7169 21.6811 17.061 21.9635 17.3031 22.3258C17.5452 22.6881 17.6744 23.1141 17.6744 23.5498C17.6744 24.1341 17.4423 24.6945 17.0291 25.1076C16.6159 25.5208 16.0555 25.7529 15.4712 25.7529ZM23.5494 25.7529C23.1136 25.7529 22.6877 25.6237 22.3254 25.3816C21.9631 25.1396 21.6807 24.7955 21.5139 24.3929C21.3472 23.9903 21.3036 23.5474 21.3886 23.12C21.4736 22.6926 21.6834 22.3001 21.9915 21.992C22.2996 21.6838 22.6922 21.474 23.1196 21.389C23.5469 21.304 23.9899 21.3476 24.3925 21.5144C24.795 21.6811 25.1391 21.9635 25.3812 22.3258C25.6233 22.6881 25.7525 23.1141 25.7525 23.5498C25.7525 24.1341 25.5204 24.6945 25.1072 25.1076C24.694 25.5208 24.1337 25.7529 23.5494 25.7529ZM31.6275 25.7529C31.1918 25.7529 30.7658 25.6237 30.4035 25.3816C30.0412 25.1396 29.7588 24.7955 29.5921 24.3929C29.4253 23.9903 29.3817 23.5474 29.4667 23.12C29.5517 22.6926 29.7615 22.3001 30.0697 21.992C30.3778 21.6838 30.7703 21.474 31.1977 21.389C31.6251 21.304 32.068 21.3476 32.4706 21.5144C32.8732 21.6811 33.2172 21.9635 33.4593 22.3258C33.7014 22.6881 33.8306 23.1141 33.8306 23.5498C33.8306 24.1341 33.5985 24.6945 33.1853 25.1076C32.7722 25.5208 32.2118 25.7529 31.6275 25.7529Z" fill="url(#paint0_linear_18689_4724)"/>
<defs>
<linearGradient id="paint0_linear_18689_4724" x1="23.5493" y1="8.8623" x2="23.5493" y2="44.1123" gradientUnits="userSpaceOnUse">
<stop stop-color="#6687FF"/>
<stop offset="0.5" stop-color="#0037FF"/>
<stop offset="1" stop-color="#335FFF"/>
</linearGradient>
</defs>
</svg>
