<svg width="150" height="34" viewBox="0 0 150 34" fill="none" xmlns="http://www.w3.org/2000/svg">
<circle cx="14.7917" cy="16.9997" r="13.1042" stroke="#0A0D12" stroke-width="2.125"/>
<circle cx="11.7819" cy="13.9889" r="8.85417" stroke="#0A0D12" stroke-width="2.125"/>
<circle cx="14.7917" cy="16.9997" r="4.60417" stroke="#0A0D12" stroke-width="2.125"/>
<path d="M39.9729 23.3762L36.0416 8.50117H38.9529L41.6304 20.3374L44.7754 8.50117H47.7716L50.8316 20.3374L53.5091 8.50117H56.4416L52.4041 23.3762H49.1741L46.2204 12.3474L43.1816 23.3762H39.9729Z" fill="#0A0D12"/>
<path d="M59.5043 23.6312C58.5976 23.6312 57.8539 23.4895 57.273 23.2062C56.6922 22.9087 56.2601 22.5191 55.9768 22.0374C55.6935 21.5558 55.5518 21.0245 55.5518 20.4437C55.5518 19.4662 55.9343 18.6728 56.6993 18.0637C57.4643 17.4545 58.6118 17.1499 60.1418 17.1499H62.8193V16.8949C62.8193 16.1724 62.6139 15.6412 62.203 15.3012C61.7922 14.9612 61.2822 14.7912 60.673 14.7912C60.1205 14.7912 59.6389 14.9258 59.228 15.1949C58.8172 15.4499 58.5622 15.8324 58.463 16.3424H55.8068C55.8776 15.5774 56.1326 14.9116 56.5718 14.3449C57.0251 13.7783 57.606 13.3462 58.3143 13.0487C59.0226 12.737 59.816 12.5812 60.6943 12.5812C62.196 12.5812 63.3789 12.9566 64.243 13.7074C65.1072 14.4583 65.5393 15.5208 65.5393 16.8949V23.3762H63.223L62.968 21.6762C62.6564 22.2428 62.2172 22.7103 61.6505 23.0787C61.098 23.447 60.3826 23.6312 59.5043 23.6312ZM60.1205 21.5062C60.8997 21.5062 61.5018 21.2512 61.9268 20.7412C62.366 20.2312 62.6422 19.6008 62.7555 18.8499H60.4393C59.7168 18.8499 59.1997 18.9845 58.888 19.2537C58.5764 19.5087 58.4205 19.8274 58.4205 20.2099C58.4205 20.6208 58.5764 20.9395 58.888 21.1662C59.1997 21.3928 59.6105 21.5062 60.1205 21.5062Z" fill="#0A0D12"/>
<path d="M71.4109 23.3762C70.3059 23.3762 69.4205 23.107 68.7547 22.5687C68.0888 22.0303 67.7559 21.0741 67.7559 19.6999V15.1099H65.9497V12.8362H67.7559L68.0747 10.0099H70.4759V12.8362H73.3234V15.1099H70.4759V19.7212C70.4759 20.2312 70.5822 20.5853 70.7947 20.7837C71.0213 20.9678 71.4038 21.0599 71.9422 21.0599H73.2597V23.3762H71.4109Z" fill="#0A0D12"/>
<path d="M79.2777 23.6312C78.2011 23.6312 77.2519 23.3974 76.4302 22.9299C75.6086 22.4624 74.9569 21.8108 74.4752 20.9749C74.0077 20.1391 73.774 19.1828 73.774 18.1062C73.774 17.0295 74.0077 16.0733 74.4752 15.2374C74.9569 14.4016 75.6086 13.7499 76.4302 13.2824C77.2519 12.8149 78.2011 12.5812 79.2777 12.5812C80.6236 12.5812 81.7569 12.9353 82.6777 13.6437C83.5986 14.3378 84.1865 15.3012 84.4415 16.5337H81.5727C81.4311 16.0237 81.1477 15.627 80.7227 15.3437C80.3119 15.0462 79.8232 14.8974 79.2565 14.8974C78.5057 14.8974 77.8682 15.1808 77.344 15.7474C76.8198 16.3141 76.5577 17.1003 76.5577 18.1062C76.5577 19.112 76.8198 19.8983 77.344 20.4649C77.8682 21.0316 78.5057 21.3149 79.2565 21.3149C79.8232 21.3149 80.3119 21.1733 80.7227 20.8899C81.1477 20.6066 81.4311 20.2028 81.5727 19.6787H84.4415C84.1865 20.8687 83.5986 21.8249 82.6777 22.5474C81.7569 23.2699 80.6236 23.6312 79.2777 23.6312Z" fill="#0A0D12"/>
<path d="M85.5807 23.3762V8.07617H88.3007V14.4512C88.6549 13.8703 89.1294 13.417 89.7244 13.0912C90.3336 12.7512 91.0278 12.5812 91.8069 12.5812C93.1103 12.5812 94.1161 12.992 94.8244 13.8137C95.5469 14.6353 95.9082 15.8395 95.9082 17.4262V23.3762H93.2094V17.6812C93.2094 16.7745 93.0253 16.0803 92.6569 15.5987C92.3028 15.117 91.7361 14.8762 90.9569 14.8762C90.1919 14.8762 89.5544 15.1453 89.0444 15.6837C88.5486 16.222 88.3007 16.9728 88.3007 17.9362V23.3762H85.5807Z" fill="#0A0D12"/>
<path d="M101.93 23.3762C100.825 23.3762 99.94 23.107 99.2742 22.5687C98.6083 22.0303 98.2754 21.0741 98.2754 19.6999V15.1099H96.4692V12.8362H98.2754L98.5942 10.0099H100.995V12.8362H103.843V15.1099H100.995V19.7212C100.995 20.2312 101.102 20.5853 101.314 20.7837C101.541 20.9678 101.923 21.0599 102.462 21.0599H103.779V23.3762H101.93Z" fill="#0A0D12"/>
<path d="M109.691 23.6312C108.671 23.6312 107.75 23.3974 106.928 22.9299C106.121 22.4624 105.476 21.8178 104.995 20.9962C104.527 20.1603 104.293 19.197 104.293 18.1062C104.293 17.0153 104.534 16.0591 105.016 15.2374C105.498 14.4016 106.142 13.7499 106.95 13.2824C107.771 12.8149 108.692 12.5812 109.712 12.5812C110.718 12.5812 111.625 12.8149 112.432 13.2824C113.254 13.7499 113.898 14.4016 114.366 15.2374C114.848 16.0591 115.088 17.0153 115.088 18.1062C115.088 19.197 114.848 20.1603 114.366 20.9962C113.898 21.8178 113.254 22.4624 112.432 22.9299C111.611 23.3974 110.697 23.6312 109.691 23.6312ZM109.691 21.2724C110.399 21.2724 111.016 21.0103 111.54 20.4862C112.064 19.9478 112.326 19.1545 112.326 18.1062C112.326 17.0578 112.064 16.2716 111.54 15.7474C111.016 15.2091 110.406 14.9399 109.712 14.9399C108.99 14.9399 108.366 15.2091 107.842 15.7474C107.332 16.2716 107.077 17.0578 107.077 18.1062C107.077 19.1545 107.332 19.9478 107.842 20.4862C108.366 21.0103 108.983 21.2724 109.691 21.2724Z" fill="#0A0D12"/>
<path d="M117.933 23.3762L114.852 12.8362H117.551L119.378 20.4224L121.503 12.8362H124.521L126.646 20.4224L128.494 12.8362H131.193L128.091 23.3762H125.264L123.012 15.4924L120.759 23.3762H117.933Z" fill="#0A0D12"/>
<path d="M136.382 23.6312C135.319 23.6312 134.377 23.4045 133.556 22.9512C132.734 22.4978 132.089 21.8603 131.622 21.0387C131.154 20.217 130.921 19.2678 130.921 18.1912C130.921 17.1003 131.147 16.1299 131.601 15.2799C132.068 14.4299 132.706 13.7712 133.513 13.3037C134.335 12.822 135.298 12.5812 136.403 12.5812C137.437 12.5812 138.351 12.8078 139.144 13.2612C139.938 13.7145 140.554 14.3378 140.993 15.1312C141.447 15.9103 141.673 16.7816 141.673 17.7449C141.673 17.9008 141.666 18.0637 141.652 18.2337C141.652 18.4037 141.645 18.5808 141.631 18.7649H133.619C133.676 19.5866 133.959 20.2312 134.469 20.6987C134.994 21.1662 135.624 21.3999 136.361 21.3999C136.913 21.3999 137.374 21.2795 137.742 21.0387C138.124 20.7837 138.408 20.4578 138.592 20.0612H141.354C141.156 20.727 140.823 21.3362 140.356 21.8887C139.902 22.427 139.336 22.852 138.656 23.1637C137.99 23.4753 137.232 23.6312 136.382 23.6312ZM136.403 14.7912C135.737 14.7912 135.149 14.9824 134.639 15.3649C134.129 15.7333 133.804 16.2999 133.662 17.0649H138.911C138.868 16.3708 138.613 15.8183 138.146 15.4074C137.678 14.9966 137.097 14.7912 136.403 14.7912Z" fill="#0A0D12"/>
<path d="M142.686 23.3762V12.8362H145.108L145.363 14.8124C145.746 14.1324 146.263 13.5941 146.915 13.1974C147.581 12.7866 148.36 12.5812 149.252 12.5812V15.4499H148.487C147.892 15.4499 147.361 15.542 146.893 15.7262C146.426 15.9103 146.058 16.2291 145.788 16.6824C145.533 17.1358 145.406 17.7662 145.406 18.5737V23.3762H142.686Z" fill="#0A0D12"/>
</svg>
