<svg width="106" height="34" viewBox="0 0 106 34" fill="none" xmlns="http://www.w3.org/2000/svg">
<path fill-rule="evenodd" clip-rule="evenodd" d="M8.25482 3.54102H18.6367V7.62193H14.9668C15.5575 8.73125 15.8932 10.0033 15.8932 11.3555C15.8932 15.6714 12.4737 19.17 8.25552 19.17C4.03732 19.17 0.617798 15.6714 0.617798 11.3555C0.617798 7.03993 4.03694 3.5414 8.25482 3.54102ZM8.25552 15.0891C10.2709 15.0891 11.9046 13.4175 11.9046 11.3555C11.9046 9.29352 10.2709 7.62193 8.25552 7.62193H8.25482C6.23978 7.62231 4.60638 9.29376 4.60638 11.3555C4.60638 13.4175 6.24016 15.0891 8.25552 15.0891Z" fill="#079455"/>
<path opacity="0.7" d="M8.25513 30.4584C6.83216 30.4584 5.5426 30.186 4.38644 29.6412C3.23028 29.1191 2.30757 28.3814 1.61832 27.4279C0.951306 26.4745 0.617798 25.3849 0.617798 24.1591C0.617798 23.2057 0.751201 22.4226 1.01801 21.8097C1.28481 21.1968 1.68502 20.6066 2.21864 20.0391L5.52036 22.2183C5.29802 22.4226 5.13127 22.6609 5.0201 22.9333C4.90893 23.2057 4.85335 23.5462 4.85335 23.9548C4.85335 24.7039 5.1535 25.2941 5.75382 25.7254C6.36994 26.1748 7.20384 26.4017 8.25552 26.4064C9.30719 26.4017 10.1411 26.1748 10.7572 25.7254C11.3575 25.2941 11.6577 24.7039 11.6577 23.9548C11.6577 23.5462 11.6021 23.2057 11.4909 22.9333C11.3798 22.6609 11.213 22.4226 10.9907 22.2183L14.2924 20.0391C14.826 20.6066 15.2262 21.1968 15.493 21.8097C15.7598 22.4226 15.8932 23.2057 15.8932 24.1591C15.8932 25.3849 15.5597 26.4745 14.8927 27.4279C14.2035 28.3814 13.2808 29.1191 12.1246 29.6412C10.9684 30.186 9.67809 30.4584 8.25513 30.4584Z" fill="#079455"/>
<path fill-rule="evenodd" clip-rule="evenodd" d="M62.7654 22.8875C63.4756 23.3215 64.2844 23.5385 65.1918 23.5385C65.8494 23.5385 66.4478 23.4069 66.987 23.1439C67.2707 22.9986 67.5272 22.8296 67.7563 22.6369V23.3412H70.7153V9.01953H67.6971V14.3764C67.4781 14.2038 67.2348 14.0555 66.9672 13.9315C66.4412 13.6816 65.8494 13.5567 65.1918 13.5567C64.2844 13.5567 63.4756 13.7737 62.7654 14.2077C62.0684 14.6417 61.5161 15.2335 61.1084 15.9831C60.7138 16.7327 60.5166 17.5875 60.5166 18.5476C60.5166 19.5076 60.7138 20.3624 61.1084 21.1121C61.5161 21.8617 62.0684 22.4535 62.7654 22.8875ZM66.8489 20.54C66.5332 20.7241 66.1584 20.8162 65.7245 20.8162C65.3168 20.8162 64.9485 20.7175 64.6198 20.5203C64.291 20.323 64.0345 20.0534 63.8504 19.7115C63.6663 19.3695 63.5742 18.9816 63.5742 18.5476C63.5742 18.1136 63.6663 17.7256 63.8504 17.3837C64.0477 17.0418 64.3041 16.7722 64.6198 16.5749C64.9485 16.3776 65.3233 16.279 65.7442 16.279C66.165 16.279 66.5332 16.3776 66.8489 16.5749C67.1777 16.7722 67.4275 17.0418 67.5985 17.3837C67.7826 17.7125 67.8747 18.1004 67.8747 18.5476C67.8747 18.9947 67.7826 19.3893 67.5985 19.7312C67.4144 20.0731 67.1645 20.3427 66.8489 20.54Z" fill="#3E3E3E"/>
<path d="M28.0561 23.0058C28.9504 23.3741 29.9039 23.5582 30.9165 23.5582C32.2974 23.5582 33.5139 23.2689 34.566 22.6902C35.6312 22.1116 36.4597 21.2567 37.0516 20.1257C37.6565 18.9816 37.959 17.5744 37.959 15.9042V15.4505H30.6403V18.0741L34.6415 18.1376C34.5648 18.4275 34.4607 18.6956 34.3293 18.9421C34.0268 19.5208 33.5862 19.9679 33.0076 20.2835C32.4421 20.586 31.7516 20.7372 30.9362 20.7372C30.134 20.7372 29.4239 20.5531 28.8058 20.1849C28.1876 19.8167 27.701 19.3038 27.346 18.6462C26.9909 17.9886 26.8133 17.2259 26.8133 16.3579C26.8133 15.4899 26.9909 14.7337 27.346 14.0893C27.7142 13.4318 28.2205 12.9254 28.8649 12.5704C29.5093 12.2021 30.2392 12.018 31.0546 12.018C31.8174 12.018 32.5012 12.1627 33.1062 12.452C33.7111 12.7413 34.2372 13.1753 34.6843 13.754L36.7951 11.6432C36.1507 10.8804 35.3353 10.282 34.349 9.84806C33.3758 9.41407 32.2908 9.19707 31.0941 9.19707C30.0551 9.19707 29.0819 9.38119 28.1745 9.74942C27.2671 10.1045 26.4714 10.6108 25.7876 11.2684C25.1168 11.9128 24.5908 12.669 24.2094 13.537C23.828 14.4049 23.6373 15.3453 23.6373 16.3579C23.6373 17.3705 23.8214 18.3174 24.1897 19.1986C24.5711 20.0665 25.0905 20.8293 25.7481 21.4869C26.4057 22.1313 27.175 22.6376 28.0561 23.0058Z" fill="#3E3E3E"/>
<path fill-rule="evenodd" clip-rule="evenodd" d="M41.0986 22.9072C41.9009 23.3412 42.7951 23.5582 43.7815 23.5582C44.781 23.5582 45.6752 23.3412 46.4643 22.9072C47.2534 22.4601 47.8781 21.8551 48.3384 21.0923C48.7987 20.3296 49.0288 19.4747 49.0288 18.5278C49.0288 17.581 48.7987 16.7327 48.3384 15.9831C47.8781 15.2203 47.2534 14.6219 46.4643 14.188C45.6752 13.754 44.781 13.537 43.7815 13.537C42.782 13.537 41.8877 13.7605 41.0986 14.2077C40.3096 14.6417 39.6849 15.2335 39.2246 15.9831C38.7643 16.7327 38.5341 17.581 38.5341 18.5278C38.5341 19.4747 38.7643 20.3296 39.2246 21.0923C39.6849 21.8551 40.3096 22.4601 41.0986 22.9072ZM44.9256 20.54C44.5968 20.7241 44.2155 20.8162 43.7815 20.8162C43.3606 20.8162 42.9858 20.7241 42.657 20.54C42.3283 20.3427 42.0718 20.0731 41.8877 19.7312C41.7036 19.3761 41.6115 18.9816 41.6115 18.5476C41.6115 18.1004 41.7036 17.7059 41.8877 17.364C42.0718 17.022 42.3283 16.759 42.657 16.5749C42.9858 16.3776 43.3606 16.279 43.7815 16.279C44.2155 16.279 44.5903 16.3776 44.9059 16.5749C45.2347 16.759 45.4911 17.022 45.6752 17.364C45.8594 17.6927 45.9514 18.0807 45.9514 18.5278C45.9514 18.975 45.8594 19.3761 45.6752 19.7312C45.5043 20.0731 45.2544 20.3427 44.9256 20.54Z" fill="#3E3E3E"/>
<path fill-rule="evenodd" clip-rule="evenodd" d="M54.753 23.5582C53.7666 23.5582 52.8723 23.3412 52.0701 22.9072C51.281 22.4601 50.6564 21.8551 50.1961 21.0923C49.7358 20.3296 49.5056 19.4747 49.5056 18.5278C49.5056 17.581 49.7358 16.7327 50.1961 15.9831C50.6564 15.2335 51.281 14.6417 52.0701 14.2077C52.8592 13.7605 53.7535 13.537 54.753 13.537C55.7525 13.537 56.6467 13.754 57.4358 14.188C58.2249 14.6219 58.8496 15.2203 59.3099 15.9831C59.7701 16.7327 60.0003 17.581 60.0003 18.5278C60.0003 19.4747 59.7701 20.3296 59.3099 21.0923C58.8496 21.8551 58.2249 22.4601 57.4358 22.9072C56.6467 23.3412 55.7525 23.5582 54.753 23.5582ZM54.753 20.8162C55.187 20.8162 55.5683 20.7241 55.8971 20.54C56.2259 20.3427 56.4758 20.0731 56.6467 19.7312C56.8309 19.3761 56.9229 18.975 56.9229 18.5278C56.9229 18.0807 56.8309 17.6927 56.6467 17.364C56.4626 17.022 56.2062 16.759 55.8774 16.5749C55.5618 16.3776 55.187 16.279 54.753 16.279C54.3321 16.279 53.9573 16.3776 53.6285 16.5749C53.2998 16.759 53.0433 17.022 52.8592 17.364C52.6751 17.7059 52.583 18.1004 52.583 18.5476C52.583 18.9816 52.6751 19.3761 52.8592 19.7312C53.0433 20.0731 53.2998 20.3427 53.6285 20.54C53.9573 20.7241 54.3321 20.8162 54.753 20.8162Z" fill="#3E3E3E"/>
<path d="M79.13 17.8177L77.2395 23.3412H74.7934L71.4793 13.754H74.4383L76.0801 19.3267L77.8905 13.754H80.3366L82.1565 19.3078L83.8085 13.754H86.7676L83.4534 23.3412H80.9876L79.13 17.8177Z" fill="#3E3E3E"/>
<path fill-rule="evenodd" clip-rule="evenodd" d="M89.3595 22.9072C90.1748 23.3412 91.1152 23.5582 92.1804 23.5582C93.0089 23.5582 93.7585 23.4201 94.4293 23.1439C95.1131 22.8546 95.7115 22.4272 96.2244 21.8617L94.5673 20.2046C94.2649 20.5466 93.9229 20.803 93.5415 20.974C93.1733 21.1318 92.7525 21.2107 92.279 21.2107C91.967 21.2107 91.6749 21.1711 91.4025 21.0918L96.3428 16.3184C95.9614 15.4242 95.4024 14.7403 94.666 14.2669C93.9295 13.7803 93.0352 13.537 91.9831 13.537C90.9836 13.537 90.0828 13.7605 89.2806 14.2077C88.4915 14.6417 87.8668 15.2335 87.4065 15.9831C86.9594 16.7327 86.7358 17.581 86.7358 18.5278C86.7358 19.4747 86.9659 20.3296 87.4262 21.0923C87.8997 21.8551 88.5441 22.4601 89.3595 22.9072ZM93.2677 16.2597L89.7563 19.6401C89.6101 19.2795 89.537 18.8758 89.537 18.4292C89.537 17.9295 89.6356 17.4955 89.8329 17.1272C90.0302 16.7459 90.3129 16.4565 90.6812 16.2593C91.0494 16.0488 91.49 15.9436 92.0029 15.9436C92.524 15.9436 92.9456 16.049 93.2677 16.2597Z" fill="#3E3E3E"/>
<path d="M97.3171 23.3412V9.01953H100.335V23.3412H97.3171Z" fill="#3E3E3E"/>
<path d="M102.066 9.01953V23.3412H105.084V9.01953H102.066Z" fill="#3E3E3E"/>
</svg>
