<svg width="108" height="34" viewBox="0 0 108 34" fill="none" xmlns="http://www.w3.org/2000/svg">
<path d="M7.82489 16.9997C7.82489 13.0877 10.9589 9.91634 14.8249 9.91634C18.6909 9.91634 21.8249 13.0877 21.8249 16.9997L28.8249 16.9997C28.8249 9.17564 22.5569 2.83301 14.8249 2.83301C7.09291 2.83301 0.824891 9.17564 0.82489 16.9997C0.824889 24.8237 7.0929 31.1663 14.8249 31.1663L14.8249 24.083C10.9589 24.083 7.82489 20.9117 7.82489 16.9997Z" fill="#7839EE"/>
<path opacity="0.5" d="M14.825 17H21.825V24.0833H14.825V17Z" fill="#7839EE"/>
<path d="M26.952 24.084H21.825V29.2721C23.9503 28.028 25.7225 26.2347 26.952 24.084Z" fill="#7839EE"/>
<path d="M61.4718 12.4866C60.9429 12.4866 60.5079 12.3338 60.167 12.0281C59.8379 11.7108 59.6733 11.3229 59.6733 10.8644C59.6733 10.3942 59.8379 10.0063 60.167 9.70068C60.5079 9.3833 60.9429 9.22461 61.4718 9.22461C61.989 9.22461 62.4122 9.3833 62.7414 9.70068C63.0822 10.0063 63.2527 10.3942 63.2527 10.8644C63.2527 11.3229 63.0822 11.7108 62.7414 12.0281C62.4122 12.3338 61.989 12.4866 61.4718 12.4866Z" fill="#3E3E3E"/>
<path d="M62.9706 13.5093V23.3481H59.9555V13.5093H62.9706Z" fill="#3E3E3E"/>
<path fill-rule="evenodd" clip-rule="evenodd" d="M40.0318 23.4337C39.1511 23.3422 38.3282 23.0844 37.5632 22.6604C36.5993 22.1197 35.8293 21.3674 35.2533 20.4035C34.6891 19.4278 34.407 18.3346 34.407 17.1239C34.407 15.9131 34.6891 14.8258 35.2533 13.8619C35.8293 12.898 36.5993 12.1457 37.5632 11.605C38.5388 11.0642 39.6085 10.7939 40.7722 10.7939C41.936 10.7939 42.9998 11.0642 43.9637 11.605C44.9393 12.1457 45.7034 12.898 46.2559 13.8619C46.8201 14.8258 47.1022 15.9131 47.1022 17.1239C47.1022 18.3346 46.8201 19.4278 46.2559 20.4035C45.6916 21.3674 44.9276 22.1197 43.9637 22.6604C43.3763 22.9899 42.7519 23.219 42.0904 23.3477C42.1349 23.6554 42.2305 23.9056 42.3773 24.0983C42.5879 24.388 42.871 24.5854 43.2265 24.6908C43.5819 24.8092 43.9835 24.8685 44.4311 24.8685C44.9972 24.8685 45.4712 24.8092 45.853 24.6908C46.2479 24.5723 46.5705 24.4077 46.8206 24.1971L47.3341 26.5471C46.9918 26.8104 46.5507 27.0079 46.011 27.1395C45.4712 27.2843 44.938 27.3568 44.4114 27.3568C43.5424 27.3568 42.7788 27.2119 42.1206 26.9223C41.4623 26.6327 40.9488 26.2114 40.5802 25.6584C40.2116 25.1055 40.0273 24.4209 40.0273 23.6046C40.0273 23.5482 40.0288 23.4913 40.0318 23.4337ZM43.135 19.7334C42.5472 20.3917 41.7596 20.7209 40.7722 20.7209C39.7731 20.7209 38.9737 20.3976 38.3742 19.7511C37.7865 19.0928 37.4926 18.2171 37.4926 17.1239C37.4926 16.0189 37.7865 15.1432 38.3742 14.4967C38.9737 13.8501 39.7731 13.5269 40.7722 13.5269C41.7596 13.5269 42.5472 13.856 43.135 14.5143C43.7345 15.1608 44.0342 16.0307 44.0342 17.1239C44.0342 18.2053 43.7345 19.0752 43.135 19.7334Z" fill="#3E3E3E"/>
<path d="M58.1424 23.3481V13.5093H55.1272V18.8518C55.1272 19.5101 54.9568 20.0214 54.6159 20.3858C54.275 20.7502 53.8107 20.9324 53.223 20.9324C52.647 20.9324 52.1885 20.7502 51.8476 20.3858C51.5068 20.0214 51.3363 19.5101 51.3363 18.8518V13.5093H48.3388V19.2574C48.3388 20.1155 48.4975 20.8619 48.8149 21.4967C49.1323 22.1314 49.579 22.6193 50.1549 22.9602C50.7309 23.2893 51.3951 23.4539 52.1474 23.4539C52.7822 23.4539 53.3581 23.3246 53.8754 23.0659C54.4043 22.7956 54.8216 22.4429 55.1272 22.008V23.3481H58.1424Z" fill="#3E3E3E"/>
<path d="M68.735 20.6151L70.6216 23.3481H74.007L70.6216 18.4639L73.9188 13.5093H70.6569L69.07 16.2246L67.1833 13.5093H63.7979L67.1304 18.3229L63.8861 23.3481H67.148L68.735 20.6151Z" fill="#3E3E3E"/>
<path fill-rule="evenodd" clip-rule="evenodd" d="M79.2948 23.4891C78.3309 23.4891 77.461 23.2834 76.6852 22.872C75.9211 22.4606 75.3157 21.8728 74.8691 21.1088C74.4341 20.3447 74.2167 19.4513 74.2167 18.4287C74.2167 17.4177 74.44 16.5302 74.8867 15.7662C75.3334 14.9904 75.9446 14.3967 76.7204 13.9853C77.4963 13.5739 78.3661 13.3682 79.33 13.3682C80.2939 13.3682 81.1638 13.5739 81.9396 13.9853C82.7154 14.3967 83.3267 14.9904 83.7734 15.7662C84.22 16.5302 84.4434 17.4177 84.4434 18.4287C84.4434 19.4396 84.2142 20.3329 83.7557 21.1088C83.309 21.8728 82.6919 22.4606 81.9043 22.872C81.1285 23.2834 80.2587 23.4891 79.2948 23.4891ZM79.2948 20.8795C79.8707 20.8795 80.3586 20.668 80.7582 20.2448C81.1697 19.8216 81.3754 19.2162 81.3754 18.4287C81.3754 17.6411 81.1755 17.0357 80.7759 16.6125C80.388 16.1894 79.906 15.9778 79.33 15.9778C78.7423 15.9778 78.2544 16.1894 77.8665 16.6125C77.4786 17.024 77.2847 17.6293 77.2847 18.4287C77.2847 19.2162 77.4728 19.8216 77.8489 20.2448C78.2368 20.668 78.7188 20.8795 79.2948 20.8795Z" fill="#3E3E3E"/>
<path d="M91.1739 23.3481V20.7914H90.0984C89.7692 20.7914 89.5341 20.7267 89.3931 20.5974C89.252 20.4681 89.1815 20.2565 89.1815 19.9627V16.013H91.1563V13.5093H89.1815V11.1113H86.1664V13.5093H84.9674V16.013H86.1664V19.9274C86.1664 21.1381 86.472 22.0139 87.0833 22.5546C87.6945 23.0836 88.5467 23.3481 89.6399 23.3481H91.1739Z" fill="#3E3E3E"/>
<path d="M94.0172 12.4866C93.4882 12.4866 93.0533 12.3338 92.7124 12.0281C92.3832 11.7108 92.2187 11.3229 92.2187 10.8644C92.2187 10.3942 92.3832 10.0063 92.7124 9.70068C93.0533 9.3833 93.4882 9.22461 94.0172 9.22461C94.5344 9.22461 94.9575 9.3833 95.2867 9.70068C95.6276 10.0063 95.798 10.3942 95.798 10.8644C95.798 11.3229 95.6276 11.7108 95.2867 12.0281C94.9575 12.3338 94.5344 12.4866 94.0172 12.4866Z" fill="#3E3E3E"/>
<path d="M95.5159 23.3481H92.5008V13.5093H95.5159V23.3481Z" fill="#3E3E3E"/>
<path d="M97.3659 15.7486C96.9545 16.5126 96.7488 17.406 96.7488 18.4287C96.7488 19.4513 96.9545 20.3447 97.3659 21.1088C97.7891 21.8728 98.3709 22.4606 99.1115 22.872C99.8638 23.2834 100.722 23.4891 101.686 23.4891C102.908 23.4891 103.937 23.16 104.771 22.5017C105.606 21.8434 106.153 20.9383 106.411 19.7863H103.202C102.932 20.5387 102.409 20.9148 101.633 20.9148C101.08 20.9148 100.64 20.7032 100.31 20.28C99.9814 19.8451 99.8168 19.228 99.8168 18.4287C99.8168 17.6293 99.9814 17.0181 100.31 16.5949C100.64 16.16 101.08 15.9425 101.633 15.9425C102.409 15.9425 102.932 16.3187 103.202 17.071H106.411C106.153 15.8955 105.606 14.9845 104.771 14.338C103.949 13.6915 102.92 13.3682 101.686 13.3682C100.722 13.3682 99.8638 13.5739 99.1115 13.9853C98.3709 14.3967 97.7891 14.9845 97.3659 15.7486Z" fill="#3E3E3E"/>
</svg>
