<svg width="448" height="331" viewBox="0 0 448 331" fill="none" xmlns="http://www.w3.org/2000/svg">
<rect x="0.625" width="446.75" height="330.324" rx="16" fill="#FAFAFA"/>
<g filter="url(#filter0_d_17161_69671)">
<rect x="4.23511" y="3.61035" width="439.53" height="285.411" rx="14.4404" fill="white"/>
<path d="M193.221 37.775C193.06 36.8765 192.667 36.1946 192.042 35.7293C191.416 35.264 190.606 35.0313 189.611 35.0313C188.696 35.0313 187.966 35.2319 187.421 35.633C186.875 36.0341 186.602 36.5556 186.602 37.1974C186.602 37.7429 186.803 38.1601 187.204 38.4489C187.605 38.7216 188.207 38.9463 189.009 39.1228L191.825 39.7966C193.012 40.1015 193.959 40.4063 194.665 40.7112C195.371 41.0161 195.973 41.5215 196.47 42.2274C196.967 42.9174 197.216 43.872 197.216 45.0915C197.216 46.2306 196.903 47.1933 196.277 47.9795C195.652 48.7497 194.801 49.3273 193.726 49.7124C192.667 50.0814 191.472 50.2659 190.14 50.2659C188.006 50.2659 186.249 49.7766 184.87 48.7978C183.506 47.803 182.703 46.3911 182.463 44.562L186.025 44.201C186.153 45.3402 186.594 46.1825 187.348 46.728C188.103 47.2575 189.049 47.5223 190.188 47.5223C191.183 47.5223 191.985 47.3217 192.595 46.9206C193.221 46.5034 193.534 45.9338 193.534 45.2118C193.534 44.7304 193.421 44.3534 193.197 44.0806C192.972 43.7918 192.659 43.5672 192.258 43.4067C191.873 43.2463 191.344 43.0778 190.67 42.9013L187.854 42.2034C186.875 41.9467 186.049 41.6659 185.375 41.361C184.701 41.0401 184.139 40.5588 183.69 39.917C183.241 39.2752 183.016 38.4248 183.016 37.3658C183.016 36.3229 183.305 35.4244 183.883 34.6703C184.46 33.9001 185.255 33.3145 186.265 32.9134C187.292 32.5123 188.44 32.3117 189.707 32.3117C191.616 32.3117 193.173 32.761 194.376 33.6595C195.579 34.558 196.366 35.8496 196.735 37.5343L193.221 37.775ZM202.089 37.1492V49.8809H198.72V37.1492H202.089ZM202.089 32.4561V35.3442H198.72V32.4561H202.089ZM216.143 48.9182C216.143 50.9077 215.565 52.3518 214.41 53.2503C213.271 54.1488 211.738 54.5981 209.813 54.5981C208.224 54.5981 206.885 54.2611 205.794 53.5872C204.703 52.9133 203.965 51.8624 203.579 50.4344L206.901 50.0253C207.109 50.7473 207.454 51.2687 207.936 51.5896C208.417 51.9266 209.043 52.0951 209.813 52.0951C211.786 52.0951 212.773 51.004 212.773 48.8219V47.5945H212.677C211.923 48.6695 210.679 49.207 208.946 49.207C207.904 49.207 206.965 48.9583 206.131 48.4609C205.296 47.9474 204.638 47.2254 204.157 46.2948C203.692 45.3482 203.459 44.2571 203.459 43.0217C203.459 41.7862 203.692 40.7032 204.157 39.7726C204.638 38.8259 205.296 38.1039 206.131 37.6065C206.981 37.0931 207.936 36.8364 208.995 36.8364C209.845 36.8364 210.599 36.9888 211.257 37.2936C211.931 37.5985 212.452 38.0558 212.821 38.6655H212.918V37.1492H216.143V48.9182ZM209.933 46.6799C210.848 46.6799 211.578 46.351 212.123 45.6931C212.685 45.0193 212.966 44.1288 212.966 43.0217C212.966 41.9306 212.685 41.0562 212.123 40.3983C211.578 39.7405 210.848 39.4116 209.933 39.4116C209.003 39.4116 208.265 39.7405 207.719 40.3983C207.173 41.0562 206.901 41.9306 206.901 43.0217C206.901 44.1288 207.173 45.0193 207.719 45.6931C208.265 46.351 209.003 46.6799 209.933 46.6799ZM221.102 38.8339C222.048 37.5022 223.388 36.8364 225.121 36.8364C226.421 36.8364 227.488 37.2295 228.322 38.0157C229.172 38.8019 229.598 39.9571 229.598 41.4814V49.8809H226.228V42.3478C226.228 41.353 226.028 40.639 225.626 40.2058C225.241 39.7726 224.648 39.556 223.845 39.556C223.091 39.556 222.45 39.8528 221.92 40.4465C221.407 41.0241 221.15 41.8584 221.15 42.9495V49.8809H217.78V37.1492H221.006V38.8339H221.102ZM250.561 43.5511C250.561 45.0112 250.24 46.2467 249.598 47.2575C248.972 48.2523 248.106 49.0064 246.999 49.5198C245.892 50.0172 244.632 50.2659 243.22 50.2659C241.808 50.2659 240.549 50.0172 239.442 49.5198C238.335 49.0064 237.46 48.2523 236.818 47.2575C236.193 46.2467 235.88 45.0112 235.88 43.5511V32.6968H239.49V43.2142C239.49 44.6262 239.803 45.6611 240.428 46.3189C241.054 46.9767 241.985 47.3057 243.22 47.3057C244.44 47.3057 245.362 46.9767 245.988 46.3189C246.63 45.6611 246.951 44.6262 246.951 43.2142V32.6968H250.561V43.5511ZM259.646 50.1697C258.763 50.1697 258.001 50.0172 257.359 49.7124C256.717 49.4075 256.212 48.9663 255.843 48.3887H255.747V54.3093H252.377V37.1492H255.578V38.8099H255.675C256.06 38.136 256.589 37.6386 257.263 37.3177C257.937 36.9968 258.715 36.8364 259.597 36.8364C260.672 36.8364 261.635 37.1091 262.486 37.6546C263.336 38.2002 264.002 38.9784 264.483 39.9892C264.965 41 265.205 42.1713 265.205 43.503C265.205 44.8347 264.965 46.006 264.483 47.0168C264.002 48.0277 263.336 48.8059 262.486 49.3514C261.651 49.8969 260.705 50.1697 259.646 50.1697ZM258.659 39.4116C257.696 39.4116 256.934 39.7646 256.372 40.4705C255.827 41.1765 255.554 42.1873 255.554 43.503C255.554 44.8187 255.827 45.8295 256.372 46.5355C256.934 47.2415 257.696 47.5945 258.659 47.5945C259.622 47.5945 260.376 47.2495 260.921 46.5596C261.483 45.8536 261.764 44.8347 261.764 43.503C261.764 42.1873 261.483 41.1765 260.921 40.4705C260.376 39.7646 259.622 39.4116 258.659 39.4116Z" fill="black"/>
<g opacity="0.9">
<rect x="29.5061" y="68.3213" width="388.988" height="9.62694" rx="4.81347" fill="#EFF2F2"/>
</g>
<g opacity="0.9">
<rect x="105.469" y="92.3887" width="237.063" height="9.62694" rx="4.81347" fill="#EFF2F2"/>
</g>
<rect x="29.9571" y="127.737" width="388.086" height="42.5631" rx="6.76894" fill="white"/>
<rect x="29.9571" y="127.737" width="388.086" height="42.5631" rx="6.76894" stroke="#DCE3E3" stroke-width="0.902525"/>
<path d="M45.8091 154.192C45.0486 154.192 44.4373 153.937 43.9752 153.426C43.5227 152.907 43.2965 152.194 43.2965 151.289V146.365H44.5095V150.957C44.5095 151.698 44.6394 152.247 44.8994 152.603C45.1689 152.95 45.5781 153.123 46.1268 153.123C46.7333 153.123 47.2098 152.931 47.5564 152.546C47.903 152.151 48.0762 151.612 48.0762 150.928V146.365H49.2892V154.019H48.134V152.127L48.3217 152.228C48.1677 152.854 47.8741 153.34 47.4409 153.686C47.0077 154.023 46.4637 154.192 45.8091 154.192ZM54.1041 154.192C53.4206 154.192 52.8382 154.081 52.3568 153.86C51.8851 153.638 51.5144 153.335 51.2449 152.95C50.985 152.555 50.8357 152.108 50.7972 151.607L52.068 151.52C52.145 151.982 52.3424 152.353 52.6601 152.632C52.9777 152.902 53.4591 153.037 54.1041 153.037C54.6239 153.037 55.0379 152.955 55.346 152.791C55.6637 152.618 55.8225 152.343 55.8225 151.968C55.8225 151.766 55.7744 151.597 55.6781 151.463C55.5818 151.328 55.3941 151.212 55.1149 151.116C54.8357 151.01 54.4218 150.909 53.873 150.813C53.1414 150.678 52.5638 150.514 52.1402 150.322C51.7262 150.12 51.4278 149.874 51.2449 149.585C51.0716 149.287 50.985 148.936 50.985 148.531C50.985 147.848 51.2353 147.289 51.7359 146.856C52.2365 146.413 52.9489 146.192 53.873 146.192C54.4988 146.192 55.0235 146.307 55.4471 146.538C55.8803 146.76 56.2172 147.058 56.4579 147.434C56.7082 147.8 56.8718 148.204 56.9489 148.647L55.6781 148.733C55.6203 148.464 55.5144 148.228 55.3604 148.026C55.2064 147.814 55.0042 147.65 54.7539 147.535C54.5036 147.41 54.2052 147.347 53.8586 147.347C53.3099 147.347 52.9055 147.453 52.6456 147.665C52.3857 147.877 52.2557 148.146 52.2557 148.473C52.2557 148.724 52.3135 148.931 52.429 149.094C52.5542 149.248 52.7515 149.378 53.0211 149.484C53.2906 149.581 53.6516 149.667 54.1041 149.744C54.8839 149.879 55.4904 150.043 55.9236 150.235C56.3568 150.428 56.66 150.664 56.8333 150.943C57.0066 151.222 57.0933 151.564 57.0933 151.968C57.0933 152.44 56.9585 152.844 56.6889 153.181C56.429 153.508 56.0728 153.759 55.6203 153.932C55.1775 154.105 54.6721 154.192 54.1041 154.192ZM61.5936 154.192C60.8716 154.192 60.2458 154.028 59.7163 153.701C59.1965 153.374 58.7921 152.911 58.5033 152.315C58.2242 151.708 58.0846 151.001 58.0846 150.192C58.0846 149.383 58.2242 148.68 58.5033 148.084C58.7921 147.487 59.1917 147.025 59.7019 146.697C60.2217 146.36 60.8331 146.192 61.5358 146.192C62.2001 146.192 62.7873 146.351 63.2976 146.668C63.8078 146.976 64.2025 147.429 64.4817 148.026C64.7705 148.623 64.9149 149.349 64.9149 150.206V150.567H59.3553C59.4035 151.386 59.6201 152.002 60.0051 152.416C60.3998 152.83 60.9293 153.037 61.5936 153.037C62.0942 153.037 62.5033 152.921 62.821 152.69C63.1483 152.449 63.3746 152.136 63.4997 151.751L64.7994 151.852C64.5972 152.536 64.2121 153.099 63.6441 153.542C63.0858 153.975 62.4023 154.192 61.5936 154.192ZM59.3553 149.499H63.5864C63.5286 148.757 63.312 148.214 62.9365 147.867C62.5707 147.52 62.1038 147.347 61.5358 147.347C60.9486 147.347 60.4624 147.53 60.0773 147.896C59.7019 148.252 59.4612 148.786 59.3553 149.499ZM66.4135 154.019V146.365H67.4821L67.5399 148.3L67.4244 148.257C67.5206 147.602 67.7276 147.126 68.0453 146.827C68.3726 146.519 68.8058 146.365 69.3449 146.365H70.0958V147.52H69.3594C68.9743 147.52 68.6518 147.593 68.3919 147.737C68.1416 147.872 67.949 148.079 67.8142 148.358C67.6891 148.627 67.6265 148.974 67.6265 149.398V154.019H66.4135ZM79.7118 155.001C79.2304 155.203 78.725 155.352 78.1955 155.448C77.6661 155.554 77.1029 155.607 76.506 155.607C75.3989 155.607 74.4507 155.4 73.6613 154.986C72.8815 154.582 72.2798 153.99 71.8562 153.21C71.4422 152.43 71.2353 151.496 71.2353 150.408C71.2353 149.427 71.3893 148.531 71.6974 147.723C72.0054 146.914 72.4434 146.216 73.0114 145.629C73.5891 145.032 74.2678 144.575 75.0475 144.257C75.8273 143.93 76.6889 143.766 77.6324 143.766C78.7202 143.766 79.6685 143.978 80.4771 144.401C81.2858 144.825 81.9115 145.422 82.3544 146.192C82.7972 146.962 83.0186 147.872 83.0186 148.921C83.0186 149.691 82.9031 150.37 82.6721 150.957C82.441 151.544 82.1233 152.007 81.719 152.343C81.3147 152.671 80.8478 152.834 80.3183 152.834C79.8754 152.834 79.5096 152.704 79.2208 152.445C78.9416 152.185 78.7876 151.833 78.7587 151.39L78.9753 151.333C78.8598 151.612 78.6769 151.872 78.4266 152.112C78.1763 152.353 77.8923 152.546 77.5746 152.69C77.2569 152.825 76.9296 152.892 76.5927 152.892C76.0247 152.892 75.5433 152.781 75.1486 152.56C74.7635 152.339 74.4699 152.031 74.2678 151.636C74.0656 151.241 73.9645 150.784 73.9645 150.264C73.9645 149.619 74.0897 149.032 74.34 148.502C74.5999 147.973 74.9561 147.554 75.4085 147.246C75.8706 146.928 76.4097 146.769 77.0259 146.769C77.5361 146.769 77.9693 146.885 78.3255 147.116C78.6913 147.337 78.9224 147.631 79.0186 147.997L78.8742 148.141L78.9753 146.798H80.0295L79.7984 149.831C79.7888 150.043 79.7695 150.283 79.7407 150.553C79.7214 150.822 79.7118 151.044 79.7118 151.217C79.7118 151.429 79.7695 151.593 79.8851 151.708C80.0006 151.824 80.1739 151.881 80.4049 151.881C80.8959 151.881 81.281 151.621 81.5602 151.102C81.8393 150.582 81.9789 149.869 81.9789 148.964C81.9789 148.069 81.8105 147.309 81.4735 146.683C81.1366 146.057 80.6408 145.585 79.9862 145.268C79.3411 144.94 78.5469 144.777 77.6035 144.777C76.8141 144.777 76.0921 144.911 75.4374 145.181C74.7828 145.451 74.2196 145.836 73.7479 146.336C73.2762 146.827 72.9104 147.414 72.6504 148.098C72.4001 148.782 72.275 149.542 72.275 150.38C72.275 151.275 72.4386 152.04 72.7659 152.676C73.1029 153.301 73.5891 153.778 74.2244 154.105C74.8598 154.433 75.63 154.596 76.5349 154.596C77.0547 154.596 77.565 154.543 78.0656 154.437C78.5758 154.341 79.0427 154.201 79.4663 154.019L79.7118 155.001ZM76.7371 151.939C77.2184 151.939 77.6083 151.824 77.9067 151.593C78.2148 151.352 78.441 151.049 78.5854 150.683C78.7395 150.307 78.8165 149.922 78.8165 149.528C78.8165 149.191 78.7587 148.887 78.6432 148.618C78.5373 148.339 78.3592 148.122 78.1089 147.968C77.8682 147.804 77.5457 147.723 77.1414 147.723C76.7082 147.723 76.3424 147.838 76.0439 148.069C75.7551 148.291 75.5337 148.589 75.3797 148.964C75.2256 149.33 75.1486 149.735 75.1486 150.177C75.1486 150.678 75.2641 151.097 75.4952 151.434C75.7359 151.771 76.1498 151.939 76.7371 151.939ZM87.6721 154.192C86.95 154.192 86.3243 154.028 85.7948 153.701C85.2749 153.374 84.8706 152.911 84.5818 152.315C84.3026 151.708 84.163 151.001 84.163 150.192C84.163 149.383 84.3026 148.68 84.5818 148.084C84.8706 147.487 85.2701 147.025 85.7804 146.697C86.3002 146.36 86.9115 146.192 87.6143 146.192C88.2786 146.192 88.8658 146.351 89.376 146.668C89.8863 146.976 90.281 147.429 90.5601 148.026C90.8489 148.623 90.9933 149.349 90.9933 150.206V150.567H85.4338C85.4819 151.386 85.6985 152.002 86.0836 152.416C86.4783 152.83 87.0078 153.037 87.6721 153.037C88.1727 153.037 88.5818 152.921 88.8995 152.69C89.2268 152.449 89.453 152.136 89.5782 151.751L90.8778 151.852C90.6757 152.536 90.2906 153.099 89.7226 153.542C89.1642 153.975 88.4807 154.192 87.6721 154.192ZM85.4338 149.499H89.6648C89.6071 148.757 89.3905 148.214 89.015 147.867C88.6492 147.52 88.1823 147.347 87.6143 147.347C87.0271 147.347 86.5409 147.53 86.1558 147.896C85.7804 148.252 85.5397 148.786 85.4338 149.499ZM92.492 154.019V146.365H93.6039L93.6472 148.3L93.4739 148.242C93.5606 147.819 93.7098 147.458 93.9216 147.159C94.143 146.851 94.4126 146.615 94.7303 146.452C95.0479 146.278 95.3993 146.192 95.7844 146.192C96.4487 146.192 96.9878 146.375 97.4017 146.741C97.8253 147.106 98.0901 147.617 98.1959 148.271L97.9649 148.257C98.0419 147.814 98.1815 147.443 98.3837 147.145C98.5955 146.837 98.865 146.601 99.1923 146.437C99.5197 146.274 99.8951 146.192 100.319 146.192C100.867 146.192 101.33 146.307 101.705 146.538C102.08 146.76 102.364 147.087 102.557 147.52C102.749 147.954 102.846 148.478 102.846 149.094V154.019H101.633V149.354C101.633 148.661 101.498 148.141 101.228 147.795C100.959 147.439 100.559 147.26 100.03 147.26C99.6737 147.26 99.3608 147.347 99.0913 147.52C98.8313 147.694 98.6292 147.944 98.4848 148.271C98.3404 148.589 98.2682 148.979 98.2682 149.441V154.019H97.0552V149.441C97.0552 148.757 96.9348 148.223 96.6941 147.838C96.4535 147.453 96.0491 147.26 95.4812 147.26C95.125 147.26 94.8121 147.347 94.5425 147.52C94.2826 147.694 94.0756 147.944 93.9216 148.271C93.7772 148.599 93.705 148.988 93.705 149.441V154.019H92.492ZM106.935 154.192C106.146 154.192 105.515 154.009 105.043 153.643C104.581 153.277 104.35 152.767 104.35 152.112C104.35 151.458 104.543 150.943 104.928 150.567C105.313 150.192 105.924 149.927 106.762 149.773L109.477 149.268C109.477 148.623 109.323 148.141 109.015 147.824C108.716 147.506 108.264 147.347 107.657 147.347C107.128 147.347 106.709 147.467 106.401 147.708C106.093 147.939 105.881 148.276 105.765 148.719L104.48 148.618C104.625 147.896 104.971 147.313 105.52 146.871C106.078 146.418 106.791 146.192 107.657 146.192C108.639 146.192 109.39 146.471 109.91 147.029C110.43 147.578 110.69 148.339 110.69 149.311V152.473C110.69 152.647 110.718 152.772 110.776 152.849C110.844 152.916 110.95 152.95 111.094 152.95H111.397V154.019C111.359 154.028 111.296 154.033 111.209 154.033C111.123 154.043 111.031 154.047 110.935 154.047C110.589 154.047 110.305 153.994 110.083 153.889C109.871 153.773 109.717 153.6 109.621 153.369C109.525 153.128 109.477 152.815 109.477 152.43L109.621 152.459C109.554 152.786 109.39 153.085 109.13 153.354C108.87 153.614 108.548 153.821 108.163 153.975C107.777 154.12 107.368 154.192 106.935 154.192ZM107.051 153.123C107.561 153.123 107.994 153.027 108.35 152.834C108.716 152.632 108.995 152.363 109.188 152.026C109.38 151.679 109.477 151.294 109.477 150.871V150.322L106.993 150.784C106.473 150.88 106.112 151.029 105.91 151.232C105.717 151.424 105.621 151.679 105.621 151.997C105.621 152.353 105.746 152.632 105.996 152.834C106.256 153.027 106.608 153.123 107.051 153.123ZM112.566 154.019V146.365H113.779V154.019H112.566ZM112.538 145.167V143.751H113.808V145.167H112.538ZM117.308 154.019C116.865 154.019 116.504 153.903 116.225 153.672C115.946 153.441 115.806 153.075 115.806 152.575V143.766H117.019V152.473C117.019 152.627 117.058 152.748 117.135 152.834C117.222 152.911 117.342 152.95 117.496 152.95H118.16V154.019H117.308ZM119.274 154.019V152.387H120.906V154.019H119.274ZM125.544 154.192C124.831 154.192 124.21 154.028 123.681 153.701C123.161 153.374 122.757 152.911 122.468 152.315C122.179 151.708 122.035 151.001 122.035 150.192C122.035 149.383 122.179 148.68 122.468 148.084C122.757 147.487 123.161 147.025 123.681 146.697C124.21 146.36 124.831 146.192 125.544 146.192C126.131 146.192 126.651 146.298 127.103 146.51C127.565 146.712 127.941 147.01 128.23 147.405C128.518 147.8 128.706 148.281 128.793 148.849L127.522 148.936C127.435 148.425 127.214 148.035 126.858 147.766C126.502 147.487 126.064 147.347 125.544 147.347C124.841 147.347 124.292 147.602 123.898 148.112C123.503 148.613 123.305 149.306 123.305 150.192C123.305 151.078 123.503 151.775 123.898 152.286C124.292 152.786 124.841 153.037 125.544 153.037C126.064 153.037 126.502 152.892 126.858 152.603C127.214 152.315 127.435 151.881 127.522 151.304L128.793 151.39C128.706 151.958 128.518 152.454 128.23 152.878C127.941 153.292 127.565 153.614 127.103 153.845C126.651 154.076 126.131 154.192 125.544 154.192ZM133.141 154.192C132.439 154.192 131.822 154.028 131.293 153.701C130.763 153.374 130.354 152.911 130.065 152.315C129.777 151.708 129.632 151.001 129.632 150.192C129.632 149.374 129.777 148.666 130.065 148.069C130.354 147.472 130.763 147.01 131.293 146.683C131.822 146.356 132.439 146.192 133.141 146.192C133.844 146.192 134.455 146.356 134.975 146.683C135.505 147.01 135.914 147.472 136.203 148.069C136.491 148.666 136.636 149.374 136.636 150.192C136.636 151.001 136.491 151.708 136.203 152.315C135.914 152.911 135.505 153.374 134.975 153.701C134.455 154.028 133.844 154.192 133.141 154.192ZM133.141 153.037C133.844 153.037 134.388 152.786 134.773 152.286C135.168 151.775 135.365 151.078 135.365 150.192C135.365 149.306 135.168 148.613 134.773 148.112C134.388 147.602 133.844 147.347 133.141 147.347C132.439 147.347 131.89 147.602 131.495 148.112C131.1 148.613 130.903 149.306 130.903 150.192C130.903 151.078 131.1 151.775 131.495 152.286C131.89 152.786 132.439 153.037 133.141 153.037ZM138.145 154.019V146.365H139.256L139.3 148.3L139.126 148.242C139.213 147.819 139.362 147.458 139.574 147.159C139.796 146.851 140.065 146.615 140.383 146.452C140.7 146.278 141.052 146.192 141.437 146.192C142.101 146.192 142.64 146.375 143.054 146.741C143.478 147.106 143.743 147.617 143.848 148.271L143.617 148.257C143.694 147.814 143.834 147.443 144.036 147.145C144.248 146.837 144.518 146.601 144.845 146.437C145.172 146.274 145.548 146.192 145.971 146.192C146.52 146.192 146.982 146.307 147.358 146.538C147.733 146.76 148.017 147.087 148.209 147.52C148.402 147.954 148.498 148.478 148.498 149.094V154.019H147.285V149.354C147.285 148.661 147.151 148.141 146.881 147.795C146.611 147.439 146.212 147.26 145.682 147.26C145.326 147.26 145.013 147.347 144.744 147.52C144.484 147.694 144.282 147.944 144.137 148.271C143.993 148.589 143.921 148.979 143.921 149.441V154.019H142.708V149.441C142.708 148.757 142.587 148.223 142.347 147.838C142.106 147.453 141.702 147.26 141.134 147.26C140.778 147.26 140.465 147.347 140.195 147.52C139.935 147.694 139.728 147.944 139.574 148.271C139.43 148.599 139.358 148.988 139.358 149.441V154.019H138.145Z" fill="#141414"/>
<rect x="29.9571" y="185.644" width="388.086" height="42.7581" rx="6.76894" fill="url(#paint0_linear_17161_69671)"/>
<rect x="29.9571" y="185.644" width="388.086" height="42.7581" rx="6.76894" stroke="#335FFF" stroke-width="0.902525"/>
<g filter="url(#filter1_dd_17161_69671)">
<path d="M166.025 212.254C165.178 212.254 164.446 212.104 163.83 211.806C163.214 211.507 162.728 211.093 162.372 210.564C162.025 210.025 161.823 209.399 161.765 208.687L163.671 208.571C163.729 209.014 163.854 209.389 164.047 209.698C164.249 210.006 164.514 210.241 164.841 210.405C165.178 210.559 165.582 210.636 166.054 210.636C166.458 210.636 166.8 210.588 167.079 210.492C167.368 210.386 167.585 210.237 167.729 210.044C167.883 209.842 167.96 209.596 167.96 209.308C167.96 209.048 167.898 208.817 167.773 208.615C167.647 208.403 167.407 208.215 167.051 208.051C166.694 207.878 166.165 207.71 165.462 207.546C164.615 207.353 163.936 207.137 163.426 206.896C162.916 206.646 162.545 206.338 162.314 205.972C162.083 205.596 161.968 205.13 161.968 204.571C161.968 203.974 162.117 203.45 162.415 202.997C162.714 202.535 163.137 202.179 163.686 201.929C164.235 201.669 164.894 201.539 165.664 201.539C166.483 201.539 167.176 201.688 167.744 201.986C168.312 202.275 168.759 202.675 169.087 203.185C169.414 203.695 169.616 204.282 169.693 204.947L167.801 205.033C167.753 204.658 167.638 204.331 167.455 204.051C167.282 203.772 167.041 203.556 166.733 203.402C166.434 203.238 166.069 203.156 165.635 203.156C165.096 203.156 164.668 203.281 164.35 203.532C164.042 203.772 163.888 204.095 163.888 204.499C163.888 204.778 163.951 205.009 164.076 205.192C164.211 205.375 164.446 205.534 164.783 205.669C165.12 205.794 165.592 205.929 166.199 206.073C167.113 206.266 167.84 206.511 168.379 206.809C168.918 207.108 169.303 207.454 169.534 207.849C169.765 208.244 169.881 208.696 169.881 209.207C169.881 209.832 169.722 210.376 169.404 210.838C169.087 211.291 168.639 211.642 168.061 211.892C167.484 212.133 166.805 212.254 166.025 212.254ZM171.287 212.022V204.311H173.135V212.022H171.287ZM171.258 203.286V201.64H173.178V203.286H171.258ZM178.172 214.362C177.498 214.362 176.92 214.27 176.439 214.087C175.957 213.905 175.567 213.645 175.269 213.308C174.98 212.98 174.778 212.6 174.663 212.167L176.569 212.037C176.665 212.326 176.829 212.552 177.06 212.716C177.3 212.879 177.671 212.961 178.172 212.961C178.74 212.961 179.178 212.831 179.486 212.571C179.794 212.321 179.948 211.926 179.948 211.387V210.405C179.765 210.781 179.471 211.084 179.067 211.315C178.663 211.536 178.21 211.647 177.709 211.647C177.074 211.647 176.506 211.493 176.005 211.185C175.515 210.867 175.129 210.429 174.85 209.871C174.571 209.303 174.431 208.648 174.431 207.907C174.431 207.166 174.566 206.516 174.836 205.957C175.115 205.39 175.5 204.947 175.991 204.629C176.482 204.302 177.045 204.138 177.681 204.138C178.239 204.138 178.72 204.263 179.125 204.513C179.529 204.764 179.823 205.096 180.005 205.51V204.311H181.811V211.344C181.811 211.998 181.657 212.552 181.348 213.004C181.05 213.457 180.626 213.794 180.078 214.015C179.539 214.246 178.903 214.362 178.172 214.362ZM178.143 210.203C178.691 210.203 179.129 210.001 179.457 209.596C179.784 209.183 179.953 208.615 179.962 207.893C179.972 207.411 179.9 207.002 179.746 206.665C179.601 206.319 179.389 206.054 179.11 205.871C178.841 205.678 178.518 205.582 178.143 205.582C177.575 205.582 177.132 205.794 176.814 206.217C176.506 206.631 176.352 207.19 176.352 207.893C176.352 208.595 176.511 209.158 176.829 209.582C177.156 209.996 177.594 210.203 178.143 210.203ZM183.689 212.022V204.311H185.365L185.437 206.477L185.22 206.391C185.297 205.852 185.456 205.418 185.697 205.091C185.937 204.764 186.231 204.523 186.578 204.369C186.924 204.215 187.304 204.138 187.718 204.138C188.286 204.138 188.763 204.263 189.148 204.513C189.543 204.764 189.841 205.11 190.043 205.553C190.245 205.986 190.347 206.492 190.347 207.069V212.022H188.498V207.661C188.498 207.228 188.455 206.862 188.368 206.564C188.282 206.266 188.137 206.039 187.935 205.885C187.742 205.722 187.482 205.64 187.155 205.64C186.664 205.64 186.27 205.813 185.971 206.16C185.682 206.506 185.538 207.007 185.538 207.661V212.022H183.689ZM199.515 212.254C198.687 212.254 197.96 212.095 197.334 211.777C196.718 211.459 196.242 211.012 195.905 210.434C195.578 209.847 195.414 209.154 195.414 208.355V201.755H197.291V208.355C197.291 209.077 197.484 209.635 197.869 210.03C198.254 210.424 198.803 210.622 199.515 210.622C200.227 210.622 200.776 210.424 201.161 210.03C201.556 209.635 201.753 209.077 201.753 208.355V201.755H203.63V208.355C203.63 209.154 203.462 209.847 203.125 210.434C202.788 211.012 202.312 211.459 201.695 211.777C201.089 212.095 200.362 212.254 199.515 212.254ZM205.439 214.189V204.311H207.215L207.258 205.957L207.07 205.871C207.263 205.303 207.576 204.874 208.009 204.586C208.452 204.287 208.967 204.138 209.554 204.138C210.286 204.138 210.892 204.321 211.374 204.687C211.865 205.053 212.23 205.539 212.471 206.145C212.712 206.752 212.832 207.426 212.832 208.167C212.832 208.908 212.707 209.582 212.457 210.189C212.216 210.795 211.85 211.281 211.359 211.647C210.878 212.013 210.271 212.196 209.54 212.196C209.155 212.196 208.794 212.128 208.457 211.994C208.129 211.859 207.845 211.666 207.605 211.416C207.374 211.166 207.21 210.872 207.114 210.535L207.287 210.391V214.189H205.439ZM209.107 210.694C209.665 210.694 210.103 210.473 210.421 210.03C210.748 209.577 210.912 208.956 210.912 208.167C210.912 207.377 210.748 206.761 210.421 206.319C210.103 205.866 209.665 205.64 209.107 205.64C208.731 205.64 208.409 205.736 208.139 205.929C207.869 206.112 207.658 206.391 207.504 206.766C207.359 207.142 207.287 207.609 207.287 208.167C207.287 208.725 207.359 209.192 207.504 209.568C207.648 209.943 207.855 210.227 208.125 210.42C208.404 210.602 208.731 210.694 209.107 210.694ZM219.149 212.022L216.824 204.311H218.715L220.217 209.929L221.762 204.311H223.38L224.939 209.929L226.441 204.311H228.333L226.008 212.022H224.102L222.571 206.853L221.055 212.022H219.149ZM229.36 212.022V204.311H231.208V212.022H229.36ZM229.331 203.286V201.64H231.251V203.286H229.331ZM235.704 212.022C234.934 212.022 234.366 211.844 234 211.488C233.644 211.132 233.466 210.574 233.466 209.813V202.506H235.314V209.64C235.314 209.996 235.391 210.246 235.545 210.391C235.699 210.525 235.94 210.593 236.267 210.593H237.35V212.022H235.704ZM232.253 205.741V204.311H237.35V205.741H232.253ZM238.561 212.022V201.77H240.41V206.073H240.179C240.256 205.63 240.41 205.269 240.641 204.99C240.872 204.701 241.156 204.489 241.493 204.355C241.83 204.21 242.2 204.138 242.605 204.138C243.173 204.138 243.649 204.263 244.034 204.513C244.429 204.754 244.723 205.096 244.915 205.539C245.117 205.982 245.218 206.492 245.218 207.069V212.022H243.37V207.517C243.37 206.891 243.264 206.424 243.052 206.116C242.841 205.799 242.508 205.64 242.056 205.64C241.555 205.64 241.156 205.803 240.857 206.131C240.559 206.458 240.41 206.935 240.41 207.56V212.022H238.561ZM250.502 212.022V201.77H257.405V203.402H252.38V206.073H257.232V207.69H252.38V210.391H257.52V212.022H250.502ZM259.098 212.022V204.311H260.773L260.831 206.203L260.657 206.116C260.744 205.702 260.893 205.351 261.105 205.062C261.326 204.764 261.591 204.538 261.899 204.383C262.217 204.22 262.563 204.138 262.939 204.138C263.594 204.138 264.123 204.326 264.527 204.701C264.932 205.067 265.187 205.572 265.293 206.217H265.047C265.134 205.765 265.283 205.39 265.495 205.091C265.707 204.783 265.971 204.547 266.289 204.383C266.616 204.22 266.982 204.138 267.387 204.138C267.916 204.138 268.373 204.254 268.758 204.485C269.143 204.706 269.437 205.033 269.639 205.467C269.851 205.9 269.957 206.434 269.957 207.069V212.022H268.109V207.546C268.109 206.911 267.998 206.434 267.776 206.116C267.565 205.799 267.237 205.64 266.794 205.64C266.496 205.64 266.241 205.717 266.029 205.871C265.817 206.025 265.654 206.251 265.538 206.55C265.432 206.838 265.379 207.19 265.379 207.604V212.022H263.661V207.604C263.661 206.968 263.565 206.482 263.372 206.145C263.18 205.808 262.847 205.64 262.376 205.64C262.077 205.64 261.822 205.717 261.61 205.871C261.408 206.025 261.245 206.251 261.119 206.55C261.004 206.838 260.946 207.19 260.946 207.604V212.022H259.098ZM273.897 212.196C273.089 212.196 272.439 212.013 271.948 211.647C271.457 211.272 271.212 210.752 271.212 210.087C271.212 209.423 271.419 208.903 271.832 208.528C272.246 208.152 272.877 207.883 273.724 207.719L276.28 207.214C276.28 206.665 276.155 206.256 275.905 205.986C275.654 205.707 275.284 205.568 274.793 205.568C274.35 205.568 273.999 205.673 273.739 205.885C273.488 206.087 273.315 206.381 273.219 206.766L271.341 206.68C271.496 205.861 271.871 205.235 272.468 204.802C273.065 204.359 273.84 204.138 274.793 204.138C275.89 204.138 276.718 204.417 277.276 204.976C277.844 205.524 278.128 206.314 278.128 207.344V210.145C278.128 210.347 278.162 210.487 278.23 210.564C278.307 210.641 278.417 210.68 278.562 210.68H278.807V212.022C278.749 212.042 278.653 212.056 278.518 212.066C278.393 212.075 278.263 212.08 278.128 212.08C277.811 212.08 277.527 212.032 277.276 211.936C277.026 211.83 276.834 211.652 276.699 211.402C276.564 211.142 276.497 210.79 276.497 210.347L276.656 210.463C276.579 210.8 276.41 211.103 276.15 211.373C275.9 211.633 275.582 211.835 275.197 211.979C274.812 212.124 274.379 212.196 273.897 212.196ZM274.273 210.853C274.687 210.853 275.043 210.771 275.341 210.607C275.64 210.444 275.871 210.217 276.035 209.929C276.198 209.64 276.28 209.298 276.28 208.903V208.47L274.287 208.874C273.873 208.961 273.575 209.091 273.392 209.264C273.219 209.428 273.132 209.645 273.132 209.914C273.132 210.213 273.228 210.444 273.421 210.607C273.623 210.771 273.907 210.853 274.273 210.853ZM279.779 212.022V204.311H281.627V212.022H279.779ZM279.75 203.286V201.64H281.67V203.286H279.75ZM285.262 212.022C284.703 212.022 284.256 211.878 283.919 211.589C283.582 211.3 283.413 210.838 283.413 210.203V201.77H285.262V210.015C285.262 210.208 285.31 210.352 285.406 210.448C285.512 210.545 285.657 210.593 285.839 210.593H286.403V212.022H285.262Z" fill="white"/>
</g>
<g opacity="0.9">
<rect x="105.468" y="254.124" width="237.063" height="9.62694" rx="4.81347" fill="#EFF2F2"/>
</g>
</g>
<g opacity="0.9">
<rect x="105.468" y="303.462" width="237.063" height="9.62694" rx="4.81347" fill="#E6E6E6"/>
</g>
<defs>
<filter id="filter0_d_17161_69671" x="2.43006" y="2.70783" width="443.14" height="289.021" filterUnits="userSpaceOnUse" color-interpolation-filters="sRGB">
<feFlood flood-opacity="0" result="BackgroundImageFix"/>
<feColorMatrix in="SourceAlpha" type="matrix" values="0 0 0 0 0 0 0 0 0 0 0 0 0 0 0 0 0 0 127 0" result="hardAlpha"/>
<feOffset dy="0.902525"/>
<feGaussianBlur stdDeviation="0.902525"/>
<feColorMatrix type="matrix" values="0 0 0 0 0.0941176 0 0 0 0 0.137255 0 0 0 0 0.133333 0 0 0 0.05 0"/>
<feBlend mode="normal" in2="BackgroundImageFix" result="effect1_dropShadow_17161_69671"/>
<feBlend mode="normal" in="SourceGraphic" in2="effect1_dropShadow_17161_69671" result="shape"/>
</filter>
<filter id="filter1_dd_17161_69671" x="160.765" y="199.539" width="126.637" height="16.8223" filterUnits="userSpaceOnUse" color-interpolation-filters="sRGB">
<feFlood flood-opacity="0" result="BackgroundImageFix"/>
<feColorMatrix in="SourceAlpha" type="matrix" values="0 0 0 0 0 0 0 0 0 0 0 0 0 0 0 0 0 0 127 0" result="hardAlpha"/>
<feOffset dy="1"/>
<feGaussianBlur stdDeviation="0.5"/>
<feComposite in2="hardAlpha" operator="out"/>
<feColorMatrix type="matrix" values="0 0 0 0 0 0 0 0 0 0 0 0 0 0 0 0 0 0 0.25 0"/>
<feBlend mode="normal" in2="BackgroundImageFix" result="effect1_dropShadow_17161_69671"/>
<feColorMatrix in="SourceAlpha" type="matrix" values="0 0 0 0 0 0 0 0 0 0 0 0 0 0 0 0 0 0 127 0" result="hardAlpha"/>
<feOffset dy="-1"/>
<feGaussianBlur stdDeviation="0.5"/>
<feComposite in2="hardAlpha" operator="out"/>
<feColorMatrix type="matrix" values="0 0 0 0 1 0 0 0 0 1 0 0 0 0 1 0 0 0 0.25 0"/>
<feBlend mode="normal" in2="effect1_dropShadow_17161_69671" result="effect2_dropShadow_17161_69671"/>
<feBlend mode="normal" in="SourceGraphic" in2="effect2_dropShadow_17161_69671" result="shape"/>
</filter>
<linearGradient id="paint0_linear_17161_69671" x1="224" y1="185.192" x2="224" y2="228.853" gradientUnits="userSpaceOnUse">
<stop stop-color="#6687FF"/>
<stop offset="0.5" stop-color="#0037FF"/>
<stop offset="1" stop-color="#335FFF"/>
</linearGradient>
</defs>
</svg>
