<svg width="24" height="25" viewBox="0 0 24 25" fill="none" xmlns="http://www.w3.org/2000/svg">
<path d="M24 16.7061V17.4561C24 17.7544 23.8815 18.0406 23.6705 18.2515C23.4595 18.4625 23.1734 18.5811 22.875 18.5811C22.5766 18.5811 22.2905 18.4625 22.0795 18.2515C21.8685 18.0406 21.75 17.7544 21.75 17.4561V16.7061C21.75 14.1202 20.7228 11.6402 18.8943 9.81176C17.0658 7.98328 14.5859 6.95605 12 6.95605C9.41414 6.95605 6.93419 7.98328 5.10571 9.81176C3.27723 11.6402 2.25 14.1202 2.25 16.7061V17.4561C2.25 17.7544 2.13147 18.0406 1.9205 18.2515C1.70952 18.4625 1.42337 18.5811 1.125 18.5811C0.826631 18.5811 0.540483 18.4625 0.329505 18.2515C0.118526 18.0406 0 17.7544 0 17.4561L0 16.7061C0 13.5235 1.26428 10.4712 3.51472 8.22077C5.76516 5.97034 8.8174 4.70605 12 4.70605C15.1826 4.70605 18.2348 5.97034 20.4853 8.22077C22.7357 10.4712 24 13.5235 24 16.7061ZM12 13.7061C11.1049 13.7061 10.2465 14.0616 9.61351 14.6946C8.98058 15.3275 8.625 16.1859 8.625 17.0811V17.4561C8.625 17.7544 8.74353 18.0406 8.9545 18.2515C9.16548 18.4625 9.45163 18.5811 9.75 18.5811C10.0484 18.5811 10.3345 18.4625 10.5455 18.2515C10.7565 18.0406 10.875 17.7544 10.875 17.4561V17.0811C10.875 16.7827 10.9935 16.4965 11.2045 16.2856C11.4155 16.0746 11.7016 15.9561 12 15.9561C12.2984 15.9561 12.5845 16.0746 12.7955 16.2856C13.0065 16.4965 13.125 16.7827 13.125 17.0811V17.4561C13.125 17.7544 13.2435 18.0406 13.4545 18.2515C13.6655 18.4625 13.9516 18.5811 14.25 18.5811C14.5484 18.5811 14.8345 18.4625 15.0455 18.2515C15.2565 18.0406 15.375 17.7544 15.375 17.4561V17.0811C15.375 16.1859 15.0194 15.3275 14.3865 14.6946C13.7535 14.0616 12.8951 13.7061 12 13.7061ZM12 9.20605C9.91211 9.20829 7.91037 10.0387 6.434 11.5151C4.95764 12.9914 4.12723 14.9932 4.125 17.0811V17.4561C4.125 17.7544 4.24353 18.0406 4.4545 18.2515C4.66548 18.4625 4.95163 18.5811 5.25 18.5811C5.54837 18.5811 5.83452 18.4625 6.0455 18.2515C6.25647 18.0406 6.375 17.7544 6.375 17.4561V17.0811C6.375 15.5892 6.96763 14.1585 8.02252 13.1036C9.07742 12.0487 10.5082 11.4561 12 11.4561C13.4918 11.4561 14.9226 12.0487 15.9775 13.1036C17.0324 14.1585 17.625 15.5892 17.625 17.0811V17.4561C17.625 17.7544 17.7435 18.0406 17.9545 18.2515C18.1655 18.4625 18.4516 18.5811 18.75 18.5811C19.0484 18.5811 19.3345 18.4625 19.5455 18.2515C19.7565 18.0406 19.875 17.7544 19.875 17.4561V17.0811C19.8728 14.9932 19.0424 12.9914 17.566 11.5151C16.0896 10.0387 14.0879 9.20829 12 9.20605Z" fill="#335FFF"/>
</svg>
