<svg width="24" height="25" viewBox="0 0 24 25" fill="none" xmlns="http://www.w3.org/2000/svg">
<path d="M12 2.45703C9.99747 2.45703 8.0399 3.05085 6.37486 4.1634C4.70981 5.27595 3.41206 6.85726 2.64572 8.70736C1.87939 10.5575 1.67888 12.5933 2.06955 14.5573C2.46023 16.5214 3.42454 18.3255 4.84055 19.7415C6.25656 21.1575 8.06066 22.1218 10.0247 22.5125C11.9888 22.9032 14.0246 22.7026 15.8747 21.9363C17.7248 21.17 19.3061 19.8722 20.4186 18.2072C21.5312 16.5421 22.125 14.5846 22.125 12.582C22.122 9.89763 21.0543 7.32402 19.1562 5.42586C17.258 3.5277 14.6844 2.46001 12 2.45703ZM19.875 12.582C19.8772 13.8145 19.5881 15.03 19.0313 16.1295L13.125 11.9961V4.78859C14.9981 5.06132 16.7107 5.99867 17.9499 7.4295C19.1892 8.86032 19.8725 10.6891 19.875 12.582ZM10.875 4.78859V11.9961L4.96875 16.1295C4.40404 15.0143 4.11318 13.7805 4.12026 12.5305C4.12733 11.2804 4.43215 10.0501 5.00945 8.94127C5.58675 7.83248 6.41992 6.8772 7.43995 6.15455C8.45998 5.43191 9.63751 4.96269 10.875 4.78578V4.78859ZM6.26532 17.9708L10.875 14.743V20.3755C9.11019 20.1199 7.4847 19.2719 6.26532 17.9708ZM13.125 20.3755V14.743L17.7347 17.9708C16.5153 19.2719 14.8898 20.1199 13.125 20.3755Z" fill="#335FFF"/>
</svg>
