<svg width="16" height="17" viewBox="0 0 16 17" fill="none" xmlns="http://www.w3.org/2000/svg">
<g filter="url(#filter0_d_17161_71753)">
<path fill-rule="evenodd" clip-rule="evenodd" d="M13.3656 4.6063C13.5156 4.75632 13.5998 4.95977 13.5998 5.1719C13.5998 5.38403 13.5156 5.58748 13.3656 5.7375L6.96559 12.1375C6.81557 12.2875 6.61212 12.3717 6.39999 12.3717C6.18786 12.3717 5.98441 12.2875 5.83439 12.1375L2.63439 8.9375C2.48866 8.78662 2.40803 8.58454 2.40985 8.37478C2.41167 8.16502 2.49581 7.96437 2.64414 7.81604C2.79246 7.66772 2.99311 7.58358 3.20287 7.58176C3.41263 7.57994 3.61471 7.66057 3.76559 7.8063L6.39999 10.4407L12.2344 4.6063C12.3844 4.45632 12.5879 4.37207 12.8 4.37207C13.0121 4.37207 13.2156 4.45632 13.3656 4.6063Z" fill="#332B00"/>
</g>
<defs>
<filter id="filter0_d_17161_71753" x="2.40982" y="4.37207" width="11.19" height="8.5" filterUnits="userSpaceOnUse" color-interpolation-filters="sRGB">
<feFlood flood-opacity="0" result="BackgroundImageFix"/>
<feColorMatrix in="SourceAlpha" type="matrix" values="0 0 0 0 0 0 0 0 0 0 0 0 0 0 0 0 0 0 127 0" result="hardAlpha"/>
<feOffset dy="0.5"/>
<feComposite in2="hardAlpha" operator="out"/>
<feColorMatrix type="matrix" values="0 0 0 0 1 0 0 0 0 1 0 0 0 0 1 0 0 0 0.7 0"/>
<feBlend mode="normal" in2="BackgroundImageFix" result="effect1_dropShadow_17161_71753"/>
<feBlend mode="normal" in="SourceGraphic" in2="effect1_dropShadow_17161_71753" result="shape"/>
</filter>
</defs>
</svg>
