<svg width="366" height="190" viewBox="0 0 366 190" fill="none" xmlns="http://www.w3.org/2000/svg">
<mask id="path-1-outside-1_18542_4461" maskUnits="userSpaceOnUse" x="0" y="0" width="366" height="190" fill="black">
<rect fill="white" width="366" height="190"/>
<path d="M242.16 1C249.684 1.00018 256.669 5.58683 260.617 13.1182L297.15 82.8076C300.634 89.4531 306.798 93.4999 313.437 93.5H363.693L363.823 93.5078C364.123 93.5436 364.393 93.7019 364.595 93.9395C364.652 94.0073 364.705 94.0813 364.751 94.1611C364.889 94.4006 364.969 94.6893 364.969 95C364.969 95.1037 364.959 95.2049 364.942 95.3027C364.941 95.308 364.939 95.3131 364.938 95.3184C364.945 95.3779 364.948 95.4385 364.948 95.5C364.948 96.3284 364.377 97 363.673 97H309.434C304.384 98.2706 299.92 101.909 297.15 107.192L260.617 176.882C256.669 184.413 249.684 189 242.16 189H2.27539C1.571 189 1 188.328 1 187.5C1 186.672 1.571 186 2.27539 186H242.16C248.799 186 254.963 181.953 258.446 175.308L294.979 105.618C296.871 102.007 299.464 99.0761 302.478 97H120.474C119.769 97 119.198 96.3284 119.198 95.5C119.198 94.6716 119.769 94 120.474 94H304.073C300.378 91.9191 297.198 88.6159 294.979 84.3818L258.446 14.6924C254.963 8.04707 248.799 4.00018 242.16 4H2.27539C1.571 3.99992 1 3.32838 1 2.5C1 1.67162 1.571 1.00008 2.27539 1H242.16Z"/>
</mask>
<path d="M242.16 1C249.684 1.00018 256.669 5.58683 260.617 13.1182L297.15 82.8076C300.634 89.4531 306.798 93.4999 313.437 93.5H363.693L363.823 93.5078C364.123 93.5436 364.393 93.7019 364.595 93.9395C364.652 94.0073 364.705 94.0813 364.751 94.1611C364.889 94.4006 364.969 94.6893 364.969 95C364.969 95.1037 364.959 95.2049 364.942 95.3027C364.941 95.308 364.939 95.3131 364.938 95.3184C364.945 95.3779 364.948 95.4385 364.948 95.5C364.948 96.3284 364.377 97 363.673 97H309.434C304.384 98.2706 299.92 101.909 297.15 107.192L260.617 176.882C256.669 184.413 249.684 189 242.16 189H2.27539C1.571 189 1 188.328 1 187.5C1 186.672 1.571 186 2.27539 186H242.16C248.799 186 254.963 181.953 258.446 175.308L294.979 105.618C296.871 102.007 299.464 99.0761 302.478 97H120.474C119.769 97 119.198 96.3284 119.198 95.5C119.198 94.6716 119.769 94 120.474 94H304.073C300.378 91.9191 297.198 88.6159 294.979 84.3818L258.446 14.6924C254.963 8.04707 248.799 4.00018 242.16 4H2.27539C1.571 3.99992 1 3.32838 1 2.5C1 1.67162 1.571 1.00008 2.27539 1H242.16Z" fill="#E4E5EA"/>
<path d="M242.16 1L242.16 0H242.16V1ZM260.617 13.1182L261.503 12.6539L261.503 12.6539L260.617 13.1182ZM297.15 82.8076L298.036 82.3433L298.036 82.3433L297.15 82.8076ZM313.437 93.5L313.437 94.5H313.437V93.5ZM363.693 93.5L363.753 92.5018L363.723 92.5H363.693V93.5ZM363.823 93.5078L363.942 92.5148L363.912 92.5114L363.883 92.5096L363.823 93.5078ZM364.595 93.9395L363.833 94.5873L363.833 94.5874L364.595 93.9395ZM364.751 94.1611L363.884 94.6593L363.884 94.6594L364.751 94.1611ZM364.969 95L365.969 95L365.969 94.9998L364.969 95ZM364.942 95.3027L365.928 95.4746L365.928 95.4745L364.942 95.3027ZM364.938 95.3184L363.955 95.1373L363.929 95.2781L363.944 95.4205L364.938 95.3184ZM309.434 97V96H309.31L309.19 96.0302L309.434 97ZM297.15 107.192L298.036 107.657L298.036 107.657L297.15 107.192ZM260.617 176.882L261.503 177.346L261.503 177.346L260.617 176.882ZM242.16 189L242.16 190L242.16 190L242.16 189ZM2.27539 189L2.27527 190H2.27539V189ZM2.27539 186L2.27539 185L2.27527 185L2.27539 186ZM242.16 186L242.16 187L242.16 187L242.16 186ZM258.446 175.308L259.332 175.772L259.332 175.772L258.446 175.308ZM294.979 105.618L294.093 105.154L294.093 105.154L294.979 105.618ZM302.478 97L303.045 97.8235L305.692 96H302.478V97ZM304.073 94V95H307.887L304.564 93.1286L304.073 94ZM294.979 84.3818L294.093 84.8461L294.093 84.8461L294.979 84.3818ZM258.446 14.6924L259.332 14.2281L259.332 14.2281L258.446 14.6924ZM242.16 4L242.16 3H242.16V4ZM2.27539 4L2.27527 5H2.27539V4ZM2.27539 1L2.27539 -6.97595e-09L2.27527 6.97595e-09L2.27539 1ZM242.16 1L242.16 2C249.256 2.00017 255.928 6.32786 259.732 13.5825L260.617 13.1182L261.503 12.6539C257.41 4.8458 250.111 0.000194713 242.16 2.9984e-10L242.16 1ZM260.617 13.1182L259.732 13.5825L296.265 83.2719L297.15 82.8076L298.036 82.3433L261.503 12.6539L260.617 13.1182ZM297.15 82.8076L296.265 83.2719C299.894 90.1942 306.37 94.4999 313.437 94.5L313.437 93.5L313.437 92.5C307.226 92.4999 301.375 88.712 298.036 82.3433L297.15 82.8076ZM313.437 93.5V94.5H363.693V93.5V92.5H313.437V93.5ZM363.693 93.5L363.633 94.4982L363.763 94.506L363.823 93.5078L363.883 92.5096L363.753 92.5018L363.693 93.5ZM363.823 93.5078L363.705 94.5008C363.723 94.5029 363.772 94.5155 363.833 94.5873L364.595 93.9395L365.356 93.2916C365.013 92.8883 364.524 92.5843 363.942 92.5148L363.823 93.5078ZM364.595 93.9395L363.833 94.5874C363.853 94.6106 363.87 94.6348 363.884 94.6593L364.751 94.1611L365.618 93.6629C365.54 93.5279 365.452 93.404 365.356 93.2915L364.595 93.9395ZM364.751 94.1611L363.884 94.6594C363.933 94.7442 363.969 94.8607 363.969 95.0002L364.969 95L365.969 94.9998C365.969 94.518 365.844 94.057 365.618 93.6629L364.751 94.1611ZM364.969 95H363.969C363.969 95.0437 363.965 95.0875 363.957 95.131L364.942 95.3027L365.928 95.4745C365.954 95.3224 365.969 95.1637 365.969 95H364.969ZM364.942 95.3027L363.957 95.1309C363.963 95.0988 363.969 95.0733 363.973 95.0583C363.975 95.0505 363.977 95.0444 363.978 95.0408C363.978 95.0374 363.979 95.0349 363.979 95.0355C363.979 95.0356 363.979 95.0356 363.979 95.0357C363.979 95.0358 363.979 95.036 363.979 95.0361C363.979 95.0364 363.979 95.0369 363.978 95.0375C363.978 95.0386 363.978 95.0403 363.977 95.0424C363.976 95.0465 363.974 95.0532 363.972 95.0615C363.968 95.0776 363.961 95.1042 363.955 95.1373L364.938 95.3184L365.922 95.4994C365.916 95.5299 365.91 95.5539 365.907 95.5674C365.905 95.5744 365.904 95.5798 365.903 95.5826C365.902 95.585 365.901 95.5872 365.902 95.5856C365.902 95.585 365.903 95.5811 365.904 95.5764C365.906 95.5715 365.908 95.5641 365.91 95.5551C365.915 95.5374 365.921 95.5093 365.928 95.4746L364.942 95.3027ZM364.938 95.3184L363.944 95.4205C363.947 95.4519 363.948 95.4779 363.948 95.5H364.948H365.948C365.948 95.399 365.942 95.304 365.933 95.2162L364.938 95.3184ZM364.948 95.5H363.948C363.948 95.6871 363.883 95.8299 363.813 95.9129C363.744 95.9938 363.691 96 363.673 96V97V98C365.076 98 365.948 96.7224 365.948 95.5H364.948ZM363.673 97V96H309.434V97V98H363.673V97ZM309.434 97L309.19 96.0302C303.832 97.3783 299.151 101.223 296.265 106.728L297.15 107.192L298.036 107.657C300.69 102.595 304.936 99.1629 309.678 97.9698L309.434 97ZM297.15 107.192L296.265 106.728L259.732 176.418L260.617 176.882L261.503 177.346L298.036 107.657L297.15 107.192ZM260.617 176.882L259.732 176.418C255.928 183.672 249.256 188 242.16 188L242.16 189L242.16 190C250.111 190 257.41 185.154 261.503 177.346L260.617 176.882ZM242.16 189V188H2.27539V189V190H242.16V189ZM2.27539 189L2.27551 188C2.25718 188 2.20418 187.994 2.13539 187.913C2.06479 187.83 2 187.687 2 187.5H1H0C0 188.723 0.872802 190 2.27527 190L2.27539 189ZM1 187.5H2C2 187.313 2.06479 187.17 2.13539 187.087C2.20418 187.006 2.25718 187 2.27551 187L2.27539 186L2.27527 185C0.872802 185 0 186.277 0 187.5H1ZM2.27539 186V187H242.16V186V185H2.27539V186ZM242.16 186L242.16 187C249.226 187 255.703 182.694 259.332 175.772L258.446 175.308L257.561 174.843C254.222 181.212 248.371 185 242.16 185L242.16 186ZM258.446 175.308L259.332 175.772L295.864 106.082L294.979 105.618L294.093 105.154L257.561 174.843L258.446 175.308ZM294.979 105.618L295.864 106.082C297.686 102.607 300.173 99.802 303.045 97.8235L302.478 97L301.91 96.1765C298.755 98.3501 296.056 101.408 294.093 105.154L294.979 105.618ZM302.478 97V96H120.474V97V98H302.478V97ZM120.474 97V96C120.455 96 120.402 95.9938 120.334 95.9129C120.263 95.8299 120.198 95.6871 120.198 95.5H119.198H118.198C118.198 96.7224 119.071 98 120.474 98V97ZM119.198 95.5H120.198C120.198 95.3129 120.263 95.1701 120.334 95.0871C120.402 95.0062 120.455 95 120.474 95V94V93C119.071 93 118.198 94.2776 118.198 95.5H119.198ZM120.474 94V95H304.073V94V93H120.474V94ZM304.073 94L304.564 93.1286C301.049 91.1496 298.001 87.994 295.864 83.9175L294.979 84.3818L294.093 84.8461C296.395 89.2378 299.706 92.6886 303.583 94.8714L304.073 94ZM294.979 84.3818L295.864 83.9175L259.332 14.2281L258.446 14.6924L257.561 15.1567L294.093 84.8461L294.979 84.3818ZM258.446 14.6924L259.332 14.2281C255.703 7.30599 249.226 3.0002 242.16 3L242.16 4L242.16 5C248.371 5.00017 254.222 8.78815 257.561 15.1567L258.446 14.6924ZM242.16 4V3H2.27539V4V5H242.16V4ZM2.27539 4L2.27551 3C2.25718 3 2.20418 2.99375 2.13539 2.91284C2.06479 2.82981 2 2.68701 2 2.5H1H0C0 3.7225 0.872802 4.99983 2.27527 5L2.27539 4ZM1 2.5H2C2 2.31299 2.06479 2.17019 2.13539 2.08716C2.20418 2.00625 2.25718 2 2.27551 2L2.27539 1L2.27527 6.97595e-09C0.872802 0.000165664 0 1.2775 0 2.5H1ZM2.27539 1V2H242.16V1V0H2.27539V1Z" fill="url(#paint0_linear_18542_4461)" mask="url(#path-1-outside-1_18542_4461)"/>
<defs>
<linearGradient id="paint0_linear_18542_4461" x1="364.969" y1="95" x2="1" y2="95" gradientUnits="userSpaceOnUse">
<stop stop-opacity="0.1"/>
<stop offset="1" stop-opacity="0"/>
</linearGradient>
</defs>
</svg>
