<svg width="366" height="190" viewBox="0 0 366 190" fill="none" xmlns="http://www.w3.org/2000/svg">
<mask id="path-1-outside-1_18542_4457" maskUnits="userSpaceOnUse" x="-0.03125" y="0" width="366" height="190" fill="black">
<rect fill="white" x="-0.03125" width="366" height="190"/>
<path d="M123.809 1C116.285 1.00018 109.3 5.58683 105.352 13.1182L68.8184 82.8076C65.3346 89.4531 59.1707 93.4999 52.5322 93.5H2.27539L2.14551 93.5078C1.8453 93.5436 1.57606 93.7019 1.37402 93.9395C1.3163 94.0073 1.26363 94.0813 1.21777 94.1611C1.08019 94.4006 1.00006 94.6893 1 95C1 95.1037 1.00932 95.2049 1.02637 95.3027C1.02729 95.308 1.0293 95.3131 1.03027 95.3184C1.02416 95.3779 1.02051 95.4385 1.02051 95.5C1.02051 96.3284 1.59145 97 2.2959 97H56.5352C61.5846 98.2706 66.0487 101.909 68.8184 107.192L105.352 176.882C109.3 184.413 116.285 189 123.809 189H363.693C364.398 189 364.969 188.328 364.969 187.5C364.969 186.672 364.398 186 363.693 186H123.809C117.17 186 111.006 181.953 107.522 175.308L70.9902 105.618C69.0974 102.007 66.5048 99.0761 63.4912 97H245.495C246.2 97 246.771 96.3284 246.771 95.5C246.771 94.6716 246.2 94 245.495 94H61.8955C65.5909 91.9191 68.7707 88.6159 70.9902 84.3818L107.522 14.6924C111.006 8.04707 117.17 4.00018 123.809 4H363.693C364.398 3.99992 364.969 3.32838 364.969 2.5C364.969 1.67162 364.398 1.00008 363.693 1H123.809Z"/>
</mask>
<path d="M123.809 1C116.285 1.00018 109.3 5.58683 105.352 13.1182L68.8184 82.8076C65.3346 89.4531 59.1707 93.4999 52.5322 93.5H2.27539L2.14551 93.5078C1.8453 93.5436 1.57606 93.7019 1.37402 93.9395C1.3163 94.0073 1.26363 94.0813 1.21777 94.1611C1.08019 94.4006 1.00006 94.6893 1 95C1 95.1037 1.00932 95.2049 1.02637 95.3027C1.02729 95.308 1.0293 95.3131 1.03027 95.3184C1.02416 95.3779 1.02051 95.4385 1.02051 95.5C1.02051 96.3284 1.59145 97 2.2959 97H56.5352C61.5846 98.2706 66.0487 101.909 68.8184 107.192L105.352 176.882C109.3 184.413 116.285 189 123.809 189H363.693C364.398 189 364.969 188.328 364.969 187.5C364.969 186.672 364.398 186 363.693 186H123.809C117.17 186 111.006 181.953 107.522 175.308L70.9902 105.618C69.0974 102.007 66.5048 99.0761 63.4912 97H245.495C246.2 97 246.771 96.3284 246.771 95.5C246.771 94.6716 246.2 94 245.495 94H61.8955C65.5909 91.9191 68.7707 88.6159 70.9902 84.3818L107.522 14.6924C111.006 8.04707 117.17 4.00018 123.809 4H363.693C364.398 3.99992 364.969 3.32838 364.969 2.5C364.969 1.67162 364.398 1.00008 363.693 1H123.809Z" fill="#E4E5EA"/>
<path d="M123.809 1L123.809 0H123.809V1ZM105.352 13.1182L104.466 12.6539L104.466 12.6539L105.352 13.1182ZM68.8184 82.8076L67.9327 82.3433L67.9327 82.3433L68.8184 82.8076ZM52.5322 93.5L52.5322 94.5H52.5322V93.5ZM2.27539 93.5L2.21535 92.5018L2.24534 92.5H2.27539V93.5ZM2.14551 93.5078L2.02722 92.5148L2.05626 92.5114L2.08547 92.5096L2.14551 93.5078ZM1.37402 93.9395L2.13579 94.5873L2.13575 94.5874L1.37402 93.9395ZM1.21777 94.1611L2.08483 94.6593L2.08482 94.6594L1.21777 94.1611ZM1 95L-1.7343e-08 95L1.73431e-08 94.9998L1 95ZM1.02637 95.3027L0.0412497 95.4746L0.0412209 95.4745L1.02637 95.3027ZM1.03027 95.3184L2.01374 95.1373L2.03967 95.2781L2.02504 95.4205L1.03027 95.3184ZM56.5352 97V96H56.659L56.7792 96.0302L56.5352 97ZM68.8184 107.192L67.9327 107.657L67.9327 107.657L68.8184 107.192ZM105.352 176.882L104.466 177.346L104.466 177.346L105.352 176.882ZM123.809 189L123.809 190L123.809 190L123.809 189ZM363.693 189L363.693 190H363.693V189ZM363.693 186L363.693 185L363.693 185L363.693 186ZM123.809 186L123.809 187L123.809 187L123.809 186ZM107.522 175.308L106.637 175.772L106.637 175.772L107.522 175.308ZM70.9902 105.618L71.8759 105.154L71.8759 105.154L70.9902 105.618ZM63.4912 97L62.9239 97.8235L60.277 96H63.4912V97ZM61.8955 94V95H58.0816L61.4048 93.1286L61.8955 94ZM70.9902 84.3818L71.8759 84.8461L71.8759 84.8461L70.9902 84.3818ZM107.522 14.6924L106.637 14.2281L106.637 14.2281L107.522 14.6924ZM123.809 4L123.809 3H123.809V4ZM363.693 4L363.693 5H363.693V4ZM363.693 1L363.693 -6.97595e-09L363.693 6.97595e-09L363.693 1ZM123.809 1L123.809 2C116.713 2.00017 110.04 6.32786 106.237 13.5825L105.352 13.1182L104.466 12.6539C108.559 4.8458 115.857 0.000194713 123.809 2.9984e-10L123.809 1ZM105.352 13.1182L106.237 13.5825L69.704 83.2719L68.8184 82.8076L67.9327 82.3433L104.466 12.6539L105.352 13.1182ZM68.8184 82.8076L69.704 83.2719C66.0752 90.1942 59.5985 94.4999 52.5322 94.5L52.5322 93.5L52.5322 92.5C58.743 92.4999 64.594 88.712 67.9327 82.3433L68.8184 82.8076ZM52.5322 93.5V94.5H2.27539V93.5V92.5H52.5322V93.5ZM2.27539 93.5L2.33543 94.4982L2.20555 94.506L2.14551 93.5078L2.08547 92.5096L2.21535 92.5018L2.27539 93.5ZM2.14551 93.5078L2.2638 94.5008C2.24621 94.5029 2.19686 94.5155 2.13579 94.5873L1.37402 93.9395L0.612261 93.2916C0.955251 92.8883 1.44439 92.5843 2.02722 92.5148L2.14551 93.5078ZM1.37402 93.9395L2.13575 94.5874C2.11594 94.6106 2.09896 94.6348 2.08483 94.6593L1.21777 94.1611L0.350719 93.6629C0.428311 93.5279 0.516651 93.404 0.612302 93.2915L1.37402 93.9395ZM1.21777 94.1611L2.08482 94.6594C2.03609 94.7442 2.00003 94.8607 2 95.0002L1 95L1.73431e-08 94.9998C8.97578e-05 94.518 0.124289 94.057 0.35073 93.6629L1.21777 94.1611ZM1 95H2C2 95.0437 2.00392 95.0875 2.01151 95.131L1.02637 95.3027L0.0412209 95.4745C0.0147154 95.3224 0 95.1637 0 95H1ZM1.02637 95.3027L2.01148 95.1309C2.00589 95.0988 1.99976 95.0733 1.99589 95.0583C1.99391 95.0505 1.99223 95.0444 1.99122 95.0408C1.99029 95.0374 1.98955 95.0349 1.98974 95.0355C1.98976 95.0356 1.98977 95.0356 1.9898 95.0357C1.98983 95.0358 1.98987 95.036 1.98991 95.0361C1.99 95.0364 1.99013 95.0369 1.99029 95.0375C1.9906 95.0386 1.9911 95.0403 1.99169 95.0424C1.99284 95.0465 1.9947 95.0532 1.99685 95.0615C2.00106 95.0776 2.00764 95.1042 2.01374 95.1373L1.03027 95.3184L0.0468022 95.4994C0.0524191 95.5299 0.0583834 95.5539 0.0619132 95.5674C0.063725 95.5744 0.0652278 95.5798 0.0660214 95.5826C0.0666917 95.585 0.0673329 95.5872 0.0668615 95.5856C0.0666897 95.585 0.0655742 95.5811 0.0642835 95.5764C0.0629194 95.5715 0.0608885 95.5641 0.0585755 95.5551C0.0540379 95.5374 0.0473077 95.5093 0.0412497 95.4746L1.02637 95.3027ZM1.03027 95.3184L2.02504 95.4205C2.02182 95.4519 2.02051 95.4779 2.02051 95.5H1.02051H0.0205078C0.0205078 95.399 0.0264924 95.304 0.0355051 95.2162L1.03027 95.3184ZM1.02051 95.5H2.02051C2.02051 95.6871 2.08531 95.8299 2.15589 95.9129C2.22464 95.9938 2.27758 96 2.2959 96V97V98C0.89317 98 0.0205078 96.7224 0.0205078 95.5H1.02051ZM2.2959 97V96H56.5352V97V98H2.2959V97ZM56.5352 97L56.7792 96.0302C62.1365 97.3783 66.8182 101.223 69.704 106.728L68.8184 107.192L67.9327 107.657C65.2791 102.595 61.0326 99.1629 56.2911 97.9698L56.5352 97ZM68.8184 107.192L69.704 106.728L106.237 176.418L105.352 176.882L104.466 177.346L67.9327 107.657L68.8184 107.192ZM105.352 176.882L106.237 176.418C110.04 183.672 116.713 188 123.809 188L123.809 189L123.809 190C115.857 190 108.559 185.154 104.466 177.346L105.352 176.882ZM123.809 189V188H363.693V189V190H123.809V189ZM363.693 189L363.693 188C363.712 188 363.765 187.994 363.833 187.913C363.904 187.83 363.969 187.687 363.969 187.5H364.969H365.969C365.969 188.723 365.096 190 363.693 190L363.693 189ZM364.969 187.5H363.969C363.969 187.313 363.904 187.17 363.833 187.087C363.765 187.006 363.712 187 363.693 187L363.693 186L363.693 185C365.096 185 365.969 186.277 365.969 187.5H364.969ZM363.693 186V187H123.809V186V185H363.693V186ZM123.809 186L123.809 187C116.742 187 110.266 182.694 106.637 175.772L107.522 175.308L108.408 174.843C111.747 181.212 117.598 185 123.809 185L123.809 186ZM107.522 175.308L106.637 175.772L70.1046 106.082L70.9902 105.618L71.8759 105.154L108.408 174.843L107.522 175.308ZM70.9902 105.618L70.1046 106.082C68.2826 102.607 65.7959 99.802 62.9239 97.8235L63.4912 97L64.0585 96.1765C67.2137 98.3501 69.9123 101.408 71.8759 105.154L70.9902 105.618ZM63.4912 97V96H245.495V97V98H63.4912V97ZM245.495 97V96C245.513 96 245.566 95.9938 245.635 95.9129C245.706 95.8299 245.771 95.6871 245.771 95.5H246.771H247.771C247.771 96.7224 246.898 98 245.495 98V97ZM246.771 95.5H245.771C245.771 95.3129 245.706 95.1701 245.635 95.0871C245.566 95.0062 245.513 95 245.495 95V94V93C246.898 93 247.771 94.2776 247.771 95.5H246.771ZM245.495 94V95H61.8955V94V93H245.495V94ZM61.8955 94L61.4048 93.1286C64.9194 91.1496 67.9676 87.994 70.1046 83.9175L70.9902 84.3818L71.8759 84.8461C69.5737 89.2378 66.2625 92.6886 62.3862 94.8714L61.8955 94ZM70.9902 84.3818L70.1046 83.9175L106.637 14.2281L107.522 14.6924L108.408 15.1567L71.8759 84.8461L70.9902 84.3818ZM107.522 14.6924L106.637 14.2281C110.266 7.30599 116.742 3.0002 123.809 3L123.809 4L123.809 5C117.598 5.00017 111.747 8.78815 108.408 15.1567L107.522 14.6924ZM123.809 4V3H363.693V4V5H123.809V4ZM363.693 4L363.693 3C363.712 3 363.765 2.99375 363.833 2.91284C363.904 2.82981 363.969 2.68701 363.969 2.5H364.969H365.969C365.969 3.7225 365.096 4.99983 363.693 5L363.693 4ZM364.969 2.5H363.969C363.969 2.31299 363.904 2.17019 363.833 2.08716C363.765 2.00625 363.712 2 363.693 2L363.693 1L363.693 6.97595e-09C365.096 0.000165664 365.969 1.2775 365.969 2.5H364.969ZM363.693 1V2H123.809V1V0H363.693V1Z" fill="url(#paint0_linear_18542_4457)" mask="url(#path-1-outside-1_18542_4457)"/>
<defs>
<linearGradient id="paint0_linear_18542_4457" x1="1" y1="95" x2="364.969" y2="95" gradientUnits="userSpaceOnUse">
<stop stop-opacity="0.1"/>
<stop offset="1" stop-opacity="0"/>
</linearGradient>
</defs>
</svg>
