<svg width="191" height="107" viewBox="0 0 191 107" fill="none" xmlns="http://www.w3.org/2000/svg">
<mask id="path-1-outside-1_18542_4465" maskUnits="userSpaceOnUse" x="0" y="0" width="191" height="107" fill="black">
<rect fill="white" width="191" height="107"/>
<path d="M95.5 1C96.6046 1 97.5 1.62546 97.5 2.39648V43.6514C97.5003 48.9797 101.457 53.9276 107.955 56.7236L177.644 86.7119C185.323 90.0165 190 95.8631 190 102.16V103.627C190 104.398 189.105 105.023 188 105.023C186.895 105.023 186 104.398 186 103.627V102.16C186 96.832 182.043 91.885 175.545 89.0889L105.855 59.0996C101.143 57.0716 97.5638 54.0854 95.5 50.626C93.4359 54.0854 89.8572 57.0716 85.1445 59.0996L15.4551 89.0889C8.95743 91.885 5.00026 96.8319 5 102.16V103.627C5 104.398 4.10457 105.023 3 105.023C1.89543 105.023 1 104.398 1 103.627V102.16C1.00026 95.8631 5.6772 90.0165 13.3564 86.7119L83.0449 56.7236C89.5427 53.9275 93.4997 48.9796 93.5 43.6514V2.39648C93.5 1.62553 94.3956 1.00012 95.5 1Z"/>
</mask>
<path d="M95.5 1C96.6046 1 97.5 1.62546 97.5 2.39648V43.6514C97.5003 48.9797 101.457 53.9276 107.955 56.7236L177.644 86.7119C185.323 90.0165 190 95.8631 190 102.16V103.627C190 104.398 189.105 105.023 188 105.023C186.895 105.023 186 104.398 186 103.627V102.16C186 96.832 182.043 91.885 175.545 89.0889L105.855 59.0996C101.143 57.0716 97.5638 54.0854 95.5 50.626C93.4359 54.0854 89.8572 57.0716 85.1445 59.0996L15.4551 89.0889C8.95743 91.885 5.00026 96.8319 5 102.16V103.627C5 104.398 4.10457 105.023 3 105.023C1.89543 105.023 1 104.398 1 103.627V102.16C1.00026 95.8631 5.6772 90.0165 13.3564 86.7119L83.0449 56.7236C89.5427 53.9275 93.4997 48.9796 93.5 43.6514V2.39648C93.5 1.62553 94.3956 1.00012 95.5 1Z" fill="#E4E5EA"/>
<path d="M95.5 1L95.5 -5.98862e-09L95.4999 5.98862e-09L95.5 1ZM97.5 43.6514L96.5 43.6514L96.5 43.6514L97.5 43.6514ZM107.955 56.7236L108.35 55.8051L108.35 55.8051L107.955 56.7236ZM177.644 86.7119L178.039 85.7934L178.039 85.7934L177.644 86.7119ZM190 102.16L191 102.16L191 102.16L190 102.16ZM188 105.023L188 106.023L188 106.023L188 105.023ZM186 102.16L187 102.16L187 102.16L186 102.16ZM175.545 89.0889L175.94 88.1703L175.94 88.1703L175.545 89.0889ZM105.855 59.0996L105.46 60.0182L105.46 60.0182L105.855 59.0996ZM95.5 50.626L96.3588 50.1136L95.5 48.6742L94.6412 50.1136L95.5 50.626ZM85.1445 59.0996L85.5398 60.0182L85.5398 60.0182L85.1445 59.0996ZM15.4551 89.0889L15.0598 88.1703L15.0598 88.1703L15.4551 89.0889ZM5 102.16L4 102.16V102.16H5ZM5 103.627L4 103.627L4 103.627L5 103.627ZM3 105.023L3 106.023L3 106.023L3 105.023ZM1 103.627L0 103.627L0 103.627L1 103.627ZM1 102.16L0 102.16V102.16H1ZM13.3564 86.7119L12.9612 85.7934L12.9612 85.7934L13.3564 86.7119ZM83.0449 56.7236L82.6496 55.8051L82.6496 55.8051L83.0449 56.7236ZM93.5 43.6514L94.5 43.6514V43.6514H93.5ZM95.5 1V2C95.8727 2 96.1672 2.10715 96.3417 2.22898C96.5195 2.35318 96.5 2.42804 96.5 2.39648H97.5H98.5C98.5 1.5939 98.0328 0.970518 97.4868 0.589229C96.9374 0.205576 96.2318 0 95.5 0V1ZM97.5 2.39648H96.5V43.6514H97.5H98.5V2.39648H97.5ZM97.5 43.6514L96.5 43.6514C96.5003 49.5161 100.84 54.7505 107.56 57.6422L107.955 56.7236L108.35 55.8051C102.075 53.1046 98.5003 48.4433 98.5 43.6513L97.5 43.6514ZM107.955 56.7236L107.56 57.6422L177.248 87.6305L177.644 86.7119L178.039 85.7934L108.35 55.8051L107.955 56.7236ZM177.644 86.7119L177.248 87.6305C184.705 90.8394 189 96.3996 189 102.16L190 102.16L191 102.16C191 95.3266 185.94 89.1935 178.039 85.7934L177.644 86.7119ZM190 102.16H189V103.627H190H191V102.16H190ZM190 103.627H189C189 103.595 189.02 103.67 188.842 103.794C188.667 103.916 188.373 104.023 188 104.023L188 105.023L188 106.023C188.732 106.023 189.437 105.818 189.987 105.434C190.533 105.053 191 104.43 191 103.627H190ZM188 105.023V104.023C187.627 104.023 187.333 103.916 187.158 103.794C186.98 103.67 187 103.595 187 103.627H186H185C185 104.43 185.467 105.053 186.013 105.434C186.563 105.818 187.268 106.023 188 106.023V105.023ZM186 103.627H187V102.16H186H185V103.627H186ZM186 102.16L187 102.16C187 96.2954 182.66 91.062 175.94 88.1703L175.545 89.0889L175.15 90.0074C181.425 92.708 185 97.3685 185 102.16L186 102.16ZM175.545 89.0889L175.94 88.1703L106.251 58.181L105.855 59.0996L105.46 60.0182L175.15 90.0074L175.545 89.0889ZM105.855 59.0996L106.251 58.1811C101.689 56.218 98.2933 53.3563 96.3588 50.1136L95.5 50.626L94.6412 51.1383C96.8344 54.8145 100.596 57.9251 105.46 60.0182L105.855 59.0996ZM95.5 50.626L94.6412 50.1136C92.7065 53.3563 89.3108 56.2181 84.7492 58.1811L85.1445 59.0996L85.5398 60.0182C90.4035 57.9251 94.1654 54.8145 96.3588 51.1384L95.5 50.626ZM85.1445 59.0996L84.7492 58.181L15.0598 88.1703L15.4551 89.0889L15.8504 90.0074L85.5398 60.0182L85.1445 59.0996ZM15.4551 89.0889L15.0598 88.1703C8.34006 91.062 4.00028 96.2954 4 102.16L5 102.16L6 102.16C6.00023 97.3685 9.57481 92.708 15.8504 90.0074L15.4551 89.0889ZM5 102.16H4V103.627H5H6V102.16H5ZM5 103.627L4 103.627C4 103.595 4.01953 103.67 3.84168 103.794C3.66721 103.916 3.37273 104.023 3 104.023L3 105.023L3 106.023C3.73184 106.023 4.43736 105.818 4.98675 105.434C5.53276 105.053 6 104.43 6 103.627L5 103.627ZM3 105.023L3 104.023C2.62727 104.023 2.33279 103.916 2.15833 103.794C1.98047 103.67 2 103.595 2 103.627L1 103.627L0 103.627C9.58148e-07 104.43 0.467243 105.053 1.01325 105.434C1.56264 105.818 2.26816 106.023 3 106.023L3 105.023ZM1 103.627H2V102.16H1H0V103.627H1ZM1 102.16L2 102.16C2.00024 96.3996 6.29456 90.8394 13.7517 87.6305L13.3564 86.7119L12.9612 85.7934C5.05983 89.1935 0.000279581 95.3266 8.36927e-10 102.16L1 102.16ZM13.3564 86.7119L13.7517 87.6305L83.4402 57.6422L83.0449 56.7236L82.6496 55.8051L12.9612 85.7934L13.3564 86.7119ZM83.0449 56.7236L83.4402 57.6422C90.1602 54.7505 94.4997 49.5161 94.5 43.6514L93.5 43.6514L92.5 43.6513C92.4997 48.4432 88.9253 53.1046 82.6496 55.8051L83.0449 56.7236ZM93.5 43.6514H94.5V2.39648H93.5H92.5V43.6514H93.5ZM93.5 2.39648H94.5C94.5 2.42818 94.4804 2.35333 94.6584 2.22908C94.8329 2.10721 95.1274 2.00004 95.5001 2L95.5 1L95.4999 5.98862e-09C94.7682 8.0088e-05 94.0627 0.205682 93.5133 0.589283C92.9674 0.9705 92.5 1.59384 92.5 2.39648H93.5Z" fill="url(#paint0_linear_18542_4465)" mask="url(#path-1-outside-1_18542_4465)"/>
<defs>
<linearGradient id="paint0_linear_18542_4465" x1="95.5" y1="105.023" x2="95.5" y2="1" gradientUnits="userSpaceOnUse">
<stop stop-opacity="0"/>
<stop offset="0.35" stop-opacity="0.1"/>
</linearGradient>
</defs>
</svg>
