<svg width="256" height="256" viewBox="0 0 256 256" fill="none" xmlns="http://www.w3.org/2000/svg">
<rect width="256" height="256" rx="32" fill="white"/>
<path d="M40 128C40 79.3989 79.3989 40 128 40V40C176.601 40 216 79.3989 216 128V128C216 176.601 176.601 216 128 216V216C79.3989 216 40 176.601 40 128V128Z" fill="#0037FF"/>
<path d="M40 128C40 79.3989 79.3989 40 128 40V40C176.601 40 216 79.3989 216 128V128C216 176.601 176.601 216 128 216V216C79.3989 216 40 176.601 40 128V128Z" fill="url(#paint0_linear_4082_17861)"/>
<g clip-path="url(#clip0_4082_17861)">
<g filter="url(#filter0_dd_4082_17861)">
<path d="M177.22 89.8014L115.328 171.717C114.418 173.082 113.053 173.537 111.233 173.537C109.867 173.537 108.502 172.627 107.592 171.262L78.4664 124.843C77.5562 123.023 77.5562 120.747 78.9215 119.382C80.2867 118.017 82.5622 117.562 84.3825 118.472L110.778 133.49L170.394 83.4302C172.214 82.0649 174.945 82.0649 176.31 83.8853C178.586 85.2506 178.586 87.9811 177.22 89.8014Z" fill="#FFE866"/>
</g>
</g>
<defs>
<filter id="filter0_dd_4082_17861" x="73.432" y="73.657" width="109.12" height="108.68" filterUnits="userSpaceOnUse" color-interpolation-filters="sRGB">
<feFlood flood-opacity="0" result="BackgroundImageFix"/>
<feColorMatrix in="SourceAlpha" type="matrix" values="0 0 0 0 0 0 0 0 0 0 0 0 0 0 0 0 0 0 127 0" result="hardAlpha"/>
<feOffset dy="4.4"/>
<feGaussianBlur stdDeviation="2.2"/>
<feComposite in2="hardAlpha" operator="out"/>
<feColorMatrix type="matrix" values="0 0 0 0 0 0 0 0 0 0 0 0 0 0 0 0 0 0 0.25 0"/>
<feBlend mode="normal" in2="BackgroundImageFix" result="effect1_dropShadow_4082_17861"/>
<feColorMatrix in="SourceAlpha" type="matrix" values="0 0 0 0 0 0 0 0 0 0 0 0 0 0 0 0 0 0 127 0" result="hardAlpha"/>
<feOffset dy="-4.4"/>
<feGaussianBlur stdDeviation="2.2"/>
<feComposite in2="hardAlpha" operator="out"/>
<feColorMatrix type="matrix" values="0 0 0 0 1 0 0 0 0 1 0 0 0 0 1 0 0 0 0.25 0"/>
<feBlend mode="normal" in2="effect1_dropShadow_4082_17861" result="effect2_dropShadow_4082_17861"/>
<feBlend mode="normal" in="SourceGraphic" in2="effect2_dropShadow_4082_17861" result="shape"/>
</filter>
<linearGradient id="paint0_linear_4082_17861" x1="128" y1="40" x2="128" y2="216" gradientUnits="userSpaceOnUse">
<stop stop-color="#6687FF"/>
<stop offset="0.5" stop-color="#0037FF"/>
<stop offset="1" stop-color="#335FFF"/>
</linearGradient>
<clipPath id="clip0_4082_17861">
<rect width="105.6" height="105.6" fill="white" transform="translate(75.1992 75.1992)"/>
</clipPath>
</defs>
</svg>
