<svg width="24" height="25" viewBox="0 0 24 25" fill="none" xmlns="http://www.w3.org/2000/svg">
<path d="M17.812 5.38772H6.145C3.855 5.38772 2 7.22272 2 9.48672V15.2547C2 17.5187 3.856 19.3547 6.145 19.3547H17.812C20.102 19.3547 21.957 17.5187 21.957 15.2547V9.48672C21.957 7.22272 20.101 5.38672 17.812 5.38672V5.38772ZM15.009 12.6507L9.552 15.2257C9.51872 15.2417 9.48192 15.2491 9.44503 15.2471C9.40815 15.2451 9.37237 15.2337 9.34103 15.2142C9.3097 15.1946 9.28382 15.1674 9.2658 15.1352C9.24779 15.1029 9.23822 15.0667 9.238 15.0297V9.72072C9.23867 9.68359 9.24872 9.64724 9.26722 9.61504C9.28573 9.58285 9.31208 9.55586 9.34382 9.5366C9.37556 9.51733 9.41167 9.50641 9.44877 9.50486C9.48587 9.50331 9.52276 9.51117 9.556 9.52772L15.014 12.2627C15.0504 12.2808 15.0809 12.3089 15.102 12.3435C15.1232 12.3782 15.1341 12.4182 15.1336 12.4588C15.1331 12.4994 15.1211 12.5391 15.0991 12.5732C15.077 12.6073 15.0458 12.6345 15.009 12.6517V12.6507Z" fill="#A3A3A3"/>
</svg>
