<svg width="24" height="24" viewBox="0 0 24 24" fill="none" xmlns="http://www.w3.org/2000/svg">
<path d="M15 12.75V12H8.25V18C8.25 18.1989 8.32902 18.3897 8.46967 18.5303C8.61032 18.671 8.80109 18.75 9 18.75H15V18C15 17.6022 15.158 17.2206 15.4393 16.9393C15.7206 16.658 16.1022 16.5 16.5 16.5H19.5C19.8978 16.5 20.2794 16.658 20.5607 16.9393C20.842 17.2206 21 17.6022 21 18V21C21 21.3978 20.842 21.7794 20.5607 22.0607C20.2794 22.342 19.8978 22.5 19.5 22.5H16.5C16.1022 22.5 15.7206 22.342 15.4393 22.0607C15.158 21.7794 15 21.3978 15 21V20.25H9C8.40326 20.25 7.83097 20.0129 7.40901 19.591C6.98705 19.169 6.75 18.5967 6.75 18V7.5H6C5.60218 7.5 5.22064 7.34196 4.93934 7.06066C4.65804 6.77936 4.5 6.39782 4.5 6V3C4.5 2.60218 4.65804 2.22064 4.93934 1.93934C5.22064 1.65804 5.60218 1.5 6 1.5H9C9.39782 1.5 9.77936 1.65804 10.0607 1.93934C10.342 2.22064 10.5 2.60218 10.5 3V6C10.5 6.39782 10.342 6.77936 10.0607 7.06066C9.77936 7.34196 9.39782 7.5 9 7.5H8.25V10.5H15V9.75C15 9.35218 15.158 8.97064 15.4393 8.68934C15.7206 8.40804 16.1022 8.25 16.5 8.25H19.5C19.8978 8.25 20.2794 8.40804 20.5607 8.68934C20.842 8.97064 21 9.35218 21 9.75V12.75C21 13.1478 20.842 13.5294 20.5607 13.8107C20.2794 14.092 19.8978 14.25 19.5 14.25H16.5C16.1022 14.25 15.7206 14.092 15.4393 13.8107C15.158 13.5294 15 13.1478 15 12.75Z" fill="#335FFF"/>
</svg>
