<svg width="24" height="24" viewBox="0 0 24 24" fill="none" xmlns="http://www.w3.org/2000/svg">
<path d="M22.2391 14.2405V14.2311C22.2375 14.2241 22.2353 14.2172 22.2325 14.2105C22.1703 14.0407 22.098 13.8748 22.016 13.7136L18.1188 4.85613C18.0813 4.77081 18.0282 4.69324 17.9622 4.62738C17.6836 4.34873 17.3529 4.12769 16.9889 3.97688C16.6248 3.82608 16.2347 3.74846 15.8406 3.74846C15.4466 3.74846 15.0565 3.82608 14.6924 3.97688C14.3284 4.12769 13.9977 4.34873 13.7191 4.62738C13.5789 4.76769 13.5001 4.95781 13.4997 5.15613V7.49988H10.4997V5.15613C10.4998 5.05761 10.4805 4.96004 10.4428 4.86899C10.4052 4.77795 10.35 4.69521 10.2803 4.6255C10.0018 4.34686 9.671 4.12582 9.30698 3.97501C8.94296 3.8242 8.5528 3.74658 8.15877 3.74658C7.76475 3.74658 7.37459 3.8242 7.01057 3.97501C6.64654 4.12582 6.3158 4.34686 6.03721 4.6255C5.97126 4.69136 5.91817 4.76894 5.88065 4.85425L1.98721 13.7136C1.9052 13.8748 1.83288 14.0407 1.77065 14.2105C1.76804 14.2169 1.76585 14.2235 1.76409 14.2302C1.76409 14.2302 1.76409 14.2377 1.76409 14.2405C1.37689 15.3593 1.44616 16.5856 1.95689 17.6536C2.46763 18.7216 3.37867 19.5454 4.49258 19.9463C5.6065 20.3473 6.83354 20.2931 7.90779 19.7956C8.98204 19.298 9.81696 18.3972 10.2316 17.2883C10.4142 16.7902 10.5062 16.2635 10.5035 15.733V8.99988H13.5035V15.7339C13.5007 16.2644 13.5928 16.7912 13.7753 17.2893C14.19 18.3981 15.0249 19.299 16.0991 19.7965C17.1734 20.2941 18.4004 20.3482 19.5143 19.9473C20.6283 19.5463 21.5393 18.7226 22.05 17.6545C22.5608 16.5865 22.63 15.3602 22.2428 14.2414L22.2391 14.2405ZM8.81877 16.7718C8.54182 17.5107 7.98484 18.1108 7.26851 18.442C6.55219 18.7732 5.73422 18.8088 4.99185 18.541C4.24947 18.2733 3.64249 17.7238 3.30241 17.0117C2.96234 16.2996 2.91657 15.4821 3.17502 14.7364L3.34471 14.3493C3.65659 13.7564 4.15791 13.285 4.7688 13.0102C5.37968 12.7353 6.06498 12.6728 6.7155 12.8327C7.36602 12.9925 7.94434 13.3654 8.3583 13.8921C8.77227 14.4187 8.99806 15.0688 8.99971 15.7386V15.7499C8.99966 16.0997 8.93842 16.4468 8.81877 16.7755V16.7718ZM19.031 18.5689C18.5775 18.7349 18.0906 18.789 17.6118 18.7266C17.1329 18.6641 16.6762 18.487 16.2805 18.2103C15.8847 17.9335 15.5616 17.5653 15.3387 17.137C15.1157 16.7086 14.9994 16.2328 14.9997 15.7499V15.7396C15.0022 15.07 15.2286 14.4205 15.6428 13.8945C16.0571 13.3685 16.6354 12.9962 17.2857 12.8369C17.936 12.6775 18.621 12.7403 19.2315 13.0152C19.842 13.2901 20.343 13.7614 20.6547 14.3539L20.8244 14.7411C21.0912 15.4867 21.0523 16.3075 20.7164 17.0246C20.3804 17.7416 19.7746 18.2968 19.031 18.5689Z" fill="#335FFF"/>
</svg>
