<svg width="1262" height="97" viewBox="0 0 1262 97" fill="none" xmlns="http://www.w3.org/2000/svg">
<path d="M1 0.582031L1 96.582" stroke="#E8E8E8"/>
<path d="M11 0.582031L11 96.582" stroke="#E8E8E8"/>
<path d="M21 0.582031L21 96.582" stroke="#E8E8E8"/>
<path d="M31 0.582031L31 96.582" stroke="#E8E8E8"/>
<path d="M41 0.582031L41 96.582" stroke="#E8E8E8"/>
<path d="M51 0.582031L51 96.582" stroke="#E8E8E8"/>
<path d="M61 0.582031L61 96.582" stroke="#E8E8E8"/>
<path d="M71 0.582031L71 96.582" stroke="#E8E8E8"/>
<path d="M81 0.582031L81 96.582" stroke="#E8E8E8"/>
<path d="M91 0.582031L91 96.582" stroke="#E8E8E8"/>
<path d="M101 0.582031L101 96.582" stroke="#E8E8E8"/>
<path d="M111 0.582031L111 96.582" stroke="#E8E8E8"/>
<path d="M121 0.582031L121 96.582" stroke="#E8E8E8"/>
<path d="M131 0.582031L131 96.582" stroke="#E8E8E8"/>
<path d="M141 0.582031L141 96.582" stroke="#E8E8E8"/>
<path d="M151 0.582031L151 96.582" stroke="#E8E8E8"/>
<path d="M161 0.582031L161 96.582" stroke="#E8E8E8"/>
<path d="M171 0.582031L171 96.582" stroke="#E8E8E8"/>
<path d="M181 0.582031L181 96.582" stroke="#E8E8E8"/>
<path d="M191 0.582031L191 96.582" stroke="#E8E8E8"/>
<path d="M201 0.582031L201 96.582" stroke="#E8E8E8"/>
<path d="M211 0.582031L211 96.582" stroke="#E8E8E8"/>
<path d="M221 0.582031L221 96.582" stroke="#E8E8E8"/>
<path d="M231 0.582031L231 96.582" stroke="#E8E8E8"/>
<path d="M241 0.582031L241 96.582" stroke="#E8E8E8"/>
<path d="M251 0.582031L251 96.582" stroke="#E8E8E8"/>
<path d="M261 0.582031L261 96.582" stroke="#E8E8E8"/>
<path d="M271 0.582031L271 96.582" stroke="#E8E8E8"/>
<path d="M281 0.582031L281 96.582" stroke="#E8E8E8"/>
<path d="M291 0.582031L291 96.582" stroke="#E8E8E8"/>
<path d="M301 0.582031L301 96.582" stroke="#E8E8E8"/>
<path d="M311 0.582031L311 96.582" stroke="#E8E8E8"/>
<path d="M321 0.582031L321 96.582" stroke="#E8E8E8"/>
<path d="M331 0.582031L331 96.582" stroke="#E8E8E8"/>
<path d="M341 0.582031L341 96.582" stroke="#E8E8E8"/>
<path d="M351 0.582031L351 96.582" stroke="#E8E8E8"/>
<path d="M361 0.582031L361 96.582" stroke="#E8E8E8"/>
<path d="M371 0.582031L371 96.582" stroke="#E8E8E8"/>
<path d="M381 0.582031L381 96.582" stroke="#E8E8E8"/>
<path d="M391 0.582031L391 96.582" stroke="#E8E8E8"/>
<path d="M401 0.582031L401 96.582" stroke="#E8E8E8"/>
<path d="M411 0.582031L411 96.582" stroke="#E8E8E8"/>
<path d="M421 0.582031L421 96.582" stroke="#E8E8E8"/>
<path d="M431 0.582031L431 96.582" stroke="#E8E8E8"/>
<path d="M441 0.582031L441 96.582" stroke="#E8E8E8"/>
<path d="M451 0.582031L451 96.582" stroke="#E8E8E8"/>
<path d="M461 0.582031L461 96.582" stroke="#E8E8E8"/>
<path d="M471 0.582031L471 96.582" stroke="#E8E8E8"/>
<path d="M481 0.582031L481 96.582" stroke="#E8E8E8"/>
<path d="M491 0.582031L491 96.582" stroke="#E8E8E8"/>
<path d="M501 0.582031L501 96.582" stroke="#E8E8E8"/>
<path d="M511 0.582031L511 96.582" stroke="#E8E8E8"/>
<path d="M521 0.582031L521 96.582" stroke="#E8E8E8"/>
<path d="M531 0.582031L531 96.582" stroke="#E8E8E8"/>
<path d="M541 0.582031L541 96.582" stroke="#E8E8E8"/>
<path d="M551 0.582031L551 96.582" stroke="#E8E8E8"/>
<path d="M561 0.582031L561 96.582" stroke="#E8E8E8"/>
<path d="M571 0.582031L571 96.582" stroke="#E8E8E8"/>
<path d="M581 0.582031L581 96.582" stroke="#E8E8E8"/>
<path d="M591 0.582031L591 96.582" stroke="#E8E8E8"/>
<path d="M601 0.582031L601 96.582" stroke="#E8E8E8"/>
<path d="M611 0.582031L611 96.582" stroke="#E8E8E8"/>
<path d="M621 0.582031L621 96.582" stroke="#E8E8E8"/>
<path d="M631 0.582031L631 96.582" stroke="#E8E8E8"/>
<path d="M641 0.582031L641 96.582" stroke="#E8E8E8"/>
<path d="M651 0.582031L651 96.582" stroke="#E8E8E8"/>
<path d="M661 0.582031L661 96.582" stroke="#E8E8E8"/>
<path d="M671 0.582031L671 96.582" stroke="#E8E8E8"/>
<path d="M681 0.582031L681 96.582" stroke="#E8E8E8"/>
<path d="M691 0.582031L691 96.582" stroke="#E8E8E8"/>
<path d="M701 0.582031L701 96.582" stroke="#E8E8E8"/>
<path d="M711 0.582031L711 96.582" stroke="#E8E8E8"/>
<path d="M721 0.582031L721 96.582" stroke="#E8E8E8"/>
<path d="M731 0.582031L731 96.582" stroke="#E8E8E8"/>
<path d="M741 0.582031L741 96.582" stroke="#E8E8E8"/>
<path d="M751 0.582031L751 96.582" stroke="#E8E8E8"/>
<path d="M761 0.582031L761 96.582" stroke="#E8E8E8"/>
<path d="M771 0.582031L771 96.582" stroke="#E8E8E8"/>
<path d="M781 0.582031L781 96.582" stroke="#E8E8E8"/>
<path d="M791 0.582031L791 96.582" stroke="#E8E8E8"/>
<path d="M801 0.582031L801 96.582" stroke="#E8E8E8"/>
<path d="M811 0.582031L811 96.582" stroke="#E8E8E8"/>
<path d="M821 0.582031L821 96.582" stroke="#E8E8E8"/>
<path d="M831 0.582031L831 96.582" stroke="#E8E8E8"/>
<path d="M841 0.582031L841 96.582" stroke="#E8E8E8"/>
<path d="M851 0.582031L851 96.582" stroke="#E8E8E8"/>
<path d="M861 0.582031L861 96.582" stroke="#E8E8E8"/>
<path d="M871 0.582031L871 96.582" stroke="#E8E8E8"/>
<path d="M881 0.582031L881 96.582" stroke="#E8E8E8"/>
<path d="M891 0.582031L891 96.582" stroke="#E8E8E8"/>
<path d="M901 0.582031L901 96.582" stroke="#E8E8E8"/>
<path d="M911 0.582031L911 96.582" stroke="#E8E8E8"/>
<path d="M921 0.582031L921 96.582" stroke="#E8E8E8"/>
<path d="M931 0.582031L931 96.582" stroke="#E8E8E8"/>
<path d="M941 0.582031L941 96.582" stroke="#E8E8E8"/>
<path d="M951 0.582031L951 96.582" stroke="#E8E8E8"/>
<path d="M961 0.582031L961 96.582" stroke="#E8E8E8"/>
<path d="M971 0.582031L971 96.582" stroke="#E8E8E8"/>
<path d="M981 0.582031L981 96.582" stroke="#E8E8E8"/>
<path d="M991 0.582031L991 96.582" stroke="#E8E8E8"/>
<path d="M1001 0.582031L1001 96.582" stroke="#E8E8E8"/>
<path d="M1011 0.582031L1011 96.582" stroke="#E8E8E8"/>
<path d="M1021 0.582031L1021 96.582" stroke="#E8E8E8"/>
<path d="M1031 0.582031L1031 96.582" stroke="#E8E8E8"/>
<path d="M1041 0.582031L1041 96.582" stroke="#E8E8E8"/>
<path d="M1051 0.582031L1051 96.582" stroke="#E8E8E8"/>
<path d="M1061 0.582031L1061 96.582" stroke="#E8E8E8"/>
<path d="M1071 0.582031L1071 96.582" stroke="#E8E8E8"/>
<path d="M1081 0.582031L1081 96.582" stroke="#E8E8E8"/>
<path d="M1091 0.582031L1091 96.582" stroke="#E8E8E8"/>
<path d="M1101 0.582031L1101 96.582" stroke="#E8E8E8"/>
<path d="M1111 0.582031L1111 96.582" stroke="#E8E8E8"/>
<path d="M1121 0.582031L1121 96.582" stroke="#E8E8E8"/>
<path d="M1131 0.582031L1131 96.582" stroke="#E8E8E8"/>
<path d="M1141 0.582031L1141 96.582" stroke="#E8E8E8"/>
<path d="M1151 0.582031L1151 96.582" stroke="#E8E8E8"/>
<path d="M1161 0.582031L1161 96.582" stroke="#E8E8E8"/>
<path d="M1171 0.582031L1171 96.582" stroke="#E8E8E8"/>
<path d="M1181 0.582031L1181 96.582" stroke="#E8E8E8"/>
<path d="M1191 0.582031L1191 96.582" stroke="#E8E8E8"/>
<path d="M1201 0.582031L1201 96.582" stroke="#E8E8E8"/>
<path d="M1211 0.582031L1211 96.582" stroke="#E8E8E8"/>
<path d="M1221 0.582031L1221 96.582" stroke="#E8E8E8"/>
<path d="M1231 0.582031L1231 96.582" stroke="#E8E8E8"/>
<path d="M1241 0.582031L1241 96.582" stroke="#E8E8E8"/>
<path d="M1251 0.582031L1251 96.582" stroke="#E8E8E8"/>
<path d="M1261 0.582031L1261 96.582" stroke="#E8E8E8"/>
</svg>
