<svg width="24" height="25" viewBox="0 0 24 25" fill="none" xmlns="http://www.w3.org/2000/svg">
<path d="M21.959 14.0895V21.4685H17.681V14.5835C17.681 12.8535 17.062 11.6735 15.514 11.6735C14.332 11.6735 13.628 12.4695 13.319 13.2385C13.206 13.5135 13.177 13.8965 13.177 14.2815V21.4685H8.897C8.897 21.4685 8.955 9.80848 8.897 8.59948H13.177V10.4235L13.149 10.4655H13.177V10.4235C13.745 9.54848 14.76 8.29748 17.033 8.29748C19.848 8.29748 21.959 10.1375 21.959 14.0895ZM4.421 2.39648C2.958 2.39648 2 3.35648 2 4.61948C2 5.85448 2.93 6.84348 4.365 6.84348H4.393C5.886 6.84348 6.813 5.85448 6.813 4.61948C6.787 3.35648 5.887 2.39648 4.422 2.39648H4.421ZM2.254 21.4685H6.532V8.59948H2.254V21.4685Z" fill="#A3A3A3"/>
</svg>
