<svg width="24" height="25" viewBox="0 0 24 25" fill="none" xmlns="http://www.w3.org/2000/svg">
<path d="M22 6.27875C21.2504 6.60612 20.4565 6.82078 19.644 6.91575C20.4968 6.41498 21.138 5.62085 21.448 4.68175C20.64 5.15207 19.7587 5.48335 18.841 5.66175C18.4545 5.25695 17.9897 4.93513 17.4748 4.71592C16.9598 4.49672 16.4056 4.38471 15.846 4.38675C13.58 4.38675 11.743 6.19675 11.743 8.42675C11.743 8.74275 11.779 9.05175 11.849 9.34675C10.2236 9.26944 8.63212 8.85415 7.17617 8.12739C5.72022 7.40062 4.43176 6.37833 3.393 5.12575C3.02883 5.74015 2.83742 6.44153 2.839 7.15575C2.8397 7.82371 3.00683 8.48098 3.32529 9.06814C3.64375 9.6553 4.1035 10.1539 4.663 10.5187C4.01248 10.4977 3.37602 10.3241 2.805 10.0117V10.0617C2.805 12.0197 4.22 13.6527 6.095 14.0247C5.74261 14.1182 5.37958 14.1656 5.015 14.1657C4.75 14.1657 4.493 14.1407 4.242 14.0907C4.51008 14.8987 5.02311 15.6031 5.70982 16.1061C6.39653 16.6091 7.22284 16.8858 8.074 16.8977C6.61407 18.0223 4.82182 18.6298 2.979 18.6247C2.647 18.6247 2.321 18.6047 2 18.5687C3.88125 19.7595 6.06259 20.39 8.289 20.3867C15.836 20.3867 19.962 14.2297 19.962 8.89075L19.948 8.36775C20.7529 7.80142 21.4481 7.09359 22 6.27875Z" fill="#A3A3A3"/>
</svg>
